<svg width="403" height="138" viewBox="0 0 403 138" fill="none" xmlns="http://www.w3.org/2000/svg">
<g clip-path="url(#clip0_1844_1919)">
<path d="M3.02441 3.31348H403.024V134.313H3.02441V3.31348Z" fill="#FFDB2D"/>
<path d="M65.463 9.75386e-05C71.4512 -0.00685141 77.4396 0.357496 83.4269 1.09385L101.267 3.28818C107.161 4.01315 113.056 4.27118 118.949 4.06162L136.789 3.42686C142.766 3.21435 148.743 3.27348 154.72 3.60459L172.56 4.59287C178.46 4.91975 184.361 4.8381 190.262 4.34678L208.102 2.86143C214.072 2.36429 220.043 2.08251 226.014 2.0167L243.854 1.82041C249.835 1.75448 255.816 1.99909 261.797 2.55576L279.637 4.21689C285.501 4.76271 291.366 4.58228 297.232 3.6749L315.071 0.915137C321.113 -0.0194817 327.158 -0.0712047 333.2 0.759863L351.041 3.21299C356.906 4.01955 362.769 4.09238 368.633 3.43174L386.473 1.42197C389.57 1.07309 392.177 1.44384 394.167 2.69443C396.185 3.96244 397.41 6.03378 397.929 8.73838L400.813 23.7696C401.788 28.8524 402.264 34.3961 402.246 40.3966L402.193 58.2364C402.176 64.1549 402.408 70.0735 402.889 75.9923L404.337 93.8331C404.825 99.8474 404.631 105.294 403.738 110.165L401.118 124.469C400.643 127.065 399.453 129.117 397.507 130.521C395.584 131.908 393.024 132.588 389.93 132.667L372.09 133.12C366.166 133.271 360.242 133.621 354.317 134.172L336.477 135.83C330.511 136.385 324.545 136.766 318.579 136.972L300.739 137.587C294.74 137.794 288.74 137.525 282.741 136.78L264.901 134.565C259.011 133.833 253.121 133.607 247.232 133.885L229.392 134.726C223.45 135.006 217.509 135.334 211.567 135.71L193.728 136.837C187.755 137.215 181.783 137.363 175.811 137.281L157.971 137.037C152.021 136.956 146.072 136.848 140.122 136.713L122.282 136.309C116.323 136.174 110.364 135.926 104.404 135.566L86.5646 134.49C80.6732 134.135 74.7817 134.269 68.8897 134.892L51.0499 136.776C45.0602 137.409 39.0696 137.649 33.0792 137.494L15.2384 137.035C12.1149 136.955 9.55392 136.149 7.68662 134.496C5.81286 132.837 4.7685 130.441 4.4503 127.448L2.65147 110.523C2.04489 104.816 1.97986 98.9592 2.45518 92.9542L3.86729 75.1144C4.33531 69.2014 4.50464 63.2887 4.37412 57.3761L3.97959 39.5353C3.849 33.6203 3.43889 28.4185 2.75303 23.9249L0.670999 10.2843C0.323127 8.00515 0.107533 6.265 0.0313509 5.08311C-0.00610453 4.50193 -0.0134863 4.00382 0.0284212 3.629C0.0481383 3.45285 0.0869899 3.21789 0.188577 2.99912C0.282935 2.79606 0.585323 2.31376 1.21983 2.31357H2.42295C2.78165 2.31357 5.90215 2.1277 11.881 1.74521L29.7208 0.603613C35.6882 0.221864 41.6556 0.0275346 47.6231 0.0206054L65.463 9.75386e-05ZM47.6261 2.02061C41.7005 2.02748 35.7745 2.22063 29.8487 2.59971L12.0079 3.74131C6.09369 4.11966 2.86617 4.31357 2.42295 4.31357H2.00108C2.00318 4.48751 2.01105 4.69977 2.02744 4.9542C2.09778 6.04558 2.30248 7.71528 2.64854 9.98252L4.73057 23.6231C5.43257 28.2225 5.84762 33.5136 5.97959 39.4913L6.37315 57.3312C6.50517 63.3116 6.33478 69.2924 5.86143 75.2726L4.44932 93.1124C3.98324 99.0007 4.04687 104.733 4.63975 110.311L6.43955 127.236C6.72112 129.885 7.61341 131.759 9.0128 132.998C10.4186 134.243 12.4674 134.962 15.2901 135.035L33.13 135.495C39.0326 135.647 44.9357 135.412 50.839 134.788L68.6798 132.902C74.681 132.268 80.6828 132.132 86.6847 132.494L104.525 133.57C110.459 133.928 116.393 134.174 122.327 134.309L140.167 134.713C146.111 134.848 152.054 134.956 157.998 135.037L175.838 135.281C181.759 135.362 187.681 135.216 193.602 134.842L211.442 133.714C217.393 133.338 223.345 133.009 229.297 132.729L247.138 131.887C253.142 131.604 259.145 131.835 265.148 132.58L282.987 134.796C288.882 135.528 294.776 135.791 300.67 135.588L318.51 134.973C324.437 134.768 330.365 134.39 336.292 133.839L354.132 132.181C360.101 131.626 366.07 131.273 372.039 131.121L389.879 130.667C392.731 130.595 394.85 129.971 396.337 128.899C397.801 127.843 398.753 126.28 399.15 124.108L401.771 109.805C402.625 105.14 402.821 99.8728 402.344 93.9942L400.895 76.1544C400.409 70.18 400.176 64.2053 400.193 58.2306L400.246 40.3907C400.263 34.4981 399.795 29.0846 398.848 24.1466L395.964 9.11533C395.522 6.80954 394.539 5.29004 393.103 4.38779C391.639 3.46825 389.546 3.08822 386.696 3.40928L368.857 5.41904C362.827 6.09834 356.797 6.02356 350.769 5.19443L332.928 2.74131C327.077 1.9367 321.228 1.98663 315.377 2.8917L297.537 5.65146C291.51 6.58375 285.481 6.76922 279.452 6.20811L261.611 4.54795C255.699 3.99767 249.787 3.75427 243.875 3.81943L226.035 4.0167C220.113 4.08199 214.19 4.36144 208.268 4.85459L190.428 6.33994C184.435 6.83891 178.442 6.92193 172.449 6.58994L154.609 5.60166C148.693 5.2739 142.777 5.21553 136.86 5.42588L119.02 6.05967C113.02 6.27296 107.021 6.01125 101.023 5.27354L83.1827 3.0792C77.2767 2.35284 71.371 1.99326 65.4659 2.0001L47.6261 2.02061Z" fill="black"/>
<path d="M276.678 59.9541C276.358 59.9541 276.198 60.0181 276.198 60.1461C276.198 60.2741 275.494 60.4661 274.086 60.7221C272.678 60.9781 271.974 61.1701 271.974 61.2981C271.974 61.4261 271.686 61.5541 271.11 61.6821C270.086 61.8741 269.574 62.3221 269.574 63.0261C269.574 63.2181 269.638 63.6341 269.766 64.2741C269.894 64.8501 269.958 65.3301 269.958 65.7141C269.958 66.3541 270.214 68.0181 270.726 70.7061C271.302 73.3941 271.622 74.8661 271.686 75.1221C271.75 75.5701 271.846 75.9861 271.974 76.3701C272.102 76.7541 272.198 77.1701 272.262 77.6181C272.326 78.0661 272.358 78.7061 272.358 79.5381C272.358 81.2661 272.198 82.2581 271.878 82.5141C271.366 82.8341 271.014 82.9621 270.822 82.8981C270.502 82.8341 270.31 82.3221 270.246 81.3621C270.118 80.3381 269.99 79.7621 269.862 79.6341C269.734 79.5061 269.67 79.0901 269.67 78.3861C269.67 77.6821 269.574 77.2341 269.382 77.0421C269.318 76.9141 269.222 76.3381 269.094 75.3141C269.03 74.4821 268.742 73.3301 268.23 71.8581C267.782 70.3861 267.558 69.2981 267.558 68.5941C267.558 68.0821 267.462 67.7621 267.27 67.6341C267.142 67.5061 267.078 66.8981 267.078 65.8101C267.078 64.7861 266.95 63.8261 266.694 62.9301C266.566 62.4181 266.438 62.0981 266.31 61.9701C266.246 61.8421 266.054 61.7781 265.734 61.7781C265.35 61.7781 265.03 61.8421 264.774 61.9701C264.454 62.2901 263.11 62.5141 260.742 62.6421C259.974 62.7061 259.558 62.4821 259.494 61.9701C259.43 61.5221 259.59 61.1061 259.974 60.7221C260.422 60.3381 260.902 60.1461 261.414 60.1461C261.862 60.1461 262.31 60.0181 262.758 59.7621C263.206 59.5061 263.622 59.3461 264.006 59.2821C264.198 59.2821 264.454 59.2821 264.774 59.2821C265.158 59.2181 265.414 59.1541 265.542 59.0901C265.862 58.8981 266.086 58.5781 266.214 58.1301C266.15 58.1301 266.118 57.8741 266.118 57.3621V55.8261C266.118 55.3781 266.086 55.1541 266.022 55.1541C265.83 55.0261 265.734 54.0021 265.734 52.0821C265.734 50.1621 265.638 49.2021 265.446 49.2021C265.254 49.2021 265.158 48.4341 265.158 46.8981C265.158 46.3861 265.094 45.4261 264.966 44.0181C264.902 42.5461 264.87 41.4581 264.87 40.7541C264.87 39.9221 264.902 39.3461 264.966 39.0261C265.158 38.4501 265.478 38.1621 265.926 38.1621C266.246 38.1621 266.47 38.2581 266.598 38.4501C266.79 38.5781 266.918 38.8661 266.982 39.3141C267.11 39.6981 267.206 40.3381 267.27 41.2341C267.27 41.5541 267.878 46.8341 269.094 57.0741C269.222 58.0981 269.35 58.6741 269.478 58.8021C269.542 58.9301 269.83 58.9941 270.342 58.9941C270.918 58.9941 271.878 58.8981 273.222 58.7061C274.63 58.4501 275.462 58.3221 275.718 58.3221C276.166 58.3221 276.518 58.2581 276.774 58.1301C277.03 57.9381 277.286 57.8101 277.542 57.7461C278.054 57.5541 278.342 57.6821 278.406 58.1301C278.47 58.4501 278.278 58.8341 277.83 59.2821C277.446 59.7301 277.062 59.9541 276.678 59.9541Z" fill="black"/>
<path d="M230.191 79.2498C230.191 78.9938 230.095 78.7698 229.903 78.5778C229.775 78.3218 229.711 78.0978 229.711 77.9058C229.711 77.6498 229.647 77.3298 229.519 76.9458C228.687 75.3458 228.271 73.5218 228.271 71.4738C228.271 67.9538 228.527 66.1938 229.039 66.1938C229.231 66.1938 229.391 65.7458 229.519 64.8498C229.711 63.8898 229.839 62.8978 229.903 61.8738C230.031 60.7858 230.127 60.1778 230.191 60.0498C230.575 58.7698 231.055 58.0338 231.631 57.8418C232.975 57.3298 233.647 57.6498 233.647 58.8018C233.647 59.3778 233.743 59.6658 233.935 59.6658C234.383 59.6658 234.319 60.0818 233.743 60.9138C233.615 61.0418 233.487 61.1698 233.359 61.2978C232.847 61.7458 232.367 63.1538 231.919 65.5218C231.791 66.0338 231.663 66.6418 231.535 67.3458C231.471 68.0498 231.375 68.6258 231.247 69.0738C231.183 69.5218 231.119 69.8418 231.055 70.0338C230.927 70.5458 230.863 71.0258 230.863 71.4738C230.863 73.2658 231.183 74.7058 231.823 75.7938C232.143 76.4338 232.303 77.0418 232.303 77.6178C232.303 78.1938 232.399 78.4818 232.591 78.4818C232.783 78.4818 232.879 78.5778 232.879 78.7698C232.879 79.0898 233.231 79.5378 233.935 80.1138C234.639 80.6258 235.183 80.8818 235.567 80.8818C235.823 80.8818 235.951 80.9458 235.951 81.0738C235.951 81.2658 236.431 81.3618 237.391 81.3618C239.439 81.3618 240.463 81.0738 240.463 80.4978C240.463 80.3058 240.751 79.9218 241.327 79.3458C241.903 78.7058 242.383 77.6178 242.767 76.0818C243.151 74.4178 243.375 71.3778 243.439 66.9618C243.439 62.4818 243.503 60.1138 243.631 59.8578C243.695 59.6018 243.951 59.4418 244.399 59.3778C244.847 59.2498 245.167 59.2498 245.359 59.3778C246.191 59.8898 246.671 62.1618 246.799 66.1938C246.799 66.8978 246.895 67.8258 247.087 68.9778C247.343 70.1298 247.471 70.9938 247.471 71.5698C247.471 72.4018 247.567 73.0098 247.759 73.3938C248.079 74.0978 248.431 76.8818 248.815 81.7458C248.879 82.3858 248.911 83.0578 248.911 83.7618C248.911 84.2738 248.815 84.6578 248.623 84.9138C248.495 85.1058 248.239 85.2978 247.855 85.4898C247.471 85.6818 247.151 85.8098 246.895 85.8738C246.639 85.9378 246.479 85.9058 246.415 85.7778C246.415 85.6498 246.287 85.4578 246.031 85.2018C245.775 84.8818 245.711 84.5618 245.839 84.2418C246.031 83.9858 246.063 83.7938 245.935 83.6658C245.743 83.4738 245.711 82.5138 245.839 80.7858C245.839 80.4658 245.839 80.1138 245.839 79.7298C245.903 79.3458 245.935 79.1218 245.935 79.0578C245.935 78.3538 245.807 77.8738 245.551 77.6178C245.295 77.3618 245.167 77.4258 245.167 77.8098C245.167 78.2578 245.071 78.4818 244.879 78.4818C244.687 78.4818 244.591 78.6738 244.591 79.0578C244.591 79.3778 244.527 79.5378 244.399 79.5378C244.207 79.5378 244.111 79.6658 244.111 79.9218C244.111 80.1778 243.759 80.6258 243.055 81.2658C242.415 81.9058 241.743 82.4818 241.039 82.9938C240.335 83.5058 239.215 83.7618 237.679 83.7618H236.911C235.759 83.7618 234.831 83.6018 234.127 83.2818C233.487 82.8978 232.559 82.0978 231.343 80.8818C230.575 80.1138 230.191 79.5698 230.191 79.2498Z" fill="black"/>
<path d="M198.022 87.4105C198.022 87.5385 198.278 87.8905 198.79 88.4665C199.366 89.0425 199.654 89.3945 199.654 89.5225C199.654 89.6505 199.782 89.7145 200.038 89.7145C200.614 89.7145 201.158 89.9705 201.67 90.4825C202.246 91.0585 203.302 91.3465 204.838 91.3465C205.734 91.3465 206.598 91.2505 207.43 91.0585C208.326 90.8665 208.774 90.6745 208.774 90.4825C208.774 90.3545 208.87 90.2905 209.062 90.2905C209.254 90.2905 209.478 90.1625 209.734 89.9065C209.99 89.6505 210.118 89.4265 210.118 89.2345C210.118 89.1065 210.278 88.9785 210.598 88.8505C211.046 88.7225 211.59 88.2745 212.23 87.5065C212.87 86.7385 213.19 86.1625 213.19 85.7785C213.19 85.2025 213.51 84.4985 214.15 83.6665C214.342 83.4745 214.566 82.7065 214.822 81.3625C215.142 79.7625 215.302 78.1305 215.302 76.4665V73.8745V71.4745C215.302 69.4905 215.206 68.3065 215.014 67.9225C214.502 66.6425 214.118 65.5545 213.862 64.6585C213.606 63.7625 212.646 62.4505 210.982 60.7225C209.382 59.1225 208.454 58.3225 208.198 58.3225C207.942 58.3225 207.75 58.2585 207.622 58.1305C207.494 57.9385 206.95 57.8425 205.99 57.8425C205.03 57.8425 204.55 57.9385 204.55 58.1305C204.55 58.2585 204.454 58.3225 204.262 58.3225C204.07 58.3225 203.846 58.5145 203.59 58.8985C203.334 59.2825 203.142 59.5065 203.014 59.5705C202.694 59.6985 202.534 59.8265 202.534 59.9545C202.534 60.0825 202.278 60.1465 201.766 60.1465C201.382 60.1465 200.934 60.3385 200.422 60.7225C199.91 61.1065 199.654 61.4265 199.654 61.6825C199.654 61.8745 199.558 61.9705 199.366 61.9705C199.174 61.9705 199.078 62.1625 199.078 62.5465C199.078 62.8665 199.014 63.0265 198.886 63.0265C198.694 63.0265 198.598 63.2185 198.598 63.6025C198.598 63.9225 198.502 64.0825 198.31 64.0825C198.118 64.0825 198.022 64.2745 198.022 64.6585C198.022 64.9785 197.958 65.1385 197.83 65.1385C197.638 65.1385 197.542 65.5225 197.542 66.2905C197.542 67.0585 197.414 67.6985 197.158 68.2105C196.902 68.7225 196.774 69.1065 196.774 69.3625C196.774 69.6825 196.71 69.8425 196.582 69.8425C196.006 69.8425 195.718 72.1785 195.718 76.8505V77.8105C195.718 81.5865 195.91 83.4745 196.294 83.4745C196.422 83.4745 196.486 83.7305 196.486 84.2425C196.486 84.6265 196.646 85.2025 196.966 85.9705C197.35 86.7385 197.638 87.1225 197.83 87.1225C197.958 87.1225 198.022 87.2185 198.022 87.4105ZM195.43 64.9465C195.43 64.8185 195.59 64.3385 195.91 63.5065C196.294 62.6105 196.486 62.0665 196.486 61.8745C196.486 61.6185 196.582 61.4905 196.774 61.4905C196.902 61.4905 196.966 61.3625 196.966 61.1065C196.966 60.8505 197.062 60.7225 197.254 60.7225C197.446 60.7225 197.542 60.5945 197.542 60.3385C197.542 60.0825 197.862 59.6345 198.502 58.9945C199.27 58.2905 200.07 57.9065 200.902 57.8425C201.862 57.7785 202.598 57.4905 203.11 56.9785C203.622 56.4665 203.974 56.2105 204.166 56.2105C204.422 56.2105 204.614 56.1465 204.742 56.0185C204.87 55.8265 205.382 55.7305 206.278 55.7305C207.43 55.7305 208.326 55.8905 208.966 56.2105C209.606 56.5945 210.022 56.7865 210.214 56.7865C210.406 56.7865 210.566 56.9465 210.694 57.2665C210.822 57.5865 211.11 57.8425 211.558 58.0345C212.006 58.2265 212.55 58.6105 213.19 59.1865C213.894 59.7625 214.246 60.1145 214.246 60.2425C214.246 60.4345 214.47 60.7545 214.918 61.2025C216.198 62.6105 216.838 64.0185 216.838 65.4265C216.838 65.8105 216.934 66.1945 217.126 66.5785C217.318 66.8985 217.414 67.1865 217.414 67.4425C217.414 67.8265 217.51 68.0505 217.702 68.1145C217.83 68.2425 217.894 69.3305 217.894 71.3785C217.894 77.0745 217.734 80.3065 217.414 81.0745C217.222 81.8425 217.126 82.2905 217.126 82.4185C217.126 82.9305 217.062 83.1865 216.934 83.1865C216.742 83.1865 216.646 83.4745 216.646 84.0505C216.646 84.3705 216.454 84.7865 216.07 85.2985C215.75 85.7465 215.59 86.0985 215.59 86.3545C215.59 86.9945 215.142 87.7945 214.246 88.7545C213.734 89.3945 213.478 89.7785 213.478 89.9065C213.478 90.0345 213.35 90.1945 213.094 90.3865C212.902 90.5785 212.678 90.8025 212.422 91.0585L211.942 91.3465C211.11 92.1785 210.374 92.5945 209.734 92.5945C209.414 92.5945 209.254 92.6905 209.254 92.8825C209.254 93.0745 209.158 93.1705 208.966 93.1705C208.71 93.1705 208.55 93.2665 208.486 93.4585C208.422 93.8425 207.27 94.0345 205.03 94.0345C203.494 94.0345 202.438 93.9065 201.862 93.6505C200.39 93.2665 199.654 92.9145 199.654 92.5945C199.654 92.4665 199.558 92.4025 199.366 92.4025C199.11 92.4025 198.502 91.9545 197.542 91.0585C196.646 90.0985 196.07 89.3625 195.814 88.8505C195.686 88.5305 195.462 88.2105 195.142 87.8905C195.014 87.8265 194.758 87.3785 194.374 86.5465C194.054 85.6505 193.894 85.1065 193.894 84.9145C193.894 84.6585 193.798 84.5305 193.606 84.5305C193.478 84.5305 193.222 83.3785 192.838 81.0745C192.71 80.4345 192.646 79.3145 192.646 77.7145C192.646 74.9625 192.902 73.0105 193.414 71.8585C193.542 71.4745 193.606 71.1225 193.606 70.8025C193.606 70.3545 193.702 70.1305 193.894 70.1305C194.022 70.1305 194.086 69.7465 194.086 68.9785C194.086 68.5945 194.214 68.1465 194.47 67.6345C194.79 67.0585 194.95 66.6105 194.95 66.2905C194.95 65.9705 195.014 65.7145 195.142 65.5225C195.334 65.3305 195.43 65.1385 195.43 64.9465Z" fill="black"/>
<path d="M174.56 62.8335C174.304 62.8335 174.048 62.7375 173.792 62.5455C173.6 62.3535 173.408 62.2575 173.216 62.2575C172.96 62.2575 172.832 62.3535 172.832 62.5455C172.832 62.7375 172.576 62.8335 172.064 62.8335C171.744 62.8335 171.392 63.0255 171.008 63.4095C170.688 63.7295 170.4 63.8895 170.144 63.8895C169.888 63.8895 169.664 64.1135 169.472 64.5615C169.28 64.9455 169.12 65.1375 168.992 65.1375C168.8 65.1375 168.576 65.3295 168.32 65.7135C168.128 66.0335 167.968 66.2255 167.84 66.2895C167.456 66.4175 167.264 66.6095 167.264 66.8655C167.264 67.1215 167.2 67.2495 167.072 67.2495C166.88 67.2495 166.784 67.3455 166.784 67.5375C166.784 67.7295 166.56 68.0495 166.112 68.4975C165.472 69.1375 164.896 70.0335 164.384 71.1855C164.256 71.5055 164.192 71.8895 164.192 72.3375C164.192 72.7855 164.256 73.0095 164.384 73.0095C164.512 73.0095 164.576 73.8415 164.576 75.5055C164.576 77.1695 164.64 78.0015 164.768 78.0015C164.896 78.0015 164.928 78.0975 164.864 78.2895C164.8 78.4175 164.8 78.4815 164.864 78.4815C164.992 78.4815 165.056 78.6735 165.056 79.0575C165.056 79.3775 165.056 79.7295 165.056 80.1135C165.056 80.4335 165.088 80.6255 165.152 80.6895C165.344 80.8175 165.44 81.1375 165.44 81.6495C165.44 82.1615 165.536 82.4175 165.728 82.4175C165.92 82.4175 166.016 82.5455 166.016 82.8015C166.016 83.0575 166.304 83.1855 166.88 83.1855C167.52 83.1215 167.872 83.1535 167.936 83.2815C167.936 83.4095 168.448 83.4735 169.472 83.4735C170.432 83.4735 170.944 83.4095 171.008 83.2815L171.872 82.9935C172.512 82.8015 173.12 82.6415 173.696 82.5135C174.272 82.3215 174.56 82.1935 174.56 82.1295C174.688 82.0015 174.88 81.9375 175.136 81.9375C175.52 81.9375 175.712 81.8415 175.712 81.6495C175.712 81.4575 175.84 81.3615 176.096 81.3615C176.352 81.3615 176.608 81.2335 176.864 80.9775C177.12 80.7215 177.248 80.4975 177.248 80.3055C177.248 80.1135 177.408 79.9215 177.728 79.7295C178.432 79.1535 178.784 78.4815 178.784 77.7135C178.784 77.5215 178.88 77.3295 179.072 77.1375C179.392 77.0095 179.552 75.0895 179.552 71.3775C179.552 70.0335 179.488 69.2335 179.36 68.9775L179.168 68.4015C178.976 67.9535 178.784 67.5695 178.592 67.2495C178.464 66.8655 178.368 66.6735 178.304 66.6735C178.112 66.6735 178.016 66.5135 178.016 66.1935C178.016 65.8735 177.952 65.7135 177.824 65.7135C177.696 65.7135 177.568 65.4895 177.44 65.0415C177.312 64.4655 176.928 63.9535 176.288 63.5055C175.712 63.0575 175.136 62.8335 174.56 62.8335ZM176 83.8575C175.808 84.1135 175.616 84.2415 175.424 84.2415C175.232 84.2415 175.008 84.3375 174.752 84.5295C174.496 84.7215 174.272 84.8175 174.08 84.8175C173.76 84.8175 173.6 84.8815 173.6 85.0095C173.6 85.3935 172.512 85.5855 170.336 85.5855C169.312 85.5855 168.064 85.5215 166.592 85.3935C165.184 85.2655 164.48 85.1375 164.48 85.0095C164.48 84.8815 164.224 84.8175 163.712 84.8175C163.2 84.8175 162.816 84.6255 162.56 84.2415C162.368 83.9215 162.144 83.7615 161.888 83.7615C161.568 83.7615 161.344 83.4415 161.216 82.8015C161.152 82.1615 161.216 81.6815 161.408 81.3615C161.664 80.9135 161.792 80.1135 161.792 78.9615C161.792 78.1935 161.728 77.3295 161.6 76.3695C161.536 75.4095 161.44 74.6095 161.312 73.9695C161.184 73.3295 161.088 73.0095 161.024 73.0095C160.832 73.0095 160.736 72.7535 160.736 72.2415C160.736 71.7935 160.64 71.3775 160.448 70.9935C160.32 70.5455 160.224 70.0655 160.16 69.5535C159.2 62.0655 158.72 54.6095 158.72 47.1855V45.2655C158.72 41.7455 158.624 39.6335 158.432 38.9295C158.24 38.2895 158.24 37.6495 158.432 37.0095C158.56 36.5615 158.656 36.3055 158.72 36.2415C158.848 36.1775 159.168 36.1455 159.68 36.1455C160.256 36.1455 160.608 36.2735 160.736 36.5295C160.928 36.7855 161.056 37.5535 161.12 38.8335C161.376 41.1375 161.568 45.4575 161.696 51.7935C161.76 54.8015 161.824 57.3615 161.888 59.4735C162.016 61.5215 162.08 63.0255 162.08 63.9855C162.08 64.6895 162.144 65.2655 162.272 65.7135C162.464 66.1615 162.56 66.5775 162.56 66.9615C162.56 67.2815 162.624 67.5055 162.752 67.6335C162.88 67.7615 163.04 67.7615 163.232 67.6335C163.424 67.5055 163.648 67.2815 163.904 66.9615C164.416 66.3215 164.832 65.8415 165.152 65.5215L165.728 64.7535C165.728 64.6895 165.856 64.5295 166.112 64.2735C166.368 64.0175 166.56 63.8895 166.688 63.8895L168.032 62.6415C168.928 61.8735 169.408 61.4895 169.472 61.4895C169.6 61.4895 169.664 61.3935 169.664 61.2015C169.664 61.0735 169.888 61.0095 170.336 61.0095C170.784 61.0095 171.008 60.9135 171.008 60.7215C171.008 60.5295 171.2 60.4335 171.584 60.4335C172.032 60.4335 172.256 60.3375 172.256 60.1455C172.256 60.0175 172.736 59.9535 173.696 59.9535C174.656 59.9535 175.136 60.0175 175.136 60.1455C175.136 60.3375 175.36 60.4335 175.808 60.4335C176.128 60.4335 176.352 60.4975 176.48 60.6255C176.544 60.6895 176.8 60.8495 177.248 61.1055C177.696 61.3615 178.112 61.6175 178.496 61.8735C178.88 62.1295 179.072 62.3215 179.072 62.4495C179.072 62.7055 179.168 62.8335 179.36 62.8335C179.424 62.8335 179.584 63.0895 179.84 63.6015C180.096 64.1135 180.288 64.3695 180.416 64.3695C180.544 64.3695 180.608 64.5295 180.608 64.8495L181.088 66.2895C181.856 67.9535 182.24 70.8335 182.24 74.9295C182.24 75.7615 182.176 76.3695 182.048 76.7535C181.92 77.0095 181.696 77.4895 181.376 78.1935C180.544 80.3055 179.392 81.8095 177.92 82.7055C177.024 83.2175 176.544 83.4735 176.48 83.4735C176.352 83.4735 176.192 83.6015 176 83.8575Z" fill="black"/>
<path d="M134.169 46.8019C134.169 46.6739 133.913 46.0659 133.401 44.9779C132.889 43.8899 132.633 43.2499 132.633 43.0579C132.633 42.8019 132.537 42.6739 132.345 42.6739C132.217 42.6739 132.057 42.4819 131.865 42.0979C131.673 41.7139 131.481 41.2979 131.289 40.8499C131.161 40.3379 131.065 40.0499 131.001 39.9859C130.937 39.7299 130.841 39.6019 130.713 39.6019C130.521 39.6019 130.297 40.1139 130.041 41.1379C129.785 42.1619 129.529 43.2179 129.273 44.3059C129.081 45.3299 128.953 45.8739 128.889 45.9379C128.697 46.0659 128.345 46.6419 127.833 47.6659C127.385 48.6259 127.161 49.2019 127.161 49.3939C127.161 49.7779 126.713 51.2179 125.817 53.7139C124.985 56.1459 124.505 57.3939 124.377 57.4579C124.185 57.5859 124.089 57.8419 124.089 58.2259C124.089 58.6739 123.897 59.2819 123.513 60.0499C122.873 61.3939 122.297 62.7059 121.785 63.9859C121.145 65.9059 120.697 67.0259 120.441 67.3459C120.249 67.6659 120.153 68.0819 120.153 68.5939C120.153 68.9779 120.377 69.1379 120.825 69.0739C120.889 69.0739 121.497 69.0099 122.649 68.8819C123.801 68.7539 124.921 68.6259 126.009 68.4979C127.161 68.3699 127.737 68.2739 127.737 68.2099C127.737 68.0179 129.369 67.6979 132.633 67.2499C132.761 67.2499 134.265 67.0579 137.145 66.6739L140.025 66.2899C139.833 65.8419 139.577 64.7219 139.257 62.9299C138.937 61.2659 138.713 60.3379 138.585 60.1459C138.521 60.0819 138.393 59.7619 138.201 59.1859C138.073 58.6099 137.945 58.0659 137.817 57.5539C137.689 56.9779 137.593 56.6899 137.529 56.6899C137.465 56.6899 137.209 55.8899 136.761 54.2899C136.313 52.6259 136.025 51.7939 135.897 51.7939C135.833 51.7939 135.737 51.5059 135.609 50.9299C135.161 48.4339 134.745 47.1859 134.361 47.1859C134.233 47.1859 134.169 47.0579 134.169 46.8019ZM143.673 82.3219C143.673 81.8099 143.545 81.2339 143.289 80.5939C143.097 79.9539 143.001 79.4099 143.001 78.9619C143.001 78.3219 142.905 77.9699 142.713 77.9059C142.585 77.8419 142.425 76.9779 142.233 75.3139C142.041 73.5859 141.913 72.6899 141.849 72.6259C141.145 71.4099 140.793 70.3219 140.793 69.3619V68.4979L139.065 68.6899C138.297 68.7539 137.593 68.9139 136.953 69.1699C136.377 69.4259 135.449 69.5859 134.169 69.6499C132.313 69.7779 131.385 69.9059 131.385 70.0339C131.385 70.4819 128.697 70.8659 123.321 71.1859L118.809 71.4739L118.425 72.8179C118.105 73.7139 117.881 74.2259 117.753 74.3539C117.625 74.4179 117.369 74.9939 116.985 76.0819C116.665 77.1059 116.505 77.7779 116.505 78.0979C116.505 78.5459 116.409 78.8979 116.217 79.1539C116.025 79.5379 115.705 80.9459 115.257 83.3779C114.809 85.7459 114.585 87.3139 114.585 88.0819C114.585 89.0419 114.489 89.5219 114.297 89.5219C114.105 89.5219 114.009 90.1619 114.009 91.4419C114.009 92.5939 113.913 93.5219 113.721 94.2259C113.593 94.9299 113.369 95.6659 113.049 96.4339C112.793 97.1379 112.569 97.8739 112.377 98.6419C112.057 100.05 111.641 100.85 111.129 101.042C110.425 101.17 109.945 101.138 109.689 100.946C109.497 100.754 109.433 100.306 109.497 99.602C109.625 98.77 109.817 98.2899 110.073 98.1619C110.265 98.0339 110.361 97.8099 110.361 97.4899C110.361 97.0419 110.521 96.4979 110.841 95.8579C111.161 95.2179 111.321 94.1939 111.321 92.7859C111.321 91.4419 111.385 90.7059 111.513 90.5779C111.705 90.3859 111.929 88.8819 112.185 86.0659C112.441 83.2499 112.633 81.8099 112.761 81.7459C113.017 81.6179 113.145 81.2659 113.145 80.6899C113.145 80.1139 113.209 79.8259 113.337 79.8259C113.401 79.8259 113.497 79.5379 113.625 78.9619C113.817 78.3219 114.009 77.6499 114.201 76.9459C114.393 76.2419 114.521 75.8259 114.585 75.6979C114.905 74.9299 115.449 73.4899 116.217 71.3779C117.049 69.2019 117.561 67.8579 117.753 67.3459C118.457 65.4899 118.937 64.3379 119.193 63.8899C119.385 63.5699 119.481 63.1859 119.481 62.7379C119.481 62.3539 119.609 62.0339 119.865 61.7779C120.185 61.4579 120.921 59.8899 122.073 57.0739C122.585 55.6659 122.841 54.8659 122.841 54.6739C122.841 54.3539 122.937 54.1939 123.129 54.1939C123.193 54.1939 123.321 53.9379 123.513 53.4259C123.705 52.9139 123.897 52.3699 124.089 51.7939C124.281 51.2179 124.377 50.8979 124.377 50.8339C124.697 50.2579 125.081 48.8819 125.529 46.7059C125.593 46.3219 125.785 45.9379 126.105 45.5539C126.425 45.1699 126.617 44.7539 126.681 44.3059C126.745 43.9219 126.873 43.5699 127.065 43.2499C127.321 42.8659 127.449 42.4179 127.449 41.9059C127.449 41.1379 127.545 40.7219 127.737 40.6579C127.865 40.5299 127.993 39.7939 128.121 38.4499C128.249 37.1059 128.473 36.2099 128.793 35.7619C129.241 34.9939 130.041 35.0259 131.193 35.8579C132.537 36.9459 133.209 38.0659 133.209 39.2179C133.209 39.3459 133.305 39.4739 133.497 39.6019C134.201 39.9219 135.577 43.1219 137.625 49.2019C137.817 49.7779 137.977 50.2899 138.105 50.7379C138.297 51.1219 138.457 51.4099 138.585 51.6019C138.713 51.7939 138.809 52.0499 138.873 52.3699C138.937 52.6899 138.969 53.0739 138.969 53.5219C138.969 54.3539 139.129 54.9939 139.449 55.4419C139.769 55.8899 139.929 56.3699 139.929 56.8819C139.929 57.3299 140.025 57.5539 140.217 57.5539C140.345 57.5539 140.505 58.0019 140.697 58.8979C140.889 59.7299 141.081 60.6899 141.273 61.7779C141.465 62.8019 141.625 63.4419 141.753 63.6979C141.945 64.0179 142.041 64.4339 142.041 64.9459C142.041 65.4579 142.201 66.1299 142.521 66.9619C143.289 69.0739 143.801 71.2179 144.057 73.3939C144.121 73.9699 144.249 74.5459 144.441 75.1219C144.697 75.6339 144.857 76.2419 144.921 76.9459C145.113 78.8659 145.497 80.4659 146.073 81.7459C146.393 82.4499 146.745 84.3379 147.129 87.4099C147.193 87.7939 147.289 88.3059 147.417 88.9459C147.609 89.5219 147.705 90.2579 147.705 91.1539C147.641 92.8819 147.033 93.7779 145.881 93.8419C145.433 93.9059 144.889 93.9379 144.249 93.9379C143.417 93.9379 142.841 93.8099 142.521 93.5539C142.201 93.2339 142.041 92.6899 142.041 91.9219C142.041 91.2179 142.137 90.8339 142.329 90.7699C142.521 90.6419 142.937 90.8019 143.577 91.2499C144.345 91.7619 144.793 92.0179 144.921 92.0179C145.113 92.0179 145.145 91.1539 145.017 89.4259C144.825 87.5059 144.441 85.7779 143.865 84.2419C143.737 83.8579 143.673 83.2179 143.673 82.3219Z" fill="black"/>
</g>
<defs>
<clipPath id="clip0_1844_1919">
<rect width="403" height="138" fill="white"/>
</clipPath>
</defs>
</svg>
