<svg width="403" height="138" viewBox="0 0 403 138" fill="none" xmlns="http://www.w3.org/2000/svg">
<g clip-path="url(#clip0_1844_1920)">
<path d="M3.02441 3.31348H403.024V134.313H3.02441V3.31348Z" fill="#FFDB2D"/>
<path d="M65.463 9.75386e-05C71.4512 -0.00685141 77.4396 0.357496 83.4269 1.09385L101.267 3.28818C107.161 4.01315 113.056 4.27118 118.949 4.06162L136.789 3.42686C142.766 3.21435 148.743 3.27348 154.72 3.60459L172.56 4.59287C178.46 4.91975 184.361 4.8381 190.262 4.34678L208.102 2.86143C214.072 2.36429 220.043 2.08251 226.014 2.0167L243.854 1.82041C249.835 1.75448 255.816 1.99909 261.797 2.55576L279.637 4.21689C285.501 4.76271 291.366 4.58228 297.232 3.6749L315.071 0.915137C321.113 -0.0194817 327.158 -0.0712047 333.2 0.759863L351.041 3.21299C356.906 4.01955 362.769 4.09238 368.633 3.43174L386.473 1.42197C389.57 1.07309 392.177 1.44384 394.167 2.69443C396.185 3.96244 397.41 6.03378 397.929 8.73838L400.813 23.7696C401.788 28.8524 402.264 34.3961 402.246 40.3966L402.193 58.2364C402.176 64.1549 402.408 70.0735 402.889 75.9923L404.337 93.8331C404.825 99.8474 404.631 105.294 403.738 110.165L401.118 124.469C400.643 127.065 399.453 129.117 397.507 130.521C395.584 131.908 393.024 132.588 389.93 132.667L372.09 133.12C366.166 133.271 360.242 133.621 354.317 134.172L336.477 135.83C330.511 136.385 324.545 136.766 318.579 136.972L300.739 137.587C294.74 137.794 288.74 137.525 282.741 136.78L264.901 134.565C259.011 133.833 253.121 133.607 247.232 133.885L229.392 134.726C223.45 135.006 217.509 135.334 211.567 135.71L193.728 136.837C187.755 137.215 181.783 137.363 175.811 137.281L157.971 137.037C152.021 136.956 146.072 136.848 140.122 136.713L122.282 136.309C116.323 136.174 110.364 135.926 104.404 135.566L86.5646 134.49C80.6732 134.135 74.7817 134.269 68.8897 134.892L51.0499 136.776C45.0602 137.409 39.0696 137.649 33.0792 137.494L15.2384 137.035C12.1149 136.955 9.55392 136.149 7.68662 134.496C5.81286 132.837 4.7685 130.441 4.4503 127.448L2.65147 110.523C2.04489 104.816 1.97986 98.9592 2.45518 92.9542L3.86729 75.1144C4.33531 69.2014 4.50464 63.2887 4.37412 57.3761L3.97959 39.5353C3.849 33.6203 3.43889 28.4185 2.75303 23.9249L0.670999 10.2843C0.323127 8.00515 0.107533 6.265 0.0313509 5.08311C-0.00610453 4.50193 -0.0134863 4.00382 0.0284212 3.629C0.0481383 3.45285 0.0869899 3.21789 0.188577 2.99912C0.282935 2.79606 0.585323 2.31376 1.21983 2.31357H2.42295C2.78165 2.31357 5.90215 2.1277 11.881 1.74521L29.7208 0.603613C35.6882 0.221864 41.6556 0.0275346 47.6231 0.0206054L65.463 9.75386e-05ZM47.6261 2.02061C41.7005 2.02748 35.7745 2.22063 29.8487 2.59971L12.0079 3.74131C6.09369 4.11966 2.86617 4.31357 2.42295 4.31357H2.00108C2.00318 4.48751 2.01105 4.69977 2.02744 4.9542C2.09778 6.04558 2.30248 7.71528 2.64854 9.98252L4.73057 23.6231C5.43257 28.2225 5.84762 33.5136 5.97959 39.4913L6.37315 57.3312C6.50517 63.3116 6.33478 69.2924 5.86143 75.2726L4.44932 93.1124C3.98324 99.0007 4.04687 104.733 4.63975 110.311L6.43955 127.236C6.72112 129.885 7.61341 131.759 9.0128 132.998C10.4186 134.243 12.4674 134.962 15.2901 135.035L33.13 135.495C39.0326 135.647 44.9357 135.412 50.839 134.788L68.6798 132.902C74.681 132.268 80.6828 132.132 86.6847 132.494L104.525 133.57C110.459 133.928 116.393 134.174 122.327 134.309L140.167 134.713C146.111 134.848 152.054 134.956 157.998 135.037L175.838 135.281C181.759 135.362 187.681 135.216 193.602 134.842L211.442 133.714C217.393 133.338 223.345 133.009 229.297 132.729L247.138 131.887C253.142 131.604 259.145 131.835 265.148 132.58L282.987 134.796C288.882 135.528 294.776 135.791 300.67 135.588L318.51 134.973C324.437 134.768 330.365 134.39 336.292 133.839L354.132 132.181C360.101 131.626 366.07 131.273 372.039 131.121L389.879 130.667C392.731 130.595 394.85 129.971 396.337 128.899C397.801 127.843 398.753 126.28 399.15 124.108L401.771 109.805C402.625 105.14 402.821 99.8728 402.344 93.9942L400.895 76.1544C400.409 70.18 400.176 64.2053 400.193 58.2306L400.246 40.3907C400.263 34.4981 399.795 29.0846 398.848 24.1466L395.964 9.11533C395.522 6.80954 394.539 5.29004 393.103 4.38779C391.639 3.46825 389.546 3.08822 386.696 3.40928L368.857 5.41904C362.827 6.09834 356.797 6.02356 350.769 5.19443L332.928 2.74131C327.077 1.9367 321.228 1.98663 315.377 2.8917L297.537 5.65146C291.51 6.58375 285.481 6.76922 279.452 6.20811L261.611 4.54795C255.699 3.99767 249.787 3.75427 243.875 3.81943L226.035 4.0167C220.113 4.08199 214.19 4.36144 208.268 4.85459L190.428 6.33994C184.435 6.83891 178.442 6.92193 172.449 6.58994L154.609 5.60166C148.693 5.2739 142.777 5.21553 136.86 5.42588L119.02 6.05967C113.02 6.27296 107.021 6.01125 101.023 5.27354L83.1827 3.0792C77.2767 2.35284 71.371 1.99326 65.4659 2.0001L47.6261 2.02061Z" fill="black"/>
<path d="M352.764 64.6576C352.764 64.4656 352.829 64.2736 352.957 64.0816C353.149 63.8256 353.245 63.5696 353.245 63.3136C353.245 62.9936 353.341 62.8336 353.533 62.8336C353.725 62.8336 353.82 62.6416 353.82 62.2576C353.82 61.9376 353.917 61.7776 354.109 61.7776C354.237 61.7776 354.301 61.6496 354.301 61.3936C354.301 61.2656 354.397 61.0736 354.589 60.8176C354.845 60.4976 355.101 60.2096 355.357 59.9536C355.613 59.6336 355.773 59.4416 355.837 59.3776C356.029 59.0576 356.668 58.5456 357.757 57.8416C358.845 57.1376 359.516 56.7856 359.772 56.7856C360.092 56.7856 360.381 56.6576 360.637 56.4016C360.829 56.1456 361.372 56.0176 362.268 56.0176C363.228 56.0176 364.188 56.1456 365.148 56.4016C366.108 56.6576 366.589 56.9776 366.589 57.3616C366.589 57.4896 366.749 57.7136 367.069 58.0336C367.453 58.2896 367.645 58.5136 367.645 58.7056C367.645 58.9616 367.74 59.0896 367.932 59.0896C368.124 59.0896 368.221 59.5056 368.221 60.3376C368.221 61.1056 368.093 61.4896 367.837 61.4896C367.581 61.4896 367.229 61.3936 366.781 61.2016C366.333 60.9456 366.109 60.7536 366.109 60.6256C366.109 60.4976 365.981 60.4336 365.725 60.4336C365.533 60.4336 365.149 60.1456 364.573 59.5696C363.997 58.9936 363.484 58.6416 363.036 58.5136C362.972 58.5136 362.844 58.5136 362.652 58.5136C362.524 58.4496 362.396 58.4176 362.268 58.4176C361.5 58.4176 360.765 58.5456 360.061 58.8016C359.357 59.0576 359.005 59.3136 359.005 59.5696C359.005 59.8256 358.941 59.9536 358.812 59.9536C358.62 59.9536 358.525 60.1456 358.525 60.5296C358.525 61.0416 358.333 61.3296 357.949 61.3936C357.565 61.5216 357.085 61.8736 356.509 62.4496C355.229 63.7296 354.589 65.7776 354.589 68.5936C354.589 69.3616 354.717 70.2576 354.973 71.2816C355.229 72.2416 355.453 72.7216 355.645 72.7216C355.773 72.7216 355.996 72.9136 356.316 73.2976C356.7 73.6176 356.893 73.8416 356.893 73.9696C356.893 74.0976 357.052 74.1616 357.372 74.1616C357.756 74.0976 357.949 74.1296 357.949 74.2576C357.949 74.4496 358.717 74.7376 360.253 75.1216C361.789 75.5056 363.42 75.8896 365.148 76.2736C366.876 76.5936 367.901 76.8176 368.221 76.9456C369.373 77.5856 370.365 78.4816 371.197 79.6336C372.093 80.7856 372.605 81.9376 372.733 83.0896C372.733 83.1536 372.733 83.2816 372.733 83.4736C372.797 83.6656 372.829 83.8256 372.829 83.9536C372.829 85.8096 372.541 87.0256 371.965 87.6016C371.709 87.8576 371.581 88.0816 371.581 88.2736C371.581 88.4016 371.357 88.7536 370.909 89.3296C370.781 89.4576 370.589 89.7136 370.333 90.0976C370.141 90.4176 369.916 90.7056 369.66 90.9616C369.468 91.2176 369.277 91.3456 369.085 91.3456C368.893 91.3456 368.636 91.5376 368.316 91.9216C368.06 92.2416 367.869 92.4016 367.741 92.4016C367.485 92.4016 367.357 92.4656 367.357 92.5936C367.357 92.7856 367.196 92.8816 366.876 92.8816C366.556 92.8816 366.332 92.9456 366.204 93.0736C366.14 93.1376 365.373 93.3616 363.901 93.7456C362.429 94.0656 361.532 94.2256 361.212 94.2256H361.117C361.117 94.0976 360.7 94.0336 359.868 94.0336C358.076 94.0336 357.181 93.7776 357.181 93.2656C357.181 93.0096 357.053 92.8816 356.797 92.8816C356.413 92.8816 355.869 92.4016 355.165 91.4416C354.461 90.4816 354.109 89.7456 354.109 89.2336C354.109 88.7856 354.205 88.4016 354.397 88.0816C354.653 87.6976 354.877 87.5056 355.069 87.5056C355.325 87.5056 355.484 87.6976 355.548 88.0816C355.676 88.4656 355.804 88.6576 355.932 88.6576C356.06 88.6576 356.125 88.8496 356.125 89.2336C356.125 89.5536 356.221 89.7136 356.413 89.7136C356.477 89.7136 356.605 89.9056 356.797 90.2896C357.053 90.6096 357.277 90.7696 357.469 90.7696C357.789 90.7696 357.949 90.8656 357.949 91.0576C357.949 91.2496 358.173 91.3456 358.621 91.3456C359.069 91.3456 359.325 91.4096 359.389 91.5376C359.517 91.7296 360.252 91.8256 361.596 91.8256C363.004 91.8256 363.708 91.7296 363.708 91.5376C363.708 91.4096 363.965 91.3456 364.477 91.3456C364.861 91.3456 365.149 91.2496 365.341 91.0576C365.597 90.8656 365.853 90.7696 366.109 90.7696C366.429 90.7696 366.589 90.6416 366.589 90.3856C366.589 90.1296 366.717 90.0016 366.973 90.0016C367.101 90.0016 367.292 89.8736 367.548 89.6176C367.804 89.3616 368.06 89.0736 368.316 88.7536C368.572 88.4336 368.733 88.2416 368.797 88.1776C369.117 87.9856 369.277 87.6976 369.277 87.3136C369.277 86.9936 369.404 86.8336 369.66 86.8336C369.916 86.8336 370.044 86.6096 370.044 86.1616C370.044 85.7776 370.109 85.5856 370.237 85.5856C370.429 85.5856 370.525 85.2336 370.525 84.5296C370.525 83.8256 370.429 83.4736 370.237 83.4736C370.109 83.4736 370.044 83.3136 370.044 82.9936C370.044 82.7376 369.948 82.5136 369.757 82.3216C369.564 82.1296 369.469 81.9376 369.469 81.7456C369.469 81.4896 369.213 81.1056 368.701 80.5936C368.253 80.0816 367.901 79.8256 367.645 79.8256C367.453 79.8256 367.133 79.6656 366.685 79.3456C366.237 79.0256 365.533 78.8016 364.573 78.6736C361.245 78.3536 358.492 77.6816 356.316 76.6576C355.484 76.2736 354.685 75.6656 353.917 74.8336C353.149 74.0016 352.764 73.3296 352.764 72.8176C352.764 72.5616 352.669 72.3056 352.477 72.0496C352.285 71.7296 352.189 71.3776 352.189 70.9936C352.189 70.4176 352.125 70.1296 351.997 70.1296C351.805 70.1296 351.708 69.6496 351.708 68.6896C351.708 67.7296 351.805 67.2496 351.997 67.2496C352.125 67.2496 352.189 66.8976 352.189 66.1936C352.189 65.4896 352.285 65.1376 352.477 65.1376C352.669 65.1376 352.764 64.9776 352.764 64.6576Z" fill="black"/>
<path d="M329.47 59.2822C329.47 59.0902 329.15 58.7382 328.51 58.2262C327.934 57.7142 327.646 57.4262 327.646 57.3622C327.646 57.2342 327.486 57.1702 327.166 57.1702C326.782 57.1702 326.59 57.2342 326.59 57.3622C326.59 57.5542 326.334 57.6502 325.822 57.6502C324.99 57.6502 324.446 58.0662 324.19 58.8982C323.934 59.6662 323.294 60.4022 322.27 61.1062C321.886 61.3622 321.598 61.7462 321.406 62.2582C321.342 62.3862 321.086 62.7062 320.638 63.2182C320.254 63.7302 320.062 64.1462 320.062 64.4662C320.062 64.7222 319.934 65.1062 319.678 65.6182C319.486 66.0662 319.326 66.2902 319.198 66.2902C319.07 66.2902 319.07 66.4182 319.198 66.6742C319.262 66.9302 320.254 67.0582 322.174 67.0582C324.094 67.0582 325.086 66.9942 325.15 66.8662C325.214 66.6742 325.438 66.5782 325.822 66.5782C326.206 66.5782 326.398 66.4822 326.398 66.2902C326.398 66.1622 326.558 66.0982 326.878 66.0982C327.198 66.0982 327.902 65.5542 328.99 64.4662C330.014 63.4422 330.526 62.6102 330.526 61.9702C330.526 61.2662 330.366 60.6902 330.046 60.2422C329.662 59.7302 329.47 59.4102 329.47 59.2822ZM324.766 55.5382C324.766 55.4102 325.054 55.2502 325.63 55.0582C326.206 54.8662 326.59 54.7702 326.782 54.7702C327.038 54.7062 327.454 54.8022 328.03 55.0582C328.67 55.3142 329.054 55.5062 329.182 55.6342C329.31 55.8902 329.694 56.1462 330.334 56.4022C330.91 56.7222 331.39 57.1702 331.774 57.7462C331.902 58.0662 332.126 58.4822 332.446 58.9942C332.766 59.4422 332.99 59.9222 333.118 60.4342C333.182 60.5622 333.214 60.8182 333.214 61.2022C333.214 62.7382 332.67 64.1462 331.582 65.4262C331.07 66.0662 330.814 66.4502 330.814 66.5782C330.814 66.8342 330.238 67.2502 329.086 67.8262C327.998 68.4022 327.294 68.6902 326.974 68.6902C326.718 68.6902 326.462 68.8182 326.206 69.0742C325.758 69.5222 324.382 69.7462 322.078 69.7462H321.502C318.942 69.7462 317.662 70.2262 317.662 71.1862C317.662 71.6342 317.598 71.8582 317.47 71.8582C317.278 71.8582 317.182 72.3382 317.182 73.2982C317.182 74.2582 317.086 74.7382 316.894 74.7382C316.766 74.7382 316.702 75.3782 316.702 76.6582C316.702 78.0022 316.766 78.6742 316.894 78.6742C317.086 78.6742 317.182 79.0582 317.182 79.8262C317.182 80.1462 317.438 81.0742 317.95 82.6102C318.142 82.8662 318.238 83.1222 318.238 83.3782C318.238 83.5062 318.494 83.8262 319.006 84.3382C319.518 84.8502 319.774 85.1382 319.774 85.2022C319.774 85.4582 320.094 85.8742 320.734 86.4502C321.438 87.0262 322.11 87.4742 322.75 87.7942C323.838 88.2422 325.022 88.4662 326.302 88.4662C327.646 88.4662 328.734 88.1782 329.566 87.6022C330.398 87.0262 330.846 86.7382 330.91 86.7382C331.038 86.7382 331.614 86.2262 332.638 85.2022C333.726 84.1142 334.27 83.5062 334.27 83.3782C334.27 83.1862 334.334 83.0902 334.462 83.0902C334.654 83.0902 334.75 82.9942 334.75 82.8022C334.75 82.7382 335.102 82.3222 335.806 81.5542C336.51 80.7862 336.862 80.3382 336.862 80.2102C336.862 80.0182 336.958 79.9222 337.15 79.9222C337.278 79.9222 337.342 79.7942 337.342 79.5382C337.342 79.2822 337.438 79.1542 337.63 79.1542C337.822 79.1542 338.046 78.9942 338.302 78.6742C338.558 78.3542 338.686 78.0662 338.686 77.8102C338.686 77.4902 338.782 77.3302 338.974 77.3302C339.102 77.3302 339.166 77.0742 339.166 76.5622C339.166 76.0502 339.422 75.6022 339.934 75.2182C340.19 74.9622 340.414 74.8342 340.606 74.8342C340.99 74.8342 341.182 75.2502 341.182 76.0822C341.182 77.3622 340.894 78.5782 340.318 79.7302C339.486 81.4582 338.75 82.3222 338.11 82.3222C337.982 82.3222 337.918 82.4502 337.918 82.7062C337.918 82.9622 337.822 83.0902 337.63 83.0902C337.438 83.0902 337.342 83.2182 337.342 83.4742C337.342 83.7302 337.278 83.8582 337.15 83.8582C336.958 83.8582 336.862 83.9542 336.862 84.1462C336.862 84.3382 336.222 85.0742 334.942 86.3542C333.726 87.6342 332.734 88.5302 331.966 89.0422C331.198 89.4902 330.814 89.7782 330.814 89.9062C330.814 90.1622 329.854 90.5142 327.934 90.9622C327.166 91.0902 326.494 91.1542 325.918 91.1542C324.318 91.1542 323.198 90.9622 322.558 90.5782C322.046 90.3222 321.662 90.1942 321.406 90.1942C321.278 90.1942 321.022 90.0342 320.638 89.7142C320.254 89.3302 319.998 89.1382 319.87 89.1382C319.678 89.1382 319.582 89.0422 319.582 88.8502C319.582 88.7222 319.486 88.6582 319.294 88.6582C319.102 88.6582 318.686 88.3702 318.046 87.7942C317.47 87.1542 317.182 86.7382 317.182 86.5462C317.182 86.3542 317.086 86.2582 316.894 86.2582C316.766 86.2582 316.702 86.1302 316.702 85.8742C316.702 85.6182 316.606 85.4902 316.414 85.4902C316.222 85.4902 316.126 85.3622 316.126 85.1062C316.126 84.8502 315.966 84.5622 315.646 84.2422C314.75 83.3462 314.302 80.5622 314.302 75.8902C314.302 73.3942 314.494 71.6662 314.878 70.7062C315.07 70.1942 315.07 69.7462 314.878 69.3622C314.686 68.9782 314.59 68.5942 314.59 68.2102C314.59 67.6342 315.006 66.9302 315.838 66.0982C316.734 65.3302 317.182 64.7542 317.182 64.3702C317.182 64.0502 317.31 63.6022 317.566 63.0262C317.886 62.4502 318.11 62.1622 318.238 62.1622C318.43 62.1622 318.526 62.0342 318.526 61.7782C318.526 61.6502 318.686 61.4262 319.006 61.1062C319.39 60.7222 319.582 60.4982 319.582 60.4342C319.582 60.3062 319.838 59.9542 320.35 59.3782C320.926 58.8022 321.214 58.4502 321.214 58.3222C321.342 58.0662 321.854 57.5862 322.75 56.8822C323.646 56.1782 324.222 55.8262 324.478 55.8262C324.67 55.8262 324.766 55.7302 324.766 55.5382Z" fill="black"/>
<path d="M283.437 59.1848C283.437 59.0568 283.693 58.7368 284.205 58.2248C284.717 57.7128 284.973 57.3608 284.973 57.1688C284.973 56.8488 285.389 56.3688 286.221 55.7288C287.053 55.0888 287.693 54.7688 288.141 54.7688C288.461 54.7688 288.621 54.6408 288.621 54.3848C288.621 54.1288 289.005 54.0008 289.773 54.0008C290.413 54.0008 290.925 53.9048 291.309 53.7128C291.501 53.5208 292.141 53.4248 293.229 53.4248C294.253 53.4248 294.797 53.5208 294.861 53.7128C295.053 53.9048 295.405 54.0008 295.917 54.0008C296.237 54.0008 296.525 54.0968 296.781 54.2888C297.037 54.4168 297.293 54.4808 297.549 54.4808C297.741 54.4808 298.349 54.9928 299.373 56.0168L300.717 57.4568V59.6648C300.717 61.2008 300.493 62.1608 300.045 62.5448C299.533 62.9928 299.117 63.1208 298.797 62.9288C298.477 62.6728 298.317 62.1608 298.317 61.3928C298.317 59.4088 297.805 58.0008 296.781 57.1688C296.077 56.5928 295.533 56.3048 295.149 56.3048C294.893 56.3048 294.573 56.2408 294.189 56.1128C293.869 55.9208 293.389 55.8888 292.749 56.0168C292.045 56.2088 291.341 56.3048 290.637 56.3048C290.253 56.3048 289.773 56.4008 289.197 56.5928L288.045 57.1688C287.597 57.3608 287.373 57.5528 287.373 57.7448C287.373 58.0648 286.925 58.7688 286.029 59.8568C285.709 60.1768 285.549 60.4648 285.549 60.7208C285.549 60.7848 285.357 61.0728 284.973 61.5848C284.717 61.9048 284.525 62.3848 284.397 63.0248C283.693 66.2248 283.341 69.3288 283.341 72.3368L283.245 76.9448L284.205 78.7688C284.461 79.2808 284.717 79.7608 284.973 80.2088C285.293 80.6568 285.485 80.9768 285.549 81.1688C285.677 81.4888 286.093 82.0008 286.797 82.7048C287.501 83.4088 288.013 83.7608 288.333 83.7608H288.429C288.749 83.6968 288.909 83.7608 288.909 83.9528C288.909 84.2728 289.101 84.4328 289.485 84.4328C289.805 84.4328 289.965 84.4968 289.965 84.6248C289.965 85.0728 291.373 85.4888 294.189 85.8728H294.669C295.117 85.8728 296.205 85.5848 297.933 85.0088C298.189 84.8808 298.317 84.7208 298.317 84.5288C298.317 84.4008 298.573 84.2088 299.085 83.9528C299.469 83.8248 299.949 83.5048 300.525 82.9928C301.165 82.4168 301.485 82.0648 301.485 81.9368C301.485 81.5528 301.805 81.2648 302.445 81.0728C303.149 80.8808 303.565 81.0088 303.693 81.4568C303.757 81.7128 303.693 82.0968 303.501 82.6088C303.373 83.1208 303.213 83.3768 303.021 83.3768C302.893 83.3768 302.573 83.6968 302.061 84.3368C301.677 84.9128 301.165 85.5208 300.525 86.1608C299.949 86.7368 299.597 87.0248 299.469 87.0248C299.277 87.0248 299.053 87.1528 298.797 87.4088C297.901 88.2408 296.429 88.6568 294.381 88.6568C292.717 88.6568 291.501 88.4648 290.733 88.0808C289.965 87.7608 289.485 87.6008 289.293 87.6008C289.101 87.6008 288.877 87.4728 288.621 87.2168C288.365 86.9608 287.981 86.7368 287.469 86.5448C287.021 86.3528 286.285 85.8088 285.261 84.9128C284.301 84.0808 283.789 83.6648 283.725 83.6648C283.661 83.6648 283.469 83.3448 283.149 82.7048C282.829 82.0648 282.637 81.7448 282.573 81.7448C282.445 81.7448 282.381 81.5848 282.381 81.2648C282.381 80.9448 282.285 80.7848 282.093 80.7848C281.901 80.7848 281.805 80.5608 281.805 80.1128C281.805 79.6648 281.677 79.4408 281.421 79.4408C281.165 79.4408 281.037 79.3448 281.037 79.1528C281.037 79.0888 280.909 78.2248 280.653 76.5608C280.525 76.0488 280.461 75.1208 280.461 73.7768C280.461 72.1128 280.621 69.7448 280.941 66.6728C281.069 65.5848 281.197 65.0408 281.325 65.0408C281.517 65.0408 281.613 64.5928 281.613 63.6968C281.613 62.8648 281.677 62.3848 281.805 62.2568C281.997 62.1288 282.093 61.9048 282.093 61.5848C282.093 61.2648 282.189 61.1048 282.381 61.1048C282.573 61.1048 282.669 60.8168 282.669 60.2408C282.669 59.7288 282.797 59.4728 283.053 59.4728C283.309 59.4728 283.437 59.3768 283.437 59.1848Z" fill="black"/>
<path d="M249.841 73.3936C249.841 74.2896 249.905 75.0256 250.033 75.6016C250.225 76.1136 250.321 76.7856 250.321 77.6176C250.321 78.8976 250.417 79.5696 250.609 79.6336C250.737 79.6976 250.801 80.5616 250.801 82.2256C250.801 83.5696 250.865 85.5216 250.993 88.0816C251.057 88.7216 251.089 89.4896 251.089 90.3856C251.089 91.2816 250.961 91.8896 250.705 92.2096C250.449 92.6576 250.129 92.8816 249.745 92.8816C249.233 92.8816 248.721 92.1456 248.209 90.6736C247.953 90.0336 247.761 86.9616 247.633 81.4576C247.569 78.5136 247.409 76.8496 247.153 76.4656C246.833 75.6976 246.673 75.1216 246.673 74.7376C246.673 74.2896 246.577 73.9696 246.385 73.7776C246.321 73.7136 246.129 72.8176 245.809 71.0896C245.553 69.2976 245.425 68.3696 245.425 68.3056C245.233 67.9856 245.137 67.5696 245.137 67.0576C245.137 66.8016 244.977 66.2576 244.657 65.4256C244.337 64.9136 244.177 64.1456 244.177 63.1216C244.177 62.0976 244.433 61.4576 244.945 61.2016C245.649 60.7536 246.353 60.6896 247.057 61.0096C247.441 61.3296 247.601 61.5856 247.537 61.7776C247.409 61.7776 247.217 62.0336 246.961 62.5456C246.769 63.0576 246.673 63.4736 246.673 63.7936C246.673 64.1776 246.769 64.3696 246.961 64.3696C247.089 64.3696 247.153 64.5936 247.153 65.0416C247.153 65.2976 247.249 65.5536 247.441 65.8096C247.633 66.0656 247.729 66.3536 247.729 66.6736C247.729 67.3136 247.761 67.6976 247.825 67.8256C247.953 68.1456 248.145 68.3056 248.401 68.3056C248.657 68.2416 248.785 68.0496 248.785 67.7296C248.785 67.4096 248.849 67.2496 248.977 67.2496C249.169 67.2496 249.265 67.1216 249.265 66.8656C249.265 66.6736 249.521 66.3216 250.033 65.8096C251.441 64.4016 252.401 63.5056 252.913 63.1216C253.425 62.7376 254.097 62.4816 254.929 62.3536C255.249 62.2896 255.569 62.1936 255.889 62.0656C256.209 61.8736 256.561 61.7776 256.945 61.7776C257.073 61.7776 257.553 61.6496 258.385 61.3936C259.281 61.0736 259.889 60.9136 260.209 60.9136C260.529 60.9136 260.753 61.0096 260.881 61.2016C261.073 61.3936 261.361 61.4896 261.745 61.4896C262.129 61.4896 262.321 61.6176 262.321 61.8736C262.321 62.1296 262.513 62.3216 262.897 62.4496C263.345 62.7696 263.889 63.5376 264.529 64.7536C265.169 65.9056 265.489 66.8336 265.489 67.5376C265.489 71.3136 265.617 75.5696 265.873 80.3056C266.001 82.8656 266.129 84.1776 266.257 84.2416C266.449 84.3056 266.545 84.4656 266.545 84.7216C266.545 85.4256 267.185 85.7776 268.465 85.7776C269.297 85.7776 269.713 85.9056 269.713 86.1616C269.713 86.4816 269.585 86.8976 269.329 87.4096C269.073 87.9216 268.881 88.1776 268.753 88.1776C268.497 88.1776 268.369 88.2736 268.369 88.4656C268.369 88.5936 267.921 88.6576 267.025 88.6576C266.193 88.6576 265.777 88.5936 265.777 88.4656C265.777 88.2736 265.649 88.1776 265.393 88.1776C265.265 88.1776 265.105 88.0816 264.913 87.8896C264.785 87.6336 264.625 87.3776 264.433 87.1216C264.305 86.8016 264.209 86.6096 264.145 86.5456C263.761 86.1616 263.537 85.5216 263.473 84.6256C263.409 83.6656 263.345 81.1696 263.281 77.1376C263.281 72.9136 263.185 70.1296 262.993 68.7856C262.737 67.5056 262.257 66.3856 261.553 65.4256C260.849 64.4016 260.209 63.8576 259.633 63.7936C258.097 63.6656 257.137 63.7936 256.753 64.1776C256.497 64.3056 256.209 64.3696 255.889 64.3696C255.505 64.3696 255.313 64.4976 255.313 64.7536C255.313 65.0096 255.121 65.1376 254.737 65.1376C254.417 65.1376 254.257 65.2336 254.257 65.4256C254.257 65.6176 254.129 65.7136 253.873 65.7136C253.617 65.7136 253.201 65.9696 252.625 66.4816C252.113 66.9296 251.857 67.2496 251.857 67.4416C251.857 67.5696 251.665 67.7936 251.281 68.1136C250.961 68.4336 250.801 68.7216 250.801 68.9776C250.801 69.2336 250.705 69.5216 250.513 69.8416C250.385 70.0976 250.321 70.3856 250.321 70.7056C250.321 71.2176 250.225 71.4736 250.033 71.4736C249.905 71.4736 249.841 72.1136 249.841 73.3936Z" fill="black"/>
<path d="M221.939 59.2822C221.939 59.0902 221.619 58.7382 220.979 58.2262C220.403 57.7142 220.115 57.4262 220.115 57.3622C220.115 57.2342 219.955 57.1702 219.635 57.1702C219.251 57.1702 219.059 57.2342 219.059 57.3622C219.059 57.5542 218.803 57.6502 218.291 57.6502C217.459 57.6502 216.915 58.0662 216.659 58.8982C216.403 59.6662 215.763 60.4022 214.739 61.1062C214.355 61.3622 214.067 61.7462 213.875 62.2582C213.811 62.3862 213.555 62.7062 213.107 63.2182C212.723 63.7302 212.531 64.1462 212.531 64.4662C212.531 64.7222 212.403 65.1062 212.147 65.6182C211.955 66.0662 211.795 66.2902 211.667 66.2902C211.539 66.2902 211.539 66.4182 211.667 66.6742C211.731 66.9302 212.723 67.0582 214.643 67.0582C216.563 67.0582 217.555 66.9942 217.619 66.8662C217.683 66.6742 217.907 66.5782 218.291 66.5782C218.675 66.5782 218.867 66.4822 218.867 66.2902C218.867 66.1622 219.027 66.0982 219.347 66.0982C219.667 66.0982 220.371 65.5542 221.459 64.4662C222.483 63.4422 222.995 62.6102 222.995 61.9702C222.995 61.2662 222.835 60.6902 222.515 60.2422C222.131 59.7302 221.939 59.4102 221.939 59.2822ZM217.235 55.5382C217.235 55.4102 217.523 55.2502 218.099 55.0582C218.675 54.8662 219.059 54.7702 219.251 54.7702C219.507 54.7062 219.923 54.8022 220.499 55.0582C221.139 55.3142 221.523 55.5062 221.651 55.6342C221.779 55.8902 222.163 56.1462 222.803 56.4022C223.379 56.7222 223.859 57.1702 224.243 57.7462C224.371 58.0662 224.595 58.4822 224.915 58.9942C225.235 59.4422 225.459 59.9222 225.587 60.4342C225.651 60.5622 225.683 60.8182 225.683 61.2022C225.683 62.7382 225.139 64.1462 224.051 65.4262C223.539 66.0662 223.283 66.4502 223.283 66.5782C223.283 66.8342 222.707 67.2502 221.555 67.8262C220.467 68.4022 219.763 68.6902 219.443 68.6902C219.187 68.6902 218.931 68.8182 218.675 69.0742C218.227 69.5222 216.851 69.7462 214.547 69.7462H213.971C211.411 69.7462 210.131 70.2262 210.131 71.1862C210.131 71.6342 210.067 71.8582 209.939 71.8582C209.747 71.8582 209.651 72.3382 209.651 73.2982C209.651 74.2582 209.555 74.7382 209.363 74.7382C209.235 74.7382 209.171 75.3782 209.171 76.6582C209.171 78.0022 209.235 78.6742 209.363 78.6742C209.555 78.6742 209.651 79.0582 209.651 79.8262C209.651 80.1462 209.907 81.0742 210.419 82.6102C210.611 82.8662 210.707 83.1222 210.707 83.3782C210.707 83.5062 210.963 83.8262 211.475 84.3382C211.987 84.8502 212.243 85.1382 212.243 85.2022C212.243 85.4582 212.563 85.8742 213.203 86.4502C213.907 87.0262 214.579 87.4742 215.219 87.7942C216.307 88.2422 217.491 88.4662 218.771 88.4662C220.115 88.4662 221.203 88.1782 222.035 87.6022C222.867 87.0262 223.315 86.7382 223.379 86.7382C223.507 86.7382 224.083 86.2262 225.107 85.2022C226.195 84.1142 226.739 83.5062 226.739 83.3782C226.739 83.1862 226.803 83.0902 226.931 83.0902C227.123 83.0902 227.219 82.9942 227.219 82.8022C227.219 82.7382 227.571 82.3222 228.275 81.5542C228.979 80.7862 229.331 80.3382 229.331 80.2102C229.331 80.0182 229.427 79.9222 229.619 79.9222C229.747 79.9222 229.811 79.7942 229.811 79.5382C229.811 79.2822 229.907 79.1542 230.099 79.1542C230.291 79.1542 230.515 78.9942 230.771 78.6742C231.027 78.3542 231.155 78.0662 231.155 77.8102C231.155 77.4902 231.251 77.3302 231.443 77.3302C231.571 77.3302 231.635 77.0742 231.635 76.5622C231.635 76.0502 231.891 75.6022 232.403 75.2182C232.659 74.9622 232.883 74.8342 233.075 74.8342C233.459 74.8342 233.651 75.2502 233.651 76.0822C233.651 77.3622 233.363 78.5782 232.787 79.7302C231.955 81.4582 231.219 82.3222 230.579 82.3222C230.451 82.3222 230.387 82.4502 230.387 82.7062C230.387 82.9622 230.291 83.0902 230.099 83.0902C229.907 83.0902 229.811 83.2182 229.811 83.4742C229.811 83.7302 229.747 83.8582 229.619 83.8582C229.427 83.8582 229.331 83.9542 229.331 84.1462C229.331 84.3382 228.691 85.0742 227.411 86.3542C226.195 87.6342 225.203 88.5302 224.435 89.0422C223.667 89.4902 223.283 89.7782 223.283 89.9062C223.283 90.1622 222.323 90.5142 220.403 90.9622C219.635 91.0902 218.963 91.1542 218.387 91.1542C216.787 91.1542 215.667 90.9622 215.027 90.5782C214.515 90.3222 214.131 90.1942 213.875 90.1942C213.747 90.1942 213.491 90.0342 213.107 89.7142C212.723 89.3302 212.467 89.1382 212.339 89.1382C212.147 89.1382 212.051 89.0422 212.051 88.8502C212.051 88.7222 211.955 88.6582 211.763 88.6582C211.571 88.6582 211.155 88.3702 210.515 87.7942C209.939 87.1542 209.651 86.7382 209.651 86.5462C209.651 86.3542 209.555 86.2582 209.363 86.2582C209.235 86.2582 209.171 86.1302 209.171 85.8742C209.171 85.6182 209.075 85.4902 208.883 85.4902C208.691 85.4902 208.595 85.3622 208.595 85.1062C208.595 84.8502 208.435 84.5622 208.115 84.2422C207.219 83.3462 206.771 80.5622 206.771 75.8902C206.771 73.3942 206.963 71.6662 207.347 70.7062C207.539 70.1942 207.539 69.7462 207.347 69.3622C207.155 68.9782 207.059 68.5942 207.059 68.2102C207.059 67.6342 207.475 66.9302 208.307 66.0982C209.203 65.3302 209.651 64.7542 209.651 64.3702C209.651 64.0502 209.779 63.6022 210.035 63.0262C210.355 62.4502 210.579 62.1622 210.707 62.1622C210.899 62.1622 210.995 62.0342 210.995 61.7782C210.995 61.6502 211.155 61.4262 211.475 61.1062C211.859 60.7222 212.051 60.4982 212.051 60.4342C212.051 60.3062 212.307 59.9542 212.819 59.3782C213.395 58.8022 213.683 58.4502 213.683 58.3222C213.811 58.0662 214.323 57.5862 215.219 56.8822C216.115 56.1782 216.691 55.8262 216.947 55.8262C217.139 55.8262 217.235 55.7302 217.235 55.5382Z" fill="black"/>
<path d="M180.28 62.9295C180.28 62.6735 180.088 62.2575 179.704 61.6815C179.384 61.0415 179.224 60.5615 179.224 60.2415C179.224 59.6655 179.16 59.3455 179.032 59.2815C178.84 59.2175 178.744 58.9295 178.744 58.4175C178.744 57.8415 178.84 57.4255 179.032 57.1695C179.288 56.9135 179.608 56.8175 179.992 56.8815C180.44 56.8815 180.792 57.0095 181.048 57.2655C181.112 57.3935 181.432 57.6495 182.008 58.0335C182.584 58.4175 182.872 58.7375 182.872 58.9935C182.872 59.2495 182.968 59.3775 183.16 59.3775C183.352 59.3775 183.448 60.1135 183.448 61.5855C183.448 62.9935 183.544 63.7935 183.736 63.9855C183.928 64.1135 184.024 64.5295 184.024 65.2335L184.12 66.0015L184.216 65.9055C184.344 65.7775 184.504 65.7135 184.696 65.7135C184.888 65.7135 185.144 65.5535 185.464 65.2335C185.848 64.8495 186.04 64.5615 186.04 64.3695C186.04 64.1135 186.328 63.6975 186.904 63.1215C187.48 62.5455 187.896 62.2575 188.152 62.2575C188.472 62.2575 188.632 62.1615 188.632 61.9695C188.632 61.8415 189.144 61.7775 190.168 61.7775C191.256 61.7775 191.832 61.8415 191.896 61.9695C192.088 62.1615 192.472 62.2575 193.048 62.2575C193.624 62.2575 193.912 62.3535 193.912 62.5455C193.912 62.7375 194.072 62.8335 194.392 62.8335C194.776 62.8335 194.968 62.8975 194.968 63.0255C194.968 63.1535 195.192 63.3455 195.64 63.6015C196.024 63.7935 196.216 64.0815 196.216 64.4655C196.216 64.7215 196.024 64.8495 195.64 64.8495C195.192 64.8495 194.104 64.7535 192.376 64.5615L189.784 64.2735L188.44 65.6175C187.352 66.7695 186.712 67.5375 186.52 67.9215C186.328 68.2415 186.232 68.9455 186.232 70.0335V70.6095C186.232 72.2095 186.424 73.5215 186.808 74.5455C187.192 75.5695 187.384 76.4655 187.384 77.2335C187.384 78.0655 187.448 78.4815 187.576 78.4815C187.704 78.4815 187.864 78.9935 188.056 80.0175C188.312 80.9775 188.536 82.0015 188.728 83.0895C188.984 84.1775 189.176 84.7855 189.304 84.9135C189.432 85.0415 189.496 85.4575 189.496 86.1615C189.496 86.9935 189.592 87.7615 189.784 88.4655C190.04 89.6175 189.848 90.5455 189.208 91.2495C188.44 92.0815 187.768 92.0495 187.192 91.1535C187.128 91.0255 187.032 90.8975 186.904 90.7695C186.84 90.6415 186.744 90.5135 186.616 90.3855L186.52 90.1935C186.456 90.1295 186.392 89.9055 186.328 89.5215C186.328 89.1375 186.296 88.7855 186.232 88.4655C186.232 88.0815 186.2 87.8895 186.136 87.8895C185.688 87.8895 185.336 85.7455 185.08 81.4575C184.952 79.8575 184.856 79.0575 184.792 79.0575C184.6 79.0575 184.216 77.9055 183.64 75.6015C183.128 73.2335 182.872 71.8895 182.872 71.5695C182.872 70.7375 182.808 70.2895 182.68 70.2255C182.488 70.0335 182.392 69.7135 182.392 69.2655C182.392 68.8175 182.296 68.5935 182.104 68.5935C181.976 68.5935 181.912 68.3055 181.912 67.7295C181.912 67.4095 181.72 66.8655 181.336 66.0975C181.016 65.3295 180.856 64.7855 180.856 64.4655C180.856 64.1455 180.76 63.8895 180.568 63.6975C180.376 63.5055 180.28 63.2495 180.28 62.9295Z" fill="black"/>
<path d="M156.314 59.2822C156.314 59.0902 155.994 58.7382 155.354 58.2262C154.778 57.7142 154.49 57.4262 154.49 57.3622C154.49 57.2342 154.33 57.1702 154.01 57.1702C153.626 57.1702 153.434 57.2342 153.434 57.3622C153.434 57.5542 153.178 57.6502 152.666 57.6502C151.834 57.6502 151.29 58.0662 151.034 58.8982C150.778 59.6662 150.138 60.4022 149.114 61.1062C148.73 61.3622 148.442 61.7462 148.25 62.2582C148.186 62.3862 147.93 62.7062 147.482 63.2182C147.098 63.7302 146.906 64.1462 146.906 64.4662C146.906 64.7222 146.778 65.1062 146.522 65.6182C146.33 66.0662 146.17 66.2902 146.042 66.2902C145.914 66.2902 145.914 66.4182 146.042 66.6742C146.106 66.9302 147.098 67.0582 149.018 67.0582C150.938 67.0582 151.93 66.9942 151.994 66.8662C152.058 66.6742 152.282 66.5782 152.666 66.5782C153.05 66.5782 153.242 66.4822 153.242 66.2902C153.242 66.1622 153.402 66.0982 153.722 66.0982C154.042 66.0982 154.746 65.5542 155.834 64.4662C156.858 63.4422 157.37 62.6102 157.37 61.9702C157.37 61.2662 157.21 60.6902 156.89 60.2422C156.506 59.7302 156.314 59.4102 156.314 59.2822ZM151.61 55.5382C151.61 55.4102 151.898 55.2502 152.474 55.0582C153.05 54.8662 153.434 54.7702 153.626 54.7702C153.882 54.7062 154.298 54.8022 154.874 55.0582C155.514 55.3142 155.898 55.5062 156.026 55.6342C156.154 55.8902 156.538 56.1462 157.178 56.4022C157.754 56.7222 158.234 57.1702 158.618 57.7462C158.746 58.0662 158.97 58.4822 159.29 58.9942C159.61 59.4422 159.834 59.9222 159.962 60.4342C160.026 60.5622 160.058 60.8182 160.058 61.2022C160.058 62.7382 159.514 64.1462 158.426 65.4262C157.914 66.0662 157.658 66.4502 157.658 66.5782C157.658 66.8342 157.082 67.2502 155.93 67.8262C154.842 68.4022 154.138 68.6902 153.818 68.6902C153.562 68.6902 153.306 68.8182 153.05 69.0742C152.602 69.5222 151.226 69.7462 148.922 69.7462H148.346C145.786 69.7462 144.506 70.2262 144.506 71.1862C144.506 71.6342 144.442 71.8582 144.314 71.8582C144.122 71.8582 144.026 72.3382 144.026 73.2982C144.026 74.2582 143.93 74.7382 143.738 74.7382C143.61 74.7382 143.546 75.3782 143.546 76.6582C143.546 78.0022 143.61 78.6742 143.738 78.6742C143.93 78.6742 144.026 79.0582 144.026 79.8262C144.026 80.1462 144.282 81.0742 144.794 82.6102C144.986 82.8662 145.082 83.1222 145.082 83.3782C145.082 83.5062 145.338 83.8262 145.85 84.3382C146.362 84.8502 146.618 85.1382 146.618 85.2022C146.618 85.4582 146.938 85.8742 147.578 86.4502C148.282 87.0262 148.954 87.4742 149.594 87.7942C150.682 88.2422 151.866 88.4662 153.146 88.4662C154.49 88.4662 155.578 88.1782 156.41 87.6022C157.242 87.0262 157.69 86.7382 157.754 86.7382C157.882 86.7382 158.458 86.2262 159.482 85.2022C160.57 84.1142 161.114 83.5062 161.114 83.3782C161.114 83.1862 161.178 83.0902 161.306 83.0902C161.498 83.0902 161.594 82.9942 161.594 82.8022C161.594 82.7382 161.946 82.3222 162.65 81.5542C163.354 80.7862 163.706 80.3382 163.706 80.2102C163.706 80.0182 163.802 79.9222 163.994 79.9222C164.122 79.9222 164.186 79.7942 164.186 79.5382C164.186 79.2822 164.282 79.1542 164.474 79.1542C164.666 79.1542 164.89 78.9942 165.146 78.6742C165.402 78.3542 165.53 78.0662 165.53 77.8102C165.53 77.4902 165.626 77.3302 165.818 77.3302C165.946 77.3302 166.01 77.0742 166.01 76.5622C166.01 76.0502 166.266 75.6022 166.778 75.2182C167.034 74.9622 167.258 74.8342 167.45 74.8342C167.834 74.8342 168.026 75.2502 168.026 76.0822C168.026 77.3622 167.738 78.5782 167.162 79.7302C166.33 81.4582 165.594 82.3222 164.954 82.3222C164.826 82.3222 164.762 82.4502 164.762 82.7062C164.762 82.9622 164.666 83.0902 164.474 83.0902C164.282 83.0902 164.186 83.2182 164.186 83.4742C164.186 83.7302 164.122 83.8582 163.994 83.8582C163.802 83.8582 163.706 83.9542 163.706 84.1462C163.706 84.3382 163.066 85.0742 161.786 86.3542C160.57 87.6342 159.578 88.5302 158.81 89.0422C158.042 89.4902 157.658 89.7782 157.658 89.9062C157.658 90.1622 156.698 90.5142 154.778 90.9622C154.01 91.0902 153.338 91.1542 152.762 91.1542C151.162 91.1542 150.042 90.9622 149.402 90.5782C148.89 90.3222 148.506 90.1942 148.25 90.1942C148.122 90.1942 147.866 90.0342 147.482 89.7142C147.098 89.3302 146.842 89.1382 146.714 89.1382C146.522 89.1382 146.426 89.0422 146.426 88.8502C146.426 88.7222 146.33 88.6582 146.138 88.6582C145.946 88.6582 145.53 88.3702 144.89 87.7942C144.314 87.1542 144.026 86.7382 144.026 86.5462C144.026 86.3542 143.93 86.2582 143.738 86.2582C143.61 86.2582 143.546 86.1302 143.546 85.8742C143.546 85.6182 143.45 85.4902 143.258 85.4902C143.066 85.4902 142.97 85.3622 142.97 85.1062C142.97 84.8502 142.81 84.5622 142.49 84.2422C141.594 83.3462 141.146 80.5622 141.146 75.8902C141.146 73.3942 141.338 71.6662 141.722 70.7062C141.914 70.1942 141.914 69.7462 141.722 69.3622C141.53 68.9782 141.434 68.5942 141.434 68.2102C141.434 67.6342 141.85 66.9302 142.682 66.0982C143.578 65.3302 144.026 64.7542 144.026 64.3702C144.026 64.0502 144.154 63.6022 144.41 63.0262C144.73 62.4502 144.954 62.1622 145.082 62.1622C145.274 62.1622 145.37 62.0342 145.37 61.7782C145.37 61.6502 145.53 61.4262 145.85 61.1062C146.234 60.7222 146.426 60.4982 146.426 60.4342C146.426 60.3062 146.682 59.9542 147.194 59.3782C147.77 58.8022 148.058 58.4502 148.058 58.3222C148.186 58.0662 148.698 57.5862 149.594 56.8822C150.49 56.1782 151.066 55.8262 151.322 55.8262C151.514 55.8262 151.61 55.7302 151.61 55.5382Z" fill="black"/>
<path d="M116.709 35.6658C116.709 35.4738 116.869 35.1858 117.189 34.8018C117.573 34.3538 117.765 34.0658 117.765 33.9378C117.765 33.6818 118.117 33.4578 118.821 33.2658C119.589 33.0098 120.389 32.8818 121.221 32.8818C122.309 32.8818 122.885 33.0738 122.949 33.4578C123.013 33.6498 123.173 33.7458 123.429 33.7458C123.557 33.7458 123.685 33.9058 123.813 34.2258C124.005 34.4818 124.197 34.6098 124.389 34.6098C124.645 34.6098 125.317 35.2498 126.405 36.5298C127.109 37.4898 127.461 38.1298 127.461 38.4498C127.461 38.7058 127.621 39.0578 127.941 39.5058C128.325 39.9538 128.517 40.2418 128.517 40.3698C128.517 40.4338 128.581 40.6578 128.709 41.0418C129.285 42.0658 129.573 42.9938 129.573 43.8258C129.573 44.1458 129.669 44.3058 129.861 44.3058C129.989 44.3058 130.053 44.6898 130.053 45.4578C130.053 46.2258 130.149 46.6098 130.341 46.6098C130.533 46.6098 130.629 46.8018 130.629 47.1858C130.629 47.5058 130.533 47.6658 130.341 47.6658C130.149 47.6658 130.053 47.9858 130.053 48.6258C130.053 48.9458 129.925 49.3298 129.669 49.7778C129.413 50.1618 129.285 50.4498 129.285 50.6418C129.285 50.9618 129.189 51.1218 128.997 51.1218C128.869 51.1218 128.805 51.2178 128.805 51.4098C128.805 51.7298 128.453 52.2418 127.749 52.9458C127.045 53.5858 126.693 54.0338 126.693 54.2898C126.693 54.4178 126.469 54.4818 126.021 54.4818C125.573 54.4818 125.349 54.6098 125.349 54.8658C125.349 55.1218 125.189 55.2818 124.869 55.3458C124.613 55.3458 124.357 55.2178 124.101 54.9618C123.717 54.5778 123.973 53.9058 124.869 52.9458C125.573 52.1138 125.925 51.6338 125.925 51.5058C125.925 51.2498 126.085 51.0258 126.405 50.8338C126.725 50.6418 127.013 50.0978 127.269 49.2018C127.525 48.3058 127.653 47.7618 127.653 47.5698C127.653 47.4418 127.589 46.9938 127.461 46.2258C127.269 45.4578 127.013 44.6258 126.693 43.7298C126.437 42.8338 126.245 42.0658 126.117 41.4258C125.925 40.4658 125.253 39.3778 124.101 38.1618C123.909 37.9698 123.813 37.7458 123.813 37.4898C123.813 37.2338 123.525 36.8818 122.949 36.4338C122.373 35.9218 121.925 35.6658 121.605 35.6658C121.221 35.6658 120.965 35.5378 120.837 35.2818C120.773 35.1538 120.677 35.1218 120.549 35.1858C120.485 35.2498 120.389 35.3458 120.261 35.4738C120.133 35.6018 120.005 35.6658 119.877 35.6658C119.493 35.6658 119.301 35.8258 119.301 36.1458C119.301 36.5298 119.237 36.7218 119.109 36.7218C118.917 36.7218 118.821 36.9138 118.821 37.2978C118.821 37.7458 118.725 37.9698 118.533 37.9698C118.341 37.9698 118.245 38.1618 118.245 38.5458C118.245 38.8658 118.181 39.0258 118.053 39.0258C117.861 39.0258 117.765 39.1538 117.765 39.4098C117.765 39.6658 117.861 39.7938 118.053 39.7938C118.117 39.9858 118.149 40.2418 118.149 40.5618C118.149 40.8178 118.117 41.3938 118.053 42.2898C118.053 43.1858 118.053 43.8578 118.053 44.3058C118.053 45.5858 118.117 46.2898 118.245 46.4178C118.437 46.6098 118.533 47.5698 118.533 49.2978C118.533 50.8978 118.629 51.7298 118.821 51.7938C119.013 51.9858 119.109 52.5618 119.109 53.5218C119.109 54.5458 119.173 55.0578 119.301 55.0578C119.493 55.0578 119.589 55.2818 119.589 55.7298C119.589 56.1138 119.717 56.8818 119.973 58.0338C120.485 60.2098 120.837 62.0338 121.029 63.5058C121.157 64.3378 121.285 64.8178 121.413 64.9458C121.605 65.1378 121.701 65.4578 121.701 65.9058C121.701 66.5458 121.765 66.8658 121.893 66.8658C122.021 66.8658 122.181 67.1218 122.373 67.6338C122.629 68.1458 122.757 68.6258 122.757 69.0738C122.757 69.5858 122.853 70.0018 123.045 70.3218C123.237 70.6418 123.365 70.9618 123.429 71.2818L123.909 72.1458H124.101C124.229 72.1458 124.357 72.1458 124.485 72.1458C124.613 72.0818 124.773 72.0498 124.965 72.0498C125.157 72.0498 125.349 72.0498 125.541 72.0498C126.501 72.0498 126.981 71.9218 126.981 71.6658C126.981 71.4098 127.141 71.2818 127.461 71.2818C127.781 71.2178 128.005 71.3138 128.133 71.5698C128.197 71.6338 128.229 71.7618 128.229 71.9538C128.229 72.4018 127.973 72.8498 127.461 73.2978C126.949 73.7458 126.405 73.9698 125.829 73.9698C125.445 73.9698 125.061 74.1618 124.677 74.5458C124.357 74.9298 124.293 75.2818 124.485 75.6018C124.741 76.1138 124.997 77.2338 125.253 78.9618C125.317 79.2818 125.445 79.6338 125.637 80.0178C125.829 80.3378 125.925 80.7858 125.925 81.3618C125.925 81.8738 125.989 82.3218 126.117 82.7058C126.309 83.0258 126.405 83.3778 126.405 83.7618C126.405 84.4018 126.501 84.7218 126.693 84.7218C126.885 84.7218 126.981 84.9138 126.981 85.2978C126.981 85.7458 127.077 86.1618 127.269 86.5458C127.717 87.4418 127.941 88.2738 127.941 89.0418C127.941 89.6178 128.037 89.9058 128.229 89.9058C128.485 89.9058 128.613 90.4818 128.613 91.6338C128.613 92.1458 128.549 92.5938 128.421 92.9778C128.421 93.0418 128.325 93.2338 128.133 93.5538C127.941 93.8098 127.813 93.9698 127.749 94.0338C127.685 94.0978 127.525 94.2258 127.269 94.4178C127.013 94.5458 126.789 94.4498 126.597 94.1298C126.341 93.8738 125.989 92.8818 125.541 91.1538C125.285 90.0658 125.029 89.0738 124.773 88.1778C124.517 87.2818 124.261 86.5138 124.005 85.8738C123.813 85.1698 123.685 84.6898 123.621 84.4338C123.301 83.4098 123.109 82.5778 123.045 81.9378C122.981 81.3618 122.789 80.6898 122.469 79.9218C122.149 79.0898 121.989 78.2898 121.989 77.5218C121.989 76.8818 121.893 76.5618 121.701 76.5618C121.509 76.5618 121.413 76.3698 121.413 75.9858C121.413 75.6658 120.997 75.5058 120.165 75.5058C119.269 75.5058 118.821 75.6018 118.821 75.7938C118.821 75.9218 118.565 75.9858 118.053 75.9858C117.797 75.9858 117.541 76.1138 117.285 76.3698C117.029 76.5618 116.805 76.5298 116.613 76.2738C116.485 76.1458 116.357 75.9858 116.229 75.7938C116.165 75.5378 116.133 75.3458 116.133 75.2178C116.197 75.0258 116.293 74.9298 116.421 74.9298C116.613 74.9298 116.709 74.8018 116.709 74.5458C116.709 74.3538 116.965 74.1298 117.477 73.8738C117.989 73.6178 118.245 73.4578 118.245 73.3938C118.245 73.2018 118.501 73.1058 119.013 73.1058C119.461 73.1058 119.845 72.9138 120.165 72.5298C120.549 72.0818 120.741 71.6338 120.741 71.1858C120.741 70.8658 120.645 70.6098 120.453 70.4178C120.325 70.1618 120.101 69.5858 119.781 68.6898C119.461 67.7298 119.205 67.0578 119.013 66.6738C118.629 65.9698 118.309 64.5298 118.053 62.3538C116.645 55.8898 115.941 51.5058 115.941 49.2018C115.941 48.4338 115.845 47.9538 115.653 47.7618C115.461 47.5698 115.365 45.9058 115.365 42.7698C115.365 39.6338 115.461 38.0658 115.653 38.0658C115.845 37.8738 115.941 37.5858 115.941 37.2018C115.941 36.8818 116.069 36.6258 116.325 36.4338C116.581 36.1778 116.709 35.9218 116.709 35.6658Z" fill="black"/>
<path d="M93.1265 59.2822C93.1265 59.0902 92.8065 58.7382 92.1665 58.2262C91.5905 57.7142 91.3025 57.4262 91.3025 57.3622C91.3025 57.2342 91.1425 57.1702 90.8225 57.1702C90.4385 57.1702 90.2465 57.2342 90.2465 57.3622C90.2465 57.5542 89.9905 57.6502 89.4785 57.6502C88.6465 57.6502 88.1025 58.0662 87.8465 58.8982C87.5905 59.6662 86.9505 60.4022 85.9265 61.1062C85.5425 61.3622 85.2545 61.7462 85.0625 62.2582C84.9985 62.3862 84.7425 62.7062 84.2945 63.2182C83.9105 63.7302 83.7185 64.1462 83.7185 64.4662C83.7185 64.7222 83.5905 65.1062 83.3345 65.6182C83.1425 66.0662 82.9825 66.2902 82.8545 66.2902C82.7265 66.2902 82.7265 66.4182 82.8545 66.6742C82.9185 66.9302 83.9105 67.0582 85.8305 67.0582C87.7505 67.0582 88.7425 66.9942 88.8065 66.8662C88.8705 66.6742 89.0945 66.5782 89.4785 66.5782C89.8625 66.5782 90.0545 66.4822 90.0545 66.2902C90.0545 66.1622 90.2145 66.0982 90.5345 66.0982C90.8545 66.0982 91.5585 65.5542 92.6465 64.4662C93.6705 63.4422 94.1825 62.6102 94.1825 61.9702C94.1825 61.2662 94.0225 60.6902 93.7025 60.2422C93.3185 59.7302 93.1265 59.4102 93.1265 59.2822ZM88.4225 55.5382C88.4225 55.4102 88.7105 55.2502 89.2865 55.0582C89.8625 54.8662 90.2465 54.7702 90.4385 54.7702C90.6945 54.7062 91.1105 54.8022 91.6865 55.0582C92.3265 55.3142 92.7105 55.5062 92.8385 55.6342C92.9665 55.8902 93.3505 56.1462 93.9905 56.4022C94.5665 56.7222 95.0465 57.1702 95.4305 57.7462C95.5585 58.0662 95.7825 58.4822 96.1025 58.9942C96.4225 59.4422 96.6465 59.9222 96.7745 60.4342C96.8385 60.5622 96.8705 60.8182 96.8705 61.2022C96.8705 62.7382 96.3265 64.1462 95.2385 65.4262C94.7265 66.0662 94.4705 66.4502 94.4705 66.5782C94.4705 66.8342 93.8945 67.2502 92.7425 67.8262C91.6545 68.4022 90.9505 68.6902 90.6305 68.6902C90.3745 68.6902 90.1185 68.8182 89.8625 69.0742C89.4145 69.5222 88.0385 69.7462 85.7345 69.7462H85.1585C82.5985 69.7462 81.3185 70.2262 81.3185 71.1862C81.3185 71.6342 81.2545 71.8582 81.1265 71.8582C80.9345 71.8582 80.8385 72.3382 80.8385 73.2982C80.8385 74.2582 80.7425 74.7382 80.5505 74.7382C80.4225 74.7382 80.3585 75.3782 80.3585 76.6582C80.3585 78.0022 80.4225 78.6742 80.5505 78.6742C80.7425 78.6742 80.8385 79.0582 80.8385 79.8262C80.8385 80.1462 81.0945 81.0742 81.6065 82.6102C81.7985 82.8662 81.8945 83.1222 81.8945 83.3782C81.8945 83.5062 82.1505 83.8262 82.6625 84.3382C83.1745 84.8502 83.4305 85.1382 83.4305 85.2022C83.4305 85.4582 83.7505 85.8742 84.3905 86.4502C85.0945 87.0262 85.7665 87.4742 86.4065 87.7942C87.4945 88.2422 88.6785 88.4662 89.9585 88.4662C91.3025 88.4662 92.3905 88.1782 93.2225 87.6022C94.0545 87.0262 94.5025 86.7382 94.5665 86.7382C94.6945 86.7382 95.2705 86.2262 96.2945 85.2022C97.3825 84.1142 97.9265 83.5062 97.9265 83.3782C97.9265 83.1862 97.9905 83.0902 98.1185 83.0902C98.3105 83.0902 98.4065 82.9942 98.4065 82.8022C98.4065 82.7382 98.7585 82.3222 99.4625 81.5542C100.166 80.7862 100.518 80.3382 100.518 80.2102C100.518 80.0182 100.614 79.9222 100.806 79.9222C100.934 79.9222 100.998 79.7942 100.998 79.5382C100.998 79.2822 101.094 79.1542 101.286 79.1542C101.478 79.1542 101.702 78.9942 101.958 78.6742C102.215 78.3542 102.342 78.0662 102.342 77.8102C102.342 77.4902 102.438 77.3302 102.63 77.3302C102.758 77.3302 102.822 77.0742 102.822 76.5622C102.822 76.0502 103.078 75.6022 103.59 75.2182C103.846 74.9622 104.07 74.8342 104.262 74.8342C104.646 74.8342 104.838 75.2502 104.838 76.0822C104.838 77.3622 104.55 78.5782 103.974 79.7302C103.142 81.4582 102.406 82.3222 101.766 82.3222C101.638 82.3222 101.574 82.4502 101.574 82.7062C101.574 82.9622 101.478 83.0902 101.286 83.0902C101.094 83.0902 100.998 83.2182 100.998 83.4742C100.998 83.7302 100.934 83.8582 100.806 83.8582C100.614 83.8582 100.518 83.9542 100.518 84.1462C100.518 84.3382 99.8785 85.0742 98.5985 86.3542C97.3825 87.6342 96.3905 88.5302 95.6225 89.0422C94.8545 89.4902 94.4705 89.7782 94.4705 89.9062C94.4705 90.1622 93.5105 90.5142 91.5905 90.9622C90.8225 91.0902 90.1505 91.1542 89.5745 91.1542C87.9745 91.1542 86.8545 90.9622 86.2145 90.5782C85.7025 90.3222 85.3185 90.1942 85.0625 90.1942C84.9345 90.1942 84.6785 90.0342 84.2945 89.7142C83.9105 89.3302 83.6545 89.1382 83.5265 89.1382C83.3345 89.1382 83.2385 89.0422 83.2385 88.8502C83.2385 88.7222 83.1425 88.6582 82.9505 88.6582C82.7585 88.6582 82.3425 88.3702 81.7025 87.7942C81.1265 87.1542 80.8385 86.7382 80.8385 86.5462C80.8385 86.3542 80.7425 86.2582 80.5505 86.2582C80.4225 86.2582 80.3585 86.1302 80.3585 85.8742C80.3585 85.6182 80.2625 85.4902 80.0705 85.4902C79.8785 85.4902 79.7825 85.3622 79.7825 85.1062C79.7825 84.8502 79.6225 84.5622 79.3025 84.2422C78.4065 83.3462 77.9585 80.5622 77.9585 75.8902C77.9585 73.3942 78.1505 71.6662 78.5345 70.7062C78.7265 70.1942 78.7265 69.7462 78.5345 69.3622C78.3425 68.9782 78.2465 68.5942 78.2465 68.2102C78.2465 67.6342 78.6625 66.9302 79.4945 66.0982C80.3905 65.3302 80.8385 64.7542 80.8385 64.3702C80.8385 64.0502 80.9665 63.6022 81.2225 63.0262C81.5425 62.4502 81.7665 62.1622 81.8945 62.1622C82.0865 62.1622 82.1825 62.0342 82.1825 61.7782C82.1825 61.6502 82.3425 61.4262 82.6625 61.1062C83.0465 60.7222 83.2385 60.4982 83.2385 60.4342C83.2385 60.3062 83.4945 59.9542 84.0065 59.3782C84.5825 58.8022 84.8705 58.4502 84.8705 58.3222C84.9985 58.0662 85.5105 57.5862 86.4065 56.8822C87.3025 56.1782 87.8785 55.8262 88.1345 55.8262C88.3265 55.8262 88.4225 55.7302 88.4225 55.5382Z" fill="black"/>
<path d="M37.2966 53.7134C37.2966 53.4574 37.2326 53.3294 37.1046 53.3294C37.0406 53.3294 36.9446 53.4254 36.8166 53.6174C36.7526 53.7454 36.7206 53.8734 36.7206 54.0014C36.7846 54.1294 36.8806 54.1934 37.0086 54.1934C37.2006 54.1934 37.2966 54.0334 37.2966 53.7134ZM40.6566 53.5214C40.6566 53.3294 40.4646 53.2014 40.0806 53.1374C39.8886 53.2014 39.7606 53.2654 39.6966 53.3294C39.6966 53.5214 39.8566 53.6174 40.1766 53.6174C40.4966 53.6174 40.6566 53.5854 40.6566 53.5214ZM54.6726 26.2574C54.6726 25.4894 54.2886 24.8494 53.5206 24.3374C52.7526 23.7614 51.8886 23.4734 50.9286 23.4734C50.3526 23.4734 49.8406 23.5374 49.3926 23.6654C49.0086 23.7934 48.5286 24.0494 47.9526 24.4334C47.4406 24.8174 47.1526 25.0414 47.0886 25.1054C46.4486 25.4254 46.1286 25.7134 46.1286 25.9694C46.1286 26.0974 45.9686 26.1614 45.6486 26.1614C45.2646 26.1614 43.7606 27.4734 41.1366 30.0974C39.6006 31.6334 38.7046 32.8814 38.4486 33.8414C38.3846 34.0334 38.2566 34.3534 38.0646 34.8014C37.8726 35.1854 37.7766 35.4414 37.7766 35.5694C37.8406 35.6334 37.9366 35.8254 38.0646 36.1454C38.3206 36.4014 38.4486 36.8174 38.4486 37.3934C38.4486 37.8414 38.3846 38.0654 38.2566 38.0654C38.1926 38.0654 38.0646 38.0334 37.8726 37.9694C37.7446 37.9054 37.5206 37.8414 37.2006 37.7774C36.9446 37.6494 36.7526 37.5854 36.6246 37.5854C36.3686 37.4574 36.2086 37.4574 36.1446 37.5854C36.0806 37.6494 36.0486 37.8734 36.0486 38.2574C36.0486 38.8334 36.1446 39.2174 36.3366 39.4094C36.7206 39.7934 37.1046 41.3614 37.4886 44.1134C37.6166 44.7534 37.7766 45.4254 37.9686 46.1294C38.1606 46.8334 38.3206 47.5054 38.4486 48.1454C38.8966 50.0654 39.6326 51.0254 40.6566 51.0254H40.9446C41.3286 50.8974 41.5206 50.9294 41.5206 51.1214L42.4806 51.6974C42.8646 51.8254 43.1206 51.8894 43.2486 51.8894C43.5686 51.8894 43.8566 51.7934 44.1126 51.6014C44.3686 51.4094 44.6246 51.1534 44.8806 50.8334C45.1366 50.5134 45.3606 50.2894 45.5526 50.1614C46.1286 49.7134 46.4166 49.3614 46.4166 49.1054C46.4166 48.9774 46.7046 48.7214 47.2806 48.3374C47.9206 47.8894 48.2406 47.6014 48.2406 47.4734C48.2406 47.1534 48.6886 46.6094 49.5846 45.8414C51.1206 44.2414 51.8886 43.2814 51.8886 42.9614C51.8886 42.8334 52.2406 42.0334 52.9446 40.5614C53.6486 39.0894 54.0006 38.2894 54.0006 38.1614C54.0006 37.7134 54.1606 37.2334 54.4806 36.7214C55.1206 35.2494 55.4406 32.8494 55.4406 29.5214C55.4406 27.6654 55.2806 26.7374 54.9606 26.7374C54.7686 26.7374 54.6726 26.5774 54.6726 26.2574ZM43.6326 55.2494C43.2486 54.9934 42.8966 54.8654 42.5766 54.8654C42.2566 54.8654 41.8726 55.0254 41.4246 55.3454C40.9766 55.6014 40.6246 55.7294 40.3686 55.7294C39.9206 55.7294 39.6966 55.9534 39.6966 56.4014C39.6966 56.8494 39.8886 57.9054 40.2726 59.5694C40.7206 61.8094 40.9446 63.2494 40.9446 63.8894C40.9446 65.2334 41.0406 66.2254 41.2326 66.8654C41.8086 68.9774 42.4166 72.5934 43.0566 77.7134C43.9526 84.8174 44.7846 88.5294 45.5526 88.8494C45.7446 89.0414 45.8406 89.3294 45.8406 89.7134C45.8406 90.2254 45.5526 90.4814 44.9766 90.4814C44.5926 90.4814 44.2086 90.3854 43.8246 90.1934C43.5046 89.9374 43.3446 89.6814 43.3446 89.4254C43.3446 89.1054 43.2166 88.7214 42.9606 88.2734C42.1926 86.6094 41.7446 84.8814 41.6166 83.0894C41.4886 81.7454 41.3606 80.9134 41.2326 80.5934C40.9766 80.2094 40.7206 78.7374 40.4646 76.1774C40.4006 75.5374 40.1766 74.0654 39.7926 71.7614C39.4726 69.3934 39.2806 67.9214 39.2166 67.3454C39.1526 66.8334 38.9926 66.3854 38.7366 66.0014C38.5446 65.5534 38.4486 64.9454 38.4486 64.1774C38.4486 62.4494 38.1926 60.2414 37.6806 57.5534C37.5526 56.8494 37.2006 56.4654 36.6246 56.4014C35.7286 56.2734 35.1526 56.0814 34.8966 55.8254C34.6406 55.5054 34.5126 54.8654 34.5126 53.9054C34.5126 52.0494 35.0246 51.1214 36.0486 51.1214C36.3686 51.1214 36.5286 51.0254 36.5286 50.8334C36.5926 50.6414 36.5286 50.0334 36.3366 49.0094C34.8646 41.7774 33.8406 37.8414 33.2646 37.2014C32.9446 36.8814 32.7206 36.4334 32.5926 35.8574C32.4646 35.2814 32.4646 34.8654 32.5926 34.6094C32.6566 34.4174 32.8166 34.2894 33.0726 34.2254C33.3926 34.0974 33.6486 34.0654 33.8406 34.1294C34.0966 34.1934 34.2246 34.3214 34.2246 34.5134C34.2246 34.7694 34.5446 34.9934 35.1846 35.1854C35.8886 35.3134 36.3686 35.3134 36.6246 35.1854C36.8806 35.0574 37.0086 34.6414 37.0086 33.9374C37.0086 32.4654 37.3926 31.4094 38.1606 30.7694C38.4806 30.4494 38.8646 29.9054 39.3126 29.1374C39.7606 28.3694 40.0806 27.8894 40.2726 27.6974C40.7846 27.2494 41.9046 26.3214 43.6326 24.9134C45.4246 23.5054 46.4486 22.7694 46.7046 22.7054C46.8966 22.6414 48.4646 22.6094 51.4086 22.6094C54.1606 22.6094 55.5366 22.7374 55.5366 22.9934C55.5366 23.2494 55.6646 23.5054 55.9206 23.7614C56.7526 24.5934 57.1686 26.7054 57.1686 30.0974C57.1046 33.4254 56.8166 36.2094 56.3046 38.4494C56.1766 39.0254 56.0166 39.3134 55.8246 39.3134C55.6326 39.3134 55.5366 39.4414 55.5366 39.6974C55.5366 39.9534 55.2166 40.7854 54.5766 42.1934C53.9366 43.6014 53.5526 44.3694 53.4246 44.4974C53.3606 44.5614 53.2006 44.7854 52.9446 45.1694C52.3686 46.1934 50.6086 48.1774 47.6646 51.1214C46.2566 52.4014 45.5526 53.3294 45.5526 53.9054C45.5526 54.0974 45.6486 54.1934 45.8406 54.1934C46.1606 54.1934 47.9206 55.7934 51.1206 58.9934C51.5046 59.2494 52.0486 59.8894 52.7526 60.9134C53.5206 61.8734 54.0646 62.4814 54.3846 62.7374C54.9606 63.1854 55.2486 63.5374 55.2486 63.7934C55.2486 63.9214 55.4406 64.1774 55.8246 64.5614C56.2726 64.9454 56.4966 65.2014 56.4966 65.3294C56.4966 65.4574 56.7846 65.8094 57.3606 66.3854C58.5126 67.5374 59.1846 68.5294 59.3766 69.3614C59.5046 69.8094 59.6326 70.0334 59.7606 70.0334C59.8886 70.0334 60.1766 70.5134 60.6246 71.4734C61.0726 72.3694 61.3286 72.8174 61.3926 72.8174C61.5206 72.9454 61.6486 73.2974 61.7766 73.8734C61.9046 74.3854 62.0006 74.8654 62.0646 75.3134C62.1926 75.6974 62.3526 75.8894 62.5446 75.8894C62.7366 75.8894 62.8966 76.1134 63.0246 76.5614C63.0886 76.8174 63.3126 77.1374 63.6966 77.5214C64.1446 77.9054 64.3686 78.2574 64.3686 78.5774C64.3686 78.9614 64.5286 79.1534 64.8486 79.1534C65.1046 79.1534 65.3606 79.3454 65.6166 79.7294C65.6806 79.7934 66.0006 79.9854 66.5766 80.3054C67.2166 80.6254 67.4726 80.9454 67.3446 81.2654C67.2166 81.7134 66.6406 81.9374 65.6166 81.9374C65.0406 81.9374 64.5606 81.8094 64.1766 81.5534C61.9366 79.6334 60.3046 77.1054 59.2806 73.9694C59.0246 73.2014 58.8006 72.8174 58.6086 72.8174C58.5446 72.8174 58.2886 72.3054 57.8406 71.2814C57.3926 70.2574 57.1366 69.7454 57.0726 69.7454C56.8806 69.7454 56.7846 69.5534 56.7846 69.1694C56.7846 68.7214 56.6886 68.4974 56.4966 68.4974C56.3686 68.4974 56.2086 68.3054 56.0166 67.9214C55.8246 67.5374 55.6006 67.3454 55.3446 67.3454C55.0886 67.3454 54.9606 67.2494 54.9606 67.0574C54.9606 66.8014 54.4486 66.1614 53.4246 65.1374C51.8246 63.4734 51.0246 62.5134 51.0246 62.2574C51.0246 62.1934 50.3846 61.5854 49.1046 60.4334L46.6086 57.9374C46.1606 57.4894 45.8406 57.2654 45.6486 57.2654C45.5206 57.2654 45.2646 57.0734 44.8806 56.6894C44.4966 56.2414 44.3046 55.9534 44.3046 55.8254C44.3046 55.6334 44.0806 55.4414 43.6326 55.2494Z" fill="black"/>
</g>
<defs>
<clipPath id="clip0_1844_1920">
<rect width="403" height="138" fill="white"/>
</clipPath>
</defs>
</svg>
