<svg width="403" height="138" viewBox="0 0 403 138" fill="none" xmlns="http://www.w3.org/2000/svg">
<g clip-path="url(#clip0_1844_1894)">
<path d="M3.02441 3.31348H403.024V134.313H3.02441V3.31348Z" fill="#FFDB2D"/>
<path d="M65.463 9.75386e-05C71.4512 -0.00685141 77.4396 0.357496 83.4269 1.09385L101.267 3.28818C107.161 4.01315 113.056 4.27118 118.949 4.06162L136.789 3.42686C142.766 3.21435 148.743 3.27348 154.72 3.60459L172.56 4.59287C178.46 4.91975 184.361 4.8381 190.262 4.34678L208.102 2.86143C214.072 2.36429 220.043 2.08251 226.014 2.0167L243.854 1.82041C249.835 1.75448 255.816 1.99909 261.797 2.55576L279.637 4.21689C285.501 4.76271 291.366 4.58228 297.232 3.6749L315.071 0.915137C321.113 -0.0194817 327.158 -0.0712047 333.2 0.759863L351.041 3.21299C356.906 4.01955 362.769 4.09238 368.633 3.43174L386.473 1.42197C389.57 1.07309 392.177 1.44384 394.167 2.69443C396.185 3.96244 397.41 6.03378 397.929 8.73838L400.813 23.7696C401.788 28.8524 402.264 34.3961 402.246 40.3966L402.193 58.2364C402.176 64.1549 402.408 70.0735 402.889 75.9923L404.337 93.8331C404.825 99.8474 404.631 105.294 403.738 110.165L401.118 124.469C400.643 127.065 399.453 129.117 397.507 130.521C395.584 131.908 393.024 132.588 389.93 132.667L372.09 133.12C366.166 133.271 360.242 133.621 354.317 134.172L336.477 135.83C330.511 136.385 324.545 136.766 318.579 136.972L300.739 137.587C294.74 137.794 288.74 137.525 282.741 136.78L264.901 134.565C259.011 133.833 253.121 133.607 247.232 133.885L229.392 134.726C223.45 135.006 217.509 135.334 211.567 135.71L193.728 136.837C187.755 137.215 181.783 137.363 175.811 137.281L157.971 137.037C152.021 136.956 146.072 136.848 140.122 136.713L122.282 136.309C116.323 136.174 110.364 135.926 104.404 135.566L86.5646 134.49C80.6732 134.135 74.7817 134.269 68.8897 134.892L51.0499 136.776C45.0602 137.409 39.0696 137.649 33.0792 137.494L15.2384 137.035C12.1149 136.955 9.55392 136.149 7.68662 134.496C5.81286 132.837 4.7685 130.441 4.4503 127.448L2.65147 110.523C2.04489 104.816 1.97986 98.9592 2.45518 92.9542L3.86729 75.1144C4.33531 69.2014 4.50464 63.2887 4.37412 57.3761L3.97959 39.5353C3.849 33.6203 3.43889 28.4185 2.75303 23.9249L0.670999 10.2843C0.323127 8.00515 0.107533 6.265 0.0313509 5.08311C-0.00610453 4.50193 -0.0134863 4.00382 0.0284212 3.629C0.0481383 3.45285 0.0869899 3.21789 0.188577 2.99912C0.282935 2.79606 0.585323 2.31376 1.21983 2.31357H2.42295C2.78165 2.31357 5.90215 2.1277 11.881 1.74521L29.7208 0.603613C35.6882 0.221864 41.6556 0.0275346 47.6231 0.0206054L65.463 9.75386e-05ZM47.6261 2.02061C41.7005 2.02748 35.7745 2.22063 29.8487 2.59971L12.0079 3.74131C6.09369 4.11966 2.86617 4.31357 2.42295 4.31357H2.00108C2.00318 4.48751 2.01105 4.69977 2.02744 4.9542C2.09778 6.04558 2.30248 7.71528 2.64854 9.98252L4.73057 23.6231C5.43257 28.2225 5.84762 33.5136 5.97959 39.4913L6.37315 57.3312C6.50517 63.3116 6.33478 69.2924 5.86143 75.2726L4.44932 93.1124C3.98324 99.0007 4.04687 104.733 4.63975 110.311L6.43955 127.236C6.72112 129.885 7.61341 131.759 9.0128 132.998C10.4186 134.243 12.4674 134.962 15.2901 135.035L33.13 135.495C39.0326 135.647 44.9357 135.412 50.839 134.788L68.6798 132.902C74.681 132.268 80.6828 132.132 86.6847 132.494L104.525 133.57C110.459 133.928 116.393 134.174 122.327 134.309L140.167 134.713C146.111 134.848 152.054 134.956 157.998 135.037L175.838 135.281C181.759 135.362 187.681 135.216 193.602 134.842L211.442 133.714C217.393 133.338 223.345 133.009 229.297 132.729L247.138 131.887C253.142 131.604 259.145 131.835 265.148 132.58L282.987 134.796C288.882 135.528 294.776 135.791 300.67 135.588L318.51 134.973C324.437 134.768 330.365 134.39 336.292 133.839L354.132 132.181C360.101 131.626 366.07 131.273 372.039 131.121L389.879 130.667C392.731 130.595 394.85 129.971 396.337 128.899C397.801 127.843 398.753 126.28 399.15 124.108L401.771 109.805C402.625 105.14 402.821 99.8728 402.344 93.9942L400.895 76.1544C400.409 70.18 400.176 64.2053 400.193 58.2306L400.246 40.3907C400.263 34.4981 399.795 29.0846 398.848 24.1466L395.964 9.11533C395.522 6.80954 394.539 5.29004 393.103 4.38779C391.639 3.46825 389.546 3.08822 386.696 3.40928L368.857 5.41904C362.827 6.09834 356.797 6.02356 350.769 5.19443L332.928 2.74131C327.077 1.9367 321.228 1.98663 315.377 2.8917L297.537 5.65146C291.51 6.58375 285.481 6.76922 279.452 6.20811L261.611 4.54795C255.699 3.99767 249.787 3.75427 243.875 3.81943L226.035 4.0167C220.113 4.08199 214.19 4.36144 208.268 4.85459L190.428 6.33994C184.435 6.83891 178.442 6.92193 172.449 6.58994L154.609 5.60166C148.693 5.2739 142.777 5.21553 136.86 5.42588L119.02 6.05967C113.02 6.27296 107.021 6.01125 101.023 5.27354L83.1827 3.0792C77.2767 2.35284 71.371 1.99326 65.4659 2.0001L47.6261 2.02061Z" fill="black"/>
<path d="M287.171 64.6576C287.171 64.4656 287.235 64.2736 287.363 64.0816C287.555 63.8256 287.651 63.5696 287.651 63.3136C287.651 62.9936 287.747 62.8336 287.939 62.8336C288.131 62.8336 288.227 62.6416 288.227 62.2576C288.227 61.9376 288.323 61.7776 288.515 61.7776C288.643 61.7776 288.707 61.6496 288.707 61.3936C288.707 61.2656 288.803 61.0736 288.995 60.8176C289.251 60.4976 289.507 60.2096 289.763 59.9536C290.019 59.6336 290.179 59.4416 290.243 59.3776C290.435 59.0576 291.075 58.5456 292.163 57.8416C293.251 57.1376 293.923 56.7856 294.179 56.7856C294.499 56.7856 294.787 56.6576 295.043 56.4016C295.235 56.1456 295.779 56.0176 296.675 56.0176C297.635 56.0176 298.595 56.1456 299.555 56.4016C300.515 56.6576 300.995 56.9776 300.995 57.3616C300.995 57.4896 301.155 57.7136 301.475 58.0336C301.859 58.2896 302.051 58.5136 302.051 58.7056C302.051 58.9616 302.147 59.0896 302.339 59.0896C302.531 59.0896 302.627 59.5056 302.627 60.3376C302.627 61.1056 302.499 61.4896 302.243 61.4896C301.987 61.4896 301.635 61.3936 301.187 61.2016C300.739 60.9456 300.515 60.7536 300.515 60.6256C300.515 60.4976 300.387 60.4336 300.131 60.4336C299.939 60.4336 299.555 60.1456 298.979 59.5696C298.403 58.9936 297.891 58.6416 297.443 58.5136C297.379 58.5136 297.251 58.5136 297.059 58.5136C296.931 58.4496 296.803 58.4176 296.675 58.4176C295.907 58.4176 295.171 58.5456 294.467 58.8016C293.763 59.0576 293.411 59.3136 293.411 59.5696C293.411 59.8256 293.347 59.9536 293.219 59.9536C293.027 59.9536 292.931 60.1456 292.931 60.5296C292.931 61.0416 292.739 61.3296 292.355 61.3936C291.971 61.5216 291.491 61.8736 290.915 62.4496C289.635 63.7296 288.995 65.7776 288.995 68.5936C288.995 69.3616 289.123 70.2576 289.379 71.2816C289.635 72.2416 289.859 72.7216 290.051 72.7216C290.179 72.7216 290.403 72.9136 290.723 73.2976C291.107 73.6176 291.299 73.8416 291.299 73.9696C291.299 74.0976 291.459 74.1616 291.779 74.1616C292.163 74.0976 292.355 74.1296 292.355 74.2576C292.355 74.4496 293.123 74.7376 294.659 75.1216C296.195 75.5056 297.827 75.8896 299.555 76.2736C301.283 76.5936 302.307 76.8176 302.627 76.9456C303.779 77.5856 304.771 78.4816 305.603 79.6336C306.499 80.7856 307.011 81.9376 307.139 83.0896C307.139 83.1536 307.139 83.2816 307.139 83.4736C307.203 83.6656 307.235 83.8256 307.235 83.9536C307.235 85.8096 306.947 87.0256 306.371 87.6016C306.115 87.8576 305.987 88.0816 305.987 88.2736C305.987 88.4016 305.763 88.7536 305.315 89.3296C305.187 89.4576 304.995 89.7136 304.739 90.0976C304.547 90.4176 304.323 90.7056 304.067 90.9616C303.875 91.2176 303.683 91.3456 303.491 91.3456C303.299 91.3456 303.043 91.5376 302.723 91.9216C302.467 92.2416 302.275 92.4016 302.147 92.4016C301.891 92.4016 301.763 92.4656 301.763 92.5936C301.763 92.7856 301.603 92.8816 301.283 92.8816C300.963 92.8816 300.739 92.9456 300.611 93.0736C300.547 93.1376 299.779 93.3616 298.307 93.7456C296.835 94.0656 295.939 94.2256 295.619 94.2256H295.523C295.523 94.0976 295.107 94.0336 294.275 94.0336C292.483 94.0336 291.587 93.7776 291.587 93.2656C291.587 93.0096 291.459 92.8816 291.203 92.8816C290.819 92.8816 290.275 92.4016 289.571 91.4416C288.867 90.4816 288.515 89.7456 288.515 89.2336C288.515 88.7856 288.611 88.4016 288.803 88.0816C289.059 87.6976 289.283 87.5056 289.475 87.5056C289.731 87.5056 289.891 87.6976 289.955 88.0816C290.083 88.4656 290.211 88.6576 290.339 88.6576C290.467 88.6576 290.531 88.8496 290.531 89.2336C290.531 89.5536 290.627 89.7136 290.819 89.7136C290.883 89.7136 291.011 89.9056 291.203 90.2896C291.459 90.6096 291.683 90.7696 291.875 90.7696C292.195 90.7696 292.355 90.8656 292.355 91.0576C292.355 91.2496 292.579 91.3456 293.027 91.3456C293.475 91.3456 293.731 91.4096 293.795 91.5376C293.923 91.7296 294.659 91.8256 296.003 91.8256C297.411 91.8256 298.115 91.7296 298.115 91.5376C298.115 91.4096 298.371 91.3456 298.883 91.3456C299.267 91.3456 299.555 91.2496 299.747 91.0576C300.003 90.8656 300.259 90.7696 300.515 90.7696C300.835 90.7696 300.995 90.6416 300.995 90.3856C300.995 90.1296 301.123 90.0016 301.379 90.0016C301.507 90.0016 301.699 89.8736 301.955 89.6176C302.211 89.3616 302.467 89.0736 302.723 88.7536C302.979 88.4336 303.139 88.2416 303.203 88.1776C303.523 87.9856 303.683 87.6976 303.683 87.3136C303.683 86.9936 303.811 86.8336 304.067 86.8336C304.323 86.8336 304.451 86.6096 304.451 86.1616C304.451 85.7776 304.515 85.5856 304.643 85.5856C304.835 85.5856 304.931 85.2336 304.931 84.5296C304.931 83.8256 304.835 83.4736 304.643 83.4736C304.515 83.4736 304.451 83.3136 304.451 82.9936C304.451 82.7376 304.355 82.5136 304.163 82.3216C303.971 82.1296 303.875 81.9376 303.875 81.7456C303.875 81.4896 303.619 81.1056 303.107 80.5936C302.659 80.0816 302.307 79.8256 302.051 79.8256C301.859 79.8256 301.539 79.6656 301.091 79.3456C300.643 79.0256 299.939 78.8016 298.979 78.6736C295.651 78.3536 292.899 77.6816 290.723 76.6576C289.891 76.2736 289.091 75.6656 288.323 74.8336C287.555 74.0016 287.171 73.3296 287.171 72.8176C287.171 72.5616 287.075 72.3056 286.883 72.0496C286.691 71.7296 286.595 71.3776 286.595 70.9936C286.595 70.4176 286.531 70.1296 286.403 70.1296C286.211 70.1296 286.115 69.6496 286.115 68.6896C286.115 67.7296 286.211 67.2496 286.403 67.2496C286.531 67.2496 286.595 66.8976 286.595 66.1936C286.595 65.4896 286.691 65.1376 286.883 65.1376C287.075 65.1376 287.171 64.9776 287.171 64.6576Z" fill="black"/>
<path d="M269.05 73.01C269.05 72.626 269.114 72.306 269.242 72.05C269.434 71.794 269.53 71.506 269.53 71.186C269.53 70.738 269.594 70.45 269.722 70.322C269.914 70.13 270.138 69.362 270.394 68.018C270.65 66.61 270.81 65.842 270.874 65.714C271.002 65.074 271.066 64.338 271.066 63.506V62.45C271.002 60.978 270.682 59.954 270.106 59.378C269.466 58.866 269.018 58.61 268.762 58.61C268.378 58.61 268.186 58.514 268.186 58.322C268.186 58.13 267.93 58.034 267.418 58.034C266.778 58.034 266.01 58.162 265.114 58.418C264.218 58.674 263.706 58.93 263.578 59.186C263.45 59.314 263.162 59.378 262.714 59.378C262.33 59.378 261.562 59.73 260.41 60.434C259.322 61.074 258.778 61.522 258.778 61.778C258.778 61.97 258.522 62.418 258.01 63.122C257.498 63.762 257.242 64.21 257.242 64.466C257.242 64.786 257.082 65.234 256.762 65.81C256.442 66.386 256.218 66.674 256.09 66.674C255.962 66.674 255.898 66.802 255.898 67.058C255.898 67.186 255.706 67.506 255.322 68.018C255.002 68.53 254.842 68.818 254.842 68.882C254.842 69.01 254.746 69.074 254.554 69.074C254.298 69.074 254.074 69.234 253.882 69.554C253.69 69.874 253.594 70.194 253.594 70.514C253.594 70.77 253.498 71.026 253.306 71.282C253.114 71.538 253.018 71.794 253.018 72.05C253.018 72.562 252.858 73.234 252.538 74.066C252.218 74.77 252.058 75.634 252.058 76.658C252.058 78.514 252.602 80.53 253.69 82.706C253.818 83.026 254.106 83.282 254.554 83.474C254.938 83.666 255.13 83.826 255.13 83.954C255.13 84.146 255.29 84.242 255.61 84.242C255.93 84.242 256.154 84.306 256.282 84.434C256.858 85.01 258.202 85.298 260.314 85.298C261.018 85.298 261.37 85.202 261.37 85.01C261.37 84.882 261.53 84.818 261.85 84.818C262.17 84.818 262.586 84.498 263.098 83.858C263.226 83.73 263.514 83.41 263.962 82.898C264.474 82.386 264.858 82.002 265.114 81.746C265.946 80.914 266.362 80.402 266.362 80.21C266.362 80.018 266.522 79.698 266.842 79.25C267.226 78.738 267.418 78.354 267.418 78.098C267.546 77.522 267.642 77.234 267.706 77.234C267.898 77.042 267.994 76.85 267.994 76.658C267.994 76.402 268.058 76.146 268.186 75.89C268.378 75.57 268.474 75.218 268.474 74.834C268.474 74.13 268.57 73.778 268.762 73.778C268.954 73.778 269.05 73.522 269.05 73.01ZM258.682 58.13C258.746 58.13 259.066 57.874 259.642 57.362C260.282 56.786 260.666 56.498 260.794 56.498C261.05 56.498 261.178 56.402 261.178 56.21C261.178 55.954 261.498 55.73 262.138 55.538C262.842 55.346 263.802 55.25 265.018 55.25C266.298 55.25 267.226 55.346 267.802 55.538C269.466 55.986 270.298 56.338 270.298 56.594C270.298 56.722 270.618 57.106 271.258 57.746C271.898 58.322 272.282 58.61 272.41 58.61C272.602 58.61 272.698 58.706 272.698 58.898C272.698 59.026 272.794 59.09 272.986 59.09C273.178 59.09 273.37 59.314 273.562 59.762C273.754 60.21 273.978 60.434 274.234 60.434C274.618 60.434 274.906 60.69 275.098 61.202C275.354 61.714 275.546 61.97 275.674 61.97C275.866 61.97 275.898 62.418 275.77 63.314C275.706 64.082 275.45 64.69 275.002 65.138C274.682 65.458 274.522 65.714 274.522 65.906C274.522 66.098 274.426 66.194 274.234 66.194C274.17 66.194 274.138 66.482 274.138 67.058C274.138 68.146 274.234 70.514 274.426 74.162C274.682 77.81 274.81 79.698 274.81 79.826V80.69V84.146C274.81 85.81 274.714 86.706 274.522 86.834C274.33 86.962 274.234 87.122 274.234 87.314C274.234 87.57 274.074 87.698 273.754 87.698C273.498 87.698 273.242 87.57 272.986 87.314C272.154 86.482 271.738 83.986 271.738 79.826V78.962C271.738 76.53 271.674 75.314 271.546 75.314C271.482 75.314 271.482 75.122 271.546 74.738C271.61 74.29 271.546 74.066 271.354 74.066C271.162 74.066 271.066 74.29 271.066 74.738C271.066 75.122 271.002 75.314 270.874 75.314C270.682 75.314 270.586 75.634 270.586 76.274C270.586 76.85 270.49 77.138 270.298 77.138C270.106 77.138 270.01 77.298 270.01 77.618C270.01 77.938 269.914 78.418 269.722 79.058C269.53 79.698 269.37 80.018 269.242 80.018C269.114 80.018 269.05 80.21 269.05 80.594C269.05 80.85 268.858 81.266 268.474 81.842C268.09 82.418 267.802 82.77 267.61 82.898C267.482 83.026 267.418 83.154 267.418 83.282C267.418 83.41 267.29 83.602 267.034 83.858C266.778 84.114 266.586 84.242 266.458 84.242C266.394 84.242 266.202 84.434 265.882 84.818C265.562 85.138 265.338 85.298 265.21 85.298C265.018 85.298 264.794 85.522 264.538 85.97C264.282 86.418 264.058 86.642 263.866 86.642C263.61 86.642 263.482 86.706 263.482 86.834C263.482 87.026 263.354 87.122 263.098 87.122C262.906 87.122 262.778 87.218 262.714 87.41C262.65 87.602 261.402 87.698 258.97 87.698C256.922 87.698 255.802 87.602 255.61 87.41C255.418 87.218 255.194 87.122 254.938 87.122C254.746 87.122 254.426 86.93 253.978 86.546C253.53 86.098 253.306 85.81 253.306 85.682C253.306 85.49 252.634 84.85 251.29 83.762C250.586 83.122 250.138 82.322 249.946 81.362C249.626 79.698 249.434 78.802 249.37 78.674C249.178 77.906 249.21 77.298 249.466 76.85C249.594 76.466 249.786 75.506 250.042 73.97C250.298 72.434 250.522 71.442 250.714 70.994C251.034 70.226 251.194 69.778 251.194 69.65C251.194 69.394 251.418 68.786 251.866 67.826C252.378 66.802 252.762 66.162 253.018 65.906C253.338 65.65 253.69 65.138 254.074 64.37C254.458 63.602 254.778 63.09 255.034 62.834C255.546 62.322 255.962 61.746 256.282 61.106C256.666 60.338 256.986 59.858 257.242 59.666C257.562 59.474 257.722 59.25 257.722 58.994C257.722 58.93 257.85 58.77 258.106 58.514C258.362 58.258 258.554 58.13 258.682 58.13Z" fill="black"/>
<path d="M231.749 86.4499C232.133 86.7699 232.325 87.0579 232.325 87.3139C232.325 87.5699 232.453 87.8899 232.709 88.2739C232.965 88.5939 233.093 88.8499 233.093 89.0419C233.093 89.2979 233.125 89.4259 233.189 89.4259C233.317 89.4259 233.669 89.2339 234.245 88.8499C234.821 88.5299 235.109 88.2099 235.109 87.8899C235.109 87.6339 235.205 87.4099 235.397 87.2179C235.909 86.5779 236.165 84.9779 236.165 82.4179C236.165 82.2259 236.133 82.0019 236.069 81.7459C236.069 81.4899 236.069 81.2979 236.069 81.1699C236.069 80.7859 236.037 80.2739 235.973 79.6339C235.973 78.9939 235.941 78.2579 235.877 77.4259C235.813 76.5939 235.781 75.9539 235.781 75.5059C235.717 73.7779 235.429 70.9939 234.917 67.1539C234.853 66.5779 234.789 66.0019 234.725 65.4259C234.661 64.8499 234.597 64.4019 234.533 64.0819C234.533 63.7619 234.533 63.5059 234.533 63.3139C234.533 62.9939 234.597 62.7699 234.725 62.6419C234.981 62.3859 235.205 62.2579 235.397 62.2579C235.589 62.2579 235.685 62.1299 235.685 61.8739C235.685 61.6179 235.941 61.4899 236.453 61.4899C236.965 61.4259 237.253 61.5219 237.317 61.7779C237.445 62.0339 237.445 62.9619 237.317 64.5619V65.6179C237.317 67.2819 237.573 69.0099 238.085 70.8019C238.277 71.7619 238.373 72.5939 238.373 73.2979C238.373 74.1299 238.437 74.8659 238.565 75.5059C238.757 76.1459 238.853 76.9459 238.853 77.9059V82.1299C238.853 85.0099 238.661 86.6419 238.277 87.0259C238.085 87.2179 237.989 87.5699 237.989 88.0819C237.989 88.6579 237.925 88.9459 237.797 88.9459C237.605 88.9459 237.509 89.1379 237.509 89.5219C237.509 89.8419 237.381 90.0019 237.125 90.0019C236.933 90.0019 236.645 90.1939 236.261 90.5779C235.877 90.8979 235.621 91.0579 235.493 91.0579C235.237 91.0579 235.109 91.1539 235.109 91.3459C235.109 91.4739 234.917 91.5379 234.533 91.5379C234.149 91.5379 233.893 91.6339 233.765 91.8259C233.573 92.1459 233.125 92.2419 232.421 92.1139C231.781 91.9859 231.461 91.7619 231.461 91.4419C231.461 91.1859 231.397 91.0579 231.269 91.0579C231.077 91.0579 230.981 90.9299 230.981 90.6739C230.981 90.5459 230.789 90.3859 230.405 90.1939C230.085 89.9379 229.925 89.7139 229.925 89.5219C229.925 89.2659 229.733 88.9779 229.349 88.6579C229.029 88.3379 228.869 88.1139 228.869 87.9859C228.869 87.7939 228.677 87.4739 228.293 87.0259C227.973 86.5779 227.845 86.1619 227.909 85.7779C228.037 85.2659 228.005 85.0099 227.813 85.0099C227.621 85.0099 227.525 84.8499 227.525 84.5299C227.525 84.1459 227.333 83.6979 226.949 83.1859C226.437 82.5459 226.085 81.8099 225.893 80.9779C225.381 79.2499 224.517 77.5219 223.301 75.7939C222.981 75.3459 222.821 75.0579 222.821 74.9299C222.821 74.7379 222.693 74.4179 222.437 73.9699C222.245 73.5219 222.117 73.2979 222.053 73.2979C221.925 73.2979 221.861 73.1699 221.861 72.9139C221.861 72.7859 221.701 72.4339 221.381 71.8579C221.125 71.2179 220.997 70.8019 220.997 70.6099C220.997 70.3539 220.805 70.0979 220.421 69.8419C219.781 69.5219 219.461 68.9459 219.461 68.1139C219.461 67.2819 219.973 66.8659 220.997 66.8659C221.957 66.8659 222.533 67.1859 222.725 67.8259C222.789 67.9539 223.013 68.2739 223.397 68.7859C223.845 69.2979 224.069 69.6499 224.069 69.8419C224.069 70.2899 225.221 72.8179 227.525 77.4259C227.653 77.6819 227.845 78.1299 228.101 78.7699C228.421 79.3459 228.613 79.7299 228.677 79.9219C228.997 80.5619 229.157 81.0099 229.157 81.2659C229.157 82.0339 229.413 82.5779 229.925 82.8979C230.053 82.9619 230.309 83.4099 230.693 84.2419C231.077 85.0099 231.269 85.4899 231.269 85.6819C231.269 85.8739 231.429 86.1299 231.749 86.4499Z" fill="black"/>
<path d="M188.841 73.3936C188.841 74.2896 188.905 75.0256 189.033 75.6016C189.225 76.1136 189.321 76.7856 189.321 77.6176C189.321 78.8976 189.417 79.5696 189.609 79.6336C189.737 79.6976 189.801 80.5616 189.801 82.2256C189.801 83.5696 189.865 85.5216 189.993 88.0816C190.057 88.7216 190.089 89.4896 190.089 90.3856C190.089 91.2816 189.961 91.8896 189.705 92.2096C189.449 92.6576 189.129 92.8816 188.745 92.8816C188.233 92.8816 187.721 92.1456 187.209 90.6736C186.953 90.0336 186.761 86.9616 186.633 81.4576C186.569 78.5136 186.409 76.8496 186.153 76.4656C185.833 75.6976 185.673 75.1216 185.673 74.7376C185.673 74.2896 185.577 73.9696 185.385 73.7776C185.321 73.7136 185.129 72.8176 184.809 71.0896C184.553 69.2976 184.425 68.3696 184.425 68.3056C184.233 67.9856 184.137 67.5696 184.137 67.0576C184.137 66.8016 183.977 66.2576 183.657 65.4256C183.337 64.9136 183.177 64.1456 183.177 63.1216C183.177 62.0976 183.433 61.4576 183.945 61.2016C184.649 60.7536 185.353 60.6896 186.057 61.0096C186.441 61.3296 186.601 61.5856 186.537 61.7776C186.409 61.7776 186.217 62.0336 185.961 62.5456C185.769 63.0576 185.673 63.4736 185.673 63.7936C185.673 64.1776 185.769 64.3696 185.961 64.3696C186.089 64.3696 186.153 64.5936 186.153 65.0416C186.153 65.2976 186.249 65.5536 186.441 65.8096C186.633 66.0656 186.729 66.3536 186.729 66.6736C186.729 67.3136 186.761 67.6976 186.825 67.8256C186.953 68.1456 187.145 68.3056 187.401 68.3056C187.657 68.2416 187.785 68.0496 187.785 67.7296C187.785 67.4096 187.849 67.2496 187.977 67.2496C188.169 67.2496 188.265 67.1216 188.265 66.8656C188.265 66.6736 188.521 66.3216 189.033 65.8096C190.441 64.4016 191.401 63.5056 191.913 63.1216C192.425 62.7376 193.097 62.4816 193.929 62.3536C194.249 62.2896 194.569 62.1936 194.889 62.0656C195.209 61.8736 195.561 61.7776 195.945 61.7776C196.073 61.7776 196.553 61.6496 197.385 61.3936C198.281 61.0736 198.889 60.9136 199.209 60.9136C199.529 60.9136 199.753 61.0096 199.881 61.2016C200.073 61.3936 200.361 61.4896 200.745 61.4896C201.129 61.4896 201.321 61.6176 201.321 61.8736C201.321 62.1296 201.513 62.3216 201.897 62.4496C202.345 62.7696 202.889 63.5376 203.529 64.7536C204.169 65.9056 204.489 66.8336 204.489 67.5376C204.489 71.3136 204.617 75.5696 204.873 80.3056C205.001 82.8656 205.129 84.1776 205.257 84.2416C205.449 84.3056 205.545 84.4656 205.545 84.7216C205.545 85.4256 206.185 85.7776 207.465 85.7776C208.297 85.7776 208.713 85.9056 208.713 86.1616C208.713 86.4816 208.585 86.8976 208.329 87.4096C208.073 87.9216 207.881 88.1776 207.753 88.1776C207.497 88.1776 207.369 88.2736 207.369 88.4656C207.369 88.5936 206.921 88.6576 206.025 88.6576C205.193 88.6576 204.777 88.5936 204.777 88.4656C204.777 88.2736 204.649 88.1776 204.393 88.1776C204.265 88.1776 204.105 88.0816 203.913 87.8896C203.785 87.6336 203.625 87.3776 203.433 87.1216C203.305 86.8016 203.209 86.6096 203.145 86.5456C202.761 86.1616 202.537 85.5216 202.473 84.6256C202.409 83.6656 202.345 81.1696 202.281 77.1376C202.281 72.9136 202.185 70.1296 201.993 68.7856C201.737 67.5056 201.257 66.3856 200.553 65.4256C199.849 64.4016 199.209 63.8576 198.633 63.7936C197.097 63.6656 196.137 63.7936 195.753 64.1776C195.497 64.3056 195.209 64.3696 194.889 64.3696C194.505 64.3696 194.313 64.4976 194.313 64.7536C194.313 65.0096 194.121 65.1376 193.737 65.1376C193.417 65.1376 193.257 65.2336 193.257 65.4256C193.257 65.6176 193.129 65.7136 192.873 65.7136C192.617 65.7136 192.201 65.9696 191.625 66.4816C191.113 66.9296 190.857 67.2496 190.857 67.4416C190.857 67.5696 190.665 67.7936 190.281 68.1136C189.961 68.4336 189.801 68.7216 189.801 68.9776C189.801 69.2336 189.705 69.5216 189.513 69.8416C189.385 70.0976 189.321 70.3856 189.321 70.7056C189.321 71.2176 189.225 71.4736 189.033 71.4736C188.905 71.4736 188.841 72.1136 188.841 73.3936Z" fill="black"/>
<path d="M166.112 73.01C166.112 72.626 166.176 72.306 166.304 72.05C166.496 71.794 166.592 71.506 166.592 71.186C166.592 70.738 166.656 70.45 166.784 70.322C166.976 70.13 167.2 69.362 167.456 68.018C167.712 66.61 167.872 65.842 167.936 65.714C168.064 65.074 168.128 64.338 168.128 63.506V62.45C168.064 60.978 167.744 59.954 167.168 59.378C166.528 58.866 166.08 58.61 165.824 58.61C165.44 58.61 165.248 58.514 165.248 58.322C165.248 58.13 164.992 58.034 164.48 58.034C163.84 58.034 163.072 58.162 162.176 58.418C161.28 58.674 160.768 58.93 160.64 59.186C160.512 59.314 160.224 59.378 159.776 59.378C159.392 59.378 158.624 59.73 157.472 60.434C156.384 61.074 155.84 61.522 155.84 61.778C155.84 61.97 155.584 62.418 155.072 63.122C154.56 63.762 154.304 64.21 154.304 64.466C154.304 64.786 154.144 65.234 153.824 65.81C153.504 66.386 153.28 66.674 153.152 66.674C153.024 66.674 152.96 66.802 152.96 67.058C152.96 67.186 152.768 67.506 152.384 68.018C152.064 68.53 151.904 68.818 151.904 68.882C151.904 69.01 151.808 69.074 151.616 69.074C151.36 69.074 151.136 69.234 150.944 69.554C150.752 69.874 150.656 70.194 150.656 70.514C150.656 70.77 150.56 71.026 150.368 71.282C150.176 71.538 150.08 71.794 150.08 72.05C150.08 72.562 149.92 73.234 149.6 74.066C149.28 74.77 149.12 75.634 149.12 76.658C149.12 78.514 149.664 80.53 150.752 82.706C150.88 83.026 151.168 83.282 151.616 83.474C152 83.666 152.192 83.826 152.192 83.954C152.192 84.146 152.352 84.242 152.672 84.242C152.992 84.242 153.216 84.306 153.344 84.434C153.92 85.01 155.264 85.298 157.376 85.298C158.08 85.298 158.432 85.202 158.432 85.01C158.432 84.882 158.592 84.818 158.912 84.818C159.232 84.818 159.648 84.498 160.16 83.858C160.288 83.73 160.576 83.41 161.024 82.898C161.536 82.386 161.92 82.002 162.176 81.746C163.008 80.914 163.424 80.402 163.424 80.21C163.424 80.018 163.584 79.698 163.904 79.25C164.288 78.738 164.48 78.354 164.48 78.098C164.608 77.522 164.704 77.234 164.768 77.234C164.96 77.042 165.056 76.85 165.056 76.658C165.056 76.402 165.12 76.146 165.248 75.89C165.44 75.57 165.536 75.218 165.536 74.834C165.536 74.13 165.632 73.778 165.824 73.778C166.016 73.778 166.112 73.522 166.112 73.01ZM155.744 58.13C155.808 58.13 156.128 57.874 156.704 57.362C157.344 56.786 157.728 56.498 157.856 56.498C158.112 56.498 158.24 56.402 158.24 56.21C158.24 55.954 158.56 55.73 159.2 55.538C159.904 55.346 160.864 55.25 162.08 55.25C163.36 55.25 164.288 55.346 164.864 55.538C166.528 55.986 167.36 56.338 167.36 56.594C167.36 56.722 167.68 57.106 168.32 57.746C168.96 58.322 169.344 58.61 169.472 58.61C169.664 58.61 169.76 58.706 169.76 58.898C169.76 59.026 169.856 59.09 170.048 59.09C170.24 59.09 170.432 59.314 170.624 59.762C170.816 60.21 171.04 60.434 171.296 60.434C171.68 60.434 171.968 60.69 172.16 61.202C172.416 61.714 172.608 61.97 172.736 61.97C172.928 61.97 172.96 62.418 172.832 63.314C172.768 64.082 172.512 64.69 172.064 65.138C171.744 65.458 171.584 65.714 171.584 65.906C171.584 66.098 171.488 66.194 171.296 66.194C171.232 66.194 171.2 66.482 171.2 67.058C171.2 68.146 171.296 70.514 171.488 74.162C171.744 77.81 171.872 79.698 171.872 79.826V80.69V84.146C171.872 85.81 171.776 86.706 171.584 86.834C171.392 86.962 171.296 87.122 171.296 87.314C171.296 87.57 171.136 87.698 170.816 87.698C170.56 87.698 170.304 87.57 170.048 87.314C169.216 86.482 168.8 83.986 168.8 79.826V78.962C168.8 76.53 168.736 75.314 168.608 75.314C168.544 75.314 168.544 75.122 168.608 74.738C168.672 74.29 168.608 74.066 168.416 74.066C168.224 74.066 168.128 74.29 168.128 74.738C168.128 75.122 168.064 75.314 167.936 75.314C167.744 75.314 167.648 75.634 167.648 76.274C167.648 76.85 167.552 77.138 167.36 77.138C167.168 77.138 167.072 77.298 167.072 77.618C167.072 77.938 166.976 78.418 166.784 79.058C166.592 79.698 166.432 80.018 166.304 80.018C166.176 80.018 166.112 80.21 166.112 80.594C166.112 80.85 165.92 81.266 165.536 81.842C165.152 82.418 164.864 82.77 164.672 82.898C164.544 83.026 164.48 83.154 164.48 83.282C164.48 83.41 164.352 83.602 164.096 83.858C163.84 84.114 163.648 84.242 163.52 84.242C163.456 84.242 163.264 84.434 162.944 84.818C162.624 85.138 162.4 85.298 162.272 85.298C162.08 85.298 161.856 85.522 161.6 85.97C161.344 86.418 161.12 86.642 160.928 86.642C160.672 86.642 160.544 86.706 160.544 86.834C160.544 87.026 160.416 87.122 160.16 87.122C159.968 87.122 159.84 87.218 159.776 87.41C159.712 87.602 158.464 87.698 156.032 87.698C153.984 87.698 152.864 87.602 152.672 87.41C152.48 87.218 152.256 87.122 152 87.122C151.808 87.122 151.488 86.93 151.04 86.546C150.592 86.098 150.368 85.81 150.368 85.682C150.368 85.49 149.696 84.85 148.352 83.762C147.648 83.122 147.2 82.322 147.008 81.362C146.688 79.698 146.496 78.802 146.432 78.674C146.24 77.906 146.272 77.298 146.528 76.85C146.656 76.466 146.848 75.506 147.104 73.97C147.36 72.434 147.584 71.442 147.776 70.994C148.096 70.226 148.256 69.778 148.256 69.65C148.256 69.394 148.48 68.786 148.928 67.826C149.44 66.802 149.824 66.162 150.08 65.906C150.4 65.65 150.752 65.138 151.136 64.37C151.52 63.602 151.84 63.09 152.096 62.834C152.608 62.322 153.024 61.746 153.344 61.106C153.728 60.338 154.048 59.858 154.304 59.666C154.624 59.474 154.784 59.25 154.784 58.994C154.784 58.93 154.912 58.77 155.168 58.514C155.424 58.258 155.616 58.13 155.744 58.13Z" fill="black"/>
<path d="M106.328 46.0338C106.328 46.3538 106.072 46.7378 105.56 47.1858C105.048 47.5698 104.792 47.8578 104.792 48.0498C104.792 48.3698 104.6 48.7218 104.216 49.1058C103.896 49.4898 103.512 50.4498 103.064 51.9858C102.68 53.2658 102.136 54.6738 101.432 56.2098C100.344 58.6418 99.8005 61.4258 99.8005 64.5618C99.8005 64.8818 99.8005 65.5218 99.8005 66.4818C99.8645 67.4418 99.8965 68.2418 99.8965 68.8818C100.024 72.5938 100.312 75.9858 100.76 79.0578C101.208 82.1298 101.72 83.9538 102.296 84.5298C102.68 84.9138 102.872 85.2978 102.872 85.6818C102.872 86.2578 103.736 87.3778 105.464 89.0418C107.256 90.7058 108.44 91.5378 109.016 91.5378C109.272 91.5378 109.4 91.6338 109.4 91.8258C109.4 92.0818 110.68 92.4978 113.24 93.0738C115.096 93.5218 117.016 93.7458 119 93.7458C124.312 93.7458 128.792 91.8898 132.44 88.1778C133.272 87.3458 133.688 86.3858 133.688 85.2978C133.688 83.4418 133.976 82.5138 134.552 82.5138C134.68 82.5138 134.809 82.5778 134.937 82.7058C135.448 83.0898 135.704 83.7618 135.704 84.7218C135.704 86.1938 135.192 87.7938 134.168 89.5218C133.272 90.8658 131.864 92.1458 129.944 93.3618C128.024 94.5138 126.008 95.3138 123.896 95.7618C122.68 96.0178 120.568 96.1458 117.56 96.1458C115.64 96.1458 114.584 96.0818 114.392 95.9538C114.264 95.8258 113.464 95.6338 111.992 95.3778C109.496 94.9298 107.768 94.2258 106.808 93.2658C105.4 92.3058 103.992 91.0258 102.584 89.4258C101.176 87.8258 100.184 86.2898 99.6085 84.8178C98.9685 83.2178 98.3925 80.5298 97.8805 76.7538C97.4325 72.9138 97.2085 69.5858 97.2085 66.7698C97.2085 65.1698 97.2725 64.1138 97.4005 63.6018C97.5285 63.0898 97.6885 62.3218 97.8805 61.2978C98.0725 60.2738 98.1685 59.6978 98.1685 59.5698C98.4245 57.8418 99.4485 54.5138 101.24 49.5858C101.816 47.9858 102.232 47.1858 102.488 47.1858C102.616 47.1858 103.032 46.5458 103.736 45.2658C107.064 39.2498 111.576 35.4738 117.272 33.9378C117.464 33.8738 118.296 33.8418 119.768 33.8418H121.304C123.608 33.9058 125.368 34.2898 126.584 34.9938C128.504 35.9538 129.752 37.0098 130.328 38.1618C130.776 38.8658 131 39.9858 131 41.5218C131 42.9298 130.809 43.6978 130.424 43.8258H130.328C130.008 43.8258 129.721 43.5058 129.465 42.8658C129.208 42.2258 129.08 41.5858 129.08 40.9458C129.08 39.2818 127.992 37.9698 125.816 37.0098C124.088 36.2418 122.552 35.8578 121.208 35.8578C119.992 35.8578 118.04 36.2098 115.352 36.9138C114.2 37.2338 113.208 37.7458 112.376 38.4498C111.544 39.1538 110.488 40.3378 109.208 42.0018C109.144 42.0658 108.632 42.6418 107.672 43.7298C106.776 44.7538 106.328 45.5218 106.328 46.0338Z" fill="black"/>
</g>
<defs>
<clipPath id="clip0_1844_1894">
<rect width="403" height="138" fill="white"/>
</clipPath>
</defs>
</svg>
