<svg width="1210" height="1680" viewBox="0 0 1210 1680" fill="none" xmlns="http://www.w3.org/2000/svg">
<g clip-path="url(#clip0_1844_1798)">
<rect width="1210" height="1680" fill="white"/>
<path d="M0 0H1210V1680H0V0Z" fill="white"/>
<path d="M53.52 -2.30326L53.5188 -3.30326L53.52 -2.30326ZM62.44 -2.31362L62.4388 -3.31361L62.44 -2.31362ZM133.8 1.11272L133.764 0.113356L133.8 1.11272ZM169.48 2.27803L169.425 3.2765L169.48 2.27803ZM196.24 1.28674L196.157 0.290191L196.24 1.28674ZM205.16 0.544018L205.077 -0.452533L205.16 0.544018ZM267.6 1.06849L267.507 2.06418L267.6 1.06849ZM312.2 -1.41042L312.047 -2.39867L312.2 -1.41042ZM383.56 -0.897812L383.448 -1.89153L383.56 -0.897812ZM472.76 1.13296L472.679 0.136242L472.76 1.13296ZM508.44 -0.061763L508.331 0.932276L508.44 -0.061763ZM526.28 1.89483L526.171 2.88887L526.28 1.89483ZM561.96 2.1931L561.935 1.19343L561.96 2.1931ZM660.08 -0.366701L659.957 0.625675L660.08 -0.366701ZM669 0.741047L668.877 1.73342L669 0.741047ZM686.84 1.42803L686.793 0.429142L686.84 1.42803ZM731.44 -0.961977L731.377 -1.95999L731.44 -0.961977ZM811.72 -0.995199L811.697 0.00454498L811.72 -0.995199ZM829.56 -0.255072L829.5 0.743113L829.56 -0.255072ZM883.08 -1.46868L882.975 -2.46315L883.08 -1.46868ZM909.84 -1.95149L909.866 -2.95116L909.84 -1.95149ZM918.76 -1.72158L918.734 -0.721911L918.76 -1.72158ZM954.44 -0.581732L954.406 0.41769L954.44 -0.581732ZM990.12 1.83974L990.041 2.83662L990.12 1.83974ZM1007.96 2.34888L1007.94 1.34912L1007.96 2.34888ZM1016.88 2.15196L1016.9 3.15172L1016.88 2.15196ZM1025.8 1.95504L1025.78 0.955287L1025.8 1.95504ZM1079.32 -1.4326L1079.43 -2.4267L1079.32 -1.4326ZM1097.16 0.513738L1097.05 1.50784L1097.16 0.513738ZM1150.68 -0.236047L1150.57 0.757649L1150.68 -0.236047ZM1168.52 1.77664L1168.63 0.78294L1168.52 1.77664ZM1185.03 2.86724L1185.01 3.86717L1185.03 2.86724ZM1192.61 2.95149L1192.6 3.95143L1192.61 2.95149ZM1208.22 12.04L1209.22 11.9912L1208.22 12.04ZM1209.09 29.88L1208.09 29.9288L1209.09 29.88ZM1209.29 47.72L1210.29 47.746L1209.29 47.72ZM1208.83 65.56L1207.83 65.534L1208.83 65.56ZM1209.64 83.4L1210.64 83.2837L1209.64 83.4ZM1211.96 119.08L1210.96 118.988L1211.96 119.08ZM1210.31 136.92L1211.31 137.012L1210.31 136.92ZM1210.2 154.76L1209.2 154.839L1210.2 154.76ZM1211.61 172.6L1212.6 172.521L1211.61 172.6ZM1211.87 190.44L1212.87 190.489L1211.87 190.44ZM1210.99 208.28L1209.99 208.231L1210.99 208.28ZM1210.72 226.12L1211.72 226.101L1210.72 226.12ZM1211.05 243.96L1210.05 243.979L1211.05 243.96ZM1210.78 261.8L1211.78 261.849L1210.78 261.8ZM1209.9 279.64L1208.9 279.591L1209.9 279.64ZM1209.93 297.48L1210.93 297.428L1209.93 297.48ZM1210.86 315.32L1209.86 315.372L1210.86 315.32ZM1211.49 333.16L1210.49 333.178L1211.49 333.16ZM1211.65 342.08L1212.65 342.062L1211.65 342.08ZM1211.81 351L1212.81 350.982L1211.81 351ZM1211.51 368.84L1210.52 368.789L1211.51 368.84ZM1210.6 386.68L1209.6 386.629L1210.6 386.68ZM1210.37 404.52L1211.37 404.494L1210.37 404.52ZM1210.64 440.2L1209.64 440.15L1210.64 440.2ZM1209.75 458.04L1208.75 457.99L1209.75 458.04ZM1210.14 475.88L1209.14 475.974L1210.14 475.88ZM1211.75 511.56L1210.76 511.46L1211.75 511.56ZM1209.96 529.4L1210.95 529.5L1209.96 529.4ZM1209.94 547.24L1208.94 547.338L1209.94 547.24ZM1210.81 556.16L1211.81 556.062L1210.81 556.16ZM1211.68 565.08L1210.69 565.178L1211.68 565.08ZM1212.63 582.92L1211.63 582.928L1212.63 582.92ZM1212.77 600.76L1213.77 600.752L1212.77 600.76ZM1212.72 618.6L1213.72 618.614L1212.72 618.6ZM1212.24 654.28L1213.24 654.29L1212.24 654.28ZM1212.06 672.12L1211.06 672.11L1212.06 672.12ZM1211.68 698.88L1210.68 698.864L1211.68 698.88ZM1211.53 707.8L1212.53 707.816L1211.53 707.8ZM1211.27 725.64L1210.27 725.627L1211.27 725.64ZM1211.03 743.48L1210.03 743.467L1211.03 743.48ZM1211.25 761.32L1212.25 761.282L1211.25 761.32ZM1211.94 779.16L1210.94 779.199L1211.94 779.16ZM1211.66 797L1210.67 796.931L1211.66 797ZM1210.43 814.84L1211.42 814.909L1210.43 814.84ZM1210.07 832.68L1209.07 832.71L1210.07 832.68ZM1210.34 841.6L1211.34 841.57L1210.34 841.6ZM1210.6 850.52L1209.6 850.55L1210.6 850.52ZM1210.59 868.36L1209.59 868.328L1210.59 868.36ZM1210.02 886.2L1209.02 886.168L1210.02 886.2ZM1209.86 904.04L1208.86 904.054L1209.86 904.04ZM1209.98 912.96L1208.98 912.974L1209.98 912.96ZM1210.11 921.88L1211.11 921.866L1210.11 921.88ZM1210.05 939.72L1209.05 939.7L1210.05 939.72ZM1209.69 957.56L1210.69 957.581L1209.69 957.56ZM1210 975.4L1211 975.345L1210 975.4ZM1210.99 993.24L1211.99 993.185L1210.99 993.24ZM1210.51 1028.92L1209.51 1028.88L1210.51 1028.92ZM1209.65 1046.76L1208.65 1046.7L1209.65 1046.76ZM1209.11 1055.68L1210.11 1055.74L1209.11 1055.68ZM1208.58 1064.6L1209.58 1064.66L1208.58 1064.6ZM1208.87 1091.36L1209.86 1091.31L1208.87 1091.36ZM1209.27 1100.28L1208.28 1100.33L1209.27 1100.28ZM1207.43 1153.8L1206.43 1153.83L1207.43 1153.8ZM1207.65 1162.72L1208.65 1162.69L1207.65 1162.72ZM1207.88 1171.64L1208.88 1171.61L1207.88 1171.64ZM1208.17 1189.48L1209.17 1189.47L1208.17 1189.48ZM1208.23 1198.4L1209.23 1198.39L1208.23 1198.4ZM1208.29 1207.32L1207.29 1207.33L1208.29 1207.32ZM1208.29 1225.16L1207.29 1225.15L1208.29 1225.16ZM1208.23 1234.08L1209.23 1234.09L1208.23 1234.08ZM1208.16 1243L1207.16 1242.99L1208.16 1243ZM1207.7 1278.68L1206.7 1278.67L1207.7 1278.68ZM1208.61 1296.52L1209.61 1296.4L1208.61 1296.52ZM1210.71 1314.36L1209.71 1314.48L1210.71 1314.36ZM1210.84 1332.2L1211.83 1332.3L1210.84 1332.2ZM1209.02 1350.04L1208.02 1349.94L1209.02 1350.04ZM1208.09 1367.88L1209.09 1367.88L1208.09 1367.88ZM1208.07 1385.72L1207.07 1385.72L1208.07 1385.72ZM1208.26 1403.56L1207.26 1403.58L1208.26 1403.56ZM1208.66 1421.4L1209.66 1421.38L1208.66 1421.4ZM1209.14 1439.24L1210.14 1439.21L1209.14 1439.24ZM1209.41 1448.16L1208.41 1448.19L1209.41 1448.16ZM1209.68 1457.08L1208.68 1457.11L1209.68 1457.08ZM1210.46 1474.92L1209.46 1474.98L1210.46 1474.92ZM1211.47 1492.76L1212.47 1492.7L1211.47 1492.76ZM1212.06 1510.6L1213.06 1510.59L1212.06 1510.6ZM1212.22 1528.44L1211.22 1528.45L1212.22 1528.44ZM1211.27 1546.28L1210.28 1546.17L1211.27 1546.28ZM1209.22 1564.12L1208.22 1564.01L1209.22 1564.12ZM1208.92 1581.96L1207.92 1582.04L1208.92 1581.96ZM1210.36 1599.8L1211.36 1599.72L1210.36 1599.8ZM1210.35 1617.64L1209.36 1617.56L1210.35 1617.64ZM1208.9 1635.48L1209.89 1635.56L1208.9 1635.48ZM1208.61 1653.01L1209.6 1652.96L1208.61 1653.01ZM1209.48 1670.23L1208.48 1670.28L1209.48 1670.23ZM1201 1679.84L1201.11 1680.83L1201 1679.84ZM1183.16 1681.84L1183.05 1680.84L1183.16 1681.84ZM1165.32 1681.84L1165.21 1682.83L1165.32 1681.84ZM1147.48 1679.85L1147.59 1678.85L1147.48 1679.85ZM1129.64 1679.74L1129.74 1680.73L1129.64 1679.74ZM1120.72 1680.63L1120.82 1681.62L1120.72 1680.63ZM1111.8 1681.51L1111.7 1680.52L1111.8 1681.51ZM1093.96 1681.1L1094.1 1680.11L1093.96 1681.1ZM1076.12 1678.49L1075.98 1679.48L1076.12 1678.49ZM1058.28 1678.05L1058.38 1679.05L1058.28 1678.05ZM1040.44 1679.77L1040.34 1678.78L1040.44 1679.77ZM1022.6 1680.77L1022.61 1681.77L1022.6 1680.77ZM1004.76 1681.03L1004.77 1682.03L1004.76 1681.03ZM986.92 1681.45L986.952 1682.45L986.92 1681.45ZM969.08 1682.03L969.048 1681.03L969.08 1682.03ZM951.24 1682.3L951.238 1683.3L951.24 1682.3ZM933.4 1682.26L933.402 1681.26L933.4 1682.26ZM915.56 1681.07L915.43 1682.06L915.56 1681.07ZM906.64 1679.9L906.77 1678.91L906.64 1679.9ZM897.72 1678.73L897.59 1679.72L897.72 1678.73ZM879.88 1678.09L879.82 1677.1L879.88 1678.09ZM862.04 1679.17L862.1 1680.17L862.04 1679.17ZM844.2 1679.08L844.13 1680.07L844.2 1679.08ZM826.36 1677.82L826.43 1676.82L826.36 1677.82ZM808.52 1678.24L808.404 1677.25L808.52 1678.24ZM790.68 1680.33L790.564 1679.34L790.68 1680.33ZM772.84 1680.57L772.929 1679.58L772.84 1680.57ZM755 1678.98L754.911 1679.97L755 1678.98ZM719.32 1678.15L719.319 1679.15L719.32 1678.15ZM701.48 1678.59L701.429 1677.6L701.48 1678.59ZM683.64 1679.51L683.691 1680.51L683.64 1679.51ZM665.8 1680.18L665.776 1679.18L665.8 1680.18ZM656.88 1680.39L656.904 1681.39L656.88 1680.39ZM647.96 1680.61L647.936 1679.61L647.96 1680.61ZM630.12 1680.43L630.076 1681.43L630.12 1680.43ZM612.28 1679.65L612.324 1678.65L612.28 1679.65ZM594.44 1679.55L594.473 1680.55L594.44 1679.55ZM585.52 1679.84L585.553 1680.84L585.52 1679.84ZM576.6 1680.13L576.567 1679.13L576.6 1680.13ZM558.76 1680.8L558.717 1679.81L558.76 1680.8ZM540.92 1681.57L540.963 1682.57L540.92 1681.57ZM523.08 1681.44L523.022 1682.44L523.08 1681.44ZM505.24 1680.42L505.182 1681.41L505.24 1680.42ZM487.4 1680.05L487.417 1681.05L487.4 1680.05ZM478.48 1680.2L478.463 1679.2L478.48 1680.2ZM451.72 1680.69L451.698 1679.69L451.72 1680.69ZM433.88 1681.09L433.902 1682.09L433.88 1681.09ZM416.04 1680.75L416.101 1679.75L416.04 1680.75ZM398.2 1679.65L398.139 1680.65L398.2 1679.65ZM371.44 1678.52L371.472 1677.52L371.44 1678.52ZM362.52 1678.23L362.488 1679.23L362.52 1678.23ZM344.68 1677.75L344.702 1676.75L344.68 1677.75ZM326.84 1677.35L326.818 1678.35L326.84 1677.35ZM309 1677.64L308.945 1676.64L309 1677.64ZM291.16 1678.63L291.105 1677.63L291.16 1678.63ZM273.32 1680.03L273.219 1679.03L273.32 1680.03ZM255.48 1681.84L255.581 1682.84L255.48 1681.84ZM237.64 1681.47L237.498 1682.46L237.64 1681.47ZM219.8 1678.91L219.942 1677.92L219.8 1678.91ZM201.96 1677.73L201.972 1678.73L201.96 1677.73ZM184.12 1677.95L184.108 1676.95L184.12 1677.95ZM166.28 1679.02L166.387 1680.02L166.28 1679.02ZM148.44 1680.94L148.333 1679.95L148.44 1680.94ZM130.6 1680.85L130.483 1681.84L130.6 1680.85ZM112.76 1678.74L112.877 1677.75L112.76 1678.74ZM94.92 1678.18L94.8655 1677.18L94.92 1678.18ZM85.9999 1678.67L85.9455 1677.67L85.9999 1678.67ZM77.0799 1679.15L77.1344 1680.15L77.0799 1679.15ZM59.2399 1679.59L59.2342 1680.59L59.2399 1679.59ZM41.4 1679.48L41.4057 1678.48L41.4 1679.48ZM24.0112 1678.77L23.9337 1679.77L24.0112 1678.77ZM15.5425 1678.12L15.62 1677.12L15.5425 1678.12ZM7.07375 1677.46L6.99626 1678.46L7.07375 1677.46ZM-0.538406 1328.92L-1.53829 1328.93L-0.538406 1328.92ZM2.51423 972.12L1.51456 972.094L2.51423 972.12ZM-2.20402 722.36L-3.20399 722.353L-2.20402 722.36ZM17.84 -1.14128L17.9038 -0.143321L26.8238 -0.713961L26.76 -1.71192L26.6962 -2.70988L17.7762 -2.13924L17.84 -1.14128ZM26.76 -1.71192L26.8238 -0.713961C32.7497 -1.09306 38.6754 -1.28604 44.6012 -1.29291L44.6 -2.29291L44.5988 -3.29291C38.6312 -3.28599 32.6637 -3.09164 26.6962 -2.70988L26.76 -1.71192ZM44.6 -2.29291L44.6012 -1.29291L53.5212 -1.30326L53.52 -2.30326L53.5188 -3.30326L44.5988 -3.29291L44.6 -2.29291ZM53.52 -2.30326L53.5212 -1.30326L62.4412 -1.31362L62.44 -2.31362L62.4388 -3.31361L53.5188 -3.30326L53.52 -2.30326ZM62.44 -2.31362L62.4412 -1.31362C68.3463 -1.32047 74.2518 -0.960773 80.1579 -0.234402L80.28 -1.22692L80.4021 -2.21945C74.4148 -2.9558 68.427 -3.32056 62.4388 -3.31361L62.44 -2.31362ZM80.28 -1.22692L80.1579 -0.234402L89.0779 0.862641L89.2 -0.129881L89.3221 -1.1224L80.4021 -2.21945L80.28 -1.22692ZM89.2 -0.129881L89.0779 0.862641L97.9979 1.95968L98.12 0.967162L98.2421 -0.0253598L89.3221 -1.1224L89.2 -0.129881ZM98.12 0.967162L97.9979 1.95968C103.997 2.69743 109.996 2.95974 115.996 2.74641L115.96 1.74704L115.924 0.747676C110.031 0.957232 104.137 0.699618 98.2421 -0.0253598L98.12 0.967162ZM115.96 1.74704L115.996 2.74641L124.916 2.42925L124.88 1.42988L124.844 0.430516L115.924 0.747676L115.96 1.74704ZM124.88 1.42988L124.916 2.42925L133.836 2.11209L133.8 1.11272L133.764 0.113356L124.844 0.430516L124.88 1.42988ZM133.8 1.11272L133.836 2.11209C139.752 1.90173 145.668 1.96043 151.585 2.28819L151.64 1.28972L151.695 0.291252C145.718 -0.0398603 139.741 -0.0991618 133.764 0.113356L133.8 1.11272ZM151.64 1.28972L151.585 2.28819L160.505 2.78235L160.56 1.78388L160.615 0.785409L151.695 0.291252L151.64 1.28972ZM160.56 1.78388L160.505 2.78235L169.425 3.2765L169.48 2.27803L169.535 1.27957L160.615 0.785409L160.56 1.78388ZM169.48 2.27803L169.425 3.2765C175.418 3.6085 181.41 3.52499 187.403 3.02602L187.32 2.02947L187.237 1.03292C181.336 1.52424 175.436 1.60645 169.535 1.27957L169.48 2.27803ZM187.32 2.02947L187.403 3.02602L196.323 2.28329L196.24 1.28674L196.157 0.290191L187.237 1.03292L187.32 2.02947ZM196.24 1.28674L196.323 2.28329L205.243 1.54057L205.16 0.544018L205.077 -0.452533L196.157 0.290191L196.24 1.28674ZM205.16 0.544018L205.243 1.54057C211.166 1.04741 217.088 0.768193 223.011 0.70291L223 -0.297029L222.989 -1.29697C217.018 -1.23115 211.048 -0.949669 205.077 -0.452533L205.16 0.544018ZM223 -0.297029L223.011 0.70291L231.931 0.604588L231.92 -0.395352L231.909 -1.39529L222.989 -1.29697L223 -0.297029ZM231.92 -0.395352L231.931 0.604588L240.851 0.506265L240.84 -0.493674L240.829 -1.49361L231.909 -1.39529L231.92 -0.395352ZM240.84 -0.493674L240.851 0.506265C246.763 0.4411 252.675 0.683641 258.587 1.23394L258.68 0.238245L258.773 -0.757451C252.792 -1.31414 246.81 -1.55955 240.829 -1.49361L240.84 -0.493674ZM258.68 0.238245L258.587 1.23394L267.507 2.06418L267.6 1.06849L267.693 0.0727912L258.773 -0.757451L258.68 0.238245ZM267.6 1.06849L267.507 2.06418L276.427 2.89443L276.52 1.89873L276.613 0.903033L267.693 0.0727912L267.6 1.06849ZM276.52 1.89873L276.427 2.89443C282.456 3.4556 288.486 3.26976 294.513 2.33742L294.36 1.34917L294.207 0.360927C288.341 1.26832 282.477 1.44885 276.613 0.903033L276.52 1.89873ZM294.36 1.34917L294.513 2.33742L303.433 0.957623L303.28 -0.030624L303.127 -1.01887L294.207 0.360927L294.36 1.34917ZM303.28 -0.030624L303.433 0.957623L312.353 -0.422175L312.2 -1.41042L312.047 -2.39867L303.127 -1.01887L303.28 -0.030624ZM312.2 -1.41042L312.353 -0.422175C318.204 -1.32727 324.053 -1.37737 329.904 -0.572709L330.04 -1.56338L330.176 -2.55406C324.133 -3.38518 318.089 -3.33331 312.047 -2.39867L312.2 -1.41042ZM330.04 -1.56338L329.904 -0.572709L338.824 0.654127L338.96 -0.336546L339.096 -1.32722L330.176 -2.55406L330.04 -1.56338ZM338.96 -0.336546L338.824 0.654127L347.744 1.88096L347.88 0.89029L348.016 -0.100383L339.096 -1.32722L338.96 -0.336546ZM347.88 0.89029L347.744 1.88096C353.772 2.71014 359.802 2.78518 365.832 2.10586L365.72 1.11215L365.608 0.118434C359.744 0.779092 353.881 0.706225 348.016 -0.100383L347.88 0.89029ZM365.72 1.11215L365.832 2.10586L374.752 1.10088L374.64 0.107168L374.528 -0.886545L365.608 0.118434L365.72 1.11215ZM374.64 0.107168L374.752 1.10088L383.672 0.0959007L383.56 -0.897812L383.448 -1.89153L374.528 -0.886545L374.64 0.107168ZM383.56 -0.897812L383.672 0.0959007C389.548 -0.56609 395.423 -0.596084 401.298 0.00586219L401.4 -0.988931L401.502 -1.98372C395.484 -2.60026 389.466 -2.56951 383.448 -1.89153L383.56 -0.897812ZM401.4 -0.988931L401.298 0.00586219L410.218 0.919724L410.32 -0.0750692L410.422 -1.06986L401.502 -1.98372L401.4 -0.988931ZM410.32 -0.0750692L410.218 0.919724L419.138 1.83359L419.24 0.838792L419.342 -0.156001L410.422 -1.06986L410.32 -0.0750692ZM419.24 0.838792L419.138 1.83359C425.117 2.44618 431.097 2.76127 437.077 2.77881L437.08 1.77882L437.083 0.77882C431.169 0.761476 425.256 0.449888 419.342 -0.156001L419.24 0.838792ZM437.08 1.77882L437.077 2.77881L445.997 2.80497L446 1.80498L446.003 0.804982L437.083 0.77882L437.08 1.77882ZM446 1.80498L445.997 2.80497L454.917 2.83114L454.92 1.83114L454.923 0.831144L446.003 0.804982L446 1.80498ZM454.92 1.83114L454.917 2.83114C460.892 2.84866 466.866 2.61483 472.841 2.12968L472.76 1.13296L472.679 0.136242C466.76 0.616878 460.842 0.848503 454.923 0.831144L454.92 1.83114ZM472.76 1.13296L472.841 2.12968L481.761 1.40534L481.68 0.408622L481.599 -0.588098L472.679 0.136242L472.76 1.13296ZM481.68 0.408622L481.761 1.40534L490.681 0.681001L490.6 -0.315718L490.519 -1.31244L481.599 -0.588098L481.68 0.408622ZM490.6 -0.315718L490.681 0.681001C496.564 0.203258 502.447 0.28698 508.331 0.932276L508.44 -0.061763L508.549 -1.0558C502.539 -1.7149 496.529 -1.80048 490.519 -1.31244L490.6 -0.315718ZM508.44 -0.061763L508.331 0.932276L517.251 1.91057L517.36 0.916532L517.469 -0.0775072L508.549 -1.0558L508.44 -0.061763ZM517.36 0.916532L517.251 1.91057L526.171 2.88887L526.28 1.89483L526.389 0.900788L517.469 -0.0775072L517.36 0.916532ZM526.28 1.89483L526.171 2.88887C532.162 3.54593 538.154 3.79839 544.145 3.64613L544.12 2.64645L544.095 1.64677C538.193 1.79674 532.291 1.54812 526.389 0.900788L526.28 1.89483ZM544.12 2.64645L544.145 3.64613L553.065 3.41945L553.04 2.41978L553.015 1.4201L544.095 1.64677L544.12 2.64645ZM553.04 2.41978L553.065 3.41945L561.985 3.19278L561.96 2.1931L561.935 1.19343L553.015 1.4201L553.04 2.41978ZM561.96 2.1931L561.985 3.19278C567.955 3.04109 573.924 2.6878 579.893 2.13291L579.8 1.13721L579.707 0.1415C573.783 0.692248 567.859 1.04288 561.935 1.19343L561.96 2.1931ZM579.8 1.13721L579.893 2.13291L588.813 1.30369L588.72 0.307983L588.627 -0.687724L579.707 0.1415L579.8 1.13721ZM588.72 0.307983L588.813 1.30369L597.733 0.474466L597.64 -0.521241L597.547 -1.51695L588.627 -0.687724L588.72 0.307983ZM597.64 -0.521241L597.733 0.474466C603.66 -0.0765617 609.587 -0.454377 615.514 -0.658994L615.48 -1.6584L615.445 -2.6578C609.479 -2.45184 603.513 -2.07155 597.547 -1.51695L597.64 -0.521241ZM615.48 -1.6584L615.514 -0.658994L624.435 -0.966927L624.4 -1.96633L624.365 -2.96574L615.445 -2.6578L615.48 -1.6584ZM624.4 -1.96633L624.435 -0.966927L633.354 -1.27486L633.32 -2.27427L633.286 -3.27367L624.365 -2.96574L624.4 -1.96633ZM633.32 -2.27427L633.354 -1.27486C639.248 -1.47832 645.142 -1.21412 651.037 -0.482073L651.16 -1.47445L651.283 -2.46683C645.285 -3.21178 639.285 -3.48079 633.286 -3.27367L633.32 -2.27427ZM651.16 -1.47445L651.037 -0.482073L659.957 0.625675L660.08 -0.366701L660.203 -1.35908L651.283 -2.46683L651.16 -1.47445ZM660.08 -0.366701L659.957 0.625675L668.877 1.73342L669 0.741047L669.123 -0.25133L660.203 -1.35908L660.08 -0.366701ZM669 0.741047L668.877 1.73342C674.88 2.47889 680.883 2.71013 686.887 2.42692L686.84 1.42803L686.793 0.429142C680.903 0.706951 675.014 0.480199 669.123 -0.25133L669 0.741047ZM686.84 1.42803L686.887 2.42692L695.807 2.00616L695.76 1.00727L695.713 0.0083769L686.793 0.429142L686.84 1.42803ZM695.76 1.00727L695.807 2.00616L704.727 1.58539L704.68 0.586501L704.633 -0.412388L695.713 0.0083769L695.76 1.00727ZM704.68 0.586501L704.727 1.58539C710.679 1.30463 716.631 0.976128 722.583 0.599888L722.52 -0.39812L722.457 -1.39613C716.516 -1.02056 710.574 -0.692646 704.633 -0.412388L704.68 0.586501ZM722.52 -0.39812L722.583 0.599888L731.503 0.0360308L731.44 -0.961977L731.377 -1.95999L722.457 -1.39613L722.52 -0.39812ZM731.44 -0.961977L731.503 0.0360308L740.423 -0.527826L740.36 -1.52583L740.297 -2.52384L731.377 -1.95999L731.44 -0.961977ZM740.36 -1.52583L740.423 -0.527826C746.344 -0.902118 752.265 -1.04873 758.186 -0.967677L758.2 -1.96758L758.214 -2.96749C752.241 -3.04925 746.269 -2.90136 740.297 -2.52384L740.36 -1.52583ZM758.2 -1.96758L758.186 -0.967677L767.106 -0.845569L767.12 -1.84548L767.134 -2.84538L758.214 -2.96749L758.2 -1.96758ZM767.12 -1.84548L767.106 -0.845569L776.026 -0.723462L776.04 -1.72337L776.054 -2.72327L767.134 -2.84538L767.12 -1.84548ZM776.04 -1.72337L776.026 -0.723462C781.97 -0.642097 787.914 -0.534109 793.857 -0.399496L793.88 -1.39924L793.903 -2.39898C787.953 -2.53373 782.003 -2.64183 776.054 -2.72327L776.04 -1.72337ZM793.88 -1.39924L793.857 -0.399496L802.777 -0.197476L802.8 -1.19722L802.823 -2.19696L793.903 -2.39898L793.88 -1.39924ZM802.8 -1.19722L802.777 -0.197476L811.697 0.00454498L811.72 -0.995199L811.743 -1.99494L802.823 -2.19696L802.8 -1.19722ZM811.72 -0.995199L811.697 0.00454498C817.632 0.138941 823.566 0.38513 829.5 0.743113L829.56 -0.255072L829.62 -1.25326C823.661 -1.61275 817.702 -1.85998 811.743 -1.99494L811.72 -0.995199ZM829.56 -0.255072L829.5 0.743113L838.42 1.28122L838.48 0.283034L838.54 -0.715152L829.62 -1.25326L829.56 -0.255072ZM838.48 0.283034L838.42 1.28122L847.34 1.81932L847.4 0.821139L847.46 -0.177046L838.54 -0.715152L838.48 0.283034ZM847.4 0.821139L847.34 1.81932C853.342 2.1814 859.344 2.04527 865.345 1.41106L865.24 0.416602L865.135 -0.57786C859.243 0.044788 853.352 0.178354 847.46 -0.177046L847.4 0.821139ZM865.24 0.416602L865.345 1.41106L874.265 0.468422L874.16 -0.52604L874.055 -1.5205L865.135 -0.57786L865.24 0.416602ZM874.16 -0.52604L874.265 0.468422L883.185 -0.47422L883.08 -1.46868L882.975 -2.46315L874.055 -1.5205L874.16 -0.52604ZM883.08 -1.46868L883.185 -0.47422C889.089 -1.09808 894.991 -1.33389 900.894 -1.18174L900.92 -2.18141L900.946 -3.18108C894.955 -3.33549 888.965 -3.09614 882.975 -2.46315L883.08 -1.46868ZM900.92 -2.18141L900.894 -1.18174L909.814 -0.951827L909.84 -1.95149L909.866 -2.95116L900.946 -3.18108L900.92 -2.18141ZM909.84 -1.95149L909.814 -0.951827L918.734 -0.721911L918.76 -1.72158L918.786 -2.72125L909.866 -2.95116L909.84 -1.95149ZM918.76 -1.72158L918.734 -0.721911C924.678 -0.568705 930.622 -0.391045 936.566 -0.188931L936.6 -1.18835L936.634 -2.18778C930.685 -2.39008 924.735 -2.5679 918.786 -2.72125L918.76 -1.72158ZM936.6 -1.18835L936.566 -0.188931L945.486 0.11438L945.52 -0.885043L945.554 -1.88446L936.634 -2.18778L936.6 -1.18835ZM945.52 -0.885043L945.486 0.11438L954.406 0.41769L954.44 -0.581732L954.474 -1.58115L945.554 -1.88446L945.52 -0.885043ZM954.44 -0.581732L954.406 0.41769C960.338 0.619386 966.269 0.954993 972.201 1.42452L972.28 0.427633L972.359 -0.569249C966.397 -1.04113 960.436 -1.37844 954.474 -1.58115L954.44 -0.581732ZM972.28 0.427633L972.201 1.42452L981.121 2.13057L981.2 1.13369L981.279 0.136806L972.359 -0.569249L972.28 0.427633ZM981.2 1.13369L981.121 2.13057L990.041 2.83662L990.12 1.83974L990.199 0.842861L981.279 0.136806L981.2 1.13369ZM990.12 1.83974L990.041 2.83662C996.021 3.30998 1002 3.48066 1007.98 3.34864L1007.96 2.34888L1007.94 1.34912C1002.03 1.47966 996.112 1.31091 990.199 0.842861L990.12 1.83974ZM1007.96 2.34888L1007.98 3.34864L1016.9 3.15172L1016.88 2.15196L1016.86 1.15221L1007.94 1.34912L1007.96 2.34888ZM1016.88 2.15196L1016.9 3.15172L1025.82 2.9548L1025.8 1.95504L1025.78 0.955287L1016.86 1.15221L1016.88 2.15196ZM1025.8 1.95504L1025.82 2.9548C1031.8 2.82282 1037.78 2.40801 1043.76 1.71041L1043.64 0.717152L1043.52 -0.276107C1037.61 0.414263 1031.69 0.824706 1025.78 0.955287L1025.8 1.95504ZM1043.64 0.717152L1043.76 1.71041L1052.68 0.669438L1052.56 -0.323821L1052.44 -1.31708L1043.52 -0.276107L1043.64 0.717152ZM1052.56 -0.323821L1052.68 0.669438L1061.6 -0.371536L1061.48 -1.36479L1061.36 -2.35805L1052.44 -1.31708L1052.56 -0.323821ZM1061.48 -1.36479L1061.6 -0.371536C1067.47 -1.05683 1073.34 -1.07913 1079.21 -0.438498L1079.32 -1.4326L1079.43 -2.4267C1073.41 -3.08362 1067.39 -3.06073 1061.36 -2.35805L1061.48 -1.36479ZM1079.32 -1.4326L1079.21 -0.438498L1088.13 0.53467L1088.24 -0.459431L1088.35 -1.45353L1079.43 -2.4267L1079.32 -1.4326ZM1088.24 -0.459431L1088.13 0.53467L1097.05 1.50784L1097.16 0.513738L1097.27 -0.480364L1088.35 -1.45353L1088.24 -0.459431ZM1097.16 0.513738L1097.05 1.50784C1103.06 2.16329 1109.07 2.26127 1115.08 1.80167L1115 0.804582L1114.92 -0.192505C1109.04 0.257657 1103.15 0.161742 1097.27 -0.480364L1097.16 0.513738ZM1115 0.804582L1115.08 1.80167L1124 1.11935L1123.92 0.122259L1123.84 -0.874829L1114.92 -0.192505L1115 0.804582ZM1123.92 0.122259L1124 1.11935L1132.92 0.437022L1132.84 -0.560065L1132.76 -1.55715L1123.84 -0.874829L1123.92 0.122259ZM1132.84 -0.560065L1132.92 0.437022C1138.8 -0.0130436 1144.68 0.0937864 1150.57 0.757649L1150.68 -0.236047L1150.79 -1.22974C1144.78 -1.90767 1138.77 -2.01685 1132.76 -1.55715L1132.84 -0.560065ZM1150.68 -0.236047L1150.57 0.757649L1159.49 1.76399L1159.6 0.770294L1159.71 -0.223402L1150.79 -1.22974L1150.68 -0.236047ZM1159.6 0.770294L1159.49 1.76399L1168.41 2.77033L1168.52 1.77664L1168.63 0.78294L1159.71 -0.223402L1159.6 0.770294ZM1168.52 1.77664L1168.41 2.77033C1174.38 3.44435 1179.92 3.81057 1185.01 3.86717L1185.03 2.86724L1185.04 1.8673C1180.02 1.81156 1174.55 1.45071 1168.63 0.78294L1168.52 1.77664ZM1185.03 2.86724L1185.01 3.86717L1192.6 3.95143L1192.61 2.95149L1192.62 1.95156L1185.04 1.8673L1185.03 2.86724ZM1192.61 2.95149L1192.6 3.95143L1200.18 4.03569L1200.2 3.03575L1200.21 2.03581L1192.62 1.95156L1192.61 2.95149ZM1200.2 3.03575L1200.18 4.03569C1202.51 4.06151 1204.14 4.75528 1205.25 5.99412C1206.37 7.25906 1207.08 9.23788 1207.22 12.0888L1208.22 12.04L1209.22 11.9912C1209.06 8.89548 1208.29 6.40025 1206.74 4.66378C1205.17 2.9012 1202.94 2.06616 1200.21 2.03581L1200.2 3.03575ZM1208.22 12.04L1207.22 12.0888L1207.65 21.0088L1208.65 20.96L1209.65 20.9112L1209.22 11.9912L1208.22 12.04ZM1208.65 20.96L1207.65 21.0088L1208.09 29.9288L1209.09 29.88L1210.09 29.8312L1209.65 20.9112L1208.65 20.96ZM1209.09 29.88L1208.09 29.9288C1208.38 35.8506 1208.45 41.7723 1208.29 47.694L1209.29 47.72L1210.29 47.746C1210.45 41.7744 1210.38 35.8027 1210.09 29.8312L1209.09 29.88ZM1209.29 47.72L1208.29 47.694L1208.06 56.614L1209.06 56.64L1210.06 56.666L1210.29 47.746L1209.29 47.72ZM1209.06 56.64L1208.06 56.614L1207.83 65.534L1208.83 65.56L1209.83 65.586L1210.06 56.666L1209.06 56.64ZM1208.83 65.56L1207.83 65.534C1207.67 71.5285 1207.95 77.5228 1208.65 83.5163L1209.64 83.4L1210.64 83.2837C1209.94 77.3839 1209.68 71.4848 1209.83 65.586L1208.83 65.56ZM1209.64 83.4L1208.65 83.5163L1209.69 92.4363L1210.69 92.32L1211.68 92.2037L1210.64 83.2837L1209.64 83.4ZM1210.69 92.32L1209.69 92.4363L1210.74 101.356L1211.73 101.24L1212.72 101.124L1211.68 92.2037L1210.69 92.32ZM1211.73 101.24L1210.74 101.356C1211.43 107.234 1211.5 113.111 1210.96 118.988L1211.96 119.08L1212.95 119.172C1213.51 113.156 1213.43 107.139 1212.72 101.124L1211.73 101.24ZM1211.96 119.08L1210.96 118.988L1210.14 127.908L1211.14 128L1212.13 128.092L1212.95 119.172L1211.96 119.08ZM1211.14 128L1210.14 127.908L1209.32 136.828L1210.31 136.92L1211.31 137.012L1212.13 128.092L1211.14 128ZM1210.31 136.92L1209.32 136.828C1208.77 142.832 1208.73 148.835 1209.2 154.839L1210.2 154.76L1211.19 154.681C1210.73 148.791 1210.77 142.902 1211.31 137.012L1210.31 136.92ZM1210.2 154.76L1209.2 154.839L1209.91 163.759L1210.9 163.68L1211.9 163.601L1211.19 154.681L1210.2 154.76ZM1210.9 163.68L1209.91 163.759L1210.61 172.679L1211.61 172.6L1212.6 172.521L1211.9 163.601L1210.9 163.68ZM1211.61 172.6L1210.61 172.679C1211.08 178.583 1211.16 184.487 1210.87 190.391L1211.87 190.44L1212.87 190.489C1213.17 184.5 1213.08 178.51 1212.6 172.521L1211.61 172.6ZM1211.87 190.44L1210.87 190.391L1210.43 199.311L1211.43 199.36L1212.43 199.409L1212.87 190.489L1211.87 190.44ZM1211.43 199.36L1210.43 199.311L1209.99 208.231L1210.99 208.28L1211.99 208.329L1212.43 199.409L1211.43 199.36ZM1210.99 208.28L1209.99 208.231C1209.7 214.2 1209.61 220.169 1209.72 226.139L1210.72 226.12L1211.72 226.101C1211.61 220.177 1211.7 214.253 1211.99 208.329L1210.99 208.28ZM1210.72 226.12L1209.72 226.139L1209.89 235.059L1210.89 235.04L1211.89 235.021L1211.72 226.101L1210.72 226.12ZM1210.89 235.04L1209.89 235.059L1210.05 243.979L1211.05 243.96L1212.05 243.941L1211.89 235.021L1210.89 235.04ZM1211.05 243.96L1210.05 243.979C1210.17 249.903 1210.07 255.827 1209.78 261.751L1210.78 261.8L1211.78 261.849C1212.07 255.88 1212.17 249.911 1212.05 243.941L1211.05 243.96ZM1210.78 261.8L1209.78 261.751L1209.34 270.671L1210.34 270.72L1211.34 270.769L1211.78 261.849L1210.78 261.8ZM1210.34 270.72L1209.34 270.671L1208.9 279.591L1209.9 279.64L1210.9 279.689L1211.34 270.769L1210.34 270.72ZM1209.9 279.64L1208.9 279.591C1208.61 285.571 1208.62 291.552 1208.93 297.532L1209.93 297.48L1210.93 297.428C1210.62 291.515 1210.61 285.602 1210.9 279.689L1209.9 279.64ZM1209.93 297.48L1208.93 297.532L1209.4 306.452L1210.4 306.4L1211.39 306.348L1210.93 297.428L1209.93 297.48ZM1210.4 306.4L1209.4 306.452L1209.86 315.372L1210.86 315.32L1211.86 315.268L1211.39 306.348L1210.4 306.4ZM1210.86 315.32L1209.86 315.372C1210.17 321.308 1210.38 327.243 1210.49 333.178L1211.49 333.16L1212.49 333.142C1212.38 327.184 1212.17 321.226 1211.86 315.268L1210.86 315.32ZM1211.49 333.16L1210.49 333.178L1210.65 342.098L1211.65 342.08L1212.65 342.062L1212.49 333.142L1211.49 333.16ZM1211.65 342.08L1210.65 342.098L1210.81 351.018L1211.81 351L1212.81 350.982L1212.65 342.062L1211.65 342.08ZM1211.81 351L1210.81 351.018C1210.92 356.942 1210.82 362.865 1210.52 368.789L1211.51 368.84L1212.51 368.891C1212.82 362.922 1212.92 356.952 1212.81 350.982L1211.81 351ZM1211.51 368.84L1210.52 368.789L1210.06 377.709L1211.06 377.76L1212.05 377.811L1212.51 368.891L1211.51 368.84ZM1211.06 377.76L1210.06 377.709L1209.6 386.629L1210.6 386.68L1211.6 386.731L1212.05 377.811L1211.06 377.76ZM1210.6 386.68L1209.6 386.629C1209.29 392.601 1209.22 398.574 1209.37 404.546L1210.37 404.52L1211.37 404.494C1211.22 398.573 1211.29 392.652 1211.6 386.731L1210.6 386.68ZM1210.37 404.52L1209.37 404.546L1209.61 413.466L1210.61 413.44L1211.61 413.414L1211.37 404.494L1210.37 404.52ZM1210.61 413.44L1209.61 413.466L1209.85 422.386L1210.85 422.36L1211.85 422.334L1211.61 413.414L1210.61 413.44ZM1210.85 422.36L1209.85 422.386C1210 428.308 1209.93 434.229 1209.64 440.15L1210.64 440.2L1211.63 440.25C1211.93 434.278 1212 428.306 1211.85 422.334L1210.85 422.36ZM1210.64 440.2L1209.64 440.15L1209.19 449.07L1210.19 449.12L1211.19 449.17L1211.63 440.25L1210.64 440.2ZM1210.19 449.12L1209.19 449.07L1208.75 457.99L1209.75 458.04L1210.74 458.09L1211.19 449.17L1210.19 449.12ZM1209.75 458.04L1208.75 457.99C1208.45 463.985 1208.58 469.979 1209.14 475.974L1210.14 475.88L1211.13 475.787C1210.58 469.887 1210.45 463.989 1210.74 458.09L1209.75 458.04ZM1210.14 475.88L1209.14 475.974L1209.98 484.893L1210.98 484.8L1211.97 484.707L1211.13 475.787L1210.14 475.88ZM1210.98 484.8L1209.98 484.893L1210.82 493.813L1211.81 493.72L1212.81 493.627L1211.97 484.707L1210.98 484.8ZM1211.81 493.72L1210.82 493.813C1211.37 499.696 1211.35 505.578 1210.76 511.46L1211.75 511.56L1212.75 511.66C1213.35 505.649 1213.37 499.638 1212.81 493.627L1211.81 493.72ZM1211.75 511.56L1210.76 511.46L1209.86 520.38L1210.86 520.48L1211.85 520.58L1212.75 511.66L1211.75 511.56ZM1210.86 520.48L1209.86 520.38L1208.96 529.3L1209.96 529.4L1210.95 529.5L1211.85 520.58L1210.86 520.48ZM1209.96 529.4L1208.96 529.3C1208.36 535.312 1208.35 541.325 1208.94 547.338L1209.94 547.24L1210.93 547.142C1210.35 541.262 1210.36 535.381 1210.95 529.5L1209.96 529.4ZM1209.94 547.24L1208.94 547.338L1209.81 556.258L1210.81 556.16L1211.81 556.062L1210.93 547.142L1209.94 547.24ZM1210.81 556.16L1209.81 556.258L1210.69 565.178L1211.68 565.08L1212.68 564.982L1211.81 556.062L1210.81 556.16ZM1211.68 565.08L1210.69 565.178C1211.27 571.095 1211.58 577.011 1211.63 582.928L1212.63 582.92L1213.63 582.912C1213.58 576.935 1213.27 570.959 1212.68 564.982L1211.68 565.08ZM1212.63 582.92L1211.63 582.928L1211.7 591.848L1212.7 591.84L1213.7 591.832L1213.63 582.912L1212.63 582.92ZM1212.7 591.84L1211.7 591.848L1211.77 600.768L1212.77 600.76L1213.77 600.752L1213.7 591.832L1212.7 591.84ZM1212.77 600.76L1211.77 600.768C1211.82 606.707 1211.8 612.646 1211.72 618.586L1212.72 618.6L1213.72 618.614C1213.8 612.66 1213.82 606.706 1213.77 600.752L1212.77 600.76ZM1212.72 618.6L1211.72 618.586L1211.59 627.506L1212.59 627.52L1213.59 627.534L1213.72 618.614L1212.72 618.6ZM1212.59 627.52L1211.59 627.506L1211.46 636.426L1212.46 636.44L1213.46 636.454L1213.59 627.534L1212.59 627.52ZM1212.46 636.44L1211.46 636.426C1211.37 642.374 1211.3 648.322 1211.24 654.27L1212.24 654.28L1213.24 654.29C1213.3 648.345 1213.37 642.4 1213.46 636.454L1212.46 636.44ZM1212.24 654.28L1211.24 654.27L1211.15 663.19L1212.15 663.2L1213.15 663.21L1213.24 654.29L1212.24 654.28ZM1212.15 663.2L1211.15 663.19L1211.06 672.11L1212.06 672.12L1213.06 672.13L1213.15 663.21L1212.15 663.2ZM1212.06 672.12L1211.06 672.11C1211 678.055 1210.92 683.999 1210.82 689.944L1211.82 689.96L1212.82 689.976C1212.92 684.028 1213 678.079 1213.06 672.13L1212.06 672.12ZM1211.82 689.96L1210.82 689.944L1210.68 698.864L1211.68 698.88L1212.68 698.896L1212.82 689.976L1211.82 689.96ZM1211.68 698.88L1210.68 698.864L1210.53 707.784L1211.53 707.8L1212.53 707.816L1212.68 698.896L1211.68 698.88ZM1211.53 707.8L1210.53 707.784C1210.44 713.731 1210.35 719.679 1210.27 725.627L1211.27 725.64L1212.27 725.654C1212.35 719.708 1212.44 713.762 1212.53 707.816L1211.53 707.8ZM1211.27 725.64L1210.27 725.627L1210.15 734.547L1211.15 734.56L1212.15 734.574L1212.27 725.654L1211.27 725.64ZM1211.15 734.56L1210.15 734.547L1210.03 743.467L1211.03 743.48L1212.03 743.494L1212.15 734.574L1211.15 734.56ZM1211.03 743.48L1210.03 743.467C1209.95 749.431 1210.02 755.395 1210.25 761.359L1211.25 761.32L1212.25 761.282C1212.02 755.352 1211.95 749.423 1212.03 743.494L1211.03 743.48ZM1211.25 761.32L1210.25 761.359L1210.59 770.279L1211.59 770.24L1212.59 770.202L1212.25 761.282L1211.25 761.32ZM1211.59 770.24L1210.59 770.279L1210.94 779.199L1211.94 779.16L1212.94 779.122L1212.59 770.202L1211.59 770.24ZM1211.94 779.16L1210.94 779.199C1211.17 785.109 1211.07 791.02 1210.67 796.931L1211.66 797L1212.66 797.069C1213.07 791.087 1213.17 785.104 1212.94 779.122L1211.94 779.16ZM1211.66 797L1210.67 796.931L1210.05 805.851L1211.04 805.92L1212.04 805.989L1212.66 797.069L1211.66 797ZM1211.04 805.92L1210.05 805.851L1209.43 814.771L1210.43 814.84L1211.42 814.909L1212.04 805.989L1211.04 805.92ZM1210.43 814.84L1209.43 814.771C1209.02 820.75 1208.9 826.73 1209.07 832.71L1210.07 832.68L1211.07 832.65C1210.9 826.737 1211.02 820.823 1211.42 814.909L1210.43 814.84ZM1210.07 832.68L1209.07 832.71L1209.34 841.63L1210.34 841.6L1211.34 841.57L1211.07 832.65L1210.07 832.68ZM1210.34 841.6L1209.34 841.63L1209.6 850.55L1210.6 850.52L1211.6 850.49L1211.34 841.57L1210.34 841.6ZM1210.6 850.52L1209.6 850.55C1209.78 856.476 1209.77 862.402 1209.59 868.328L1210.59 868.36L1211.58 868.392C1211.77 862.425 1211.78 856.457 1211.6 850.49L1210.6 850.52ZM1210.59 868.36L1209.59 868.328L1209.3 877.248L1210.3 877.28L1211.3 877.312L1211.58 868.392L1210.59 868.36ZM1210.3 877.28L1209.3 877.248L1209.02 886.168L1210.02 886.2L1211.02 886.232L1211.3 877.312L1210.3 877.28ZM1210.02 886.2L1209.02 886.168C1208.83 892.13 1208.78 898.092 1208.86 904.054L1209.86 904.04L1210.86 904.026C1210.78 898.095 1210.83 892.163 1211.02 886.232L1210.02 886.2ZM1209.86 904.04L1208.86 904.054L1208.98 912.974L1209.98 912.96L1210.98 912.946L1210.86 904.026L1209.86 904.04ZM1209.98 912.96L1208.98 912.974L1209.11 921.894L1210.11 921.88L1211.11 921.866L1210.98 912.946L1209.98 912.96ZM1210.11 921.88L1209.11 921.894C1209.19 927.829 1209.17 933.764 1209.05 939.7L1210.05 939.72L1211.05 939.74C1211.17 933.782 1211.19 927.824 1211.11 921.866L1210.11 921.88ZM1210.05 939.72L1209.05 939.7L1208.87 948.62L1209.87 948.64L1210.87 948.661L1211.05 939.74L1210.05 939.72ZM1209.87 948.64L1208.87 948.62L1208.69 957.54L1209.69 957.56L1210.69 957.581L1210.87 948.661L1209.87 948.64ZM1209.69 957.56L1208.69 957.54C1208.56 963.512 1208.67 969.484 1209 975.455L1210 975.4L1211 975.345C1210.67 969.423 1210.56 963.502 1210.69 957.581L1209.69 957.56ZM1210 975.4L1209 975.455L1209.49 984.375L1210.49 984.32L1211.49 984.265L1211 975.345L1210 975.4ZM1210.49 984.32L1209.49 984.375L1209.99 993.295L1210.99 993.24L1211.99 993.185L1211.49 984.265L1210.49 984.32ZM1210.99 993.24L1209.99 993.295C1210.32 999.211 1210.37 1005.13 1210.16 1011.04L1211.16 1011.08L1212.16 1011.12C1212.38 1005.14 1212.32 999.162 1211.99 993.185L1210.99 993.24ZM1211.16 1011.08L1210.16 1011.04L1209.83 1019.96L1210.83 1020L1211.83 1020.04L1212.16 1011.12L1211.16 1011.08ZM1210.83 1020L1209.83 1019.96L1209.51 1028.88L1210.51 1028.92L1211.5 1028.96L1211.83 1020.04L1210.83 1020ZM1210.51 1028.92L1209.51 1028.88C1209.29 1034.82 1209 1040.76 1208.65 1046.7L1209.65 1046.76L1210.64 1046.82C1211 1040.87 1211.29 1034.91 1211.5 1028.96L1210.51 1028.92ZM1209.65 1046.76L1208.65 1046.7L1208.11 1055.62L1209.11 1055.68L1210.11 1055.74L1210.64 1046.82L1209.65 1046.76ZM1209.11 1055.68L1208.11 1055.62L1207.58 1064.54L1208.58 1064.6L1209.58 1064.66L1210.11 1055.74L1209.11 1055.68ZM1208.58 1064.6L1207.58 1064.54C1207.22 1070.52 1207.18 1076.5 1207.46 1082.49L1208.46 1082.44L1209.45 1082.39C1209.18 1076.48 1209.22 1070.57 1209.58 1064.66L1208.58 1064.6ZM1208.46 1082.44L1207.46 1082.49L1207.87 1091.41L1208.87 1091.36L1209.86 1091.31L1209.45 1082.39L1208.46 1082.44ZM1208.87 1091.36L1207.87 1091.41L1208.28 1100.33L1209.27 1100.28L1210.27 1100.23L1209.86 1091.31L1208.87 1091.36ZM1209.27 1100.28L1208.28 1100.33C1208.55 1106.23 1208.48 1112.14 1208.07 1118.05L1209.06 1118.12L1210.06 1118.19C1210.48 1112.2 1210.55 1106.22 1210.27 1100.23L1209.27 1100.28ZM1209.06 1118.12L1208.07 1118.05L1207.45 1126.97L1208.44 1127.04L1209.44 1127.11L1210.06 1118.19L1209.06 1118.12ZM1208.44 1127.04L1207.45 1126.97L1206.83 1135.89L1207.82 1135.96L1208.82 1136.03L1209.44 1127.11L1208.44 1127.04ZM1207.82 1135.96L1206.83 1135.89C1206.41 1141.87 1206.28 1147.85 1206.43 1153.83L1207.43 1153.8L1208.43 1153.77C1208.28 1147.86 1208.41 1141.94 1208.82 1136.03L1207.82 1135.96ZM1207.43 1153.8L1206.43 1153.83L1206.65 1162.75L1207.65 1162.72L1208.65 1162.69L1208.43 1153.77L1207.43 1153.8ZM1207.65 1162.72L1206.65 1162.75L1206.88 1171.67L1207.88 1171.64L1208.88 1171.61L1208.65 1162.69L1207.65 1162.72ZM1207.88 1171.64L1206.88 1171.67C1207.03 1177.61 1207.12 1183.55 1207.17 1189.49L1208.17 1189.48L1209.17 1189.47C1209.12 1183.52 1209.03 1177.57 1208.88 1171.61L1207.88 1171.64ZM1208.17 1189.48L1207.17 1189.49L1207.23 1198.41L1208.23 1198.4L1209.23 1198.39L1209.17 1189.47L1208.17 1189.48ZM1208.23 1198.4L1207.23 1198.41L1207.29 1207.33L1208.29 1207.32L1209.29 1207.31L1209.23 1198.39L1208.23 1198.4ZM1208.29 1207.32L1207.29 1207.33C1207.34 1213.27 1207.33 1219.21 1207.29 1225.15L1208.29 1225.16L1209.29 1225.17C1209.33 1219.22 1209.34 1213.26 1209.29 1207.31L1208.29 1207.32ZM1208.29 1225.16L1207.29 1225.15L1207.23 1234.07L1208.23 1234.08L1209.23 1234.09L1209.29 1225.17L1208.29 1225.16ZM1208.23 1234.08L1207.23 1234.07L1207.16 1242.99L1208.16 1243L1209.16 1243.01L1209.23 1234.09L1208.23 1234.08ZM1208.16 1243L1207.16 1242.99C1207.12 1248.94 1207.05 1254.88 1206.96 1260.83L1207.96 1260.84L1208.96 1260.85C1209.05 1254.91 1209.12 1248.96 1209.16 1243.01L1208.16 1243ZM1207.96 1260.84L1206.96 1260.83L1206.83 1269.75L1207.83 1269.76L1208.83 1269.77L1208.96 1260.85L1207.96 1260.84ZM1207.83 1269.76L1206.83 1269.75L1206.7 1278.67L1207.7 1278.68L1208.7 1278.69L1208.83 1269.77L1207.83 1269.76ZM1207.7 1278.68L1206.7 1278.67C1206.61 1284.66 1206.92 1290.65 1207.62 1296.64L1208.61 1296.52L1209.61 1296.4C1208.91 1290.5 1208.61 1284.6 1208.7 1278.69L1207.7 1278.68ZM1208.61 1296.52L1207.62 1296.64L1208.67 1305.56L1209.66 1305.44L1210.65 1305.32L1209.61 1296.4L1208.61 1296.52ZM1209.66 1305.44L1208.67 1305.56L1209.71 1314.48L1210.71 1314.36L1211.7 1314.24L1210.65 1305.32L1209.66 1305.44ZM1210.71 1314.36L1209.71 1314.48C1210.4 1320.35 1210.45 1326.22 1209.85 1332.1L1210.84 1332.2L1211.83 1332.3C1212.45 1326.28 1212.4 1320.26 1211.7 1314.24L1210.71 1314.36ZM1210.84 1332.2L1209.85 1332.1L1208.93 1341.02L1209.93 1341.12L1210.92 1341.22L1211.83 1332.3L1210.84 1332.2ZM1209.93 1341.12L1208.93 1341.02L1208.02 1349.94L1209.02 1350.04L1210.01 1350.14L1210.92 1341.22L1209.93 1341.12ZM1209.02 1350.04L1208.02 1349.94C1207.41 1355.92 1207.1 1361.9 1207.09 1367.88L1208.09 1367.88L1209.09 1367.88C1209.1 1361.97 1209.41 1356.06 1210.01 1350.14L1209.02 1350.04ZM1208.09 1367.88L1207.09 1367.88L1207.08 1376.8L1208.08 1376.8L1209.08 1376.8L1209.09 1367.88L1208.09 1367.88ZM1208.08 1376.8L1207.08 1376.8L1207.07 1385.72L1208.07 1385.72L1209.07 1385.72L1209.08 1376.8L1208.08 1376.8ZM1208.07 1385.72L1207.07 1385.72C1207.06 1391.67 1207.12 1397.63 1207.26 1403.58L1208.26 1403.56L1209.26 1403.54C1209.12 1397.6 1209.06 1391.66 1209.07 1385.72L1208.07 1385.72ZM1208.26 1403.56L1207.26 1403.58L1207.46 1412.5L1208.46 1412.48L1209.46 1412.46L1209.26 1403.54L1208.26 1403.56ZM1208.46 1412.48L1207.46 1412.5L1207.66 1421.42L1208.66 1421.4L1209.66 1421.38L1209.46 1412.46L1208.46 1412.48ZM1208.66 1421.4L1207.66 1421.42C1207.8 1427.37 1207.96 1433.32 1208.14 1439.27L1209.14 1439.24L1210.14 1439.21C1209.96 1433.27 1209.8 1427.32 1209.66 1421.38L1208.66 1421.4ZM1209.14 1439.24L1208.14 1439.27L1208.41 1448.19L1209.41 1448.16L1210.41 1448.13L1210.14 1439.21L1209.14 1439.24ZM1209.41 1448.16L1208.41 1448.19L1208.68 1457.11L1209.68 1457.08L1210.68 1457.05L1210.41 1448.13L1209.41 1448.16ZM1209.68 1457.08L1208.68 1457.11C1208.86 1463.07 1209.12 1469.02 1209.46 1474.98L1210.46 1474.92L1211.46 1474.86C1211.12 1468.93 1210.86 1462.99 1210.68 1457.05L1209.68 1457.08ZM1210.46 1474.92L1209.46 1474.98L1209.97 1483.9L1210.96 1483.84L1211.96 1483.78L1211.46 1474.86L1210.46 1474.92ZM1210.96 1483.84L1209.97 1483.9L1210.47 1492.82L1211.47 1492.76L1212.47 1492.7L1211.96 1483.78L1210.96 1483.84ZM1211.47 1492.76L1210.47 1492.82C1210.81 1498.75 1211.01 1504.68 1211.06 1510.61L1212.06 1510.6L1213.06 1510.59C1213 1504.63 1212.81 1498.67 1212.47 1492.7L1211.47 1492.76ZM1212.06 1510.6L1211.06 1510.61L1211.14 1519.53L1212.14 1519.52L1213.14 1519.51L1213.06 1510.59L1212.06 1510.6ZM1212.14 1519.52L1211.14 1519.53L1211.22 1528.45L1212.22 1528.44L1213.22 1528.43L1213.14 1519.51L1212.14 1519.52ZM1212.22 1528.44L1211.22 1528.45C1211.27 1534.35 1210.95 1540.26 1210.28 1546.17L1211.27 1546.28L1212.26 1546.39C1212.95 1540.41 1213.27 1534.42 1213.22 1528.43L1212.22 1528.44ZM1211.27 1546.28L1210.28 1546.17L1209.25 1555.09L1210.24 1555.2L1211.24 1555.31L1212.26 1546.39L1211.27 1546.28ZM1210.24 1555.2L1209.25 1555.09L1208.22 1564.01L1209.22 1564.12L1210.21 1564.23L1211.24 1555.31L1210.24 1555.2ZM1209.22 1564.12L1208.22 1564.01C1207.53 1570.02 1207.43 1576.03 1207.92 1582.04L1208.92 1581.96L1209.91 1581.88C1209.44 1576 1209.54 1570.12 1210.21 1564.23L1209.22 1564.12ZM1208.92 1581.96L1207.92 1582.04L1208.64 1590.96L1209.64 1590.88L1210.63 1590.8L1209.91 1581.88L1208.92 1581.96ZM1209.64 1590.88L1208.64 1590.96L1209.36 1599.88L1210.36 1599.8L1211.36 1599.72L1210.63 1590.8L1209.64 1590.88ZM1210.36 1599.8L1209.36 1599.88C1209.84 1605.77 1209.84 1611.67 1209.36 1617.56L1210.35 1617.64L1211.35 1617.72C1211.84 1611.72 1211.84 1605.72 1211.36 1599.72L1210.36 1599.8ZM1210.35 1617.64L1209.36 1617.56L1208.63 1626.48L1209.63 1626.56L1210.62 1626.64L1211.35 1617.72L1210.35 1617.64ZM1209.63 1626.56L1208.63 1626.48L1207.9 1635.4L1208.9 1635.48L1209.89 1635.56L1210.62 1626.64L1209.63 1626.56ZM1208.9 1635.48L1207.9 1635.4C1207.41 1641.39 1207.31 1647.28 1207.61 1653.06L1208.61 1653.01L1209.6 1652.96C1209.32 1647.27 1209.41 1641.47 1209.89 1635.56L1208.9 1635.48ZM1208.61 1653.01L1207.61 1653.06L1208.05 1661.67L1209.04 1661.62L1210.04 1661.57L1209.6 1652.96L1208.61 1653.01ZM1209.04 1661.62L1208.05 1661.67L1208.48 1670.28L1209.48 1670.23L1210.48 1670.18L1210.04 1661.57L1209.04 1661.62ZM1209.48 1670.23L1208.48 1670.28C1208.62 1672.98 1208.02 1674.93 1206.83 1676.28C1205.64 1677.63 1203.71 1678.53 1200.89 1678.85L1201 1679.84L1201.11 1680.83C1204.23 1680.48 1206.7 1679.45 1208.33 1677.6C1209.97 1675.74 1210.64 1673.22 1210.48 1670.18L1209.48 1670.23ZM1201 1679.84L1200.89 1678.85L1191.97 1679.84L1192.08 1680.84L1192.19 1681.83L1201.11 1680.83L1201 1679.84ZM1192.08 1680.84L1191.97 1679.84L1183.05 1680.84L1183.16 1681.84L1183.27 1682.83L1192.19 1681.83L1192.08 1680.84ZM1183.16 1681.84L1183.05 1680.84C1177.18 1681.5 1171.3 1681.5 1165.43 1680.84L1165.32 1681.84L1165.21 1682.83C1171.23 1683.51 1177.25 1683.5 1183.27 1682.83L1183.16 1681.84ZM1165.32 1681.84L1165.43 1680.84L1156.51 1679.85L1156.4 1680.84L1156.29 1681.84L1165.21 1682.83L1165.32 1681.84ZM1156.4 1680.84L1156.51 1679.85L1147.59 1678.85L1147.48 1679.85L1147.37 1680.84L1156.29 1681.84L1156.4 1680.84ZM1147.48 1679.85L1147.59 1678.85C1141.57 1678.18 1135.56 1678.14 1129.54 1678.74L1129.64 1679.74L1129.74 1680.73C1135.62 1680.15 1141.49 1680.18 1147.37 1680.84L1147.48 1679.85ZM1129.64 1679.74L1129.54 1678.74L1120.62 1679.63L1120.72 1680.63L1120.82 1681.62L1129.74 1680.73L1129.64 1679.74ZM1120.72 1680.63L1120.62 1679.63L1111.7 1680.52L1111.8 1681.51L1111.9 1682.51L1120.82 1681.62L1120.72 1680.63ZM1111.8 1681.51L1111.7 1680.52C1105.84 1681.1 1099.97 1680.97 1094.1 1680.11L1093.96 1681.1L1093.82 1682.09C1099.84 1682.97 1105.87 1683.11 1111.9 1682.51L1111.8 1681.51ZM1093.96 1681.1L1094.1 1680.11L1085.18 1678.81L1085.04 1679.8L1084.9 1680.79L1093.82 1682.09L1093.96 1681.1ZM1085.04 1679.8L1085.18 1678.81L1076.26 1677.5L1076.12 1678.49L1075.98 1679.48L1084.9 1680.79L1085.04 1679.8ZM1076.12 1678.49L1076.26 1677.5C1070.24 1676.62 1064.21 1676.47 1058.18 1677.06L1058.28 1678.05L1058.38 1679.05C1064.24 1678.48 1070.11 1678.63 1075.98 1679.48L1076.12 1678.49ZM1058.28 1678.05L1058.18 1677.06L1049.26 1677.92L1049.36 1678.91L1049.46 1679.91L1058.38 1679.05L1058.28 1678.05ZM1049.36 1678.91L1049.26 1677.92L1040.34 1678.78L1040.44 1679.77L1040.54 1680.77L1049.46 1679.91L1049.36 1678.91ZM1040.44 1679.77L1040.34 1678.78C1034.42 1679.35 1028.5 1679.68 1022.59 1679.77L1022.6 1680.77L1022.61 1681.77C1028.59 1681.68 1034.56 1681.34 1040.54 1680.77L1040.44 1679.77ZM1022.6 1680.77L1022.59 1679.77L1013.67 1679.9L1013.68 1680.9L1013.69 1681.9L1022.61 1681.77L1022.6 1680.77ZM1013.68 1680.9L1013.67 1679.9L1004.75 1680.03L1004.76 1681.03L1004.77 1682.03L1013.69 1681.9L1013.68 1680.9ZM1004.76 1681.03L1004.75 1680.03C998.793 1680.12 992.84 1680.26 986.888 1680.45L986.92 1681.45L986.952 1682.45C992.893 1682.26 998.834 1682.12 1004.77 1682.03L1004.76 1681.03ZM986.92 1681.45L986.888 1680.45L977.968 1680.74L978 1681.74L978.032 1682.74L986.952 1682.45L986.92 1681.45ZM978 1681.74L977.968 1680.74L969.048 1681.03L969.08 1682.03L969.112 1683.03L978.032 1682.74L978 1681.74ZM969.08 1682.03L969.048 1681.03C963.113 1681.22 957.177 1681.31 951.242 1681.3L951.24 1682.3L951.238 1683.3C957.196 1683.31 963.154 1683.22 969.112 1683.03L969.08 1682.03ZM951.24 1682.3L951.242 1681.3L942.322 1681.28L942.32 1682.28L942.318 1683.28L951.238 1683.3L951.24 1682.3ZM942.32 1682.28L942.322 1681.28L933.402 1681.26L933.4 1682.26L933.398 1683.26L942.318 1683.28L942.32 1682.28ZM933.4 1682.26L933.402 1681.26C927.499 1681.24 921.595 1680.85 915.69 1680.08L915.56 1681.07L915.43 1682.06C921.419 1682.84 927.408 1683.24 933.398 1683.26L933.4 1682.26ZM915.56 1681.07L915.69 1680.08L906.77 1678.91L906.64 1679.9L906.51 1680.89L915.43 1682.06L915.56 1681.07ZM906.64 1679.9L906.77 1678.91L897.85 1677.74L897.72 1678.73L897.59 1679.72L906.51 1680.89L906.64 1679.9ZM897.72 1678.73L897.85 1677.74C891.841 1676.95 885.831 1676.73 879.82 1677.1L879.88 1678.09L879.94 1679.09C885.823 1678.74 891.706 1678.95 897.59 1679.72L897.72 1678.73ZM879.88 1678.09L879.82 1677.1L870.9 1677.63L870.96 1678.63L871.02 1679.63L879.94 1679.09L879.88 1678.09ZM870.96 1678.63L870.9 1677.63L861.98 1678.17L862.04 1679.17L862.1 1680.17L871.02 1679.63L870.96 1678.63ZM862.04 1679.17L861.98 1678.17C856.077 1678.52 850.173 1678.49 844.27 1678.08L844.2 1679.08L844.13 1680.07C850.12 1680.5 856.11 1680.53 862.1 1680.17L862.04 1679.17ZM844.2 1679.08L844.27 1678.08L835.35 1677.45L835.28 1678.45L835.21 1679.45L844.13 1680.07L844.2 1679.08ZM835.28 1678.45L835.35 1677.45L826.43 1676.82L826.36 1677.82L826.29 1678.82L835.21 1679.45L835.28 1678.45ZM826.36 1677.82L826.43 1676.82C820.421 1676.4 814.412 1676.54 808.404 1677.25L808.52 1678.24L808.636 1679.23C814.521 1678.54 820.406 1678.41 826.29 1678.82L826.36 1677.82ZM808.52 1678.24L808.404 1677.25L799.484 1678.29L799.6 1679.28L799.716 1680.28L808.636 1679.23L808.52 1678.24ZM799.6 1679.28L799.484 1678.29L790.564 1679.34L790.68 1680.33L790.796 1681.32L799.716 1680.28L799.6 1679.28ZM790.68 1680.33L790.564 1679.34C784.685 1680.02 778.807 1680.1 772.929 1679.58L772.84 1680.57L772.751 1681.57C778.766 1682.11 784.782 1682.03 790.796 1681.32L790.68 1680.33ZM772.84 1680.57L772.929 1679.58L764.009 1678.78L763.92 1679.78L763.831 1680.77L772.751 1681.57L772.84 1680.57ZM763.92 1679.78L764.009 1678.78L755.089 1677.98L755 1678.98L754.911 1679.97L763.831 1680.77L763.92 1679.78ZM755 1678.98L755.089 1677.98C749.113 1677.45 743.137 1677.17 737.161 1677.17L737.16 1678.17L737.159 1679.17C743.076 1679.17 748.993 1679.44 754.911 1679.97L755 1678.98ZM737.16 1678.17L737.161 1677.17L728.241 1677.16L728.24 1678.16L728.239 1679.16L737.159 1679.17L737.16 1678.17ZM728.24 1678.16L728.241 1677.16L719.321 1677.15L719.32 1678.15L719.319 1679.15L728.239 1679.16L728.24 1678.16ZM719.32 1678.15L719.321 1677.15C713.357 1677.14 707.393 1677.29 701.429 1677.6L701.48 1678.59L701.531 1679.59C707.461 1679.29 713.39 1679.14 719.319 1679.15L719.32 1678.15ZM701.48 1678.59L701.429 1677.6L692.509 1678.05L692.56 1679.05L692.611 1680.05L701.531 1679.59L701.48 1678.59ZM692.56 1679.05L692.509 1678.05L683.589 1678.51L683.64 1679.51L683.691 1680.51L692.611 1680.05L692.56 1679.05ZM683.64 1679.51L683.589 1678.51C677.651 1678.82 671.714 1679.04 665.776 1679.18L665.8 1680.18L665.824 1681.18C671.78 1681.04 677.735 1680.82 683.691 1680.51L683.64 1679.51ZM665.8 1680.18L665.776 1679.18L656.856 1679.39L656.88 1680.39L656.904 1681.39L665.824 1681.18L665.8 1680.18ZM656.88 1680.39L656.856 1679.39L647.936 1679.61L647.96 1680.61L647.984 1681.61L656.904 1681.39L656.88 1680.39ZM647.96 1680.61L647.936 1679.61C642.012 1679.75 636.088 1679.69 630.164 1679.43L630.12 1680.43L630.076 1681.43C636.045 1681.69 642.015 1681.75 647.984 1681.61L647.96 1680.61ZM630.12 1680.43L630.164 1679.43L621.244 1679.04L621.2 1680.04L621.156 1681.04L630.076 1681.43L630.12 1680.43ZM621.2 1680.04L621.244 1679.04L612.324 1678.65L612.28 1679.65L612.236 1680.65L621.156 1681.04L621.2 1680.04ZM612.28 1679.65L612.324 1678.65C606.352 1678.39 600.38 1678.35 594.407 1678.55L594.44 1679.55L594.473 1680.55C600.394 1680.36 606.315 1680.39 612.236 1680.65L612.28 1679.65ZM594.44 1679.55L594.407 1678.55L585.487 1678.84L585.52 1679.84L585.553 1680.84L594.473 1680.55L594.44 1679.55ZM585.52 1679.84L585.487 1678.84L576.567 1679.13L576.6 1680.13L576.633 1681.13L585.553 1680.84L585.52 1679.84ZM576.6 1680.13L576.567 1679.13C570.617 1679.32 564.667 1679.55 558.717 1679.81L558.76 1680.8L558.803 1681.8C564.746 1681.55 570.689 1681.32 576.633 1681.13L576.6 1680.13ZM558.76 1680.8L558.717 1679.81L549.797 1680.19L549.84 1681.19L549.883 1682.19L558.803 1681.8L558.76 1680.8ZM549.84 1681.19L549.797 1680.19L540.877 1680.57L540.92 1681.57L540.963 1682.57L549.883 1682.19L549.84 1681.19ZM540.92 1681.57L540.877 1680.57C534.964 1680.83 529.051 1680.79 523.138 1680.45L523.08 1681.44L523.022 1682.44C529.003 1682.79 534.983 1682.83 540.963 1682.57L540.92 1681.57ZM523.08 1681.44L523.138 1680.45L514.218 1679.93L514.16 1680.93L514.102 1681.93L523.022 1682.44L523.08 1681.44ZM514.16 1680.93L514.218 1679.93L505.298 1679.42L505.24 1680.42L505.182 1681.41L514.102 1681.93L514.16 1680.93ZM505.24 1680.42L505.298 1679.42C499.326 1679.07 493.355 1678.95 487.383 1679.05L487.4 1680.05L487.417 1681.05C493.338 1680.95 499.26 1681.07 505.182 1681.41L505.24 1680.42ZM487.4 1680.05L487.383 1679.05L478.463 1679.2L478.48 1680.2L478.497 1681.2L487.417 1681.05L487.4 1680.05ZM478.48 1680.2L478.463 1679.2L469.543 1679.35L469.56 1680.35L469.577 1681.35L478.497 1681.2L478.48 1680.2ZM469.56 1680.35L469.543 1679.35C463.595 1679.44 457.646 1679.56 451.698 1679.69L451.72 1680.69L451.742 1681.69C457.687 1681.56 463.632 1681.44 469.577 1681.35L469.56 1680.35ZM451.72 1680.69L451.698 1679.69L442.778 1679.89L442.8 1680.89L442.822 1681.89L451.742 1681.69L451.72 1680.69ZM442.8 1680.89L442.778 1679.89L433.858 1680.09L433.88 1681.09L433.902 1682.09L442.822 1681.89L442.8 1680.89ZM433.88 1681.09L433.858 1680.09C427.939 1680.23 422.02 1680.11 416.101 1679.75L416.04 1680.75L415.979 1681.74C421.953 1682.11 427.928 1682.23 433.902 1682.09L433.88 1681.09ZM416.04 1680.75L416.101 1679.75L407.181 1679.2L407.12 1680.2L407.059 1681.19L415.979 1681.74L416.04 1680.75ZM407.12 1680.2L407.181 1679.2L398.261 1678.65L398.2 1679.65L398.139 1680.65L407.059 1681.19L407.12 1680.2ZM398.2 1679.65L398.261 1678.65C392.305 1678.28 386.349 1678 380.392 1677.81L380.36 1678.81L380.328 1679.81C386.265 1680 392.202 1680.28 398.139 1680.65L398.2 1679.65ZM380.36 1678.81L380.392 1677.81L371.472 1677.52L371.44 1678.52L371.408 1679.52L380.328 1679.81L380.36 1678.81ZM371.44 1678.52L371.472 1677.52L362.552 1677.24L362.52 1678.23L362.488 1679.23L371.408 1679.52L371.44 1678.52ZM362.52 1678.23L362.552 1677.24C356.602 1677.04 350.652 1676.88 344.702 1676.75L344.68 1677.75L344.658 1678.75C350.601 1678.88 356.544 1679.04 362.488 1679.23L362.52 1678.23ZM344.68 1677.75L344.702 1676.75L335.782 1676.55L335.76 1677.55L335.738 1678.55L344.658 1678.75L344.68 1677.75ZM335.76 1677.55L335.782 1676.55L326.862 1676.35L326.84 1677.35L326.818 1678.35L335.738 1678.55L335.76 1677.55ZM326.84 1677.35L326.862 1676.35C320.89 1676.21 314.917 1676.31 308.945 1676.64L309 1677.64L309.055 1678.64C314.976 1678.31 320.897 1678.22 326.818 1678.35L326.84 1677.35ZM309 1677.64L308.945 1676.64L300.025 1677.14L300.08 1678.13L300.135 1679.13L309.055 1678.64L309 1677.64ZM300.08 1678.13L300.025 1677.14L291.105 1677.63L291.16 1678.63L291.215 1679.63L300.135 1679.13L300.08 1678.13ZM291.16 1678.63L291.105 1677.63C285.143 1677.96 279.181 1678.43 273.219 1679.03L273.32 1680.03L273.421 1681.02C279.353 1680.42 285.284 1679.95 291.215 1679.63L291.16 1678.63ZM273.32 1680.03L273.219 1679.03L264.299 1679.94L264.4 1680.93L264.501 1681.93L273.421 1681.02L273.32 1680.03ZM264.4 1680.93L264.299 1679.94L255.379 1680.85L255.48 1681.84L255.581 1682.84L264.501 1681.93L264.4 1680.93ZM255.48 1681.84L255.379 1680.85C249.514 1681.44 243.649 1681.32 237.782 1680.48L237.64 1681.47L237.498 1682.46C243.525 1683.32 249.553 1683.45 255.581 1682.84L255.48 1681.84ZM237.64 1681.47L237.782 1680.48L228.862 1679.2L228.72 1680.19L228.578 1681.18L237.498 1682.46L237.64 1681.47ZM228.72 1680.19L228.862 1679.2L219.942 1677.92L219.8 1678.91L219.658 1679.9L228.578 1681.18L228.72 1680.19ZM219.8 1678.91L219.942 1677.92C213.945 1677.06 207.947 1676.66 201.948 1676.73L201.96 1677.73L201.972 1678.73C207.867 1678.66 213.762 1679.05 219.658 1679.9L219.8 1678.91ZM201.96 1677.73L201.948 1676.73L193.028 1676.84L193.04 1677.84L193.052 1678.84L201.972 1678.73L201.96 1677.73ZM193.04 1677.84L193.028 1676.84L184.108 1676.95L184.12 1677.95L184.132 1678.95L193.052 1678.84L193.04 1677.84ZM184.12 1677.95L184.108 1676.95C178.129 1677.03 172.151 1677.38 166.173 1678.03L166.28 1679.02L166.387 1680.02C172.302 1679.38 178.217 1679.02 184.132 1678.95L184.12 1677.95ZM166.28 1679.02L166.173 1678.03L157.253 1678.99L157.36 1679.98L157.467 1680.97L166.387 1680.02L166.28 1679.02ZM157.36 1679.98L157.253 1678.99L148.333 1679.95L148.44 1680.94L148.547 1681.93L157.467 1680.97L157.36 1679.98ZM148.44 1680.94L148.333 1679.95C142.461 1680.58 136.589 1680.55 130.717 1679.86L130.6 1680.85L130.483 1681.84C136.504 1682.55 142.526 1682.58 148.547 1681.93L148.44 1680.94ZM130.6 1680.85L130.717 1679.86L121.797 1678.8L121.68 1679.8L121.563 1680.79L130.483 1681.84L130.6 1680.85ZM121.68 1679.8L121.797 1678.8L112.877 1677.75L112.76 1678.74L112.643 1679.74L121.563 1680.79L121.68 1679.8ZM112.76 1678.74L112.877 1677.75C106.874 1677.04 100.87 1676.85 94.8655 1677.18L94.92 1678.18L94.9744 1679.18C100.864 1678.86 106.753 1679.04 112.643 1679.74L112.76 1678.74ZM94.92 1678.18L94.8655 1677.18L85.9455 1677.67L85.9999 1678.67L86.0544 1679.66L94.9744 1679.18L94.92 1678.18ZM85.9999 1678.67L85.9455 1677.67L77.0255 1678.15L77.0799 1679.15L77.1344 1680.15L86.0544 1679.66L85.9999 1678.67ZM77.0799 1679.15L77.0255 1678.15C71.0988 1678.48 65.1722 1678.62 59.2457 1678.59L59.2399 1679.59L59.2342 1680.59C65.2009 1680.62 71.1677 1680.48 77.1344 1680.15L77.0799 1679.15ZM59.2399 1679.59L59.2457 1678.59L50.3257 1678.54L50.3199 1679.54L50.3142 1680.54L59.2342 1680.59L59.2399 1679.59ZM50.3199 1679.54L50.3257 1678.54L41.4057 1678.48L41.4 1679.48L41.3942 1680.48L50.3142 1680.54L50.3199 1679.54ZM41.4 1679.48L41.4057 1678.48C35.4818 1678.45 29.7095 1678.21 24.0887 1677.78L24.0112 1678.77L23.9337 1679.77C29.6046 1680.21 35.4248 1680.45 41.3942 1680.48L41.4 1679.48ZM24.0112 1678.77L24.0887 1677.78L15.62 1677.12L15.5425 1678.12L15.465 1679.11L23.9337 1679.77L24.0112 1678.77ZM15.5425 1678.12L15.62 1677.12L7.15123 1676.46L7.07375 1677.46L6.99626 1678.46L15.465 1679.11L15.5425 1678.12ZM7.07375 1677.46L7.15123 1676.46C4.49706 1676.25 2.71145 1675.42 1.60432 1674.09C0.489424 1672.76 -0.0823022 1670.76 0.0635791 1667.93L-0.935094 1667.88L-1.93377 1667.83C-2.09449 1670.95 -1.48471 1673.52 0.07001 1675.38C1.6325 1677.24 4.00461 1678.22 6.99626 1678.46L7.07375 1677.46ZM-0.935094 1667.88L0.0635791 1667.93L0.52348 1659.01L-0.475193 1658.96L-1.47387 1658.91L-1.93377 1667.83L-0.935094 1667.88ZM-0.475193 1658.96L0.52348 1659.01L0.983381 1650.09L-0.0152923 1650.04L-1.01397 1649.99L-1.47387 1658.91L-0.475193 1658.96ZM-0.0152923 1650.04L0.983381 1650.09C1.29065 1644.13 1.4818 1638.17 1.55684 1632.21L0.556921 1632.2L-0.443 1632.19C-0.517711 1638.12 -0.708032 1644.05 -1.01397 1649.99L-0.0152923 1650.04ZM0.556921 1632.2L1.55684 1632.21L1.66915 1623.29L0.669233 1623.28L-0.330688 1623.27L-0.443 1632.19L0.556921 1632.2ZM0.669233 1623.28L1.66915 1623.29L1.78147 1614.37L0.781545 1614.36L-0.218376 1614.35L-0.330688 1623.27L0.669233 1623.28ZM0.781545 1614.36L1.78147 1614.37C1.85671 1608.4 1.66738 1602.42 1.2135 1596.44L0.216374 1596.52L-0.780754 1596.6C-0.331324 1602.51 -0.143873 1608.43 -0.218376 1614.35L0.781545 1614.36ZM0.216374 1596.52L1.2135 1596.44L0.536019 1587.52L-0.46111 1587.6L-1.45824 1587.68L-0.780754 1596.6L0.216374 1596.52ZM-0.46111 1587.6L0.536019 1587.52L-0.141465 1578.6L-1.13859 1578.68L-2.13572 1578.76L-1.45824 1587.68L-0.46111 1587.6ZM-1.13859 1578.68L-0.141465 1578.6C-0.590583 1572.69 -0.741348 1566.78 -0.59379 1560.86L-1.59348 1560.84L-2.59317 1560.82C-2.74241 1566.8 -2.58991 1572.78 -2.13572 1578.76L-1.13859 1578.68ZM-1.59348 1560.84L-0.59379 1560.86L-0.371192 1551.94L-1.37088 1551.92L-2.37057 1551.9L-2.59317 1560.82L-1.59348 1560.84ZM-1.37088 1551.92L-0.371192 1551.94L-0.148594 1543.02L-1.14828 1543L-2.14797 1542.97L-2.37057 1551.9L-1.37088 1551.92ZM-1.14828 1543L-0.148594 1543.02C-0.000475473 1537.09 0.247669 1531.15 0.595841 1525.22L-0.402443 1525.16L-1.40073 1525.1C-1.75021 1531.06 -1.99929 1537.02 -2.14797 1542.97L-1.14828 1543ZM-0.402443 1525.16L0.595841 1525.22L1.11908 1516.3L0.120799 1516.24L-0.877485 1516.18L-1.40073 1525.1L-0.402443 1525.16ZM0.120799 1516.24L1.11908 1516.3L1.64233 1507.38L0.644042 1507.32L-0.354242 1507.26L-0.877485 1516.18L0.120799 1516.24ZM0.644042 1507.32L1.64233 1507.38C1.99414 1501.38 1.88759 1495.38 1.32274 1489.39L0.327147 1489.48L-0.668447 1489.57C-0.113112 1495.47 -0.00840055 1501.37 -0.354242 1507.26L0.644042 1507.32ZM0.327147 1489.48L1.32274 1489.39L0.482603 1480.47L-0.512991 1480.56L-1.50858 1480.65L-0.668447 1489.57L0.327147 1489.48ZM-0.512991 1480.56L0.482603 1480.47L-0.357534 1471.55L-1.35313 1471.64L-2.34872 1471.73L-1.50858 1480.65L-0.512991 1480.56ZM-1.35313 1471.64L-0.357534 1471.55C-0.914468 1465.63 -1.1707 1459.72 -1.12627 1453.81L-2.12624 1453.8L-3.12621 1453.79C-3.17115 1459.77 -2.91197 1465.75 -2.34872 1471.73L-1.35313 1471.64ZM-2.12624 1453.8L-1.12627 1453.81L-1.05925 1444.89L-2.05922 1444.88L-3.05919 1444.87L-3.12621 1453.79L-2.12624 1453.8ZM-2.05922 1444.88L-1.05925 1444.89L-0.992225 1435.97L-1.9922 1435.96L-2.99217 1435.95L-3.05919 1444.87L-2.05922 1444.88ZM-1.9922 1435.96L-0.992225 1435.97C-0.947485 1430.01 -0.972015 1424.06 -1.06582 1418.1L-2.06569 1418.12L-3.06557 1418.14C-2.97201 1424.07 -2.94755 1430.01 -2.99217 1435.95L-1.9922 1435.96ZM-2.06569 1418.12L-1.06582 1418.1L-1.20633 1409.18L-2.20621 1409.2L-3.20608 1409.22L-3.06557 1418.14L-2.06569 1418.12ZM-2.20621 1409.2L-1.20633 1409.18L-1.34685 1400.26L-2.34673 1400.28L-3.3466 1400.3L-3.20608 1409.22L-2.20621 1409.2ZM-2.34673 1400.28L-1.34685 1400.26C-1.4401 1394.34 -1.2919 1388.43 -0.902226 1382.51L-1.90007 1382.44L-2.89791 1382.37C-3.29114 1388.35 -3.44071 1394.32 -3.3466 1400.3L-2.34673 1400.28ZM-1.90007 1382.44L-0.902226 1382.51L-0.315051 1373.59L-1.31289 1373.52L-2.31073 1373.45L-2.89791 1382.37L-1.90007 1382.44ZM-1.31289 1373.52L-0.315051 1373.59L0.272125 1364.67L-0.725716 1364.6L-1.72356 1364.53L-2.31073 1373.45L-1.31289 1373.52ZM-0.725716 1364.6L0.272125 1364.67C0.665338 1358.69 0.817321 1352.72 0.72806 1346.74L-0.271829 1346.76L-1.27172 1346.77C-1.18326 1352.69 -1.33387 1358.61 -1.72356 1364.53L-0.725716 1364.6ZM-0.271829 1346.76L0.72806 1346.74L0.594771 1337.83L-0.405117 1337.84L-1.40501 1337.85L-1.27172 1346.77L-0.271829 1346.76ZM-0.405117 1337.84L0.594771 1337.83L0.461482 1328.91L-0.538406 1328.92L-1.53829 1328.93L-1.40501 1337.85L-0.405117 1337.84ZM-0.538406 1328.92L0.461482 1328.91C0.372905 1322.98 0.452114 1317.05 0.699113 1311.12L-0.30002 1311.08L-1.29915 1311.04C-1.54772 1317 -1.62744 1322.97 -1.53829 1328.93L-0.538406 1328.92ZM-0.30002 1311.08L0.699113 1311.12L1.07079 1302.2L0.0716541 1302.16L-0.927479 1302.12L-1.29915 1311.04L-0.30002 1311.08ZM0.0716541 1302.16L1.07079 1302.2L1.44246 1293.28L0.443329 1293.24L-0.555804 1293.2L-0.927479 1302.12L0.0716541 1302.16ZM0.443329 1293.24L1.44246 1293.28C1.69137 1287.31 1.69893 1281.33 1.46516 1275.36L0.465925 1275.4L-0.53331 1275.44C-0.301644 1281.36 -0.309142 1287.28 -0.555804 1293.2L0.443329 1293.24ZM0.465925 1275.4L1.46516 1275.36L1.11608 1266.44L0.116848 1266.48L-0.882387 1266.52L-0.53331 1275.44L0.465925 1275.4ZM0.116848 1266.48L1.11608 1266.44L0.767005 1257.52L-0.23223 1257.56L-1.23146 1257.6L-0.882387 1266.52L0.116848 1266.48ZM-0.23223 1257.56L0.767005 1257.52C0.53554 1251.61 0.588237 1245.69 0.925106 1239.78L-0.0732757 1239.72L-1.07166 1239.66C-1.41216 1245.64 -1.46544 1251.62 -1.23146 1257.6L-0.23223 1257.56ZM-0.0732757 1239.72L0.925106 1239.78L1.43314 1230.86L0.434756 1230.8L-0.563626 1230.74L-1.07166 1239.66L-0.0732757 1239.72ZM0.434756 1230.8L1.43314 1230.86L1.94117 1221.94L0.942788 1221.88L-0.0555945 1221.82L-0.563626 1230.74L0.434756 1230.8ZM0.942788 1221.88L1.94117 1221.94C2.28082 1215.97 2.46863 1210.01 2.50459 1204.05L1.5046 1204.04L0.504622 1204.03C0.468868 1209.96 0.282131 1215.89 -0.0555945 1221.82L0.942788 1221.88ZM1.5046 1204.04L2.50459 1204.05L2.55837 1195.13L1.55839 1195.12L0.558407 1195.11L0.504622 1204.03L1.5046 1204.04ZM1.55839 1195.12L2.55837 1195.13L2.61216 1186.21L1.61217 1186.2L0.612192 1186.19L0.558407 1195.11L1.55839 1195.12ZM1.61217 1186.2L2.61216 1186.21C2.64806 1180.25 2.60859 1174.3 2.49372 1168.34L1.49391 1168.36L0.494096 1168.38C0.608632 1174.32 0.647998 1180.26 0.612192 1186.19L1.61217 1186.2ZM1.49391 1168.36L2.49372 1168.34L2.32168 1159.42L1.32186 1159.44L0.322047 1159.46L0.494096 1168.38L1.49391 1168.36ZM1.32186 1159.44L2.32168 1159.42L2.14963 1150.5L1.14981 1150.52L0.149999 1150.54L0.322047 1159.46L1.32186 1159.44ZM1.14981 1150.52L2.14963 1150.5C2.03449 1144.53 1.71416 1138.56 1.18866 1132.59L0.192513 1132.68L-0.803635 1132.77C-0.28213 1138.69 0.0357419 1144.62 0.149999 1150.54L1.14981 1150.52ZM0.192513 1132.68L1.18866 1132.59L0.403408 1123.67L-0.592739 1123.76L-1.58889 1123.85L-0.803635 1132.77L0.192513 1132.68ZM-0.592739 1123.76L0.403408 1123.67L-0.381844 1114.75L-1.37799 1114.84L-2.37414 1114.93L-1.58889 1123.85L-0.592739 1123.76ZM-1.37799 1114.84L-0.381844 1114.75C-0.901543 1108.85 -1.03558 1102.95 -0.784001 1097.04L-1.78309 1097L-2.78219 1096.96C-3.03748 1102.95 -2.90144 1108.94 -2.37414 1114.93L-1.37799 1114.84ZM-1.78309 1097L-0.784001 1097.04L-0.403852 1088.12L-1.40295 1088.08L-2.40204 1088.04L-2.78219 1096.96L-1.78309 1097ZM-1.40295 1088.08L-0.403852 1088.12L-0.023703 1079.2L-1.0228 1079.16L-2.02189 1079.12L-2.40204 1088.04L-1.40295 1088.08ZM-1.0228 1079.16L-0.023703 1079.2C0.229886 1073.25 0.450629 1067.3 0.638527 1061.35L-0.360975 1061.32L-1.36048 1061.29C-1.54814 1067.23 -1.76861 1073.17 -2.02189 1079.12L-1.0228 1079.16ZM-0.360975 1061.32L0.638527 1061.35L0.920199 1052.43L-0.0793028 1052.4L-1.0788 1052.37L-1.36048 1061.29L-0.360975 1061.32ZM-0.0793028 1052.4L0.920199 1052.43L1.20187 1043.51L0.202369 1043.48L-0.797132 1043.45L-1.0788 1052.37L-0.0793028 1052.4ZM0.202369 1043.48L1.20187 1043.51C1.38959 1037.57 1.59479 1031.62 1.81746 1025.68L0.818162 1025.64L-0.181137 1025.6C-0.403957 1031.55 -0.609289 1037.5 -0.797132 1043.45L0.202369 1043.48ZM0.818162 1025.64L1.81746 1025.68L2.15158 1016.76L1.15228 1016.72L0.152983 1016.68L-0.181137 1025.6L0.818162 1025.64ZM1.15228 1016.72L2.15158 1016.76L2.4857 1007.84L1.4864 1007.8L0.487103 1007.76L0.152983 1016.68L1.15228 1016.72ZM1.4864 1007.8L2.4857 1007.84C2.70859 1001.89 2.89717 995.936 3.05142 989.986L2.05176 989.96L1.05209 989.934C0.898037 995.877 0.709707 1001.82 0.487103 1007.76L1.4864 1007.8ZM2.05176 989.96L3.05142 989.986L3.28266 981.066L2.28299 981.04L1.28333 981.014L1.05209 989.934L2.05176 989.96ZM2.28299 981.04L3.28266 981.066L3.51389 972.146L2.51423 972.12L1.51456 972.094L1.28333 981.014L2.28299 981.04ZM2.51423 972.12L3.51389 972.146C3.6686 966.178 3.63431 960.21 3.41104 954.243L2.41174 954.28L1.41244 954.317C1.63413 960.243 1.66817 966.168 1.51456 972.094L2.51423 972.12ZM2.41174 954.28L3.41104 954.243L3.07731 945.323L2.07801 945.36L1.07871 945.397L1.41244 954.317L2.41174 954.28ZM2.07801 945.36L3.07731 945.323L2.74359 936.403L1.74429 936.44L0.744987 936.477L1.07871 945.397L2.07801 945.36ZM1.74429 936.44L2.74359 936.403C2.5209 930.45 2.24946 924.498 1.92928 918.546L0.93072 918.6L-0.0678362 918.654C0.251766 924.595 0.522707 930.536 0.744987 936.477L1.74429 936.44ZM0.93072 918.6L1.92928 918.546L1.44943 909.626L0.450878 909.68L-0.547679 909.734L-0.0678362 918.654L0.93072 918.6ZM0.450878 909.68L1.44943 909.626L0.969591 900.706L-0.0289647 900.76L-1.02752 900.814L-0.547679 909.734L0.450878 909.68ZM-0.0289647 900.76L0.969591 900.706C0.651279 894.789 0.594857 888.872 0.800317 882.955L-0.199081 882.92L-1.19848 882.885C-1.40599 888.861 -1.349 894.838 -1.02752 900.814L-0.0289647 900.76ZM-0.199081 882.92L0.800317 882.955L1.11004 874.035L0.110645 874L-0.888753 873.965L-1.19848 882.885L-0.199081 882.92ZM0.110645 874L1.11004 874.035L1.41977 865.115L0.420371 865.08L-0.579027 865.045L-0.888753 873.965L0.110645 874ZM0.420371 865.08L1.41977 865.115C1.62623 859.169 1.83718 853.222 2.05262 847.276L1.05327 847.24L0.0539297 847.204C-0.16154 853.151 -0.372526 859.098 -0.579027 865.045L0.420371 865.08ZM1.05327 847.24L2.05262 847.276L2.3758 838.356L1.37645 838.32L0.377107 838.284L0.0539297 847.204L1.05327 847.24ZM1.37645 838.32L2.3758 838.356L2.69897 829.436L1.69963 829.4L0.700284 829.364L0.377107 838.284L1.37645 838.32ZM1.69963 829.4L2.69897 829.436C2.9157 823.454 2.81689 817.473 2.40258 811.491L1.40497 811.56L0.40736 811.629C0.816827 817.541 0.914462 823.452 0.700284 829.364L1.69963 829.4ZM1.40497 811.56L2.40258 811.491L1.78474 802.571L0.787133 802.64L-0.210477 802.709L0.40736 811.629L1.40497 811.56ZM0.787133 802.64L1.78474 802.571L1.16691 793.651L0.169296 793.72L-0.828314 793.789L-0.210477 802.709L0.787133 802.64ZM0.169296 793.72L1.16691 793.651C0.755347 787.709 0.386851 781.767 0.0614178 775.825L-0.937086 775.88L-1.93559 775.935C-1.60963 781.886 -1.24054 787.838 -0.828314 793.789L0.169296 793.72ZM-0.937086 775.88L0.0614178 775.825L-0.427127 766.905L-1.42563 766.96L-2.42413 767.015L-1.93559 775.935L-0.937086 775.88ZM-1.42563 766.96L-0.427127 766.905L-0.915673 757.985L-1.91418 758.04L-2.91268 758.095L-2.42413 767.015L-1.42563 766.96ZM-1.91418 758.04L-0.915673 757.985C-1.24024 752.059 -1.38052 746.133 -1.33652 740.207L-2.33649 740.2L-3.33646 740.193C-3.38077 746.16 -3.23951 752.127 -2.91268 758.095L-1.91418 758.04ZM-2.33649 740.2L-1.33652 740.207L-1.27028 731.287L-2.27026 731.28L-3.27023 731.273L-3.33646 740.193L-2.33649 740.2ZM-2.27026 731.28L-1.27028 731.287L-1.20405 722.367L-2.20402 722.36L-3.20399 722.353L-3.27023 731.273L-2.27026 731.28ZM-2.20402 722.36L-1.20405 722.367C-1.16003 716.439 -0.952029 710.511 -0.580037 704.583L-1.57807 704.52L-2.57611 704.457C-2.95041 710.422 -3.1597 716.387 -3.20399 722.353L-2.20402 722.36ZM-1.57807 704.52L-0.580037 704.583L-0.0203233 695.663L-1.01836 695.6L-2.0164 695.537L-2.57611 704.457L-1.57807 704.52ZM-1.01836 695.6L-0.0203233 695.663L0.539391 686.743L-0.458646 686.68L-1.45668 686.617L-2.0164 695.537L-1.01836 695.6ZM-0.458646 686.68L0.539391 686.743C0.914019 680.772 1.07562 674.802 1.0242 668.831L0.0242345 668.84L-0.975728 668.849C-0.924711 674.771 -1.08503 680.694 -1.45668 686.617L-0.458646 686.68ZM0.0242345 668.84L1.0242 668.831L0.947364 659.911L-0.0525985 659.92L-1.05256 659.929L-0.975728 668.849L0.0242345 668.84ZM-0.0525985 659.92L0.947364 659.911L0.870531 650.991L-0.129432 651L-1.12939 651.009L-1.05256 659.929L-0.0525985 659.92ZM-0.129432 651L0.870531 650.991C0.819489 645.066 0.953557 639.14 1.27274 633.214L0.274189 633.16L-0.724363 633.106C-1.04578 639.074 -1.1808 645.041 -1.12939 651.009L-0.129432 651ZM0.274189 633.16L1.27274 633.214L1.7532 624.294L0.754643 624.24L-0.243909 624.186L-0.724363 633.106L0.274189 633.16ZM0.754643 624.24L1.7532 624.294L2.23365 615.374L1.2351 615.32L0.236545 615.266L-0.243909 624.186L0.754643 624.24ZM1.2351 615.32L2.23365 615.374C2.55433 609.42 2.81166 603.466 3.00563 597.513L2.00616 597.48L1.0067 597.447C0.813183 603.387 0.556467 609.327 0.236545 615.266L1.2351 615.32ZM2.00616 597.48L3.00563 597.513L3.29625 588.593L2.29678 588.56L1.29731 588.527L1.0067 597.447L2.00616 597.48ZM2.29678 588.56L3.29625 588.593L3.58686 579.673L2.58739 579.64L1.58792 579.607L1.29731 588.527L2.29678 588.56ZM2.58739 579.64L3.58686 579.673C3.78184 573.688 3.63733 567.704 3.15338 561.719L2.15663 561.8L1.15989 561.881C1.63777 567.79 1.78043 573.699 1.58792 579.607L2.58739 579.64ZM2.15663 561.8L3.15338 561.719L2.432 552.799L1.43526 552.88L0.438513 552.961L1.15989 561.881L2.15663 561.8ZM1.43526 552.88L2.432 552.799L1.71063 543.879L0.713885 543.96L-0.282861 544.041L0.438513 552.961L1.43526 552.88ZM0.713885 543.96L1.71063 543.879C1.23379 537.983 1.20526 532.087 1.62502 526.191L0.627549 526.12L-0.369927 526.049C-0.796882 532.046 -0.767854 538.043 -0.282861 544.041L0.713885 543.96ZM0.627549 526.12L1.62502 526.191L2.26006 517.271L1.26259 517.2L0.265111 517.129L-0.369927 526.049L0.627549 526.12ZM1.26259 517.2L2.26006 517.271L2.8951 508.351L1.89762 508.28L0.900148 508.209L0.265111 517.129L1.26259 517.2ZM1.89762 508.28L2.8951 508.351C3.32002 502.382 3.54665 496.414 3.57497 490.445L2.57499 490.44L1.575 490.435C1.54689 496.36 1.32194 502.284 0.900148 508.209L1.89762 508.28ZM2.57499 490.44L3.57497 490.445L3.6173 481.525L2.61731 481.52L1.61732 481.515L1.575 490.435L2.57499 490.44ZM2.61731 481.52L3.6173 481.525L3.65962 472.605L2.65964 472.6L1.65965 472.595L1.61732 481.515L2.61731 481.52ZM2.65964 472.6L3.65962 472.605C3.68803 466.618 3.35627 460.631 2.66445 454.645L1.67106 454.76L0.677677 454.875C1.36038 460.782 1.68767 466.689 1.65965 472.595L2.65964 472.6ZM1.67106 454.76L2.66445 454.645L1.63356 445.725L0.640169 445.84L-0.353219 445.955L0.677677 454.875L1.67106 454.76ZM0.640169 445.84L1.63356 445.725L0.602661 436.805L-0.390726 436.92L-1.38411 437.035L-0.353219 445.955L0.640169 445.84ZM-0.390726 436.92L0.602661 436.805C-0.0813378 430.887 -0.509853 424.969 -0.682935 419.051L-1.68251 419.08L-2.68208 419.109C-2.50731 425.085 -2.07464 431.06 -1.38411 437.035L-0.390726 436.92ZM-1.68251 419.08L-0.682935 419.051L-0.943821 410.131L-1.94339 410.16L-2.94297 410.189L-2.68208 419.109L-1.68251 419.08ZM-1.94339 410.16L-0.943821 410.131L-1.20471 401.211L-2.20428 401.24L-3.20385 401.269L-2.94297 410.189L-1.94339 410.16ZM-2.20428 401.24L-1.20471 401.211C-1.3769 395.323 -1.02846 389.435 -0.159022 383.546L-1.1483 383.4L-2.13758 383.254C-3.02396 389.258 -3.37951 395.263 -3.20385 401.269L-2.20428 401.24ZM-1.1483 383.4L-0.159022 383.546L1.15784 374.626L0.168567 374.48L-0.82071 374.334L-2.13758 383.254L-1.1483 383.4ZM0.168567 374.48L1.15784 374.626L2.47471 365.706L1.48543 365.56L0.496156 365.414L-0.82071 374.334L0.168567 374.48ZM1.48543 365.56L2.47471 365.706C3.36316 359.688 3.592 353.668 3.16079 347.648L2.16335 347.72L1.16591 347.791C1.58663 353.665 1.36353 359.539 0.496156 365.414L1.48543 365.56ZM2.16335 347.72L3.16079 347.648L2.52184 338.728L1.5244 338.8L0.526955 338.871L1.16591 347.791L2.16335 347.72ZM1.5244 338.8L2.52184 338.728L1.88289 329.809L0.885448 329.88L-0.111996 329.951L0.526955 338.871L1.5244 338.8ZM0.885448 329.88L1.88289 329.809C1.45858 323.885 1.24071 317.961 1.22926 312.038L0.229266 312.04L-0.770732 312.042C-0.759199 318.012 -0.539616 323.982 -0.111996 329.951L0.885448 329.88ZM0.229266 312.04L1.22926 312.038L1.21203 303.118L0.212035 303.12L-0.787964 303.122L-0.770732 312.042L0.229266 312.04ZM0.212035 303.12L1.21203 303.118L1.1948 294.198L0.194803 294.2L-0.805195 294.202L-0.787964 303.122L0.212035 303.12ZM0.194803 294.2L1.1948 294.198C1.1833 288.245 1.11747 282.292 0.997309 276.34L-0.00248694 276.36L-1.00228 276.38C-0.882367 282.321 -0.816671 288.261 -0.805195 294.202L0.194803 294.2ZM-0.00248694 276.36L0.997309 276.34L0.817251 267.42L-0.182545 267.44L-1.18234 267.46L-1.00228 276.38L-0.00248694 276.36ZM-0.182545 267.44L0.817251 267.42L0.637192 258.5L-0.362604 258.52L-1.3624 258.54L-1.18234 267.46L-0.182545 267.44ZM-0.362604 258.52L0.637192 258.5C0.516967 252.544 0.314275 246.588 0.0291179 240.632L-0.969738 240.68L-1.96859 240.728C-1.68432 246.665 -1.48225 252.603 -1.3624 258.54L-0.362604 258.52ZM-0.969738 240.68L0.0291179 240.632L-0.397958 231.712L-1.39681 231.76L-2.39567 231.808L-1.96859 240.728L-0.969738 240.68ZM-1.39681 231.76L-0.397958 231.712L-0.825033 222.792L-1.82389 222.84L-2.82275 222.888L-2.39567 231.808L-1.39681 231.76ZM-1.82389 222.84L-0.825033 222.792C-1.10758 216.891 -0.988845 210.989 -0.468773 205.088L-1.46491 205L-2.46105 204.912C-2.98905 210.904 -3.10963 216.896 -2.82275 222.888L-1.82389 222.84ZM-1.46491 205L-0.468773 205.088L0.317279 196.168L-0.678861 196.08L-1.675 195.992L-2.46105 204.912L-1.46491 205ZM-0.678861 196.08L0.317279 196.168L1.10333 187.248L0.107191 187.16L-0.888949 187.072L-1.675 195.992L-0.678861 196.08ZM0.107191 187.16L1.10333 187.248C1.63273 181.24 1.61013 175.232 1.03555 169.225L0.0400927 169.32L-0.955365 169.415C-0.392414 175.301 -0.370284 181.187 -0.888949 187.072L0.107191 187.16ZM0.0400927 169.32L1.03555 169.225L0.1824 160.305L-0.813057 160.4L-1.80851 160.495L-0.955365 169.415L0.0400927 169.32ZM-0.813057 160.4L0.1824 160.305L-0.67075 151.385L-1.66621 151.48L-2.66166 151.575L-1.80851 160.495L-0.813057 160.4ZM-1.66621 151.48L-0.67075 151.385C-1.23411 145.495 -1.29408 139.605 -0.850718 133.715L-1.8479 133.64L-2.84508 133.565C-3.29699 139.568 -3.23584 145.572 -2.66166 151.575L-1.66621 151.48ZM-1.8479 133.64L-0.850718 133.715L-0.179258 124.795L-1.17644 124.72L-2.17362 124.645L-2.84508 133.565L-1.8479 133.64ZM-1.17644 124.72L-0.179258 124.795L0.492203 115.875L-0.504976 115.8L-1.50215 115.725L-2.17362 124.645L-1.17644 124.72ZM-0.504976 115.8L0.492203 115.875C0.941307 109.909 1.21506 103.943 1.31346 97.9765L0.313594 97.96L-0.68627 97.9435C-0.78402 103.871 -1.05598 109.798 -1.50215 115.725L-0.504976 115.8ZM0.313594 97.96L1.31346 97.9765L1.46057 89.0565L0.460705 89.04L-0.53916 89.0235L-0.68627 97.9435L0.313594 97.96ZM0.460705 89.04L1.46057 89.0565L1.60768 80.1365L0.607815 80.12L-0.392049 80.1035L-0.53916 89.0235L0.460705 89.04ZM0.607815 80.12L1.60768 80.1365C1.70562 74.1976 1.87323 68.2587 2.1105 62.3199L1.1113 62.2799L0.112099 62.24C-0.125798 68.1945 -0.293847 74.149 -0.392049 80.1035L0.607815 80.12ZM1.1113 62.2799L2.1105 62.3199L2.46688 53.3998L1.46768 53.3599L0.468475 53.32L0.112099 62.24L1.1113 62.2799ZM1.46768 53.3599L2.46688 53.3998L2.82326 44.4798L1.82406 44.4399L0.824852 44.4L0.468475 53.32L1.46768 53.3599ZM1.82406 44.4399L2.82326 44.4798C3.06231 38.4963 2.97064 32.5261 2.54822 26.5692L1.55073 26.6399L0.553231 26.7106C0.970416 32.5937 1.06097 38.4901 0.824852 44.4L1.82406 44.4399ZM1.55073 26.6399L2.54822 26.5692L1.91852 17.6892L0.92102 17.7599L-0.0764749 17.8307L0.553231 26.7106L1.55073 26.6399ZM0.92102 17.7599L1.91852 17.6892L1.28881 8.80923L0.291314 8.87997L-0.706181 8.9507L-0.0764749 17.8307L0.92102 17.7599ZM0.291314 8.87997L1.28881 8.80923C1.07896 5.84994 0.928855 3.63381 0.838305 2.15872C0.792966 1.42012 0.762903 0.872854 0.747656 0.512703C0.739944 0.330507 0.736516 0.207269 0.736209 0.134524C0.736037 0.0939691 0.737007 0.0902829 0.735841 0.106491C0.735798 0.107081 0.732844 0.158594 0.717348 0.227644C0.711559 0.253435 0.689138 0.353646 0.627574 0.469963C0.603536 0.515379 0.351056 1 -0.253794 1V0V-1C-0.860406 -1 -1.11453 -0.513933 -1.1401 -0.465627C-1.20319 -0.34642 -1.22703 -0.241873 -1.23411 -0.2103C-1.25221 -0.129688 -1.25729 -0.0608312 -1.259 -0.0371161C-1.26349 0.0253417 -1.26399 0.0910302 -1.26377 0.142975C-1.2633 0.25523 -1.2585 0.409491 -1.25055 0.597293C-1.23447 0.977139 -1.20345 1.53987 -1.15794 2.28126C-1.06678 3.76617 -0.916132 5.99002 -0.706181 8.9507L0.291314 8.87997ZM-0.253794 0V1H-0.169196V0V-1H-0.253794V0ZM-0.169196 0V1H-0.0845979V0V-1H-0.169196V0ZM-0.0845979 0V1C-0.0142214 1 0.810381 0.94797 2.2721 0.855338C3.77317 0.760212 6.01046 0.617536 8.98384 0.42732L8.92 -0.57064L8.85616 -1.5686C5.88287 -1.37839 3.64606 -1.23575 2.14561 -1.14066C0.605788 -1.04308 -0.0985758 -1 -0.0845979 -1V0ZM8.92 -0.57064L8.98384 0.42732L17.9038 -0.143321L17.84 -1.14128L17.7762 -2.13924L8.85616 -1.5686L8.92 -0.57064Z" fill="black"/>
</g>
<defs>
<clipPath id="clip0_1844_1798">
<rect width="1210" height="1680" fill="white"/>
</clipPath>
</defs>
</svg>
