<svg width="1210" height="434" viewBox="0 0 1210 434" fill="none" xmlns="http://www.w3.org/2000/svg">
<g clip-path="url(#clip0_1844_1796)">
<path d="M0 0H1210V434H0V0Z" fill="white"/>
<path d="M53.52 -2.30326L53.5188 -3.30326L53.52 -2.30326ZM62.44 -2.31362L62.4388 -3.31361L62.44 -2.31362ZM133.8 1.11272L133.764 0.113356L133.8 1.11272ZM169.48 2.27803L169.425 3.2765L169.48 2.27803ZM196.24 1.28674L196.157 0.290191L196.24 1.28674ZM205.16 0.544018L205.077 -0.452533L205.16 0.544018ZM267.6 1.06849L267.507 2.06418L267.6 1.06849ZM312.2 -1.41042L312.047 -2.39867L312.2 -1.41042ZM383.56 -0.897812L383.448 -1.89153L383.56 -0.897812ZM472.76 1.13296L472.679 0.136242L472.76 1.13296ZM508.44 -0.061763L508.331 0.932276L508.44 -0.061763ZM526.28 1.89483L526.171 2.88887L526.28 1.89483ZM561.96 2.1931L561.935 1.19343L561.96 2.1931ZM660.08 -0.366701L659.957 0.625675L660.08 -0.366701ZM669 0.741047L668.877 1.73342L669 0.741047ZM686.84 1.42803L686.793 0.429142L686.84 1.42803ZM731.44 -0.961977L731.377 -1.95999L731.44 -0.961977ZM811.72 -0.995199L811.697 0.00454498L811.72 -0.995199ZM829.56 -0.255072L829.5 0.743113L829.56 -0.255072ZM883.08 -1.46868L882.975 -2.46315L883.08 -1.46868ZM909.84 -1.95149L909.866 -2.95116L909.84 -1.95149ZM918.76 -1.72158L918.734 -0.721911L918.76 -1.72158ZM954.44 -0.581732L954.406 0.41769L954.44 -0.581732ZM990.12 1.83974L990.041 2.83662L990.12 1.83974ZM1007.96 2.34888L1007.94 1.34912L1007.96 2.34888ZM1016.88 2.15196L1016.9 3.15172L1016.88 2.15196ZM1025.8 1.95504L1025.78 0.955287L1025.8 1.95504ZM1079.32 -1.4326L1079.43 -2.4267L1079.32 -1.4326ZM1097.16 0.513738L1097.05 1.50784L1097.16 0.513738ZM1150.68 -0.236047L1150.57 0.757649L1150.68 -0.236047ZM1168.52 1.77664L1168.63 0.78294L1168.52 1.77664ZM1185.03 2.86724L1185.01 3.86717L1185.03 2.86724ZM1192.61 2.95149L1192.6 3.95143L1192.61 2.95149ZM1208.22 12.04L1209.22 11.9912L1208.22 12.04ZM1209.09 29.88L1208.09 29.9288L1209.09 29.88ZM1209.29 47.72L1210.29 47.746L1209.29 47.72ZM1208.83 65.56L1207.83 65.534L1208.83 65.56ZM1209.64 83.4L1210.64 83.2837L1209.64 83.4ZM1211.96 119.08L1210.96 118.988L1211.96 119.08ZM1210.31 136.92L1211.31 137.012L1210.31 136.92ZM1210.2 154.76L1209.2 154.839L1210.2 154.76ZM1211.61 172.6L1212.6 172.521L1211.61 172.6ZM1211.87 190.44L1212.87 190.489L1211.87 190.44ZM1210.99 208.28L1209.99 208.231L1210.99 208.28ZM1210.72 226.12L1211.72 226.101L1210.72 226.12ZM1211.05 243.96L1210.05 243.979L1211.05 243.96ZM1210.78 261.8L1211.78 261.849L1210.78 261.8ZM1209.9 279.64L1208.9 279.591L1209.9 279.64ZM1209.93 297.48L1210.93 297.428L1209.93 297.48ZM1210.86 315.32L1209.86 315.372L1210.86 315.32ZM1211.49 333.16L1210.49 333.178L1211.49 333.16ZM1211.65 342.08L1212.65 342.062L1211.65 342.08ZM1211.81 351L1212.81 350.982L1211.81 351ZM1211.51 368.84L1210.52 368.789L1211.51 368.84ZM1210.6 386.68L1209.6 386.629L1210.6 386.68ZM1210.37 404.52L1211.37 404.494L1210.37 404.52ZM1202.57 431.785L1202.51 430.787L1202.57 431.785ZM1194.06 432.291L1194.12 433.289L1194.06 432.291ZM1185.55 432.796L1185.49 431.798L1185.55 432.796ZM1168.12 434.138L1168.03 433.143L1168.12 434.138ZM1150.28 435.813L1150.37 436.809L1150.28 435.813ZM1132.44 435.753L1132.34 436.748L1132.44 435.753ZM1123.52 434.856L1123.62 433.861L1123.52 434.856ZM1114.6 433.958L1114.5 434.953L1114.6 433.958ZM1096.76 433.935L1096.86 434.931L1096.76 433.935ZM1078.92 435.684L1078.82 434.689L1078.92 435.684ZM1061.08 436.63L1061.09 437.63L1061.08 436.63ZM1043.24 436.772L1043.23 435.772L1043.24 436.772ZM1025.4 436.716L1025.39 437.715L1025.4 436.716ZM1007.56 436.459L1007.57 435.459L1007.56 436.459ZM989.72 436.241L989.73 435.241L989.72 436.241ZM971.88 436.06L971.87 437.06L971.88 436.06ZM954.04 435.824L954.024 436.824L954.04 435.824ZM936.2 435.534L936.216 434.534L936.2 435.534ZM918.36 435.268L918.346 436.268L918.36 435.268ZM909.44 435.147L909.453 434.147L909.44 435.147ZM882.68 435.25L882.641 434.25L882.68 435.25ZM873.76 435.593L873.798 436.592L873.76 435.593ZM864.84 435.937L864.802 434.938L864.84 435.937ZM847 435.663L847.069 434.665L847 435.663ZM838.08 435.045L838.011 436.043L838.08 435.045ZM829.16 434.427L829.229 433.43L829.16 434.427ZM811.32 434.075L811.35 435.074L811.32 434.075ZM802.4 434.339L802.37 433.34L802.4 434.339ZM793.48 434.604L793.51 435.604L793.48 434.604ZM775.64 434.585L775.672 433.586L775.64 434.585ZM766.72 434.301L766.688 435.301L766.72 434.301ZM731.04 433.984L731.026 432.984L731.04 433.984ZM722.12 434.108L722.134 435.108L722.12 434.108ZM704.28 434.051L704.3 433.051L704.28 434.051ZM686.44 433.686L686.419 434.686L686.44 433.686ZM668.6 433.998L668.545 433L668.6 433.998ZM659.68 434.493L659.735 435.492L659.68 434.493ZM632.92 435.157L632.883 436.157L632.92 435.157ZM624 434.831L623.963 435.831L624 434.831ZM615.08 434.505L615.117 433.506L615.08 434.505ZM597.24 433.646L597.18 434.644L597.24 433.646ZM579.4 432.58L579.46 431.582L579.4 432.58ZM561.56 432.456L561.606 433.455L561.56 432.456ZM543.72 433.275L543.674 432.276L543.72 433.275ZM525.88 433.064L525.811 434.062L525.88 433.064ZM508.04 431.825L508.109 430.827L508.04 431.825ZM472.36 431.879L472.335 430.879L472.36 431.879ZM454.52 432.166L454.527 433.166L454.52 432.166ZM445.6 432.23L445.593 431.23L445.6 432.23ZM418.84 432.291L418.847 431.291L418.84 432.291ZM401 432.161L400.993 433.161L401 432.161ZM383.16 431.964L383.145 432.964L383.16 431.964ZM374.24 431.832L374.225 432.832L374.24 431.832ZM365.32 431.7L365.335 430.7L365.32 431.7ZM347.48 432.614L347.596 433.607L347.48 432.614ZM329.64 434.706L329.523 433.713L329.64 434.706ZM311.8 434.84L311.698 435.835L311.8 434.84ZM293.96 433.016L294.062 432.021L293.96 433.016ZM276.12 432.092L276.121 431.092L276.12 432.092ZM169.08 434.458L169.137 435.456L169.08 434.458ZM160.16 434.965L160.217 435.963L160.16 434.965ZM151.24 435.472L151.183 434.473L151.24 435.472ZM115.56 436.216L115.569 437.216L115.56 436.216ZM97.72 435.269L97.8342 434.276L97.72 435.269ZM79.88 433.218L79.9942 432.225L79.88 433.218ZM62.04 432.915L62.1207 433.912L62.04 432.915ZM44.2 434.361L44.1192 433.364L44.2 434.361ZM26.9179 434.713L26.9623 433.714L26.9179 434.713ZM10.1938 433.971L10.1495 434.97L10.1938 433.971ZM-1.83882 353.32L-2.83264 353.209L-1.83882 353.32ZM-1.09964 281.96L-2.08914 281.815L-1.09964 281.96ZM0.226773 228.44L-0.768605 228.536L0.226773 228.44ZM-1.06788 103.56L-2.05939 103.43L-1.06788 103.56ZM1.40228 2.71999L0.513448 3.17822L1.40228 2.71999ZM0.70114 1.35999L-0.187692 1.81823L0.70114 1.35999ZM17.84 -1.14128L17.9038 -0.143321L26.8238 -0.713961L26.76 -1.71192L26.6962 -2.70988L17.7762 -2.13924L17.84 -1.14128ZM26.76 -1.71192L26.8238 -0.713961C32.7497 -1.09306 38.6754 -1.28604 44.6012 -1.29291L44.6 -2.29291L44.5988 -3.29291C38.6312 -3.28599 32.6637 -3.09164 26.6962 -2.70988L26.76 -1.71192ZM44.6 -2.29291L44.6012 -1.29291L53.5212 -1.30326L53.52 -2.30326L53.5188 -3.30326L44.5988 -3.29291L44.6 -2.29291ZM53.52 -2.30326L53.5212 -1.30326L62.4412 -1.31362L62.44 -2.31362L62.4388 -3.31361L53.5188 -3.30326L53.52 -2.30326ZM62.44 -2.31362L62.4412 -1.31362C68.3463 -1.32047 74.2518 -0.960773 80.1579 -0.234402L80.28 -1.22692L80.4021 -2.21945C74.4148 -2.9558 68.427 -3.32056 62.4388 -3.31361L62.44 -2.31362ZM80.28 -1.22692L80.1579 -0.234402L89.0779 0.862641L89.2 -0.129881L89.3221 -1.1224L80.4021 -2.21945L80.28 -1.22692ZM89.2 -0.129881L89.0779 0.862641L97.9979 1.95968L98.12 0.967162L98.2421 -0.0253598L89.3221 -1.1224L89.2 -0.129881ZM98.12 0.967162L97.9979 1.95968C103.997 2.69743 109.996 2.95974 115.996 2.74641L115.96 1.74704L115.924 0.747676C110.031 0.957232 104.137 0.699618 98.2421 -0.0253598L98.12 0.967162ZM115.96 1.74704L115.996 2.74641L124.916 2.42925L124.88 1.42988L124.844 0.430516L115.924 0.747676L115.96 1.74704ZM124.88 1.42988L124.916 2.42925L133.836 2.11209L133.8 1.11272L133.764 0.113356L124.844 0.430516L124.88 1.42988ZM133.8 1.11272L133.836 2.11209C139.752 1.90173 145.668 1.96043 151.585 2.28819L151.64 1.28972L151.695 0.291252C145.718 -0.0398603 139.741 -0.0991618 133.764 0.113356L133.8 1.11272ZM151.64 1.28972L151.585 2.28819L160.505 2.78235L160.56 1.78388L160.615 0.785409L151.695 0.291252L151.64 1.28972ZM160.56 1.78388L160.505 2.78235L169.425 3.2765L169.48 2.27803L169.535 1.27957L160.615 0.785409L160.56 1.78388ZM169.48 2.27803L169.425 3.2765C175.418 3.6085 181.41 3.52499 187.403 3.02602L187.32 2.02947L187.237 1.03292C181.336 1.52424 175.436 1.60645 169.535 1.27957L169.48 2.27803ZM187.32 2.02947L187.403 3.02602L196.323 2.28329L196.24 1.28674L196.157 0.290191L187.237 1.03292L187.32 2.02947ZM196.24 1.28674L196.323 2.28329L205.243 1.54057L205.16 0.544018L205.077 -0.452533L196.157 0.290191L196.24 1.28674ZM205.16 0.544018L205.243 1.54057C211.166 1.04741 217.088 0.768193 223.011 0.70291L223 -0.297029L222.989 -1.29697C217.018 -1.23115 211.048 -0.949669 205.077 -0.452533L205.16 0.544018ZM223 -0.297029L223.011 0.70291L231.931 0.604588L231.92 -0.395352L231.909 -1.39529L222.989 -1.29697L223 -0.297029ZM231.92 -0.395352L231.931 0.604588L240.851 0.506265L240.84 -0.493674L240.829 -1.49361L231.909 -1.39529L231.92 -0.395352ZM240.84 -0.493674L240.851 0.506265C246.763 0.4411 252.675 0.683641 258.587 1.23394L258.68 0.238245L258.773 -0.757451C252.792 -1.31414 246.81 -1.55955 240.829 -1.49361L240.84 -0.493674ZM258.68 0.238245L258.587 1.23394L267.507 2.06418L267.6 1.06849L267.693 0.0727912L258.773 -0.757451L258.68 0.238245ZM267.6 1.06849L267.507 2.06418L276.427 2.89443L276.52 1.89873L276.613 0.903033L267.693 0.0727912L267.6 1.06849ZM276.52 1.89873L276.427 2.89443C282.456 3.4556 288.486 3.26976 294.513 2.33742L294.36 1.34917L294.207 0.360927C288.341 1.26832 282.477 1.44885 276.613 0.903033L276.52 1.89873ZM294.36 1.34917L294.513 2.33742L303.433 0.957623L303.28 -0.030624L303.127 -1.01887L294.207 0.360927L294.36 1.34917ZM303.28 -0.030624L303.433 0.957623L312.353 -0.422175L312.2 -1.41042L312.047 -2.39867L303.127 -1.01887L303.28 -0.030624ZM312.2 -1.41042L312.353 -0.422175C318.204 -1.32727 324.053 -1.37737 329.904 -0.572709L330.04 -1.56338L330.176 -2.55406C324.133 -3.38518 318.089 -3.33331 312.047 -2.39867L312.2 -1.41042ZM330.04 -1.56338L329.904 -0.572709L338.824 0.654127L338.96 -0.336546L339.096 -1.32722L330.176 -2.55406L330.04 -1.56338ZM338.96 -0.336546L338.824 0.654127L347.744 1.88096L347.88 0.89029L348.016 -0.100383L339.096 -1.32722L338.96 -0.336546ZM347.88 0.89029L347.744 1.88096C353.772 2.71014 359.802 2.78518 365.832 2.10586L365.72 1.11215L365.608 0.118434C359.744 0.779092 353.881 0.706225 348.016 -0.100383L347.88 0.89029ZM365.72 1.11215L365.832 2.10586L374.752 1.10088L374.64 0.107168L374.528 -0.886545L365.608 0.118434L365.72 1.11215ZM374.64 0.107168L374.752 1.10088L383.672 0.0959007L383.56 -0.897812L383.448 -1.89153L374.528 -0.886545L374.64 0.107168ZM383.56 -0.897812L383.672 0.0959007C389.548 -0.56609 395.423 -0.596084 401.298 0.00586219L401.4 -0.988931L401.502 -1.98372C395.484 -2.60026 389.466 -2.56951 383.448 -1.89153L383.56 -0.897812ZM401.4 -0.988931L401.298 0.00586219L410.218 0.919724L410.32 -0.0750692L410.422 -1.06986L401.502 -1.98372L401.4 -0.988931ZM410.32 -0.0750692L410.218 0.919724L419.138 1.83359L419.24 0.838792L419.342 -0.156001L410.422 -1.06986L410.32 -0.0750692ZM419.24 0.838792L419.138 1.83359C425.117 2.44618 431.097 2.76127 437.077 2.77881L437.08 1.77882L437.083 0.77882C431.169 0.761476 425.256 0.449888 419.342 -0.156001L419.24 0.838792ZM437.08 1.77882L437.077 2.77881L445.997 2.80497L446 1.80498L446.003 0.804982L437.083 0.77882L437.08 1.77882ZM446 1.80498L445.997 2.80497L454.917 2.83114L454.92 1.83114L454.923 0.831144L446.003 0.804982L446 1.80498ZM454.92 1.83114L454.917 2.83114C460.892 2.84866 466.866 2.61483 472.841 2.12968L472.76 1.13296L472.679 0.136242C466.76 0.616878 460.842 0.848503 454.923 0.831144L454.92 1.83114ZM472.76 1.13296L472.841 2.12968L481.761 1.40534L481.68 0.408622L481.599 -0.588098L472.679 0.136242L472.76 1.13296ZM481.68 0.408622L481.761 1.40534L490.681 0.681001L490.6 -0.315718L490.519 -1.31244L481.599 -0.588098L481.68 0.408622ZM490.6 -0.315718L490.681 0.681001C496.564 0.203258 502.447 0.28698 508.331 0.932276L508.44 -0.061763L508.549 -1.0558C502.539 -1.7149 496.529 -1.80048 490.519 -1.31244L490.6 -0.315718ZM508.44 -0.061763L508.331 0.932276L517.251 1.91057L517.36 0.916532L517.469 -0.0775072L508.549 -1.0558L508.44 -0.061763ZM517.36 0.916532L517.251 1.91057L526.171 2.88887L526.28 1.89483L526.389 0.900788L517.469 -0.0775072L517.36 0.916532ZM526.28 1.89483L526.171 2.88887C532.162 3.54593 538.154 3.79839 544.145 3.64613L544.12 2.64645L544.095 1.64677C538.193 1.79674 532.291 1.54812 526.389 0.900788L526.28 1.89483ZM544.12 2.64645L544.145 3.64613L553.065 3.41945L553.04 2.41978L553.015 1.4201L544.095 1.64677L544.12 2.64645ZM553.04 2.41978L553.065 3.41945L561.985 3.19278L561.96 2.1931L561.935 1.19343L553.015 1.4201L553.04 2.41978ZM561.96 2.1931L561.985 3.19278C567.955 3.04109 573.924 2.6878 579.893 2.13291L579.8 1.13721L579.707 0.1415C573.783 0.692248 567.859 1.04288 561.935 1.19343L561.96 2.1931ZM579.8 1.13721L579.893 2.13291L588.813 1.30369L588.72 0.307983L588.627 -0.687724L579.707 0.1415L579.8 1.13721ZM588.72 0.307983L588.813 1.30369L597.733 0.474466L597.64 -0.521241L597.547 -1.51695L588.627 -0.687724L588.72 0.307983ZM597.64 -0.521241L597.733 0.474466C603.66 -0.0765617 609.587 -0.454377 615.514 -0.658994L615.48 -1.6584L615.445 -2.6578C609.479 -2.45184 603.513 -2.07155 597.547 -1.51695L597.64 -0.521241ZM615.48 -1.6584L615.514 -0.658994L624.435 -0.966927L624.4 -1.96633L624.365 -2.96574L615.445 -2.6578L615.48 -1.6584ZM624.4 -1.96633L624.435 -0.966927L633.354 -1.27486L633.32 -2.27427L633.286 -3.27367L624.365 -2.96574L624.4 -1.96633ZM633.32 -2.27427L633.354 -1.27486C639.248 -1.47832 645.142 -1.21412 651.037 -0.482073L651.16 -1.47445L651.283 -2.46683C645.285 -3.21178 639.285 -3.48079 633.286 -3.27367L633.32 -2.27427ZM651.16 -1.47445L651.037 -0.482073L659.957 0.625675L660.08 -0.366701L660.203 -1.35908L651.283 -2.46683L651.16 -1.47445ZM660.08 -0.366701L659.957 0.625675L668.877 1.73342L669 0.741047L669.123 -0.25133L660.203 -1.35908L660.08 -0.366701ZM669 0.741047L668.877 1.73342C674.88 2.47889 680.883 2.71013 686.887 2.42692L686.84 1.42803L686.793 0.429142C680.903 0.706951 675.014 0.480199 669.123 -0.25133L669 0.741047ZM686.84 1.42803L686.887 2.42692L695.807 2.00616L695.76 1.00727L695.713 0.0083769L686.793 0.429142L686.84 1.42803ZM695.76 1.00727L695.807 2.00616L704.727 1.58539L704.68 0.586501L704.633 -0.412388L695.713 0.0083769L695.76 1.00727ZM704.68 0.586501L704.727 1.58539C710.679 1.30463 716.631 0.976128 722.583 0.599888L722.52 -0.39812L722.457 -1.39613C716.516 -1.02056 710.574 -0.692646 704.633 -0.412388L704.68 0.586501ZM722.52 -0.39812L722.583 0.599888L731.503 0.0360308L731.44 -0.961977L731.377 -1.95999L722.457 -1.39613L722.52 -0.39812ZM731.44 -0.961977L731.503 0.0360308L740.423 -0.527826L740.36 -1.52583L740.297 -2.52384L731.377 -1.95999L731.44 -0.961977ZM740.36 -1.52583L740.423 -0.527826C746.344 -0.902118 752.265 -1.04873 758.186 -0.967677L758.2 -1.96758L758.214 -2.96749C752.241 -3.04925 746.269 -2.90136 740.297 -2.52384L740.36 -1.52583ZM758.2 -1.96758L758.186 -0.967677L767.106 -0.845569L767.12 -1.84548L767.134 -2.84538L758.214 -2.96749L758.2 -1.96758ZM767.12 -1.84548L767.106 -0.845569L776.026 -0.723462L776.04 -1.72337L776.054 -2.72327L767.134 -2.84538L767.12 -1.84548ZM776.04 -1.72337L776.026 -0.723462C781.97 -0.642097 787.914 -0.534109 793.857 -0.399496L793.88 -1.39924L793.903 -2.39898C787.953 -2.53373 782.003 -2.64183 776.054 -2.72327L776.04 -1.72337ZM793.88 -1.39924L793.857 -0.399496L802.777 -0.197476L802.8 -1.19722L802.823 -2.19696L793.903 -2.39898L793.88 -1.39924ZM802.8 -1.19722L802.777 -0.197476L811.697 0.00454498L811.72 -0.995199L811.743 -1.99494L802.823 -2.19696L802.8 -1.19722ZM811.72 -0.995199L811.697 0.00454498C817.632 0.138941 823.566 0.38513 829.5 0.743113L829.56 -0.255072L829.62 -1.25326C823.661 -1.61275 817.702 -1.85998 811.743 -1.99494L811.72 -0.995199ZM829.56 -0.255072L829.5 0.743113L838.42 1.28122L838.48 0.283034L838.54 -0.715152L829.62 -1.25326L829.56 -0.255072ZM838.48 0.283034L838.42 1.28122L847.34 1.81932L847.4 0.821139L847.46 -0.177046L838.54 -0.715152L838.48 0.283034ZM847.4 0.821139L847.34 1.81932C853.342 2.1814 859.344 2.04527 865.345 1.41106L865.24 0.416602L865.135 -0.57786C859.243 0.044788 853.352 0.178354 847.46 -0.177046L847.4 0.821139ZM865.24 0.416602L865.345 1.41106L874.265 0.468422L874.16 -0.52604L874.055 -1.5205L865.135 -0.57786L865.24 0.416602ZM874.16 -0.52604L874.265 0.468422L883.185 -0.47422L883.08 -1.46868L882.975 -2.46315L874.055 -1.5205L874.16 -0.52604ZM883.08 -1.46868L883.185 -0.47422C889.089 -1.09808 894.991 -1.33389 900.894 -1.18174L900.92 -2.18141L900.946 -3.18108C894.955 -3.33549 888.965 -3.09614 882.975 -2.46315L883.08 -1.46868ZM900.92 -2.18141L900.894 -1.18174L909.814 -0.951827L909.84 -1.95149L909.866 -2.95116L900.946 -3.18108L900.92 -2.18141ZM909.84 -1.95149L909.814 -0.951827L918.734 -0.721911L918.76 -1.72158L918.786 -2.72125L909.866 -2.95116L909.84 -1.95149ZM918.76 -1.72158L918.734 -0.721911C924.678 -0.568705 930.622 -0.391045 936.566 -0.188931L936.6 -1.18835L936.634 -2.18778C930.685 -2.39008 924.735 -2.5679 918.786 -2.72125L918.76 -1.72158ZM936.6 -1.18835L936.566 -0.188931L945.486 0.11438L945.52 -0.885043L945.554 -1.88446L936.634 -2.18778L936.6 -1.18835ZM945.52 -0.885043L945.486 0.11438L954.406 0.41769L954.44 -0.581732L954.474 -1.58115L945.554 -1.88446L945.52 -0.885043ZM954.44 -0.581732L954.406 0.41769C960.338 0.619386 966.269 0.954993 972.201 1.42452L972.28 0.427633L972.359 -0.569249C966.397 -1.04113 960.436 -1.37844 954.474 -1.58115L954.44 -0.581732ZM972.28 0.427633L972.201 1.42452L981.121 2.13057L981.2 1.13369L981.279 0.136806L972.359 -0.569249L972.28 0.427633ZM981.2 1.13369L981.121 2.13057L990.041 2.83662L990.12 1.83974L990.199 0.842861L981.279 0.136806L981.2 1.13369ZM990.12 1.83974L990.041 2.83662C996.021 3.30998 1002 3.48066 1007.98 3.34864L1007.96 2.34888L1007.94 1.34912C1002.03 1.47966 996.112 1.31091 990.199 0.842861L990.12 1.83974ZM1007.96 2.34888L1007.98 3.34864L1016.9 3.15172L1016.88 2.15196L1016.86 1.15221L1007.94 1.34912L1007.96 2.34888ZM1016.88 2.15196L1016.9 3.15172L1025.82 2.9548L1025.8 1.95504L1025.78 0.955287L1016.86 1.15221L1016.88 2.15196ZM1025.8 1.95504L1025.82 2.9548C1031.8 2.82282 1037.78 2.40801 1043.76 1.71041L1043.64 0.717152L1043.52 -0.276107C1037.61 0.414263 1031.69 0.824706 1025.78 0.955287L1025.8 1.95504ZM1043.64 0.717152L1043.76 1.71041L1052.68 0.669438L1052.56 -0.323821L1052.44 -1.31708L1043.52 -0.276107L1043.64 0.717152ZM1052.56 -0.323821L1052.68 0.669438L1061.6 -0.371536L1061.48 -1.36479L1061.36 -2.35805L1052.44 -1.31708L1052.56 -0.323821ZM1061.48 -1.36479L1061.6 -0.371536C1067.47 -1.05683 1073.34 -1.07913 1079.21 -0.438498L1079.32 -1.4326L1079.43 -2.4267C1073.41 -3.08362 1067.39 -3.06073 1061.36 -2.35805L1061.48 -1.36479ZM1079.32 -1.4326L1079.21 -0.438498L1088.13 0.53467L1088.24 -0.459431L1088.35 -1.45353L1079.43 -2.4267L1079.32 -1.4326ZM1088.24 -0.459431L1088.13 0.53467L1097.05 1.50784L1097.16 0.513738L1097.27 -0.480364L1088.35 -1.45353L1088.24 -0.459431ZM1097.16 0.513738L1097.05 1.50784C1103.06 2.16329 1109.07 2.26127 1115.08 1.80167L1115 0.804582L1114.92 -0.192505C1109.04 0.257657 1103.15 0.161742 1097.27 -0.480364L1097.16 0.513738ZM1115 0.804582L1115.08 1.80167L1124 1.11935L1123.92 0.122259L1123.84 -0.874829L1114.92 -0.192505L1115 0.804582ZM1123.92 0.122259L1124 1.11935L1132.92 0.437022L1132.84 -0.560065L1132.76 -1.55715L1123.84 -0.874829L1123.92 0.122259ZM1132.84 -0.560065L1132.92 0.437022C1138.8 -0.0130436 1144.68 0.0937864 1150.57 0.757649L1150.68 -0.236047L1150.79 -1.22974C1144.78 -1.90767 1138.77 -2.01685 1132.76 -1.55715L1132.84 -0.560065ZM1150.68 -0.236047L1150.57 0.757649L1159.49 1.76399L1159.6 0.770294L1159.71 -0.223402L1150.79 -1.22974L1150.68 -0.236047ZM1159.6 0.770294L1159.49 1.76399L1168.41 2.77033L1168.52 1.77664L1168.63 0.78294L1159.71 -0.223402L1159.6 0.770294ZM1168.52 1.77664L1168.41 2.77033C1174.38 3.44435 1179.92 3.81057 1185.01 3.86717L1185.03 2.86724L1185.04 1.8673C1180.02 1.81156 1174.55 1.45071 1168.63 0.78294L1168.52 1.77664ZM1185.03 2.86724L1185.01 3.86717L1192.6 3.95143L1192.61 2.95149L1192.62 1.95156L1185.04 1.8673L1185.03 2.86724ZM1192.61 2.95149L1192.6 3.95143L1200.18 4.03569L1200.2 3.03575L1200.21 2.03581L1192.62 1.95156L1192.61 2.95149ZM1200.2 3.03575L1200.18 4.03569C1202.51 4.06151 1204.14 4.75528 1205.25 5.99412C1206.37 7.25906 1207.08 9.23788 1207.22 12.0888L1208.22 12.04L1209.22 11.9912C1209.06 8.89548 1208.29 6.40025 1206.74 4.66378C1205.17 2.9012 1202.94 2.06616 1200.21 2.03581L1200.2 3.03575ZM1208.22 12.04L1207.22 12.0888L1207.65 21.0088L1208.65 20.96L1209.65 20.9112L1209.22 11.9912L1208.22 12.04ZM1208.65 20.96L1207.65 21.0088L1208.09 29.9288L1209.09 29.88L1210.09 29.8312L1209.65 20.9112L1208.65 20.96ZM1209.09 29.88L1208.09 29.9288C1208.38 35.8506 1208.45 41.7723 1208.29 47.694L1209.29 47.72L1210.29 47.746C1210.45 41.7744 1210.38 35.8027 1210.09 29.8312L1209.09 29.88ZM1209.29 47.72L1208.29 47.694L1208.06 56.614L1209.06 56.64L1210.06 56.666L1210.29 47.746L1209.29 47.72ZM1209.06 56.64L1208.06 56.614L1207.83 65.534L1208.83 65.56L1209.83 65.586L1210.06 56.666L1209.06 56.64ZM1208.83 65.56L1207.83 65.534C1207.67 71.5285 1207.95 77.5228 1208.65 83.5163L1209.64 83.4L1210.64 83.2837C1209.94 77.3839 1209.68 71.4848 1209.83 65.586L1208.83 65.56ZM1209.64 83.4L1208.65 83.5163L1209.69 92.4363L1210.69 92.32L1211.68 92.2037L1210.64 83.2837L1209.64 83.4ZM1210.69 92.32L1209.69 92.4363L1210.74 101.356L1211.73 101.24L1212.72 101.124L1211.68 92.2037L1210.69 92.32ZM1211.73 101.24L1210.74 101.356C1211.43 107.234 1211.5 113.111 1210.96 118.988L1211.96 119.08L1212.95 119.172C1213.51 113.156 1213.43 107.139 1212.72 101.124L1211.73 101.24ZM1211.96 119.08L1210.96 118.988L1210.14 127.908L1211.14 128L1212.13 128.092L1212.95 119.172L1211.96 119.08ZM1211.14 128L1210.14 127.908L1209.32 136.828L1210.31 136.92L1211.31 137.012L1212.13 128.092L1211.14 128ZM1210.31 136.92L1209.32 136.828C1208.77 142.832 1208.73 148.835 1209.2 154.839L1210.2 154.76L1211.19 154.681C1210.73 148.791 1210.77 142.902 1211.31 137.012L1210.31 136.92ZM1210.2 154.76L1209.2 154.839L1209.91 163.759L1210.9 163.68L1211.9 163.601L1211.19 154.681L1210.2 154.76ZM1210.9 163.68L1209.91 163.759L1210.61 172.679L1211.61 172.6L1212.6 172.521L1211.9 163.601L1210.9 163.68ZM1211.61 172.6L1210.61 172.679C1211.08 178.583 1211.16 184.487 1210.87 190.391L1211.87 190.44L1212.87 190.489C1213.17 184.5 1213.08 178.51 1212.6 172.521L1211.61 172.6ZM1211.87 190.44L1210.87 190.391L1210.43 199.311L1211.43 199.36L1212.43 199.409L1212.87 190.489L1211.87 190.44ZM1211.43 199.36L1210.43 199.311L1209.99 208.231L1210.99 208.28L1211.99 208.329L1212.43 199.409L1211.43 199.36ZM1210.99 208.28L1209.99 208.231C1209.7 214.2 1209.61 220.169 1209.72 226.139L1210.72 226.12L1211.72 226.101C1211.61 220.177 1211.7 214.253 1211.99 208.329L1210.99 208.28ZM1210.72 226.12L1209.72 226.139L1209.89 235.059L1210.89 235.04L1211.89 235.021L1211.72 226.101L1210.72 226.12ZM1210.89 235.04L1209.89 235.059L1210.05 243.979L1211.05 243.96L1212.05 243.941L1211.89 235.021L1210.89 235.04ZM1211.05 243.96L1210.05 243.979C1210.17 249.903 1210.07 255.827 1209.78 261.751L1210.78 261.8L1211.78 261.849C1212.07 255.88 1212.17 249.911 1212.05 243.941L1211.05 243.96ZM1210.78 261.8L1209.78 261.751L1209.34 270.671L1210.34 270.72L1211.34 270.769L1211.78 261.849L1210.78 261.8ZM1210.34 270.72L1209.34 270.671L1208.9 279.591L1209.9 279.64L1210.9 279.689L1211.34 270.769L1210.34 270.72ZM1209.9 279.64L1208.9 279.591C1208.61 285.571 1208.62 291.552 1208.93 297.532L1209.93 297.48L1210.93 297.428C1210.62 291.515 1210.61 285.602 1210.9 279.689L1209.9 279.64ZM1209.93 297.48L1208.93 297.532L1209.4 306.452L1210.4 306.4L1211.39 306.348L1210.93 297.428L1209.93 297.48ZM1210.4 306.4L1209.4 306.452L1209.86 315.372L1210.86 315.32L1211.86 315.268L1211.39 306.348L1210.4 306.4ZM1210.86 315.32L1209.86 315.372C1210.17 321.308 1210.38 327.243 1210.49 333.178L1211.49 333.16L1212.49 333.142C1212.38 327.184 1212.17 321.226 1211.86 315.268L1210.86 315.32ZM1211.49 333.16L1210.49 333.178L1210.65 342.098L1211.65 342.08L1212.65 342.062L1212.49 333.142L1211.49 333.16ZM1211.65 342.08L1210.65 342.098L1210.81 351.018L1211.81 351L1212.81 350.982L1212.65 342.062L1211.65 342.08ZM1211.81 351L1210.81 351.018C1210.92 356.942 1210.82 362.865 1210.52 368.789L1211.51 368.84L1212.51 368.891C1212.82 362.922 1212.92 356.952 1212.81 350.982L1211.81 351ZM1211.51 368.84L1210.52 368.789L1210.06 377.709L1211.06 377.76L1212.05 377.811L1212.51 368.891L1211.51 368.84ZM1211.06 377.76L1210.06 377.709L1209.6 386.629L1210.6 386.68L1211.6 386.731L1212.05 377.811L1211.06 377.76ZM1210.6 386.68L1209.6 386.629C1209.29 392.601 1209.22 398.574 1209.37 404.546L1210.37 404.52L1211.37 404.494C1211.22 398.573 1211.29 392.652 1211.6 386.731L1210.6 386.68ZM1210.37 404.52L1209.37 404.546L1209.61 413.466L1210.61 413.44L1211.61 413.414L1211.37 404.494L1210.37 404.52ZM1210.61 413.44L1209.61 413.466L1209.85 422.386L1210.85 422.36L1211.85 422.334L1211.61 413.414L1210.61 413.44ZM1210.85 422.36L1209.85 422.386C1209.92 425.214 1209.3 427.202 1208.14 428.517C1207 429.823 1205.18 430.629 1202.51 430.787L1202.57 431.785L1202.63 432.784C1205.63 432.605 1208.03 431.671 1209.65 429.836C1211.25 428.009 1211.93 425.453 1211.85 422.334L1210.85 422.36ZM1202.57 431.785L1202.51 430.787L1194 431.292L1194.06 432.291L1194.12 433.289L1202.63 432.784L1202.57 431.785ZM1194.06 432.291L1194 431.292L1185.49 431.798L1185.55 432.796L1185.61 433.794L1194.12 433.289L1194.06 432.291ZM1185.55 432.796L1185.49 431.798C1179.81 432.135 1173.98 432.583 1168.03 433.143L1168.12 434.138L1168.21 435.134C1174.15 434.577 1179.95 434.13 1185.61 433.794L1185.55 432.796ZM1168.12 434.138L1168.03 433.143L1159.11 433.98L1159.2 434.976L1159.29 435.971L1168.21 435.134L1168.12 434.138ZM1159.2 434.976L1159.11 433.98L1150.19 434.817L1150.28 435.813L1150.37 436.809L1159.29 435.971L1159.2 434.976ZM1150.28 435.813L1150.19 434.817C1144.3 435.37 1138.42 435.35 1132.54 434.758L1132.44 435.753L1132.34 436.748C1138.35 437.353 1144.36 437.373 1150.37 436.809L1150.28 435.813ZM1132.44 435.753L1132.54 434.758L1123.62 433.861L1123.52 434.856L1123.42 435.851L1132.34 436.748L1132.44 435.753ZM1123.52 434.856L1123.62 433.861L1114.7 432.963L1114.6 433.958L1114.5 434.953L1123.42 435.851L1123.52 434.856ZM1114.6 433.958L1114.7 432.963C1108.69 432.359 1102.67 432.351 1096.66 432.94L1096.76 433.935L1096.86 434.931C1102.74 434.354 1108.62 434.362 1114.5 434.953L1114.6 433.958ZM1096.76 433.935L1096.66 432.94L1087.74 433.815L1087.84 434.81L1087.94 435.805L1096.86 434.931L1096.76 433.935ZM1087.84 434.81L1087.74 433.815L1078.82 434.689L1078.92 435.684L1079.02 436.68L1087.94 435.805L1087.84 434.81ZM1078.92 435.684L1078.82 434.689C1072.91 435.269 1066.99 435.583 1061.07 435.63L1061.08 436.63L1061.09 437.63C1067.06 437.582 1073.04 437.265 1079.02 436.68L1078.92 435.684ZM1061.08 436.63L1061.07 435.63L1052.15 435.701L1052.16 436.701L1052.17 437.701L1061.09 437.63L1061.08 436.63ZM1052.16 436.701L1052.15 435.701L1043.23 435.772L1043.24 436.772L1043.25 437.772L1052.17 437.701L1052.16 436.701ZM1043.24 436.772L1043.23 435.772C1037.29 435.82 1031.35 435.801 1025.41 435.716L1025.4 436.716L1025.39 437.715C1031.34 437.801 1037.29 437.82 1043.25 437.772L1043.24 436.772ZM1025.4 436.716L1025.41 435.716L1016.49 435.587L1016.48 436.587L1016.47 437.587L1025.39 437.715L1025.4 436.716ZM1016.48 436.587L1016.49 435.587L1007.57 435.459L1007.56 436.459L1007.55 437.459L1016.47 437.587L1016.48 436.587ZM1007.56 436.459L1007.57 435.459C1001.63 435.374 995.678 435.301 989.73 435.241L989.72 436.241L989.71 437.241C995.655 437.301 1001.6 437.374 1007.55 437.459L1007.56 436.459ZM989.72 436.241L989.73 435.241L980.81 435.15L980.8 436.15L980.79 437.15L989.71 437.241L989.72 436.241ZM980.8 436.15L980.81 435.15L971.89 435.06L971.88 436.06L971.87 437.06L980.79 437.15L980.8 436.15ZM971.88 436.06L971.89 435.06C965.945 435 960.001 434.921 954.056 434.824L954.04 435.824L954.024 436.824C959.972 436.921 965.921 437 971.87 437.06L971.88 436.06ZM954.04 435.824L954.056 434.824L945.136 434.679L945.12 435.679L945.104 436.679L954.024 436.824L954.04 435.824ZM945.12 435.679L945.136 434.679L936.216 434.534L936.2 435.534L936.184 436.533L945.104 436.679L945.12 435.679ZM936.2 435.534L936.216 434.534C930.269 434.437 924.321 434.348 918.373 434.268L918.36 435.268L918.346 436.268C924.292 436.348 930.238 436.437 936.184 436.533L936.2 435.534ZM918.36 435.268L918.373 434.268L909.453 434.147L909.44 435.147L909.426 436.147L918.346 436.268L918.36 435.268ZM909.44 435.147L909.453 434.147L900.533 434.027L900.52 435.027L900.506 436.027L909.426 436.147L909.44 435.147ZM900.52 435.027L900.533 434.027C894.569 433.946 888.605 434.021 882.641 434.25L882.68 435.25L882.718 436.249C888.648 436.021 894.577 435.947 900.506 436.027L900.52 435.027ZM882.68 435.25L882.641 434.25L873.721 434.594L873.76 435.593L873.798 436.592L882.718 436.249L882.68 435.25ZM873.76 435.593L873.721 434.594L864.802 434.938L864.84 435.937L864.878 436.936L873.798 436.592L873.76 435.593ZM864.84 435.937L864.802 434.938C858.891 435.165 852.98 435.074 847.069 434.665L847 435.663L846.931 436.66C852.913 437.074 858.896 437.166 864.878 436.936L864.84 435.937ZM847 435.663L847.069 434.665L838.149 434.047L838.08 435.045L838.011 436.043L846.931 436.66L847 435.663ZM838.08 435.045L838.149 434.047L829.229 433.43L829.16 434.427L829.091 435.425L838.011 436.043L838.08 435.045ZM829.16 434.427L829.229 433.43C823.25 433.016 817.27 432.897 811.29 433.075L811.32 434.075L811.35 435.074C817.263 434.899 823.177 435.015 829.091 435.425L829.16 434.427ZM811.32 434.075L811.29 433.075L802.37 433.34L802.4 434.339L802.43 435.339L811.35 435.074L811.32 434.075ZM802.4 434.339L802.37 433.34L793.45 433.605L793.48 434.604L793.51 435.604L802.43 435.339L802.4 434.339ZM793.48 434.604L793.45 433.605C787.524 433.781 781.598 433.774 775.672 433.586L775.64 434.585L775.608 435.585C781.575 435.775 787.543 435.781 793.51 435.604L793.48 434.604ZM775.64 434.585L775.672 433.586L766.752 433.302L766.72 434.301L766.688 435.301L775.608 435.585L775.64 434.585ZM766.72 434.301L766.752 433.302L757.832 433.018L757.8 434.018L757.768 435.017L766.688 435.301L766.72 434.301ZM757.8 434.018L757.832 433.018C751.87 432.828 745.908 432.775 739.946 432.859L739.96 433.859L739.974 434.858C745.905 434.775 751.837 434.828 757.768 435.017L757.8 434.018ZM739.96 433.859L739.946 432.859L731.026 432.984L731.04 433.984L731.054 434.983L739.974 434.858L739.96 433.859ZM731.04 433.984L731.026 432.984L722.106 433.109L722.12 434.108L722.134 435.108L731.054 434.983L731.04 433.984ZM722.12 434.108L722.106 433.109C716.171 433.192 710.236 433.173 704.3 433.051L704.28 434.051L704.26 435.051C710.218 435.173 716.176 435.192 722.134 435.108L722.12 434.108ZM704.28 434.051L704.3 433.051L695.38 432.868L695.36 433.868L695.339 434.868L704.26 435.051L704.28 434.051ZM695.36 433.868L695.38 432.868L686.46 432.686L686.44 433.686L686.419 434.686L695.339 434.868L695.36 433.868ZM686.44 433.686L686.46 432.686C680.488 432.564 674.516 432.668 668.545 433L668.6 433.998L668.655 434.997C674.577 434.668 680.498 434.564 686.419 434.686L686.44 433.686ZM668.6 433.998L668.545 433L659.625 433.495L659.68 434.493L659.735 435.492L668.655 434.997L668.6 433.998ZM659.68 434.493L659.625 433.495L650.705 433.99L650.76 434.988L650.815 435.987L659.735 435.492L659.68 434.493ZM650.76 434.988L650.705 433.99C644.789 434.318 638.872 434.374 632.956 434.158L632.92 435.157L632.883 436.157C638.861 436.375 644.838 436.319 650.815 435.987L650.76 434.988ZM632.92 435.157L632.956 434.158L624.036 433.832L624 434.831L623.963 435.831L632.883 436.157L632.92 435.157ZM624 434.831L624.036 433.832L615.117 433.506L615.08 434.505L615.043 435.505L623.963 435.831L624 434.831ZM615.08 434.505L615.117 433.506C609.178 433.289 603.239 433.003 597.3 432.648L597.24 433.646L597.18 434.644C603.135 435 609.089 435.287 615.043 435.505L615.08 434.505ZM597.24 433.646L597.3 432.648L588.38 432.115L588.32 433.113L588.26 434.111L597.18 434.644L597.24 433.646ZM588.32 433.113L588.38 432.115L579.46 431.582L579.4 432.58L579.34 433.578L588.26 434.111L588.32 433.113ZM579.4 432.58L579.46 431.582C573.478 431.224 567.496 431.183 561.514 431.457L561.56 432.456L561.606 433.455C567.517 433.184 573.429 433.225 579.34 433.578L579.4 432.58ZM561.56 432.456L561.514 431.457L552.594 431.866L552.64 432.865L552.686 433.864L561.606 433.455L561.56 432.456ZM552.64 432.865L552.594 431.866L543.674 432.276L543.72 433.275L543.766 434.274L552.686 433.864L552.64 432.865ZM543.72 433.275L543.674 432.276C537.766 432.547 531.858 432.477 525.949 432.067L525.88 433.064L525.811 434.062C531.796 434.478 537.781 434.548 543.766 434.274L543.72 433.275ZM525.88 433.064L525.949 432.067L517.029 431.447L516.96 432.444L516.891 433.442L525.811 434.062L525.88 433.064ZM516.96 432.444L517.029 431.447L508.109 430.827L508.04 431.825L507.971 432.822L516.891 433.442L516.96 432.444ZM508.04 431.825L508.109 430.827C502.131 430.412 496.153 430.279 490.175 430.43L490.2 431.429L490.225 432.429C496.14 432.28 502.055 432.411 507.971 432.822L508.04 431.825ZM490.2 431.429L490.175 430.43L481.255 430.654L481.28 431.654L481.305 432.654L490.225 432.429L490.2 431.429ZM481.28 431.654L481.255 430.654L472.335 430.879L472.36 431.879L472.385 432.878L481.305 432.654L481.28 431.654ZM472.36 431.879L472.335 430.879C466.394 431.028 460.454 431.124 454.513 431.166L454.52 432.166L454.527 433.166C460.48 433.124 466.432 433.028 472.385 432.878L472.36 431.879ZM454.52 432.166L454.513 431.166L445.593 431.23L445.6 432.23L445.607 433.23L454.527 433.166L454.52 432.166ZM445.6 432.23L445.593 431.23L436.673 431.293L436.68 432.293L436.687 433.293L445.607 433.23L445.6 432.23ZM436.68 432.293L436.673 431.293C430.731 431.335 424.789 431.335 418.847 431.291L418.84 432.291L418.833 433.291C424.784 433.335 430.736 433.335 436.687 433.293L436.68 432.293ZM418.84 432.291L418.847 431.291L409.927 431.226L409.92 432.226L409.913 433.226L418.833 433.291L418.84 432.291ZM409.92 432.226L409.927 431.226L401.007 431.161L401 432.161L400.993 433.161L409.913 433.226L409.92 432.226ZM401 432.161L401.007 431.161C395.063 431.118 389.119 431.052 383.175 430.964L383.16 431.964L383.145 432.964C389.094 433.052 395.043 433.118 400.993 433.161L401 432.161ZM383.16 431.964L383.175 430.964L374.255 430.832L374.24 431.832L374.225 432.832L383.145 432.964L383.16 431.964ZM374.24 431.832L374.255 430.832L365.335 430.7L365.32 431.7L365.305 432.7L374.225 432.832L374.24 431.832ZM365.32 431.7L365.335 430.7C359.344 430.612 353.353 430.918 347.363 431.621L347.48 432.614L347.596 433.607C353.5 432.915 359.403 432.613 365.305 432.7L365.32 431.7ZM347.48 432.614L347.363 431.621L338.443 432.667L338.56 433.66L338.676 434.653L347.596 433.607L347.48 432.614ZM338.56 433.66L338.443 432.667L329.523 433.713L329.64 434.706L329.756 435.699L338.676 434.653L338.56 433.66ZM329.64 434.706L329.523 433.713C323.649 434.401 317.776 434.445 311.902 433.845L311.8 434.84L311.698 435.835C317.718 436.45 323.737 436.405 329.756 435.699L329.64 434.706ZM311.8 434.84L311.902 433.845L302.982 432.933L302.88 433.928L302.778 434.923L311.698 435.835L311.8 434.84ZM302.88 433.928L302.982 432.933L294.062 432.021L293.96 433.016L293.858 434.011L302.778 434.923L302.88 433.928ZM293.96 433.016L294.062 432.021C288.082 431.41 282.102 431.1 276.121 431.092L276.12 432.092L276.119 433.092C282.032 433.1 287.945 433.407 293.858 434.011L293.96 433.016ZM276.12 432.092L276.121 431.092L267.201 431.079L267.2 432.079L267.199 433.079L276.119 433.092L276.12 432.092ZM267.2 432.079L267.201 431.079L258.281 431.066L258.28 432.066L258.279 433.066L267.199 433.079L267.2 432.079ZM258.28 432.066L258.281 431.066C252.327 431.058 246.372 431.121 240.417 431.257L240.44 432.257L240.463 433.256C246.401 433.121 252.34 433.058 258.279 433.066L258.28 432.066ZM240.44 432.257L240.417 431.257L231.497 431.46L231.52 432.46L231.543 433.459L240.463 433.256L240.44 432.257ZM231.52 432.46L231.497 431.46L222.577 431.663L222.6 432.663L222.623 433.662L231.543 433.459L231.52 432.46ZM222.6 432.663L222.577 431.663C216.628 431.798 210.679 431.956 204.73 432.137L204.76 433.137L204.79 434.137C210.735 433.956 216.679 433.798 222.623 433.662L222.6 432.663ZM204.76 433.137L204.73 432.137L195.81 432.409L195.84 433.408L195.87 434.408L204.79 434.137L204.76 433.137ZM195.84 433.408L195.81 432.409L186.89 432.68L186.92 433.68L186.95 434.679L195.87 434.408L195.84 433.408ZM186.92 433.68L186.89 432.68C180.934 432.861 174.979 433.121 169.023 433.459L169.08 434.458L169.137 435.456C175.075 435.119 181.013 434.86 186.95 434.679L186.92 433.68ZM169.08 434.458L169.023 433.459L160.103 433.966L160.16 434.965L160.217 435.963L169.137 435.456L169.08 434.458ZM160.16 434.965L160.103 433.966L151.183 434.473L151.24 435.472L151.297 436.47L160.217 435.963L160.16 434.965ZM151.24 435.472L151.183 434.473C145.252 434.81 139.322 435.005 133.391 435.058L133.4 436.058L133.409 437.058C139.372 437.005 145.334 436.809 151.297 436.47L151.24 435.472ZM133.4 436.058L133.391 435.058L124.471 435.137L124.48 436.137L124.489 437.137L133.409 437.058L133.4 436.058ZM124.48 436.137L124.471 435.137L115.551 435.216L115.56 436.216L115.569 437.216L124.489 437.137L124.48 436.137ZM115.56 436.216L115.551 435.216C109.646 435.268 103.74 434.955 97.8342 434.276L97.72 435.269L97.6058 436.263C103.593 436.951 109.581 437.269 115.569 437.216L115.56 436.216ZM97.72 435.269L97.8342 434.276L88.9142 433.25L88.8 434.244L88.6858 435.237L97.6058 436.263L97.72 435.269ZM88.8 434.244L88.9142 433.25L79.9942 432.225L79.88 433.218L79.7657 434.212L88.6858 435.237L88.8 434.244ZM79.88 433.218L79.9942 432.225C73.983 431.533 67.971 431.431 61.9592 431.919L62.04 432.915L62.1207 433.912C68.0022 433.435 73.8836 433.535 79.7657 434.212L79.88 433.218ZM62.04 432.915L61.9592 431.919L53.0392 432.641L53.12 433.638L53.2008 434.635L62.1207 433.912L62.04 432.915ZM53.12 433.638L53.0392 432.641L44.1192 433.364L44.2 434.361L44.2808 435.358L53.2008 434.635L53.12 433.638ZM44.2 434.361L44.1192 433.364C38.2113 433.843 32.4925 433.959 26.9623 433.714L26.9179 434.713L26.8736 435.712C32.4928 435.961 38.2953 435.843 44.2808 435.358L44.2 434.361ZM26.9179 434.713L26.9623 433.714L18.6002 433.343L18.5559 434.342L18.5116 435.341L26.8736 435.712L26.9179 434.713ZM18.5559 434.342L18.6002 433.343L10.2381 432.972L10.1938 433.971L10.1495 434.97L18.5116 435.341L18.5559 434.342ZM10.1938 433.971L10.2381 432.972C7.62566 432.856 5.80691 432.083 4.61676 430.786C3.41721 429.48 2.71659 427.491 2.66317 424.661L1.66335 424.68L0.663529 424.699C0.722364 427.816 1.49961 430.349 3.14354 432.139C4.79688 433.94 7.18723 434.839 10.1495 434.97L10.1938 433.971ZM1.66335 424.68L2.66317 424.661L2.4948 415.741L1.49497 415.76L0.495152 415.779L0.663529 424.699L1.66335 424.68ZM1.49497 415.76L2.4948 415.741L2.32642 406.821L1.3266 406.84L0.326775 406.859L0.495152 415.779L1.49497 415.76ZM1.3266 406.84L2.32642 406.821C2.21358 400.843 1.82263 394.866 1.15362 388.889L0.159822 389L-0.833973 389.111C-0.171787 395.027 0.215109 400.943 0.326775 406.859L1.3266 406.84ZM0.159822 389L1.15362 388.889L0.155219 379.969L-0.838576 380.08L-1.83237 380.191L-0.833973 389.111L0.159822 389ZM-0.838576 380.08L0.155219 379.969L-0.843179 371.049L-1.83697 371.16L-2.83077 371.271L-1.83237 380.191L-0.838576 380.08ZM-1.83697 371.16L-0.843179 371.049C-1.50051 365.176 -1.50112 359.304 -0.845007 353.431L-1.83882 353.32L-2.83264 353.209C-3.50526 359.229 -3.50463 365.251 -2.83077 371.271L-1.83697 371.16ZM-1.83882 353.32L-0.845007 353.431L0.151539 344.511L-0.842278 344.4L-1.8361 344.289L-2.83264 353.209L-1.83882 353.32ZM-0.842278 344.4L0.151539 344.511L1.14809 335.591L0.154268 335.48L-0.839549 335.369L-1.8361 344.289L-0.842278 344.4ZM0.154268 335.48L1.14809 335.591C1.82024 329.575 1.85676 323.558 1.25757 317.541L0.262496 317.64L-0.732581 317.739C-0.147339 323.616 -0.182973 329.492 -0.839549 335.369L0.154268 335.48ZM0.262496 317.64L1.25757 317.541L0.369256 308.621L-0.625822 308.72L-1.6209 308.819L-0.732581 317.739L0.262496 317.64ZM-0.625822 308.72L0.369256 308.621L-0.519062 299.701L-1.51414 299.8L-2.50922 299.899L-1.6209 308.819L-0.625822 308.72ZM-1.51414 299.8L-0.519062 299.701C-1.10315 293.836 -0.966968 287.971 -0.110139 282.104L-1.09964 281.96L-2.08914 281.815C-2.9694 287.842 -3.10956 293.871 -2.50922 299.899L-1.51414 299.8ZM-1.09964 281.96L-0.110139 282.104L1.19268 273.185L0.203178 273.04L-0.786324 272.895L-2.08914 281.815L-1.09964 281.96ZM0.203178 273.04L1.19268 273.185L2.4955 264.264L1.506 264.12L0.516494 263.975L-0.786324 272.895L0.203178 273.04ZM1.506 264.12L2.4955 264.264C3.37561 258.239 3.52508 252.211 2.94351 246.184L1.94813 246.28L0.952756 246.376C1.51877 252.242 1.37347 258.108 0.516494 263.975L1.506 264.12ZM1.94813 246.28L2.94351 246.184L2.08283 237.264L1.08745 237.36L0.0920759 237.456L0.952756 246.376L1.94813 246.28ZM1.08745 237.36L2.08283 237.264L1.22215 228.344L0.226773 228.44L-0.768605 228.536L0.0920759 237.456L1.08745 237.36ZM0.226773 228.44L1.22215 228.344C0.650954 222.424 0.321264 216.505 0.233047 210.585L-0.766842 210.6L-1.76673 210.615C-1.6777 216.589 -1.34498 222.562 -0.768605 228.536L0.226773 228.44ZM-0.766842 210.6L0.233047 210.585L0.100113 201.665L-0.899776 201.68L-1.89966 201.695L-1.76673 210.615L-0.766842 210.6ZM-0.899776 201.68L0.100113 201.665L-0.0328204 192.745L-1.03271 192.76L-2.0326 192.775L-1.89966 201.695L-0.899776 201.68ZM-1.03271 192.76L-0.0328204 192.745C-0.121529 186.793 -0.261939 180.84 -0.45405 174.888L-1.45353 174.92L-2.45301 174.952C-2.26127 180.893 -2.12113 186.834 -2.0326 192.775L-1.03271 192.76ZM-1.45353 174.92L-0.45405 174.888L-0.741937 165.968L-1.74142 166L-2.7409 166.032L-2.45301 174.952L-1.45353 174.92ZM-1.74142 166L-0.741937 165.968L-1.02982 157.048L-2.0293 157.08L-3.02878 157.112L-2.7409 166.032L-1.74142 166ZM-2.0293 157.08L-1.02982 157.048C-1.22138 151.113 -1.31056 145.177 -1.29736 139.242L-2.29736 139.24L-3.29735 139.238C-3.3106 145.196 -3.22108 151.154 -3.02878 157.112L-2.0293 157.08ZM-2.29736 139.24L-1.29736 139.242L-1.27752 130.322L-2.27752 130.32L-3.27752 130.318L-3.29735 139.238L-2.29736 139.24ZM-2.27752 130.32L-1.27752 130.322L-1.25769 121.402L-2.25769 121.4L-3.25768 121.398L-3.27752 130.318L-2.27752 130.32ZM-2.25769 121.4L-1.25769 121.402C-1.24456 115.499 -0.850844 109.595 -0.0763766 103.69L-1.06788 103.56L-2.05939 103.43C-2.84488 109.419 -3.24437 115.408 -3.25768 121.398L-2.25769 121.4ZM-1.06788 103.56L-0.0763766 103.69L1.09359 94.77L0.102085 94.64L-0.889423 94.5099L-2.05939 103.43L-1.06788 103.56ZM0.102085 94.64L1.09359 94.77L2.26356 85.85L1.27205 85.72L0.280546 85.5899L-0.889423 94.5099L0.102085 94.64ZM1.27205 85.72L2.26356 85.85C3.05175 79.8408 3.26526 73.8305 2.90383 67.82L1.90563 67.88L0.907438 67.94C1.26119 73.8228 1.05232 79.7058 0.280546 85.5899L1.27205 85.72ZM1.90563 67.88L2.90383 67.82L2.36744 58.9L1.36925 58.96L0.37105 59.02L0.907438 67.94L1.90563 67.88ZM1.36925 58.96L2.36744 58.9L1.83106 49.9799L0.832859 50.04L-0.165338 50.1L0.37105 59.02L1.36925 58.96ZM0.832859 50.04L1.83106 49.9799C1.47607 44.0767 1.50606 38.1735 1.92103 32.2701L0.923493 32.2L-0.0740452 32.1298C-0.495103 38.1198 -0.525538 44.11 -0.165338 50.1L0.832859 50.04ZM0.923493 32.2L1.92103 32.2701L2.54805 23.3501L1.55052 23.28L0.552977 23.2099L-0.0740452 32.1298L0.923493 32.2ZM1.55052 23.28L2.54805 23.3501L3.17508 14.4301L2.17754 14.36L1.18 14.2899L0.552977 23.2099L1.55052 23.28ZM2.17754 14.36L3.17508 14.4301C3.38478 11.4468 3.48512 9.07396 3.47249 7.32276C3.46619 6.44827 3.43167 5.71026 3.36459 5.11963C3.30138 4.56304 3.19846 4.02173 2.99225 3.62175L2.10342 4.07998L1.21459 4.53821C1.24209 4.59156 1.31755 4.81858 1.37737 5.34532C1.43332 5.83803 1.4665 6.49835 1.47255 7.33718C1.48463 9.01265 1.38831 11.3265 1.18 14.2899L2.17754 14.36ZM2.10342 4.07998L2.99225 3.62175L2.29111 2.26175L1.40228 2.71999L0.513448 3.17822L1.21459 4.53821L2.10342 4.07998ZM1.40228 2.71999L2.29111 2.26175L1.58997 0.901759L0.70114 1.35999L-0.187692 1.81823L0.513448 3.17822L1.40228 2.71999ZM0.70114 1.35999L1.58997 0.901759C1.64525 1.00899 1.68479 1.20219 1.60543 1.4018C1.54447 1.55511 1.45813 1.59451 1.51547 1.55539C1.63868 1.47133 1.97015 1.32677 2.63396 1.17084C3.91758 0.869316 6.01887 0.616998 8.98384 0.42732L8.92 -0.57064L8.85616 -1.5686C5.87446 -1.37785 3.63261 -1.11818 2.17661 -0.776164C1.47061 -0.610324 0.833152 -0.400223 0.38831 -0.0967297C0.16163 0.0579232 -0.108516 0.299325 -0.253058 0.662861C-0.416005 1.07269 -0.359832 1.48433 -0.187692 1.81823L0.70114 1.35999ZM8.92 -0.57064L8.98384 0.42732L17.9038 -0.143321L17.84 -1.14128L17.7762 -2.13924L8.85616 -1.5686L8.92 -0.57064Z" fill="black"/>
</g>
<defs>
<clipPath id="clip0_1844_1796">
<rect width="1210" height="434" fill="white"/>
</clipPath>
</defs>
</svg>
