<svg width="1210" height="1636" viewBox="0 0 1210 1636" fill="none" xmlns="http://www.w3.org/2000/svg">
<g clip-path="url(#clip0_1844_1797)">
<rect width="1210" height="1636" fill="white"/>
<path d="M0 0H1210V1636H0V0Z" fill="white"/>
<path d="M53.52 -2.30326L53.5188 -3.30326L53.52 -2.30326ZM62.44 -2.31362L62.4388 -3.31361L62.44 -2.31362ZM133.8 1.11272L133.764 0.113356L133.8 1.11272ZM169.48 2.27803L169.425 3.2765L169.48 2.27803ZM196.24 1.28674L196.157 0.290191L196.24 1.28674ZM205.16 0.544018L205.077 -0.452533L205.16 0.544018ZM267.6 1.06849L267.507 2.06418L267.6 1.06849ZM312.2 -1.41042L312.047 -2.39867L312.2 -1.41042ZM383.56 -0.897812L383.448 -1.89153L383.56 -0.897812ZM472.76 1.13296L472.679 0.136242L472.76 1.13296ZM508.44 -0.061763L508.331 0.932276L508.44 -0.061763ZM526.28 1.89483L526.171 2.88887L526.28 1.89483ZM561.96 2.1931L561.935 1.19343L561.96 2.1931ZM660.08 -0.366701L659.957 0.625675L660.08 -0.366701ZM669 0.741047L668.877 1.73342L669 0.741047ZM686.84 1.42803L686.793 0.429142L686.84 1.42803ZM731.44 -0.961977L731.377 -1.95999L731.44 -0.961977ZM811.72 -0.995199L811.697 0.00454498L811.72 -0.995199ZM829.56 -0.255072L829.5 0.743113L829.56 -0.255072ZM883.08 -1.46868L882.975 -2.46315L883.08 -1.46868ZM909.84 -1.95149L909.866 -2.95116L909.84 -1.95149ZM918.76 -1.72158L918.734 -0.721911L918.76 -1.72158ZM954.44 -0.581732L954.406 0.41769L954.44 -0.581732ZM990.12 1.83974L990.041 2.83662L990.12 1.83974ZM1007.96 2.34888L1007.94 1.34912L1007.96 2.34888ZM1016.88 2.15196L1016.9 3.15172L1016.88 2.15196ZM1025.8 1.95504L1025.78 0.955287L1025.8 1.95504ZM1079.32 -1.4326L1079.43 -2.4267L1079.32 -1.4326ZM1097.16 0.513738L1097.05 1.50784L1097.16 0.513738ZM1150.68 -0.236047L1150.57 0.757649L1150.68 -0.236047ZM1168.52 1.77664L1168.63 0.78294L1168.52 1.77664ZM1192.61 2.95149L1192.6 3.95143L1192.61 2.95149ZM1208.22 12.04L1209.22 11.9912L1208.22 12.04ZM1209.09 29.88L1208.09 29.9288L1209.09 29.88ZM1209.29 47.72L1210.29 47.746L1209.29 47.72ZM1208.83 65.56L1207.83 65.534L1208.83 65.56ZM1209.64 83.4L1210.64 83.2837L1209.64 83.4ZM1211.96 119.08L1210.96 118.988L1211.96 119.08ZM1210.31 136.92L1211.31 137.012L1210.31 136.92ZM1210.2 154.76L1209.2 154.839L1210.2 154.76ZM1211.61 172.6L1212.6 172.521L1211.61 172.6ZM1211.87 190.44L1212.87 190.489L1211.87 190.44ZM1210.99 208.28L1209.99 208.231L1210.99 208.28ZM1210.72 226.12L1211.72 226.101L1210.72 226.12ZM1211.05 243.96L1210.05 243.979L1211.05 243.96ZM1210.78 261.8L1211.78 261.849L1210.78 261.8ZM1209.9 279.64L1208.9 279.591L1209.9 279.64ZM1209.93 297.48L1210.93 297.428L1209.93 297.48ZM1210.86 315.32L1209.86 315.372L1210.86 315.32ZM1211.49 333.16L1210.49 333.178L1211.49 333.16ZM1211.65 342.08L1212.65 342.062L1211.65 342.08ZM1211.81 351L1212.81 350.982L1211.81 351ZM1211.51 368.84L1210.52 368.789L1211.51 368.84ZM1210.6 386.68L1209.6 386.629L1210.6 386.68ZM1210.37 404.52L1211.37 404.494L1210.37 404.52ZM1210.85 422.36L1209.85 422.386L1210.85 422.36ZM1210.64 440.2L1209.64 440.15L1210.64 440.2ZM1209.75 458.04L1208.75 457.99L1209.75 458.04ZM1210.14 475.88L1209.14 475.974L1210.14 475.88ZM1211.75 511.56L1210.76 511.46L1211.75 511.56ZM1209.96 529.4L1210.95 529.5L1209.96 529.4ZM1209.94 547.24L1208.94 547.338L1209.94 547.24ZM1210.81 556.16L1211.81 556.062L1210.81 556.16ZM1211.68 565.08L1210.69 565.178L1211.68 565.08ZM1212.63 582.92L1211.63 582.928L1212.63 582.92ZM1212.77 600.76L1213.77 600.752L1212.77 600.76ZM1212.72 618.6L1213.72 618.614L1212.72 618.6ZM1212.24 654.28L1213.24 654.29L1212.24 654.28ZM1212.06 672.12L1211.06 672.11L1212.06 672.12ZM1211.68 698.88L1210.68 698.864L1211.68 698.88ZM1211.53 707.8L1212.53 707.816L1211.53 707.8ZM1211.27 725.64L1210.27 725.627L1211.27 725.64ZM1211.03 743.48L1210.03 743.467L1211.03 743.48ZM1211.25 761.32L1212.25 761.282L1211.25 761.32ZM1211.94 779.16L1210.94 779.198L1211.94 779.16ZM1211.66 797L1210.67 796.931L1211.66 797ZM1210.43 814.84L1211.42 814.909L1210.43 814.84ZM1210.07 832.68L1209.07 832.71L1210.07 832.68ZM1210.34 841.6L1211.34 841.57L1210.34 841.6ZM1210.6 850.52L1209.6 850.55L1210.6 850.52ZM1210.59 868.36L1209.59 868.328L1210.59 868.36ZM1210.02 886.2L1209.02 886.168L1210.02 886.2ZM1209.86 904.04L1208.86 904.054L1209.86 904.04ZM1209.98 912.96L1208.98 912.974L1209.98 912.96ZM1210.11 921.88L1211.11 921.866L1210.11 921.88ZM1210.05 939.72L1209.05 939.7L1210.05 939.72ZM1209.69 957.56L1210.69 957.581L1209.69 957.56ZM1210 975.4L1211 975.345L1210 975.4ZM1210.99 993.24L1211.99 993.185L1210.99 993.24ZM1211.16 1011.08L1210.16 1011.04L1211.16 1011.08ZM1210.51 1028.92L1209.51 1028.88L1210.51 1028.92ZM1209.65 1046.76L1208.65 1046.7L1209.65 1046.76ZM1209.11 1055.68L1210.11 1055.74L1209.11 1055.68ZM1208.58 1064.6L1209.58 1064.66L1208.58 1064.6ZM1208.87 1091.36L1209.86 1091.31L1208.87 1091.36ZM1209.27 1100.28L1208.28 1100.33L1209.27 1100.28ZM1209.06 1118.12L1210.06 1118.19L1209.06 1118.12ZM1207.82 1135.96L1206.83 1135.89L1207.82 1135.96ZM1207.43 1153.8L1206.43 1153.83L1207.43 1153.8ZM1207.65 1162.72L1208.65 1162.69L1207.65 1162.72ZM1207.88 1171.64L1208.88 1171.61L1207.88 1171.64ZM1208.17 1189.48L1209.17 1189.47L1208.17 1189.48ZM1208.23 1198.4L1209.23 1198.39L1208.23 1198.4ZM1208.29 1207.32L1207.29 1207.33L1208.29 1207.32ZM1208.29 1225.16L1207.29 1225.15L1208.29 1225.16ZM1208.23 1234.08L1209.23 1234.09L1208.23 1234.08ZM1208.16 1243L1207.16 1242.99L1208.16 1243ZM1207.7 1278.68L1206.7 1278.67L1207.7 1278.68ZM1208.61 1296.52L1209.61 1296.4L1208.61 1296.52ZM1210.71 1314.36L1209.71 1314.48L1210.71 1314.36ZM1210.84 1332.2L1211.83 1332.3L1210.84 1332.2ZM1209.02 1350.04L1208.02 1349.94L1209.02 1350.04ZM1208.09 1367.88L1209.09 1367.88L1208.09 1367.88ZM1208.07 1385.72L1207.07 1385.72L1208.07 1385.72ZM1208.26 1403.56L1207.26 1403.58L1208.26 1403.56ZM1208.66 1421.4L1209.66 1421.38L1208.66 1421.4ZM1209.14 1439.24L1210.14 1439.21L1209.14 1439.24ZM1209.41 1448.16L1208.41 1448.19L1209.41 1448.16ZM1209.68 1457.08L1208.68 1457.11L1209.68 1457.08ZM1210.46 1474.92L1209.46 1474.98L1210.46 1474.92ZM1211.47 1492.76L1212.47 1492.7L1211.47 1492.76ZM1212.06 1510.6L1213.06 1510.59L1212.06 1510.6ZM1212.22 1528.44L1211.22 1528.45L1212.22 1528.44ZM1211.27 1546.28L1210.28 1546.17L1211.27 1546.28ZM1209.22 1564.12L1208.22 1564.01V1564.01L1209.22 1564.12ZM1208.92 1581.96L1207.92 1582.04L1208.92 1581.96ZM1210.36 1599.8L1211.36 1599.72L1210.36 1599.8ZM1208.71 1615.08L1207.78 1614.73L1208.71 1615.08ZM1203.97 1627.81L1204.91 1628.16L1203.97 1627.81ZM1192.68 1634.34L1192.7 1635.34L1192.68 1634.34ZM1174.84 1634.67L1174.82 1633.67L1174.84 1634.67ZM1157 1635.84L1157.11 1636.83L1157 1635.84ZM1139.16 1637.84L1139.05 1636.84L1139.16 1637.84ZM1121.32 1637.84L1121.21 1638.83L1121.32 1637.84ZM1103.48 1635.85L1103.59 1634.85L1103.48 1635.85ZM1085.64 1635.74L1085.74 1636.73L1085.64 1635.74ZM1076.72 1636.63L1076.82 1637.62L1076.72 1636.63ZM1067.8 1637.51L1067.7 1636.52L1067.8 1637.51ZM1049.96 1637.1L1050.1 1636.11L1049.96 1637.1ZM1032.12 1634.49L1031.98 1635.48L1032.12 1634.49ZM1014.28 1634.05L1014.18 1633.06L1014.28 1634.05ZM978.6 1636.77L978.615 1637.77L978.6 1636.77ZM960.76 1637.03L960.775 1638.03L960.76 1637.03ZM942.92 1637.45L942.952 1638.45L942.92 1637.45ZM925.08 1638.03L925.048 1637.03L925.08 1638.03ZM907.24 1638.3L907.238 1639.3L907.24 1638.3ZM889.4 1638.26L889.402 1637.26L889.4 1638.26ZM871.56 1637.07L871.43 1638.06L871.56 1637.07ZM862.64 1635.9L862.77 1634.91L862.64 1635.9ZM853.72 1634.73L853.85 1633.74L853.72 1634.73ZM835.88 1634.09L835.82 1633.1L835.88 1634.09ZM818.04 1635.17L818.1 1636.17L818.04 1635.17ZM800.2 1635.08L800.13 1636.07L800.2 1635.08ZM782.36 1633.82L782.43 1632.82L782.36 1633.82ZM764.52 1634.24L764.404 1633.25L764.52 1634.24ZM746.68 1636.33L746.564 1635.34L746.68 1636.33ZM728.84 1636.57L728.929 1635.58L728.84 1636.57ZM711 1634.98L710.911 1635.97L711 1634.98ZM675.32 1634.15L675.319 1635.15L675.32 1634.15ZM657.48 1634.59L657.429 1633.6L657.48 1634.59ZM639.64 1635.51L639.691 1636.51L639.64 1635.51ZM621.8 1636.18L621.776 1635.18L621.8 1636.18ZM612.88 1636.39L612.904 1637.39L612.88 1636.39ZM603.96 1636.61L603.936 1635.61L603.96 1636.61ZM586.12 1636.43L586.076 1637.43L586.12 1636.43ZM568.28 1635.65L568.324 1634.65L568.28 1635.65ZM550.44 1635.55L550.473 1636.55L550.44 1635.55ZM541.52 1635.84L541.553 1636.84L541.52 1635.84ZM532.6 1636.13L532.567 1635.13L532.6 1636.13ZM514.76 1636.8L514.717 1635.81L514.76 1636.8ZM496.92 1637.57L496.963 1638.57L496.92 1637.57ZM479.08 1637.44L479.022 1638.44L479.08 1637.44ZM461.24 1636.42L461.182 1637.41L461.24 1636.42ZM443.4 1636.05L443.417 1637.05L443.4 1636.05ZM434.48 1636.2L434.463 1635.2L434.48 1636.2ZM407.72 1636.69L407.698 1635.69L407.72 1636.69ZM389.88 1637.09L389.902 1638.09L389.88 1637.09ZM372.04 1636.75L372.101 1635.75L372.04 1636.75ZM354.2 1635.65L354.139 1636.65L354.2 1635.65ZM327.44 1634.52L327.472 1633.52L327.44 1634.52ZM318.52 1634.23L318.488 1635.23L318.52 1634.23ZM300.68 1633.75L300.702 1632.75L300.68 1633.75ZM282.84 1633.35L282.818 1634.35L282.84 1633.35ZM265 1633.64L264.945 1632.64L265 1633.64ZM247.16 1634.63L247.105 1633.63L247.16 1634.63ZM229.32 1636.03L229.219 1635.03L229.32 1636.03ZM211.48 1637.84L211.581 1638.84L211.48 1637.84ZM193.64 1637.47L193.498 1638.46L193.64 1637.47ZM175.8 1634.91L175.942 1633.92L175.8 1634.91ZM157.96 1633.73L157.972 1634.73L157.96 1633.73ZM140.12 1633.95L140.108 1632.95L140.12 1633.95ZM122.28 1635.02L122.387 1636.02L122.28 1635.02ZM104.44 1636.94L104.333 1635.95L104.44 1636.94ZM86.6 1636.85L86.4829 1637.84L86.6 1636.85ZM68.76 1634.74L68.8771 1633.75L68.76 1634.74ZM50.9199 1634.18L50.8655 1633.18L50.9199 1634.18ZM41.9999 1634.67L41.9455 1633.67L41.9999 1634.67ZM33.0799 1635.15L33.1344 1636.15L33.0799 1635.15ZM18.2617 1632.85L18.6893 1631.94V1631.94L18.2617 1632.85ZM12.3636 1630.06L11.9361 1630.96L12.3636 1630.06ZM6.46549 1627.27L6.03794 1628.17L6.46549 1627.27ZM-0.0152923 1562.04L-1.01397 1561.99L-0.0152923 1562.04ZM0.556921 1544.2L-0.443 1544.19L0.556921 1544.2ZM0.216374 1508.52L-0.780754 1508.6L0.216374 1508.52ZM-1.13859 1490.68L-0.141465 1490.6L-1.13859 1490.68ZM-1.14828 1455L-2.14797 1454.97L-1.14828 1455ZM-0.402443 1437.16L-1.40073 1437.1L-0.402443 1437.16ZM0.327147 1401.48L-0.668447 1401.57L0.327147 1401.48ZM-1.35313 1383.64L-0.357534 1383.55L-1.35313 1383.64ZM-1.90007 1294.44L-2.89791 1294.37L-1.90007 1294.44ZM-0.725716 1276.6L0.272125 1276.67L-0.725716 1276.6ZM-0.271829 1258.76L-1.27172 1258.77L-0.271829 1258.76ZM0.443329 1205.24L-0.555804 1205.2L0.443329 1205.24ZM-0.23223 1169.56L-1.23146 1169.6L-0.23223 1169.56ZM1.14981 1062.52L0.149999 1062.54L1.14981 1062.52ZM0.192513 1044.68L1.18866 1044.59L0.192513 1044.68ZM1.4864 919.8L0.487103 919.763L1.4864 919.8ZM2.51423 884.12L1.51456 884.094L2.51423 884.12ZM-0.0289647 812.76L-1.02752 812.814L-0.0289647 812.76ZM-0.199081 794.92L-1.19848 794.885L-0.199081 794.92ZM1.69963 741.4L0.700284 741.364L1.69963 741.4ZM1.40497 723.56L0.40736 723.629L1.40497 723.56ZM-1.91418 670.04L-2.91268 670.095L-1.91418 670.04ZM-2.20402 634.36L-3.20399 634.352L-2.20402 634.36ZM0.274189 545.16L-0.724363 545.106L0.274189 545.16ZM2.15663 473.8L1.15989 473.881L2.15663 473.8ZM-0.390726 348.92L-1.38411 349.035L-0.390726 348.92ZM-2.20428 313.24L-3.20385 313.269L-2.20428 313.24ZM1.48543 277.56L0.496156 277.414L1.48543 277.56ZM-0.969738 152.68L-1.96859 152.728L-0.969738 152.68ZM0.0400927 81.32L-0.955365 81.4152L0.0400927 81.32ZM0.313594 14.16L-0.68592 14.1289L0.313594 14.16ZM17.84 -1.14128L17.9038 -0.143321L26.8238 -0.713961L26.76 -1.71192L26.6962 -2.70988L17.7762 -2.13924L17.84 -1.14128ZM26.76 -1.71192L26.8238 -0.713961C32.7497 -1.09306 38.6754 -1.28604 44.6012 -1.29291L44.6 -2.29291L44.5988 -3.29291C38.6312 -3.28599 32.6637 -3.09164 26.6962 -2.70988L26.76 -1.71192ZM44.6 -2.29291L44.6012 -1.29291L53.5212 -1.30326L53.52 -2.30326L53.5188 -3.30326L44.5988 -3.29291L44.6 -2.29291ZM53.52 -2.30326L53.5212 -1.30326L62.4412 -1.31362L62.44 -2.31362L62.4388 -3.31361L53.5188 -3.30326L53.52 -2.30326ZM62.44 -2.31362L62.4412 -1.31362C68.3463 -1.32047 74.2518 -0.960773 80.1579 -0.234402L80.28 -1.22692L80.4021 -2.21945C74.4148 -2.9558 68.427 -3.32056 62.4388 -3.31361L62.44 -2.31362ZM80.28 -1.22692L80.1579 -0.234402L89.0779 0.862641L89.2 -0.129881L89.3221 -1.1224L80.4021 -2.21945L80.28 -1.22692ZM89.2 -0.129881L89.0779 0.862641L97.9979 1.95968L98.12 0.967162L98.2421 -0.0253598L89.3221 -1.1224L89.2 -0.129881ZM98.12 0.967162L97.9979 1.95968C103.997 2.69743 109.996 2.95974 115.996 2.74641L115.96 1.74704L115.924 0.747676C110.031 0.957232 104.137 0.699618 98.2421 -0.0253598L98.12 0.967162ZM115.96 1.74704L115.996 2.74641L124.916 2.42925L124.88 1.42988L124.844 0.430516L115.924 0.747676L115.96 1.74704ZM124.88 1.42988L124.916 2.42925L133.836 2.11209L133.8 1.11272L133.764 0.113356L124.844 0.430516L124.88 1.42988ZM133.8 1.11272L133.836 2.11209C139.752 1.90173 145.668 1.96043 151.585 2.28819L151.64 1.28972L151.695 0.291252C145.718 -0.0398603 139.741 -0.0991618 133.764 0.113356L133.8 1.11272ZM151.64 1.28972L151.585 2.28819L160.505 2.78235L160.56 1.78388L160.615 0.785409L151.695 0.291252L151.64 1.28972ZM160.56 1.78388L160.505 2.78235L169.425 3.2765L169.48 2.27803L169.535 1.27957L160.615 0.785409L160.56 1.78388ZM169.48 2.27803L169.425 3.2765C175.418 3.6085 181.41 3.52499 187.403 3.02602L187.32 2.02947L187.237 1.03292C181.336 1.52424 175.436 1.60645 169.535 1.27957L169.48 2.27803ZM187.32 2.02947L187.403 3.02602L196.323 2.28329L196.24 1.28674L196.157 0.290191L187.237 1.03292L187.32 2.02947ZM196.24 1.28674L196.323 2.28329L205.243 1.54057L205.16 0.544018L205.077 -0.452533L196.157 0.290191L196.24 1.28674ZM205.16 0.544018L205.243 1.54057C211.166 1.04741 217.088 0.768193 223.011 0.70291L223 -0.297029L222.989 -1.29697C217.018 -1.23115 211.048 -0.949669 205.077 -0.452533L205.16 0.544018ZM223 -0.297029L223.011 0.70291L231.931 0.604588L231.92 -0.395352L231.909 -1.39529L222.989 -1.29697L223 -0.297029ZM231.92 -0.395352L231.931 0.604588L240.851 0.506265L240.84 -0.493674L240.829 -1.49361L231.909 -1.39529L231.92 -0.395352ZM240.84 -0.493674L240.851 0.506265C246.763 0.4411 252.675 0.683641 258.587 1.23394L258.68 0.238245L258.773 -0.757451C252.792 -1.31414 246.81 -1.55955 240.829 -1.49361L240.84 -0.493674ZM258.68 0.238245L258.587 1.23394L267.507 2.06418L267.6 1.06849L267.693 0.0727912L258.773 -0.757451L258.68 0.238245ZM267.6 1.06849L267.507 2.06418L276.427 2.89443L276.52 1.89873L276.613 0.903033L267.693 0.0727912L267.6 1.06849ZM276.52 1.89873L276.427 2.89443C282.456 3.4556 288.486 3.26976 294.513 2.33742L294.36 1.34917L294.207 0.360927C288.341 1.26832 282.477 1.44885 276.613 0.903033L276.52 1.89873ZM294.36 1.34917L294.513 2.33742L303.433 0.957623L303.28 -0.030624L303.127 -1.01887L294.207 0.360927L294.36 1.34917ZM303.28 -0.030624L303.433 0.957623L312.353 -0.422175L312.2 -1.41042L312.047 -2.39867L303.127 -1.01887L303.28 -0.030624ZM312.2 -1.41042L312.353 -0.422175C318.204 -1.32727 324.053 -1.37737 329.904 -0.572709L330.04 -1.56338L330.176 -2.55406C324.133 -3.38518 318.089 -3.33331 312.047 -2.39867L312.2 -1.41042ZM330.04 -1.56338L329.904 -0.572709L338.824 0.654127L338.96 -0.336546L339.096 -1.32722L330.176 -2.55406L330.04 -1.56338ZM338.96 -0.336546L338.824 0.654127L347.744 1.88096L347.88 0.89029L348.016 -0.100383L339.096 -1.32722L338.96 -0.336546ZM347.88 0.89029L347.744 1.88096C353.772 2.71014 359.802 2.78518 365.832 2.10586L365.72 1.11215L365.608 0.118434C359.744 0.779092 353.881 0.706225 348.016 -0.100383L347.88 0.89029ZM365.72 1.11215L365.832 2.10586L374.752 1.10088L374.64 0.107168L374.528 -0.886545L365.608 0.118434L365.72 1.11215ZM374.64 0.107168L374.752 1.10088L383.672 0.0959007L383.56 -0.897812L383.448 -1.89153L374.528 -0.886545L374.64 0.107168ZM383.56 -0.897812L383.672 0.0959007C389.548 -0.56609 395.423 -0.596084 401.298 0.00586219L401.4 -0.988931L401.502 -1.98372C395.484 -2.60026 389.466 -2.56951 383.448 -1.89153L383.56 -0.897812ZM401.4 -0.988931L401.298 0.00586219L410.218 0.919724L410.32 -0.0750692L410.422 -1.06986L401.502 -1.98372L401.4 -0.988931ZM410.32 -0.0750692L410.218 0.919724L419.138 1.83359L419.24 0.838792L419.342 -0.156001L410.422 -1.06986L410.32 -0.0750692ZM419.24 0.838792L419.138 1.83359C425.117 2.44618 431.097 2.76127 437.077 2.77881L437.08 1.77882L437.083 0.77882C431.169 0.761476 425.256 0.449888 419.342 -0.156001L419.24 0.838792ZM437.08 1.77882L437.077 2.77881L445.997 2.80497L446 1.80498L446.003 0.804982L437.083 0.77882L437.08 1.77882ZM446 1.80498L445.997 2.80497L454.917 2.83114L454.92 1.83114L454.923 0.831144L446.003 0.804982L446 1.80498ZM454.92 1.83114L454.917 2.83114C460.892 2.84866 466.866 2.61483 472.841 2.12968L472.76 1.13296L472.679 0.136242C466.76 0.616878 460.842 0.848503 454.923 0.831144L454.92 1.83114ZM472.76 1.13296L472.841 2.12968L481.761 1.40534L481.68 0.408622L481.599 -0.588098L472.679 0.136242L472.76 1.13296ZM481.68 0.408622L481.761 1.40534L490.681 0.681001L490.6 -0.315718L490.519 -1.31244L481.599 -0.588098L481.68 0.408622ZM490.6 -0.315718L490.681 0.681001C496.564 0.203258 502.447 0.28698 508.331 0.932276L508.44 -0.061763L508.549 -1.0558C502.539 -1.7149 496.529 -1.80048 490.519 -1.31244L490.6 -0.315718ZM508.44 -0.061763L508.331 0.932276L517.251 1.91057L517.36 0.916532L517.469 -0.0775072L508.549 -1.0558L508.44 -0.061763ZM517.36 0.916532L517.251 1.91057L526.171 2.88887L526.28 1.89483L526.389 0.900788L517.469 -0.0775072L517.36 0.916532ZM526.28 1.89483L526.171 2.88887C532.162 3.54593 538.154 3.79839 544.145 3.64613L544.12 2.64645L544.095 1.64677C538.193 1.79674 532.291 1.54812 526.389 0.900788L526.28 1.89483ZM544.12 2.64645L544.145 3.64613L553.065 3.41945L553.04 2.41978L553.015 1.4201L544.095 1.64677L544.12 2.64645ZM553.04 2.41978L553.065 3.41945L561.985 3.19278L561.96 2.1931L561.935 1.19343L553.015 1.4201L553.04 2.41978ZM561.96 2.1931L561.985 3.19278C567.955 3.04109 573.924 2.6878 579.893 2.13291L579.8 1.13721L579.707 0.1415C573.783 0.692248 567.859 1.04288 561.935 1.19343L561.96 2.1931ZM579.8 1.13721L579.893 2.13291L588.813 1.30369L588.72 0.307983L588.627 -0.687724L579.707 0.1415L579.8 1.13721ZM588.72 0.307983L588.813 1.30369L597.733 0.474466L597.64 -0.521241L597.547 -1.51695L588.627 -0.687724L588.72 0.307983ZM597.64 -0.521241L597.733 0.474466C603.66 -0.0765617 609.587 -0.454377 615.514 -0.658994L615.48 -1.6584L615.445 -2.6578C609.479 -2.45184 603.513 -2.07155 597.547 -1.51695L597.64 -0.521241ZM615.48 -1.6584L615.514 -0.658994L624.435 -0.966927L624.4 -1.96633L624.365 -2.96574L615.445 -2.6578L615.48 -1.6584ZM624.4 -1.96633L624.435 -0.966927L633.354 -1.27486L633.32 -2.27427L633.286 -3.27367L624.365 -2.96574L624.4 -1.96633ZM633.32 -2.27427L633.354 -1.27486C639.248 -1.47832 645.142 -1.21412 651.037 -0.482073L651.16 -1.47445L651.283 -2.46683C645.285 -3.21178 639.285 -3.48079 633.286 -3.27367L633.32 -2.27427ZM651.16 -1.47445L651.037 -0.482073L659.957 0.625675L660.08 -0.366701L660.203 -1.35908L651.283 -2.46683L651.16 -1.47445ZM660.08 -0.366701L659.957 0.625675L668.877 1.73342L669 0.741047L669.123 -0.25133L660.203 -1.35908L660.08 -0.366701ZM669 0.741047L668.877 1.73342C674.88 2.47889 680.883 2.71013 686.887 2.42692L686.84 1.42803L686.793 0.429142C680.903 0.706951 675.014 0.480199 669.123 -0.25133L669 0.741047ZM686.84 1.42803L686.887 2.42692L695.807 2.00616L695.76 1.00727L695.713 0.0083769L686.793 0.429142L686.84 1.42803ZM695.76 1.00727L695.807 2.00616L704.727 1.58539L704.68 0.586501L704.633 -0.412388L695.713 0.0083769L695.76 1.00727ZM704.68 0.586501L704.727 1.58539C710.679 1.30463 716.631 0.976128 722.583 0.599888L722.52 -0.39812L722.457 -1.39613C716.516 -1.02056 710.574 -0.692646 704.633 -0.412388L704.68 0.586501ZM722.52 -0.39812L722.583 0.599888L731.503 0.0360308L731.44 -0.961977L731.377 -1.95999L722.457 -1.39613L722.52 -0.39812ZM731.44 -0.961977L731.503 0.0360308L740.423 -0.527826L740.36 -1.52583L740.297 -2.52384L731.377 -1.95999L731.44 -0.961977ZM740.36 -1.52583L740.423 -0.527826C746.344 -0.902118 752.265 -1.04873 758.186 -0.967677L758.2 -1.96758L758.214 -2.96749C752.241 -3.04925 746.269 -2.90136 740.297 -2.52384L740.36 -1.52583ZM758.2 -1.96758L758.186 -0.967677L767.106 -0.845569L767.12 -1.84548L767.134 -2.84538L758.214 -2.96749L758.2 -1.96758ZM767.12 -1.84548L767.106 -0.845569L776.026 -0.723462L776.04 -1.72337L776.054 -2.72327L767.134 -2.84538L767.12 -1.84548ZM776.04 -1.72337L776.026 -0.723462C781.97 -0.642097 787.914 -0.534109 793.857 -0.399496L793.88 -1.39924L793.903 -2.39898C787.953 -2.53373 782.003 -2.64183 776.054 -2.72327L776.04 -1.72337ZM793.88 -1.39924L793.857 -0.399496L802.777 -0.197476L802.8 -1.19722L802.823 -2.19696L793.903 -2.39898L793.88 -1.39924ZM802.8 -1.19722L802.777 -0.197476L811.697 0.00454498L811.72 -0.995199L811.743 -1.99494L802.823 -2.19696L802.8 -1.19722ZM811.72 -0.995199L811.697 0.00454498C817.632 0.138941 823.566 0.38513 829.5 0.743113L829.56 -0.255072L829.62 -1.25326C823.661 -1.61275 817.702 -1.85998 811.743 -1.99494L811.72 -0.995199ZM829.56 -0.255072L829.5 0.743113L838.42 1.28122L838.48 0.283034L838.54 -0.715152L829.62 -1.25326L829.56 -0.255072ZM838.48 0.283034L838.42 1.28122L847.34 1.81932L847.4 0.821139L847.46 -0.177046L838.54 -0.715152L838.48 0.283034ZM847.4 0.821139L847.34 1.81932C853.342 2.1814 859.344 2.04527 865.345 1.41106L865.24 0.416602L865.135 -0.57786C859.243 0.044788 853.352 0.178354 847.46 -0.177046L847.4 0.821139ZM865.24 0.416602L865.345 1.41106L874.265 0.468422L874.16 -0.52604L874.055 -1.5205L865.135 -0.57786L865.24 0.416602ZM874.16 -0.52604L874.265 0.468422L883.185 -0.47422L883.08 -1.46868L882.975 -2.46315L874.055 -1.5205L874.16 -0.52604ZM883.08 -1.46868L883.185 -0.47422C889.089 -1.09808 894.991 -1.33389 900.894 -1.18174L900.92 -2.18141L900.946 -3.18108C894.955 -3.33549 888.965 -3.09614 882.975 -2.46315L883.08 -1.46868ZM900.92 -2.18141L900.894 -1.18174L909.814 -0.951827L909.84 -1.95149L909.866 -2.95116L900.946 -3.18108L900.92 -2.18141ZM909.84 -1.95149L909.814 -0.951827L918.734 -0.721911L918.76 -1.72158L918.786 -2.72125L909.866 -2.95116L909.84 -1.95149ZM918.76 -1.72158L918.734 -0.721911C924.678 -0.568705 930.622 -0.391045 936.566 -0.188931L936.6 -1.18835L936.634 -2.18778C930.685 -2.39008 924.735 -2.5679 918.786 -2.72125L918.76 -1.72158ZM936.6 -1.18835L936.566 -0.188931L945.486 0.11438L945.52 -0.885043L945.554 -1.88446L936.634 -2.18778L936.6 -1.18835ZM945.52 -0.885043L945.486 0.11438L954.406 0.41769L954.44 -0.581732L954.474 -1.58115L945.554 -1.88446L945.52 -0.885043ZM954.44 -0.581732L954.406 0.41769C960.338 0.619386 966.269 0.954993 972.201 1.42452L972.28 0.427633L972.359 -0.569249C966.397 -1.04113 960.436 -1.37844 954.474 -1.58115L954.44 -0.581732ZM972.28 0.427633L972.201 1.42452L981.121 2.13057L981.2 1.13369L981.279 0.136806L972.359 -0.569249L972.28 0.427633ZM981.2 1.13369L981.121 2.13057L990.041 2.83662L990.12 1.83974L990.199 0.842861L981.279 0.136806L981.2 1.13369ZM990.12 1.83974L990.041 2.83662C996.021 3.30998 1002 3.48066 1007.98 3.34864L1007.96 2.34888L1007.94 1.34912C1002.03 1.47966 996.112 1.31091 990.199 0.842861L990.12 1.83974ZM1007.96 2.34888L1007.98 3.34864L1016.9 3.15172L1016.88 2.15196L1016.86 1.15221L1007.94 1.34912L1007.96 2.34888ZM1016.88 2.15196L1016.9 3.15172L1025.82 2.9548L1025.8 1.95504L1025.78 0.955287L1016.86 1.15221L1016.88 2.15196ZM1025.8 1.95504L1025.82 2.9548C1031.8 2.82282 1037.78 2.40801 1043.76 1.71041L1043.64 0.717152L1043.52 -0.276107C1037.61 0.414263 1031.69 0.824706 1025.78 0.955287L1025.8 1.95504ZM1043.64 0.717152L1043.76 1.71041L1052.68 0.669438L1052.56 -0.323821L1052.44 -1.31708L1043.52 -0.276107L1043.64 0.717152ZM1052.56 -0.323821L1052.68 0.669438L1061.6 -0.371536L1061.48 -1.36479L1061.36 -2.35805L1052.44 -1.31708L1052.56 -0.323821ZM1061.48 -1.36479L1061.6 -0.371536C1067.47 -1.05683 1073.34 -1.07913 1079.21 -0.438498L1079.32 -1.4326L1079.43 -2.4267C1073.41 -3.08362 1067.39 -3.06073 1061.36 -2.35805L1061.48 -1.36479ZM1079.32 -1.4326L1079.21 -0.438498L1088.13 0.53467L1088.24 -0.459431L1088.35 -1.45353L1079.43 -2.4267L1079.32 -1.4326ZM1088.24 -0.459431L1088.13 0.53467L1097.05 1.50784L1097.16 0.513738L1097.27 -0.480364L1088.35 -1.45353L1088.24 -0.459431ZM1097.16 0.513738L1097.05 1.50784C1103.06 2.16329 1109.07 2.26127 1115.08 1.80167L1115 0.804582L1114.92 -0.192505C1109.04 0.257657 1103.15 0.161742 1097.27 -0.480364L1097.16 0.513738ZM1115 0.804582L1115.08 1.80167L1124 1.11935L1123.92 0.122259L1123.84 -0.874829L1114.92 -0.192505L1115 0.804582ZM1123.92 0.122259L1124 1.11935L1132.92 0.437022L1132.84 -0.560065L1132.76 -1.55715L1123.84 -0.874829L1123.92 0.122259ZM1132.84 -0.560065L1132.92 0.437022C1138.8 -0.0130436 1144.68 0.0937864 1150.57 0.757649L1150.68 -0.236047L1150.79 -1.22974C1144.78 -1.90767 1138.77 -2.01685 1132.76 -1.55715L1132.84 -0.560065ZM1150.68 -0.236047L1150.57 0.757649L1159.49 1.76399L1159.6 0.770294L1159.71 -0.223402L1150.79 -1.22974L1150.68 -0.236047ZM1159.6 0.770294L1159.49 1.76399L1168.41 2.77033L1168.52 1.77664L1168.63 0.78294L1159.71 -0.223402L1159.6 0.770294ZM1168.52 1.77664L1168.41 2.77033C1174.38 3.44435 1179.92 3.81057 1185.01 3.86717L1185.03 2.86724L1185.04 1.8673C1180.02 1.81156 1174.55 1.45071 1168.63 0.78294L1168.52 1.77664ZM1185.03 2.86724L1185.01 3.86717L1192.6 3.95143L1192.61 2.95149L1192.62 1.95156L1185.04 1.8673L1185.03 2.86724ZM1192.61 2.95149L1192.6 3.95143L1200.18 4.03569L1200.2 3.03575L1200.21 2.03581L1192.62 1.95156L1192.61 2.95149ZM1200.2 3.03575L1200.18 4.03569C1202.51 4.06151 1204.14 4.75528 1205.25 5.99412C1206.37 7.25906 1207.08 9.23788 1207.22 12.0888L1208.22 12.04L1209.22 11.9912C1209.06 8.89548 1208.29 6.40025 1206.74 4.66378C1205.17 2.9012 1202.94 2.06616 1200.21 2.03581L1200.2 3.03575ZM1208.22 12.04L1207.22 12.0888L1207.65 21.0088L1208.65 20.96L1209.65 20.9112L1209.22 11.9912L1208.22 12.04ZM1208.65 20.96L1207.65 21.0088L1208.09 29.9288L1209.09 29.88L1210.09 29.8312L1209.65 20.9112L1208.65 20.96ZM1209.09 29.88L1208.09 29.9288C1208.38 35.8506 1208.45 41.7723 1208.29 47.694L1209.29 47.72L1210.29 47.746C1210.45 41.7744 1210.38 35.8028 1210.09 29.8312L1209.09 29.88ZM1209.29 47.72L1208.29 47.694L1208.06 56.614L1209.06 56.64L1210.06 56.666L1210.29 47.746L1209.29 47.72ZM1209.06 56.64L1208.06 56.614L1207.83 65.534L1208.83 65.56L1209.83 65.586L1210.06 56.666L1209.06 56.64ZM1208.83 65.56L1207.83 65.534C1207.67 71.5285 1207.95 77.5228 1208.65 83.5163L1209.64 83.4L1210.64 83.2837C1209.94 77.3839 1209.68 71.4848 1209.83 65.586L1208.83 65.56ZM1209.64 83.4L1208.65 83.5163L1209.69 92.4363L1210.69 92.32L1211.68 92.2037L1210.64 83.2837L1209.64 83.4ZM1210.69 92.32L1209.69 92.4363L1210.74 101.356L1211.73 101.24L1212.72 101.124L1211.68 92.2037L1210.69 92.32ZM1211.73 101.24L1210.74 101.356C1211.43 107.234 1211.5 113.111 1210.96 118.988L1211.96 119.08L1212.95 119.172C1213.51 113.156 1213.43 107.139 1212.72 101.124L1211.73 101.24ZM1211.96 119.08L1210.96 118.988L1210.14 127.908L1211.14 128L1212.13 128.092L1212.95 119.172L1211.96 119.08ZM1211.14 128L1210.14 127.908L1209.32 136.828L1210.31 136.92L1211.31 137.012L1212.13 128.092L1211.14 128ZM1210.31 136.92L1209.32 136.828C1208.77 142.832 1208.73 148.835 1209.2 154.839L1210.2 154.76L1211.19 154.681C1210.73 148.791 1210.77 142.902 1211.31 137.012L1210.31 136.92ZM1210.2 154.76L1209.2 154.839L1209.91 163.759L1210.9 163.68L1211.9 163.601L1211.19 154.681L1210.2 154.76ZM1210.9 163.68L1209.91 163.759L1210.61 172.679L1211.61 172.6L1212.6 172.521L1211.9 163.601L1210.9 163.68ZM1211.61 172.6L1210.61 172.679C1211.08 178.583 1211.16 184.487 1210.87 190.391L1211.87 190.44L1212.87 190.489C1213.17 184.5 1213.08 178.51 1212.6 172.521L1211.61 172.6ZM1211.87 190.44L1210.87 190.391L1210.43 199.311L1211.43 199.36L1212.43 199.409L1212.87 190.489L1211.87 190.44ZM1211.43 199.36L1210.43 199.311L1209.99 208.231L1210.99 208.28L1211.99 208.329L1212.43 199.409L1211.43 199.36ZM1210.99 208.28L1209.99 208.231C1209.7 214.2 1209.61 220.169 1209.72 226.139L1210.72 226.12L1211.72 226.101C1211.61 220.177 1211.7 214.253 1211.99 208.329L1210.99 208.28ZM1210.72 226.12L1209.72 226.139L1209.89 235.059L1210.89 235.04L1211.89 235.021L1211.72 226.101L1210.72 226.12ZM1210.89 235.04L1209.89 235.059L1210.05 243.979L1211.05 243.96L1212.05 243.941L1211.89 235.021L1210.89 235.04ZM1211.05 243.96L1210.05 243.979C1210.17 249.903 1210.07 255.827 1209.78 261.751L1210.78 261.8L1211.78 261.849C1212.07 255.88 1212.17 249.911 1212.05 243.941L1211.05 243.96ZM1210.78 261.8L1209.78 261.751L1209.34 270.671L1210.34 270.72L1211.34 270.769L1211.78 261.849L1210.78 261.8ZM1210.34 270.72L1209.34 270.671L1208.9 279.591L1209.9 279.64L1210.9 279.689L1211.34 270.769L1210.34 270.72ZM1209.9 279.64L1208.9 279.591C1208.61 285.571 1208.62 291.552 1208.93 297.532L1209.93 297.48L1210.93 297.428C1210.62 291.515 1210.61 285.602 1210.9 279.689L1209.9 279.64ZM1209.93 297.48L1208.93 297.532L1209.4 306.452L1210.4 306.4L1211.39 306.348L1210.93 297.428L1209.93 297.48ZM1210.4 306.4L1209.4 306.452L1209.86 315.372L1210.86 315.32L1211.86 315.268L1211.39 306.348L1210.4 306.4ZM1210.86 315.32L1209.86 315.372C1210.17 321.308 1210.38 327.243 1210.49 333.178L1211.49 333.16L1212.49 333.142C1212.38 327.184 1212.17 321.226 1211.86 315.268L1210.86 315.32ZM1211.49 333.16L1210.49 333.178L1210.65 342.098L1211.65 342.08L1212.65 342.062L1212.49 333.142L1211.49 333.16ZM1211.65 342.08L1210.65 342.098L1210.81 351.018L1211.81 351L1212.81 350.982L1212.65 342.062L1211.65 342.08ZM1211.81 351L1210.81 351.018C1210.92 356.942 1210.82 362.865 1210.52 368.789L1211.51 368.84L1212.51 368.891C1212.82 362.922 1212.92 356.952 1212.81 350.982L1211.81 351ZM1211.51 368.84L1210.52 368.789L1210.06 377.709L1211.06 377.76L1212.05 377.811L1212.51 368.891L1211.51 368.84ZM1211.06 377.76L1210.06 377.709L1209.6 386.629L1210.6 386.68L1211.6 386.731L1212.05 377.811L1211.06 377.76ZM1210.6 386.68L1209.6 386.629C1209.29 392.601 1209.22 398.574 1209.37 404.546L1210.37 404.52L1211.37 404.494C1211.22 398.573 1211.29 392.652 1211.6 386.731L1210.6 386.68ZM1210.37 404.52L1209.37 404.546L1209.61 413.466L1210.61 413.44L1211.61 413.414L1211.37 404.494L1210.37 404.52ZM1210.61 413.44L1209.61 413.466L1209.85 422.386L1210.85 422.36L1211.85 422.334L1211.61 413.414L1210.61 413.44ZM1210.85 422.36L1209.85 422.386C1210 428.308 1209.93 434.229 1209.64 440.15L1210.64 440.2L1211.63 440.25C1211.93 434.278 1212 428.306 1211.85 422.334L1210.85 422.36ZM1210.64 440.2L1209.64 440.15L1209.19 449.07L1210.19 449.12L1211.19 449.17L1211.63 440.25L1210.64 440.2ZM1210.19 449.12L1209.19 449.07L1208.75 457.99L1209.75 458.04L1210.74 458.09L1211.19 449.17L1210.19 449.12ZM1209.75 458.04L1208.75 457.99C1208.45 463.985 1208.58 469.979 1209.14 475.974L1210.14 475.88L1211.13 475.787C1210.58 469.887 1210.45 463.989 1210.74 458.09L1209.75 458.04ZM1210.14 475.88L1209.14 475.974L1209.98 484.893L1210.98 484.8L1211.97 484.707L1211.13 475.787L1210.14 475.88ZM1210.98 484.8L1209.98 484.893L1210.82 493.813L1211.81 493.72L1212.81 493.627L1211.97 484.707L1210.98 484.8ZM1211.81 493.72L1210.82 493.813C1211.37 499.696 1211.35 505.578 1210.76 511.46L1211.75 511.56L1212.75 511.66C1213.35 505.649 1213.37 499.638 1212.81 493.627L1211.81 493.72ZM1211.75 511.56L1210.76 511.46L1209.86 520.38L1210.86 520.48L1211.85 520.58L1212.75 511.66L1211.75 511.56ZM1210.86 520.48L1209.86 520.38L1208.96 529.3L1209.96 529.4L1210.95 529.5L1211.85 520.58L1210.86 520.48ZM1209.96 529.4L1208.96 529.3C1208.36 535.312 1208.35 541.325 1208.94 547.338L1209.94 547.24L1210.93 547.142C1210.35 541.262 1210.36 535.381 1210.95 529.5L1209.96 529.4ZM1209.94 547.24L1208.94 547.338L1209.81 556.258L1210.81 556.16L1211.81 556.062L1210.93 547.142L1209.94 547.24ZM1210.81 556.16L1209.81 556.258L1210.69 565.178L1211.68 565.08L1212.68 564.982L1211.81 556.062L1210.81 556.16ZM1211.68 565.08L1210.69 565.178C1211.27 571.095 1211.58 577.011 1211.63 582.928L1212.63 582.92L1213.63 582.912C1213.58 576.935 1213.27 570.959 1212.68 564.982L1211.68 565.08ZM1212.63 582.92L1211.63 582.928L1211.7 591.848L1212.7 591.84L1213.7 591.832L1213.63 582.912L1212.63 582.92ZM1212.7 591.84L1211.7 591.848L1211.77 600.768L1212.77 600.76L1213.77 600.752L1213.7 591.832L1212.7 591.84ZM1212.77 600.76L1211.77 600.768C1211.82 606.707 1211.8 612.646 1211.72 618.586L1212.72 618.6L1213.72 618.614C1213.8 612.66 1213.82 606.706 1213.77 600.752L1212.77 600.76ZM1212.72 618.6L1211.72 618.586L1211.59 627.506L1212.59 627.52L1213.59 627.534L1213.72 618.614L1212.72 618.6ZM1212.59 627.52L1211.59 627.506L1211.46 636.426L1212.46 636.44L1213.46 636.454L1213.59 627.534L1212.59 627.52ZM1212.46 636.44L1211.46 636.426C1211.37 642.374 1211.3 648.322 1211.24 654.27L1212.24 654.28L1213.24 654.29C1213.3 648.345 1213.37 642.4 1213.46 636.454L1212.46 636.44ZM1212.24 654.28L1211.24 654.27L1211.15 663.19L1212.15 663.2L1213.15 663.21L1213.24 654.29L1212.24 654.28ZM1212.15 663.2L1211.15 663.19L1211.06 672.11L1212.06 672.12L1213.06 672.13L1213.15 663.21L1212.15 663.2ZM1212.06 672.12L1211.06 672.11C1211 678.055 1210.92 683.999 1210.82 689.944L1211.82 689.96L1212.82 689.976C1212.92 684.028 1213 678.079 1213.06 672.13L1212.06 672.12ZM1211.82 689.96L1210.82 689.944L1210.68 698.864L1211.68 698.88L1212.68 698.896L1212.82 689.976L1211.82 689.96ZM1211.68 698.88L1210.68 698.864L1210.53 707.784L1211.53 707.8L1212.53 707.816L1212.68 698.896L1211.68 698.88ZM1211.53 707.8L1210.53 707.784C1210.44 713.731 1210.35 719.679 1210.27 725.627L1211.27 725.64L1212.27 725.654C1212.35 719.708 1212.44 713.762 1212.53 707.816L1211.53 707.8ZM1211.27 725.64L1210.27 725.627L1210.15 734.547L1211.15 734.56L1212.15 734.574L1212.27 725.654L1211.27 725.64ZM1211.15 734.56L1210.15 734.547L1210.03 743.467L1211.03 743.48L1212.03 743.494L1212.15 734.574L1211.15 734.56ZM1211.03 743.48L1210.03 743.467C1209.95 749.431 1210.02 755.395 1210.25 761.359L1211.25 761.32L1212.25 761.282C1212.02 755.352 1211.95 749.423 1212.03 743.494L1211.03 743.48ZM1211.25 761.32L1210.25 761.359L1210.59 770.279L1211.59 770.24L1212.59 770.202L1212.25 761.282L1211.25 761.32ZM1211.59 770.24L1210.59 770.279L1210.94 779.198L1211.94 779.16L1212.94 779.122L1212.59 770.202L1211.59 770.24ZM1211.94 779.16L1210.94 779.198C1211.17 785.109 1211.07 791.02 1210.67 796.931L1211.66 797L1212.66 797.069C1213.07 791.087 1213.17 785.104 1212.94 779.122L1211.94 779.16ZM1211.66 797L1210.67 796.931L1210.05 805.851L1211.04 805.92L1212.04 805.989L1212.66 797.069L1211.66 797ZM1211.04 805.92L1210.05 805.851L1209.43 814.771L1210.43 814.84L1211.42 814.909L1212.04 805.989L1211.04 805.92ZM1210.43 814.84L1209.43 814.771C1209.02 820.75 1208.9 826.73 1209.07 832.71L1210.07 832.68L1211.07 832.65C1210.9 826.737 1211.02 820.823 1211.42 814.909L1210.43 814.84ZM1210.07 832.68L1209.07 832.71L1209.34 841.63L1210.34 841.6L1211.34 841.57L1211.07 832.65L1210.07 832.68ZM1210.34 841.6L1209.34 841.63L1209.6 850.55L1210.6 850.52L1211.6 850.49L1211.34 841.57L1210.34 841.6ZM1210.6 850.52L1209.6 850.55C1209.78 856.476 1209.77 862.402 1209.59 868.328L1210.59 868.36L1211.58 868.392C1211.77 862.425 1211.78 856.457 1211.6 850.49L1210.6 850.52ZM1210.59 868.36L1209.59 868.328L1209.3 877.248L1210.3 877.28L1211.3 877.312L1211.58 868.392L1210.59 868.36ZM1210.3 877.28L1209.3 877.248L1209.02 886.168L1210.02 886.2L1211.02 886.232L1211.3 877.312L1210.3 877.28ZM1210.02 886.2L1209.02 886.168C1208.83 892.13 1208.78 898.092 1208.86 904.054L1209.86 904.04L1210.86 904.026C1210.78 898.095 1210.83 892.163 1211.02 886.232L1210.02 886.2ZM1209.86 904.04L1208.86 904.054L1208.98 912.974L1209.98 912.96L1210.98 912.946L1210.86 904.026L1209.86 904.04ZM1209.98 912.96L1208.98 912.974L1209.11 921.894L1210.11 921.88L1211.11 921.866L1210.98 912.946L1209.98 912.96ZM1210.11 921.88L1209.11 921.894C1209.19 927.829 1209.17 933.764 1209.05 939.7L1210.05 939.72L1211.05 939.74C1211.17 933.782 1211.19 927.824 1211.11 921.866L1210.11 921.88ZM1210.05 939.72L1209.05 939.7L1208.87 948.62L1209.87 948.64L1210.87 948.661L1211.05 939.74L1210.05 939.72ZM1209.87 948.64L1208.87 948.62L1208.69 957.54L1209.69 957.56L1210.69 957.581L1210.87 948.661L1209.87 948.64ZM1209.69 957.56L1208.69 957.54C1208.56 963.512 1208.67 969.484 1209 975.455L1210 975.4L1211 975.345C1210.67 969.423 1210.56 963.502 1210.69 957.581L1209.69 957.56ZM1210 975.4L1209 975.455L1209.49 984.375L1210.49 984.32L1211.49 984.265L1211 975.345L1210 975.4ZM1210.49 984.32L1209.49 984.375L1209.99 993.295L1210.99 993.24L1211.99 993.185L1211.49 984.265L1210.49 984.32ZM1210.99 993.24L1209.99 993.295C1210.32 999.211 1210.37 1005.13 1210.16 1011.04L1211.16 1011.08L1212.16 1011.12C1212.38 1005.14 1212.32 999.162 1211.99 993.185L1210.99 993.24ZM1211.16 1011.08L1210.16 1011.04L1209.83 1019.96L1210.83 1020L1211.83 1020.04L1212.16 1011.12L1211.16 1011.08ZM1210.83 1020L1209.83 1019.96L1209.51 1028.88L1210.51 1028.92L1211.5 1028.96L1211.83 1020.04L1210.83 1020ZM1210.51 1028.92L1209.51 1028.88C1209.29 1034.82 1209 1040.76 1208.65 1046.7L1209.65 1046.76L1210.64 1046.82C1211 1040.87 1211.29 1034.91 1211.5 1028.96L1210.51 1028.92ZM1209.65 1046.76L1208.65 1046.7L1208.11 1055.62L1209.11 1055.68L1210.11 1055.74L1210.64 1046.82L1209.65 1046.76ZM1209.11 1055.68L1208.11 1055.62L1207.58 1064.54L1208.58 1064.6L1209.58 1064.66L1210.11 1055.74L1209.11 1055.68ZM1208.58 1064.6L1207.58 1064.54C1207.22 1070.52 1207.18 1076.5 1207.46 1082.49L1208.46 1082.44L1209.45 1082.39C1209.18 1076.48 1209.22 1070.57 1209.58 1064.66L1208.58 1064.6ZM1208.46 1082.44L1207.46 1082.49L1207.87 1091.41L1208.87 1091.36L1209.86 1091.31L1209.45 1082.39L1208.46 1082.44ZM1208.87 1091.36L1207.87 1091.41L1208.28 1100.33L1209.27 1100.28L1210.27 1100.23L1209.86 1091.31L1208.87 1091.36ZM1209.27 1100.28L1208.28 1100.33C1208.55 1106.23 1208.48 1112.14 1208.07 1118.05L1209.06 1118.12L1210.06 1118.19C1210.48 1112.2 1210.55 1106.22 1210.27 1100.23L1209.27 1100.28ZM1209.06 1118.12L1208.07 1118.05L1207.45 1126.97L1208.44 1127.04L1209.44 1127.11L1210.06 1118.19L1209.06 1118.12ZM1208.44 1127.04L1207.45 1126.97L1206.83 1135.89L1207.82 1135.96L1208.82 1136.03L1209.44 1127.11L1208.44 1127.04ZM1207.82 1135.96L1206.83 1135.89C1206.41 1141.87 1206.28 1147.85 1206.43 1153.83L1207.43 1153.8L1208.43 1153.77C1208.28 1147.86 1208.41 1141.94 1208.82 1136.03L1207.82 1135.96ZM1207.43 1153.8L1206.43 1153.83L1206.65 1162.75L1207.65 1162.72L1208.65 1162.69L1208.43 1153.77L1207.43 1153.8ZM1207.65 1162.72L1206.65 1162.75L1206.88 1171.67L1207.88 1171.64L1208.88 1171.61L1208.65 1162.69L1207.65 1162.72ZM1207.88 1171.64L1206.88 1171.67C1207.03 1177.61 1207.12 1183.55 1207.17 1189.49L1208.17 1189.48L1209.17 1189.47C1209.12 1183.52 1209.03 1177.57 1208.88 1171.61L1207.88 1171.64ZM1208.17 1189.48L1207.17 1189.49L1207.23 1198.41L1208.23 1198.4L1209.23 1198.39L1209.17 1189.47L1208.17 1189.48ZM1208.23 1198.4L1207.23 1198.41L1207.29 1207.33L1208.29 1207.32L1209.29 1207.31L1209.23 1198.39L1208.23 1198.4ZM1208.29 1207.32L1207.29 1207.33C1207.34 1213.27 1207.33 1219.21 1207.29 1225.15L1208.29 1225.16L1209.29 1225.17C1209.33 1219.22 1209.34 1213.26 1209.29 1207.31L1208.29 1207.32ZM1208.29 1225.16L1207.29 1225.15L1207.23 1234.07L1208.23 1234.08L1209.23 1234.09L1209.29 1225.17L1208.29 1225.16ZM1208.23 1234.08L1207.23 1234.07L1207.16 1242.99L1208.16 1243L1209.16 1243.01L1209.23 1234.09L1208.23 1234.08ZM1208.16 1243L1207.16 1242.99C1207.12 1248.94 1207.05 1254.88 1206.96 1260.83L1207.96 1260.84L1208.96 1260.85C1209.05 1254.91 1209.12 1248.96 1209.16 1243.01L1208.16 1243ZM1207.96 1260.84L1206.96 1260.83L1206.83 1269.75L1207.83 1269.76L1208.83 1269.77L1208.96 1260.85L1207.96 1260.84ZM1207.83 1269.76L1206.83 1269.75L1206.7 1278.67L1207.7 1278.68L1208.7 1278.69L1208.83 1269.77L1207.83 1269.76ZM1207.7 1278.68L1206.7 1278.67C1206.61 1284.66 1206.92 1290.65 1207.62 1296.64L1208.61 1296.52L1209.61 1296.4C1208.91 1290.5 1208.61 1284.6 1208.7 1278.69L1207.7 1278.68ZM1208.61 1296.52L1207.62 1296.64L1208.67 1305.56L1209.66 1305.44L1210.65 1305.32L1209.61 1296.4L1208.61 1296.52ZM1209.66 1305.44L1208.67 1305.56L1209.71 1314.48L1210.71 1314.36L1211.7 1314.24L1210.65 1305.32L1209.66 1305.44ZM1210.71 1314.36L1209.71 1314.48C1210.4 1320.35 1210.45 1326.22 1209.85 1332.1L1210.84 1332.2L1211.83 1332.3C1212.45 1326.28 1212.4 1320.26 1211.7 1314.24L1210.71 1314.36ZM1210.84 1332.2L1209.85 1332.1L1208.93 1341.02L1209.93 1341.12L1210.92 1341.22L1211.83 1332.3L1210.84 1332.2ZM1209.93 1341.12L1208.93 1341.02L1208.02 1349.94L1209.02 1350.04L1210.01 1350.14L1210.92 1341.22L1209.93 1341.12ZM1209.02 1350.04L1208.02 1349.94C1207.41 1355.92 1207.1 1361.9 1207.09 1367.88L1208.09 1367.88L1209.09 1367.88C1209.1 1361.97 1209.41 1356.06 1210.01 1350.14L1209.02 1350.04ZM1208.09 1367.88L1207.09 1367.88L1207.08 1376.8L1208.08 1376.8L1209.08 1376.8L1209.09 1367.88L1208.09 1367.88ZM1208.08 1376.8L1207.08 1376.8L1207.07 1385.72L1208.07 1385.72L1209.07 1385.72L1209.08 1376.8L1208.08 1376.8ZM1208.07 1385.72L1207.07 1385.72C1207.06 1391.67 1207.12 1397.63 1207.26 1403.58L1208.26 1403.56L1209.26 1403.54C1209.12 1397.6 1209.06 1391.66 1209.07 1385.72L1208.07 1385.72ZM1208.26 1403.56L1207.26 1403.58L1207.46 1412.5L1208.46 1412.48L1209.46 1412.46L1209.26 1403.54L1208.26 1403.56ZM1208.46 1412.48L1207.46 1412.5L1207.66 1421.42L1208.66 1421.4L1209.66 1421.38L1209.46 1412.46L1208.46 1412.48ZM1208.66 1421.4L1207.66 1421.42C1207.8 1427.37 1207.96 1433.32 1208.14 1439.27L1209.14 1439.24L1210.14 1439.21C1209.96 1433.27 1209.8 1427.32 1209.66 1421.38L1208.66 1421.4ZM1209.14 1439.24L1208.14 1439.27L1208.41 1448.19L1209.41 1448.16L1210.41 1448.13L1210.14 1439.21L1209.14 1439.24ZM1209.41 1448.16L1208.41 1448.19L1208.68 1457.11L1209.68 1457.08L1210.68 1457.05L1210.41 1448.13L1209.41 1448.16ZM1209.68 1457.08L1208.68 1457.11C1208.86 1463.07 1209.12 1469.02 1209.46 1474.98L1210.46 1474.92L1211.46 1474.86C1211.12 1468.93 1210.86 1462.99 1210.68 1457.05L1209.68 1457.08ZM1210.46 1474.92L1209.46 1474.98L1209.97 1483.9L1210.96 1483.84L1211.96 1483.78L1211.46 1474.86L1210.46 1474.92ZM1210.96 1483.84L1209.97 1483.9L1210.47 1492.82L1211.47 1492.76L1212.47 1492.7L1211.96 1483.78L1210.96 1483.84ZM1211.47 1492.76L1210.47 1492.82C1210.81 1498.75 1211.01 1504.68 1211.06 1510.61L1212.06 1510.6L1213.06 1510.59C1213 1504.63 1212.81 1498.67 1212.47 1492.7L1211.47 1492.76ZM1212.06 1510.6L1211.06 1510.61L1211.14 1519.53L1212.14 1519.52L1213.14 1519.51L1213.06 1510.59L1212.06 1510.6ZM1212.14 1519.52L1211.14 1519.53L1211.22 1528.45L1212.22 1528.44L1213.22 1528.43L1213.14 1519.51L1212.14 1519.52ZM1212.22 1528.44L1211.22 1528.45C1211.27 1534.35 1210.95 1540.26 1210.28 1546.17L1211.27 1546.28L1212.26 1546.39C1212.95 1540.41 1213.27 1534.42 1213.22 1528.43L1212.22 1528.44ZM1211.27 1546.28L1210.28 1546.17L1209.25 1555.09L1210.24 1555.2L1211.24 1555.31L1212.26 1546.39L1211.27 1546.28ZM1210.24 1555.2L1209.25 1555.09L1208.22 1564.01L1209.22 1564.12L1210.21 1564.23L1211.24 1555.31L1210.24 1555.2ZM1209.22 1564.12L1208.22 1564.01C1207.53 1570.02 1207.43 1576.03 1207.92 1582.04L1208.92 1581.96L1209.91 1581.88C1209.44 1576 1209.54 1570.12 1210.21 1564.23L1209.22 1564.12ZM1208.92 1581.96L1207.92 1582.04L1208.64 1590.96L1209.64 1590.88L1210.63 1590.8L1209.91 1581.88L1208.92 1581.96ZM1209.64 1590.88L1208.64 1590.96L1209.36 1599.88L1210.36 1599.8L1211.36 1599.72L1210.63 1590.8L1209.64 1590.88ZM1210.36 1599.8L1209.36 1599.88C1209.84 1605.73 1209.29 1610.67 1207.78 1614.73L1208.71 1615.08L1209.65 1615.43C1211.3 1611.02 1211.85 1605.77 1211.36 1599.72L1210.36 1599.8ZM1208.71 1615.08L1207.78 1614.73L1205.4 1621.09L1206.34 1621.44L1207.28 1621.79L1209.65 1615.43L1208.71 1615.08ZM1206.34 1621.44L1205.4 1621.09L1203.03 1627.46L1203.97 1627.81L1204.91 1628.16L1207.28 1621.79L1206.34 1621.44ZM1203.97 1627.81L1203.03 1627.46C1202.32 1629.37 1201.13 1630.79 1199.46 1631.75C1197.77 1632.73 1195.52 1633.28 1192.66 1633.34L1192.68 1634.34L1192.7 1635.34C1195.78 1635.28 1198.39 1634.68 1200.46 1633.49C1202.56 1632.28 1204.04 1630.48 1204.91 1628.16L1203.97 1627.81ZM1192.68 1634.34L1192.66 1633.34L1183.74 1633.51L1183.76 1634.51L1183.78 1635.5L1192.7 1635.34L1192.68 1634.34ZM1183.76 1634.51L1183.74 1633.51L1174.82 1633.67L1174.84 1634.67L1174.86 1635.67L1183.78 1635.5L1183.76 1634.51ZM1174.84 1634.67L1174.82 1633.67C1168.84 1633.79 1162.87 1634.18 1156.89 1634.85L1157 1635.84L1157.11 1636.83C1163.03 1636.17 1168.94 1635.78 1174.86 1635.67L1174.84 1634.67ZM1157 1635.84L1156.89 1634.85L1147.97 1635.84L1148.08 1636.84L1148.19 1637.83L1157.11 1636.83L1157 1635.84ZM1148.08 1636.84L1147.97 1635.84L1139.05 1636.84L1139.16 1637.84L1139.27 1638.83L1148.19 1637.83L1148.08 1636.84ZM1139.16 1637.84L1139.05 1636.84C1133.18 1637.5 1127.3 1637.5 1121.43 1636.84L1121.32 1637.84L1121.21 1638.83C1127.23 1639.51 1133.25 1639.5 1139.27 1638.83L1139.16 1637.84ZM1121.32 1637.84L1121.43 1636.84L1112.51 1635.85L1112.4 1636.84L1112.29 1637.84L1121.21 1638.83L1121.32 1637.84ZM1112.4 1636.84L1112.51 1635.85L1103.59 1634.85L1103.48 1635.85L1103.37 1636.84L1112.29 1637.84L1112.4 1636.84ZM1103.48 1635.85L1103.59 1634.85C1097.57 1634.18 1091.56 1634.14 1085.54 1634.74L1085.64 1635.74L1085.74 1636.73C1091.62 1636.15 1097.49 1636.18 1103.37 1636.84L1103.48 1635.85ZM1085.64 1635.74L1085.54 1634.74L1076.62 1635.63L1076.72 1636.63L1076.82 1637.62L1085.74 1636.73L1085.64 1635.74ZM1076.72 1636.63L1076.62 1635.63L1067.7 1636.52L1067.8 1637.51L1067.9 1638.51L1076.82 1637.62L1076.72 1636.63ZM1067.8 1637.51L1067.7 1636.52C1061.84 1637.1 1055.97 1636.97 1050.1 1636.11L1049.96 1637.1L1049.82 1638.09C1055.84 1638.97 1061.87 1639.11 1067.9 1638.51L1067.8 1637.51ZM1049.96 1637.1L1050.1 1636.11L1041.18 1634.81L1041.04 1635.8L1040.9 1636.79L1049.82 1638.09L1049.96 1637.1ZM1041.04 1635.8L1041.18 1634.81L1032.26 1633.5L1032.12 1634.49L1031.98 1635.48L1040.9 1636.79L1041.04 1635.8ZM1032.12 1634.49L1032.26 1633.5C1026.24 1632.62 1020.21 1632.47 1014.18 1633.06L1014.28 1634.05L1014.38 1635.05C1020.24 1634.48 1026.11 1634.63 1031.98 1635.48L1032.12 1634.49ZM1014.28 1634.05L1014.18 1633.06L1005.26 1633.92L1005.36 1634.91L1005.46 1635.91L1014.38 1635.05L1014.28 1634.05ZM1005.36 1634.91L1005.26 1633.92L996.344 1634.78L996.44 1635.77L996.536 1636.77L1005.46 1635.91L1005.36 1634.91ZM996.44 1635.77L996.344 1634.78C990.424 1635.35 984.505 1635.68 978.585 1635.77L978.6 1636.77L978.615 1637.77C984.589 1637.68 990.562 1637.34 996.536 1636.77L996.44 1635.77ZM978.6 1636.77L978.585 1635.77L969.665 1635.9L969.68 1636.9L969.695 1637.9L978.615 1637.77L978.6 1636.77ZM969.68 1636.9L969.665 1635.9L960.745 1636.03L960.76 1637.03L960.775 1638.03L969.695 1637.9L969.68 1636.9ZM960.76 1637.03L960.745 1636.03C954.793 1636.12 948.84 1636.26 942.888 1636.45L942.92 1637.45L942.952 1638.45C948.893 1638.26 954.834 1638.12 960.775 1638.03L960.76 1637.03ZM942.92 1637.45L942.888 1636.45L933.968 1636.74L934 1637.74L934.032 1638.74L942.952 1638.45L942.92 1637.45ZM934 1637.74L933.968 1636.74L925.048 1637.03L925.08 1638.03L925.112 1639.03L934.032 1638.74L934 1637.74ZM925.08 1638.03L925.048 1637.03C919.113 1637.22 913.177 1637.31 907.242 1637.3L907.24 1638.3L907.238 1639.3C913.196 1639.31 919.154 1639.22 925.112 1639.03L925.08 1638.03ZM907.24 1638.3L907.242 1637.3L898.322 1637.28L898.32 1638.28L898.318 1639.28L907.238 1639.3L907.24 1638.3ZM898.32 1638.28L898.322 1637.28L889.402 1637.26L889.4 1638.26L889.398 1639.26L898.318 1639.28L898.32 1638.28ZM889.4 1638.26L889.402 1637.26C883.499 1637.24 877.595 1636.85 871.69 1636.08L871.56 1637.07L871.43 1638.06C877.419 1638.84 883.408 1639.24 889.398 1639.26L889.4 1638.26ZM871.56 1637.07L871.69 1636.08L862.77 1634.91L862.64 1635.9L862.51 1636.89L871.43 1638.06L871.56 1637.07ZM862.64 1635.9L862.77 1634.91L853.85 1633.74L853.72 1634.73L853.59 1635.72L862.51 1636.89L862.64 1635.9ZM853.72 1634.73L853.85 1633.74C847.841 1632.95 841.831 1632.73 835.82 1633.1L835.88 1634.09L835.94 1635.09C841.823 1634.74 847.706 1634.95 853.59 1635.72L853.72 1634.73ZM835.88 1634.09L835.82 1633.1L826.9 1633.63L826.96 1634.63L827.02 1635.63L835.94 1635.09L835.88 1634.09ZM826.96 1634.63L826.9 1633.63L817.98 1634.17L818.04 1635.17L818.1 1636.17L827.02 1635.63L826.96 1634.63ZM818.04 1635.17L817.98 1634.17C812.077 1634.52 806.173 1634.49 800.27 1634.08L800.2 1635.08L800.13 1636.07C806.12 1636.5 812.11 1636.53 818.1 1636.17L818.04 1635.17ZM800.2 1635.08L800.27 1634.08L791.35 1633.45L791.28 1634.45L791.21 1635.45L800.13 1636.07L800.2 1635.08ZM791.28 1634.45L791.35 1633.45L782.43 1632.82L782.36 1633.82L782.29 1634.82L791.21 1635.45L791.28 1634.45ZM782.36 1633.82L782.43 1632.82C776.421 1632.4 770.412 1632.54 764.404 1633.25L764.52 1634.24L764.636 1635.23C770.521 1634.54 776.406 1634.41 782.29 1634.82L782.36 1633.82ZM764.52 1634.24L764.404 1633.25L755.484 1634.29L755.6 1635.28L755.716 1636.28L764.636 1635.23L764.52 1634.24ZM755.6 1635.28L755.484 1634.29L746.564 1635.34L746.68 1636.33L746.796 1637.32L755.716 1636.28L755.6 1635.28ZM746.68 1636.33L746.564 1635.34C740.685 1636.02 734.807 1636.1 728.929 1635.58L728.84 1636.57L728.751 1637.57C734.766 1638.11 740.782 1638.03 746.796 1637.32L746.68 1636.33ZM728.84 1636.57L728.929 1635.58L720.009 1634.78L719.92 1635.78L719.831 1636.77L728.751 1637.57L728.84 1636.57ZM719.92 1635.78L720.009 1634.78L711.089 1633.98L711 1634.98L710.911 1635.97L719.831 1636.77L719.92 1635.78ZM711 1634.98L711.089 1633.98C705.113 1633.45 699.137 1633.17 693.161 1633.17L693.16 1634.17L693.159 1635.17C699.076 1635.17 704.993 1635.44 710.911 1635.97L711 1634.98ZM693.16 1634.17L693.161 1633.17L684.241 1633.16L684.24 1634.16L684.239 1635.16L693.159 1635.17L693.16 1634.17ZM684.24 1634.16L684.241 1633.16L675.321 1633.15L675.32 1634.15L675.319 1635.15L684.239 1635.16L684.24 1634.16ZM675.32 1634.15L675.321 1633.15C669.357 1633.14 663.393 1633.29 657.429 1633.6L657.48 1634.59L657.531 1635.59C663.46 1635.29 669.39 1635.14 675.319 1635.15L675.32 1634.15ZM657.48 1634.59L657.429 1633.6L648.509 1634.05L648.56 1635.05L648.611 1636.05L657.531 1635.59L657.48 1634.59ZM648.56 1635.05L648.509 1634.05L639.589 1634.51L639.64 1635.51L639.691 1636.51L648.611 1636.05L648.56 1635.05ZM639.64 1635.51L639.589 1634.51C633.651 1634.82 627.714 1635.04 621.776 1635.18L621.8 1636.18L621.824 1637.18C627.78 1637.04 633.735 1636.82 639.691 1636.51L639.64 1635.51ZM621.8 1636.18L621.776 1635.18L612.856 1635.39L612.88 1636.39L612.904 1637.39L621.824 1637.18L621.8 1636.18ZM612.88 1636.39L612.856 1635.39L603.936 1635.61L603.96 1636.61L603.984 1637.61L612.904 1637.39L612.88 1636.39ZM603.96 1636.61L603.936 1635.61C598.012 1635.75 592.088 1635.69 586.164 1635.43L586.12 1636.43L586.076 1637.43C592.045 1637.69 598.015 1637.75 603.984 1637.61L603.96 1636.61ZM586.12 1636.43L586.164 1635.43L577.244 1635.04L577.2 1636.04L577.156 1637.04L586.076 1637.43L586.12 1636.43ZM577.2 1636.04L577.244 1635.04L568.324 1634.65L568.28 1635.65L568.236 1636.65L577.156 1637.04L577.2 1636.04ZM568.28 1635.65L568.324 1634.65C562.352 1634.39 556.38 1634.35 550.407 1634.55L550.44 1635.55L550.473 1636.55C556.394 1636.36 562.315 1636.39 568.236 1636.65L568.28 1635.65ZM550.44 1635.55L550.407 1634.55L541.487 1634.84L541.52 1635.84L541.553 1636.84L550.473 1636.55L550.44 1635.55ZM541.52 1635.84L541.487 1634.84L532.567 1635.13L532.6 1636.13L532.633 1637.13L541.553 1636.84L541.52 1635.84ZM532.6 1636.13L532.567 1635.13C526.617 1635.32 520.667 1635.55 514.717 1635.81L514.76 1636.8L514.803 1637.8C520.746 1637.55 526.689 1637.32 532.633 1637.13L532.6 1636.13ZM514.76 1636.8L514.717 1635.81L505.797 1636.19L505.84 1637.19L505.883 1638.19L514.803 1637.8L514.76 1636.8ZM505.84 1637.19L505.797 1636.19L496.877 1636.57L496.92 1637.57L496.963 1638.57L505.883 1638.19L505.84 1637.19ZM496.92 1637.57L496.877 1636.57C490.964 1636.83 485.051 1636.79 479.138 1636.45L479.08 1637.44L479.022 1638.44C485.003 1638.79 490.983 1638.83 496.963 1638.57L496.92 1637.57ZM479.08 1637.44L479.138 1636.45L470.218 1635.93L470.16 1636.93L470.102 1637.93L479.022 1638.44L479.08 1637.44ZM470.16 1636.93L470.218 1635.93L461.298 1635.42L461.24 1636.42L461.182 1637.41L470.102 1637.93L470.16 1636.93ZM461.24 1636.42L461.298 1635.42C455.326 1635.07 449.355 1634.95 443.383 1635.05L443.4 1636.05L443.417 1637.05C449.338 1636.95 455.26 1637.07 461.182 1637.41L461.24 1636.42ZM443.4 1636.05L443.383 1635.05L434.463 1635.2L434.48 1636.2L434.497 1637.2L443.417 1637.05L443.4 1636.05ZM434.48 1636.2L434.463 1635.2L425.543 1635.35L425.56 1636.35L425.577 1637.35L434.497 1637.2L434.48 1636.2ZM425.56 1636.35L425.543 1635.35C419.595 1635.44 413.646 1635.56 407.698 1635.69L407.72 1636.69L407.742 1637.69C413.687 1637.56 419.632 1637.44 425.577 1637.35L425.56 1636.35ZM407.72 1636.69L407.698 1635.69L398.778 1635.89L398.8 1636.89L398.822 1637.89L407.742 1637.69L407.72 1636.69ZM398.8 1636.89L398.778 1635.89L389.858 1636.09L389.88 1637.09L389.902 1638.09L398.822 1637.89L398.8 1636.89ZM389.88 1637.09L389.858 1636.09C383.939 1636.23 378.02 1636.11 372.101 1635.75L372.04 1636.75L371.979 1637.74C377.953 1638.11 383.928 1638.23 389.902 1638.09L389.88 1637.09ZM372.04 1636.75L372.101 1635.75L363.181 1635.2L363.12 1636.2L363.059 1637.19L371.979 1637.74L372.04 1636.75ZM363.12 1636.2L363.181 1635.2L354.261 1634.65L354.2 1635.65L354.139 1636.65L363.059 1637.19L363.12 1636.2ZM354.2 1635.65L354.261 1634.65C348.305 1634.28 342.349 1634 336.392 1633.81L336.36 1634.81L336.328 1635.81C342.265 1636 348.202 1636.28 354.139 1636.65L354.2 1635.65ZM336.36 1634.81L336.392 1633.81L327.472 1633.52L327.44 1634.52L327.408 1635.52L336.328 1635.81L336.36 1634.81ZM327.44 1634.52L327.472 1633.52L318.552 1633.24L318.52 1634.23L318.488 1635.23L327.408 1635.52L327.44 1634.52ZM318.52 1634.23L318.552 1633.24C312.602 1633.04 306.652 1632.88 300.702 1632.75L300.68 1633.75L300.658 1634.75C306.601 1634.88 312.544 1635.04 318.488 1635.23L318.52 1634.23ZM300.68 1633.75L300.702 1632.75L291.782 1632.55L291.76 1633.55L291.738 1634.55L300.658 1634.75L300.68 1633.75ZM291.76 1633.55L291.782 1632.55L282.862 1632.35L282.84 1633.35L282.818 1634.35L291.738 1634.55L291.76 1633.55ZM282.84 1633.35L282.862 1632.35C276.89 1632.21 270.917 1632.31 264.945 1632.64L265 1633.64L265.055 1634.64C270.976 1634.31 276.897 1634.22 282.818 1634.35L282.84 1633.35ZM265 1633.64L264.945 1632.64L256.025 1633.14L256.08 1634.13L256.135 1635.13L265.055 1634.64L265 1633.64ZM256.08 1634.13L256.025 1633.14L247.105 1633.63L247.16 1634.63L247.215 1635.63L256.135 1635.13L256.08 1634.13ZM247.16 1634.63L247.105 1633.63C241.143 1633.96 235.181 1634.43 229.219 1635.03L229.32 1636.03L229.421 1637.02C235.353 1636.42 241.284 1635.95 247.215 1635.63L247.16 1634.63ZM229.32 1636.03L229.219 1635.03L220.299 1635.94L220.4 1636.93L220.501 1637.93L229.421 1637.02L229.32 1636.03ZM220.4 1636.93L220.299 1635.94L211.379 1636.85L211.48 1637.84L211.581 1638.84L220.501 1637.93L220.4 1636.93ZM211.48 1637.84L211.379 1636.85C205.513 1637.44 199.649 1637.32 193.782 1636.48L193.64 1637.47L193.498 1638.46C199.525 1639.32 205.553 1639.45 211.581 1638.84L211.48 1637.84ZM193.64 1637.47L193.782 1636.48L184.862 1635.2L184.72 1636.19L184.578 1637.18L193.498 1638.46L193.64 1637.47ZM184.72 1636.19L184.862 1635.2L175.942 1633.92L175.8 1634.91L175.658 1635.9L184.578 1637.18L184.72 1636.19ZM175.8 1634.91L175.942 1633.92C169.945 1633.06 163.947 1632.66 157.948 1632.73L157.96 1633.73L157.972 1634.73C163.867 1634.66 169.762 1635.05 175.658 1635.9L175.8 1634.91ZM157.96 1633.73L157.948 1632.73L149.028 1632.84L149.04 1633.84L149.052 1634.84L157.972 1634.73L157.96 1633.73ZM149.04 1633.84L149.028 1632.84L140.108 1632.95L140.12 1633.95L140.132 1634.95L149.052 1634.84L149.04 1633.84ZM140.12 1633.95L140.108 1632.95C134.129 1633.03 128.151 1633.38 122.173 1634.03L122.28 1635.02L122.387 1636.02C128.302 1635.38 134.217 1635.02 140.132 1634.95L140.12 1633.95ZM122.28 1635.02L122.173 1634.03L113.253 1634.99L113.36 1635.98L113.467 1636.97L122.387 1636.02L122.28 1635.02ZM113.36 1635.98L113.253 1634.99L104.333 1635.95L104.44 1636.94L104.547 1637.93L113.467 1636.97L113.36 1635.98ZM104.44 1636.94L104.333 1635.95C98.461 1636.58 92.5895 1636.55 86.7171 1635.86L86.6 1636.85L86.4829 1637.84C92.5039 1638.55 98.5258 1638.58 104.547 1637.93L104.44 1636.94ZM86.6 1636.85L86.7171 1635.86L77.7971 1634.8L77.68 1635.8L77.5629 1636.79L86.4829 1637.84L86.6 1636.85ZM77.68 1635.8L77.7971 1634.8L68.8771 1633.75L68.76 1634.74L68.6428 1635.74L77.5629 1636.79L77.68 1635.8ZM68.76 1634.74L68.8771 1633.75C62.8738 1633.04 56.8697 1632.85 50.8655 1633.18L50.9199 1634.18L50.9744 1635.18C56.8635 1634.86 62.7528 1635.04 68.6428 1635.74L68.76 1634.74ZM50.9199 1634.18L50.8655 1633.18L41.9455 1633.67L41.9999 1634.67L42.0544 1635.66L50.9744 1635.18L50.9199 1634.18ZM41.9999 1634.67L41.9455 1633.67L33.0254 1634.15L33.0799 1635.15L33.1344 1636.15L42.0544 1635.66L41.9999 1634.67ZM33.0799 1635.15L33.0254 1634.15C27.1864 1634.47 22.4258 1633.71 18.6893 1631.94L18.2617 1632.85L17.8342 1633.75C21.9618 1635.7 27.08 1636.48 33.1344 1636.15L33.0799 1635.15ZM18.2617 1632.85L18.6893 1631.94L12.7912 1629.16L12.3636 1630.06L11.9361 1630.96L17.8342 1633.75L18.2617 1632.85ZM12.3636 1630.06L12.7912 1629.16L6.89304 1626.37L6.46549 1627.27L6.03794 1628.17L11.9361 1630.96L12.3636 1630.06ZM6.46549 1627.27L6.89304 1626.37C3.41214 1624.72 1.39066 1621.24 1.07526 1615.51L0.0767734 1615.56L-0.921718 1615.61C-0.582996 1621.77 1.65467 1626.1 6.03794 1628.17L6.46549 1627.27ZM0.0767734 1615.56L1.07526 1615.51L0.584675 1606.59L-0.413816 1606.64L-1.41231 1606.69L-0.921718 1615.61L0.0767734 1615.56ZM-0.413816 1606.64L0.584675 1606.59L0.0940852 1597.67L-0.904406 1597.72L-1.9029 1597.77L-1.41231 1606.69L-0.413816 1606.64ZM-0.904406 1597.72L0.0940852 1597.67C-0.231026 1591.75 -0.241194 1585.84 0.0635791 1579.93L-0.935094 1579.88L-1.93377 1579.83C-2.2422 1585.81 -2.23191 1591.79 -1.9029 1597.77L-0.904406 1597.72ZM-0.935094 1579.88L0.0635791 1579.93L0.52348 1571.01L-0.475193 1570.96L-1.47387 1570.91L-1.93377 1579.83L-0.935094 1579.88ZM-0.475193 1570.96L0.52348 1571.01L0.983381 1562.09L-0.0152923 1562.04L-1.01397 1561.99L-1.47387 1570.91L-0.475193 1570.96ZM-0.0152923 1562.04L0.983381 1562.09C1.29065 1556.13 1.4818 1550.17 1.55684 1544.21L0.556921 1544.2L-0.443 1544.19C-0.517711 1550.12 -0.708032 1556.05 -1.01397 1561.99L-0.0152923 1562.04ZM0.556921 1544.2L1.55684 1544.21L1.66915 1535.29L0.669233 1535.28L-0.330688 1535.27L-0.443 1544.19L0.556921 1544.2ZM0.669233 1535.28L1.66915 1535.29L1.78147 1526.37L0.781545 1526.36L-0.218376 1526.35L-0.330688 1535.27L0.669233 1535.28ZM0.781545 1526.36L1.78147 1526.37C1.85671 1520.4 1.66738 1514.42 1.2135 1508.44L0.216374 1508.52L-0.780754 1508.6C-0.331324 1514.51 -0.143873 1520.43 -0.218376 1526.35L0.781545 1526.36ZM0.216374 1508.52L1.2135 1508.44L0.536019 1499.52L-0.46111 1499.6L-1.45824 1499.68L-0.780754 1508.6L0.216374 1508.52ZM-0.46111 1499.6L0.536019 1499.52L-0.141465 1490.6L-1.13859 1490.68L-2.13572 1490.76L-1.45824 1499.68L-0.46111 1499.6ZM-1.13859 1490.68L-0.141465 1490.6C-0.590583 1484.69 -0.741348 1478.78 -0.59379 1472.86L-1.59348 1472.84L-2.59317 1472.82C-2.74241 1478.8 -2.58991 1484.78 -2.13572 1490.76L-1.13859 1490.68ZM-1.59348 1472.84L-0.59379 1472.86L-0.371192 1463.94L-1.37088 1463.92L-2.37057 1463.9L-2.59317 1472.82L-1.59348 1472.84ZM-1.37088 1463.92L-0.371192 1463.94L-0.148594 1455.02L-1.14828 1455L-2.14797 1454.97L-2.37057 1463.9L-1.37088 1463.92ZM-1.14828 1455L-0.148594 1455.02C-0.000475473 1449.09 0.247669 1443.15 0.595841 1437.22L-0.402443 1437.16L-1.40073 1437.1C-1.75021 1443.06 -1.99929 1449.02 -2.14797 1454.97L-1.14828 1455ZM-0.402443 1437.16L0.595841 1437.22L1.11908 1428.3L0.120799 1428.24L-0.877485 1428.18L-1.40073 1437.1L-0.402443 1437.16ZM0.120799 1428.24L1.11908 1428.3L1.64233 1419.38L0.644042 1419.32L-0.354242 1419.26L-0.877485 1428.18L0.120799 1428.24ZM0.644042 1419.32L1.64233 1419.38C1.99414 1413.38 1.88759 1407.38 1.32274 1401.39L0.327147 1401.48L-0.668447 1401.57C-0.113112 1407.47 -0.00840056 1413.37 -0.354242 1419.26L0.644042 1419.32ZM0.327147 1401.48L1.32274 1401.39L0.482603 1392.47L-0.512991 1392.56L-1.50858 1392.65L-0.668447 1401.57L0.327147 1401.48ZM-0.512991 1392.56L0.482603 1392.47L-0.357534 1383.55L-1.35313 1383.64L-2.34872 1383.73L-1.50858 1392.65L-0.512991 1392.56ZM-1.35313 1383.64L-0.357534 1383.55C-0.914468 1377.63 -1.1707 1371.72 -1.12627 1365.81L-2.12624 1365.8L-3.12621 1365.79C-3.17115 1371.77 -2.91197 1377.75 -2.34872 1383.73L-1.35313 1383.64ZM-2.12624 1365.8L-1.12627 1365.81L-1.05925 1356.89L-2.05922 1356.88L-3.05919 1356.87L-3.12621 1365.79L-2.12624 1365.8ZM-2.05922 1356.88L-1.05925 1356.89L-0.992225 1347.97L-1.9922 1347.96L-2.99217 1347.95L-3.05919 1356.87L-2.05922 1356.88ZM-1.9922 1347.96L-0.992225 1347.97C-0.947485 1342.01 -0.972015 1336.06 -1.06582 1330.1L-2.06569 1330.12L-3.06557 1330.14C-2.97201 1336.07 -2.94755 1342.01 -2.99217 1347.95L-1.9922 1347.96ZM-2.06569 1330.12L-1.06582 1330.1L-1.20633 1321.18L-2.20621 1321.2L-3.20608 1321.22L-3.06557 1330.14L-2.06569 1330.12ZM-2.20621 1321.2L-1.20633 1321.18L-1.34685 1312.26L-2.34673 1312.28L-3.3466 1312.3L-3.20608 1321.22L-2.20621 1321.2ZM-2.34673 1312.28L-1.34685 1312.26C-1.4401 1306.34 -1.2919 1300.43 -0.902226 1294.51L-1.90007 1294.44L-2.89791 1294.37C-3.29114 1300.35 -3.44071 1306.32 -3.3466 1312.3L-2.34673 1312.28ZM-1.90007 1294.44L-0.902226 1294.51L-0.315051 1285.59L-1.31289 1285.52L-2.31073 1285.45L-2.89791 1294.37L-1.90007 1294.44ZM-1.31289 1285.52L-0.315051 1285.59L0.272125 1276.67L-0.725716 1276.6L-1.72356 1276.53L-2.31073 1285.45L-1.31289 1285.52ZM-0.725716 1276.6L0.272125 1276.67C0.665338 1270.69 0.817321 1264.72 0.72806 1258.74L-0.271829 1258.76L-1.27172 1258.77C-1.18326 1264.69 -1.33387 1270.61 -1.72356 1276.53L-0.725716 1276.6ZM-0.271829 1258.76L0.72806 1258.74L0.594771 1249.83L-0.405117 1249.84L-1.40501 1249.85L-1.27172 1258.77L-0.271829 1258.76ZM-0.405117 1249.84L0.594771 1249.83L0.461482 1240.91L-0.538406 1240.92L-1.53829 1240.93L-1.40501 1249.85L-0.405117 1249.84ZM-0.538406 1240.92L0.461482 1240.91C0.372905 1234.98 0.452114 1229.05 0.699113 1223.12L-0.30002 1223.08L-1.29915 1223.04C-1.54772 1229 -1.62744 1234.97 -1.53829 1240.93L-0.538406 1240.92ZM-0.30002 1223.08L0.699113 1223.12L1.07079 1214.2L0.0716541 1214.16L-0.927479 1214.12L-1.29915 1223.04L-0.30002 1223.08ZM0.0716541 1214.16L1.07079 1214.2L1.44246 1205.28L0.443329 1205.24L-0.555804 1205.2L-0.927479 1214.12L0.0716541 1214.16ZM0.443329 1205.24L1.44246 1205.28C1.69137 1199.31 1.69893 1193.33 1.46516 1187.36L0.465925 1187.4L-0.53331 1187.44C-0.301644 1193.36 -0.309142 1199.28 -0.555804 1205.2L0.443329 1205.24ZM0.465925 1187.4L1.46516 1187.36L1.11608 1178.44L0.116848 1178.48L-0.882387 1178.52L-0.53331 1187.44L0.465925 1187.4ZM0.116848 1178.48L1.11608 1178.44L0.767005 1169.52L-0.23223 1169.56L-1.23146 1169.6L-0.882387 1178.52L0.116848 1178.48ZM-0.23223 1169.56L0.767005 1169.52C0.53554 1163.61 0.588237 1157.69 0.925106 1151.78L-0.0732757 1151.72L-1.07166 1151.66C-1.41216 1157.64 -1.46544 1163.62 -1.23146 1169.6L-0.23223 1169.56ZM-0.0732757 1151.72L0.925106 1151.78L1.43314 1142.86L0.434756 1142.8L-0.563626 1142.74L-1.07166 1151.66L-0.0732757 1151.72ZM0.434756 1142.8L1.43314 1142.86L1.94117 1133.94L0.942788 1133.88L-0.0555945 1133.82L-0.563626 1142.74L0.434756 1142.8ZM0.942788 1133.88L1.94117 1133.94C2.28082 1127.97 2.46863 1122.01 2.50459 1116.05L1.5046 1116.04L0.504622 1116.03C0.468868 1121.96 0.282131 1127.89 -0.0555945 1133.82L0.942788 1133.88ZM1.5046 1116.04L2.50459 1116.05L2.55837 1107.13L1.55839 1107.12L0.558407 1107.11L0.504622 1116.03L1.5046 1116.04ZM1.55839 1107.12L2.55837 1107.13L2.61216 1098.21L1.61217 1098.2L0.612192 1098.19L0.558407 1107.11L1.55839 1107.12ZM1.61217 1098.2L2.61216 1098.21C2.64806 1092.25 2.60859 1086.3 2.49372 1080.34L1.49391 1080.36L0.494096 1080.38C0.608632 1086.32 0.647998 1092.26 0.612192 1098.19L1.61217 1098.2ZM1.49391 1080.36L2.49372 1080.34L2.32168 1071.42L1.32186 1071.44L0.322047 1071.46L0.494096 1080.38L1.49391 1080.36ZM1.32186 1071.44L2.32168 1071.42L2.14963 1062.5L1.14981 1062.52L0.149999 1062.54L0.322047 1071.46L1.32186 1071.44ZM1.14981 1062.52L2.14963 1062.5C2.03449 1056.53 1.71416 1050.56 1.18866 1044.59L0.192513 1044.68L-0.803635 1044.77C-0.28213 1050.69 0.0357419 1056.62 0.149999 1062.54L1.14981 1062.52ZM0.192513 1044.68L1.18866 1044.59L0.403408 1035.67L-0.592739 1035.76L-1.58889 1035.85L-0.803635 1044.77L0.192513 1044.68ZM-0.592739 1035.76L0.403408 1035.67L-0.381844 1026.75L-1.37799 1026.84L-2.37414 1026.93L-1.58889 1035.85L-0.592739 1035.76ZM-1.37799 1026.84L-0.381844 1026.75C-0.901543 1020.85 -1.03558 1014.95 -0.784001 1009.04L-1.78309 1009L-2.78219 1008.96C-3.03748 1014.95 -2.90144 1020.94 -2.37414 1026.93L-1.37799 1026.84ZM-1.78309 1009L-0.784001 1009.04L-0.403852 1000.12L-1.40295 1000.08L-2.40204 1000.04L-2.78219 1008.96L-1.78309 1009ZM-1.40295 1000.08L-0.403852 1000.12L-0.023703 991.203L-1.0228 991.16L-2.02189 991.117L-2.40204 1000.04L-1.40295 1000.08ZM-1.0228 991.16L-0.023703 991.203C0.229886 985.252 0.450629 979.302 0.638527 973.352L-0.360975 973.32L-1.36048 973.288C-1.54814 979.231 -1.76861 985.174 -2.02189 991.117L-1.0228 991.16ZM-0.360975 973.32L0.638527 973.352L0.920199 964.432L-0.0793028 964.4L-1.0788 964.368L-1.36048 973.288L-0.360975 973.32ZM-0.0793028 964.4L0.920199 964.432L1.20187 955.512L0.202369 955.48L-0.797132 955.448L-1.0788 964.368L-0.0793028 964.4ZM0.202369 955.48L1.20187 955.512C1.38959 949.567 1.59479 943.622 1.81746 937.677L0.818162 937.64L-0.181137 937.603C-0.403957 943.551 -0.609289 949.5 -0.797132 955.448L0.202369 955.48ZM0.818162 937.64L1.81746 937.677L2.15158 928.757L1.15228 928.72L0.152983 928.682L-0.181137 937.603L0.818162 937.64ZM1.15228 928.72L2.15158 928.757L2.4857 919.837L1.4864 919.8L0.487103 919.763L0.152983 928.682L1.15228 928.72ZM1.4864 919.8L2.4857 919.837C2.70859 913.887 2.89717 907.936 3.05142 901.986L2.05176 901.96L1.05209 901.934C0.898037 907.877 0.709707 913.82 0.487103 919.763L1.4864 919.8ZM2.05176 901.96L3.05142 901.986L3.28266 893.066L2.28299 893.04L1.28333 893.014L1.05209 901.934L2.05176 901.96ZM2.28299 893.04L3.28266 893.066L3.51389 884.146L2.51423 884.12L1.51456 884.094L1.28333 893.014L2.28299 893.04ZM2.51423 884.12L3.51389 884.146C3.6686 878.178 3.63431 872.21 3.41104 866.243L2.41174 866.28L1.41244 866.317C1.63413 872.243 1.66817 878.169 1.51456 884.094L2.51423 884.12ZM2.41174 866.28L3.41104 866.243L3.07731 857.323L2.07801 857.36L1.07871 857.397L1.41244 866.317L2.41174 866.28ZM2.07801 857.36L3.07731 857.323L2.74359 848.403L1.74429 848.44L0.744987 848.477L1.07871 857.397L2.07801 857.36ZM1.74429 848.44L2.74359 848.403C2.5209 842.45 2.24946 836.498 1.92928 830.546L0.93072 830.6L-0.0678362 830.654C0.251766 836.595 0.522707 842.536 0.744987 848.477L1.74429 848.44ZM0.93072 830.6L1.92928 830.546L1.44943 821.626L0.450878 821.68L-0.547679 821.734L-0.0678362 830.654L0.93072 830.6ZM0.450878 821.68L1.44943 821.626L0.969591 812.706L-0.0289647 812.76L-1.02752 812.814L-0.547679 821.734L0.450878 821.68ZM-0.0289647 812.76L0.969591 812.706C0.651279 806.789 0.594857 800.872 0.800317 794.955L-0.199081 794.92L-1.19848 794.885C-1.40599 800.861 -1.349 806.838 -1.02752 812.814L-0.0289647 812.76ZM-0.199081 794.92L0.800317 794.955L1.11004 786.035L0.110645 786L-0.888753 785.965L-1.19848 794.885L-0.199081 794.92ZM0.110645 786L1.11004 786.035L1.41977 777.115L0.420371 777.08L-0.579027 777.045L-0.888753 785.965L0.110645 786ZM0.420371 777.08L1.41977 777.115C1.62623 771.168 1.83718 765.222 2.05262 759.276L1.05327 759.24L0.0539297 759.204C-0.16154 765.151 -0.372526 771.098 -0.579027 777.045L0.420371 777.08ZM1.05327 759.24L2.05262 759.276L2.3758 750.356L1.37645 750.32L0.377107 750.284L0.0539297 759.204L1.05327 759.24ZM1.37645 750.32L2.3758 750.356L2.69897 741.436L1.69963 741.4L0.700284 741.364L0.377107 750.284L1.37645 750.32ZM1.69963 741.4L2.69897 741.436C2.9157 735.454 2.81689 729.473 2.40258 723.491L1.40497 723.56L0.40736 723.629C0.816827 729.541 0.914462 735.452 0.700284 741.364L1.69963 741.4ZM1.40497 723.56L2.40258 723.491L1.78474 714.571L0.787133 714.64L-0.210477 714.709L0.40736 723.629L1.40497 723.56ZM0.787133 714.64L1.78474 714.571L1.16691 705.651L0.169296 705.72L-0.828314 705.789L-0.210477 714.709L0.787133 714.64ZM0.169296 705.72L1.16691 705.651C0.755347 699.709 0.386851 693.767 0.0614178 687.825L-0.937086 687.88L-1.93559 687.935C-1.60963 693.886 -1.24054 699.838 -0.828314 705.789L0.169296 705.72ZM-0.937086 687.88L0.0614178 687.825L-0.427127 678.905L-1.42563 678.96L-2.42413 679.015L-1.93559 687.935L-0.937086 687.88ZM-1.42563 678.96L-0.427127 678.905L-0.915673 669.985L-1.91418 670.04L-2.91268 670.095L-2.42413 679.015L-1.42563 678.96ZM-1.91418 670.04L-0.915673 669.985C-1.24024 664.059 -1.38052 658.133 -1.33652 652.207L-2.33649 652.2L-3.33646 652.192C-3.38077 658.16 -3.23951 664.127 -2.91268 670.095L-1.91418 670.04ZM-2.33649 652.2L-1.33652 652.207L-1.27028 643.287L-2.27026 643.28L-3.27023 643.272L-3.33646 652.192L-2.33649 652.2ZM-2.27026 643.28L-1.27028 643.287L-1.20405 634.367L-2.20402 634.36L-3.20399 634.352L-3.27023 643.272L-2.27026 643.28ZM-2.20402 634.36L-1.20405 634.367C-1.16003 628.439 -0.952029 622.511 -0.580037 616.583L-1.57807 616.52L-2.57611 616.457C-2.95041 622.422 -3.1597 628.387 -3.20399 634.352L-2.20402 634.36ZM-1.57807 616.52L-0.580037 616.583L-0.0203233 607.663L-1.01836 607.6L-2.0164 607.537L-2.57611 616.457L-1.57807 616.52ZM-1.01836 607.6L-0.0203233 607.663L0.539391 598.743L-0.458646 598.68L-1.45668 598.617L-2.0164 607.537L-1.01836 607.6ZM-0.458646 598.68L0.539391 598.743C0.914019 592.772 1.07562 586.802 1.0242 580.831L0.0242345 580.84L-0.975728 580.849C-0.924711 586.771 -1.08503 592.694 -1.45668 598.617L-0.458646 598.68ZM0.0242345 580.84L1.0242 580.831L0.947364 571.911L-0.0525985 571.92L-1.05256 571.929L-0.975728 580.849L0.0242345 580.84ZM-0.0525985 571.92L0.947364 571.911L0.870531 562.991L-0.129432 563L-1.12939 563.009L-1.05256 571.929L-0.0525985 571.92ZM-0.129432 563L0.870531 562.991C0.819489 557.065 0.953557 551.14 1.27274 545.214L0.274189 545.16L-0.724363 545.106C-1.04578 551.074 -1.1808 557.041 -1.12939 563.009L-0.129432 563ZM0.274189 545.16L1.27274 545.214L1.7532 536.294L0.754643 536.24L-0.243909 536.186L-0.724363 545.106L0.274189 545.16ZM0.754643 536.24L1.7532 536.294L2.23365 527.374L1.2351 527.32L0.236545 527.266L-0.243909 536.186L0.754643 536.24ZM1.2351 527.32L2.23365 527.374C2.55433 521.42 2.81166 515.466 3.00563 509.512L2.00616 509.48L1.0067 509.447C0.813183 515.387 0.556467 521.326 0.236545 527.266L1.2351 527.32ZM2.00616 509.48L3.00563 509.512L3.29625 500.592L2.29678 500.56L1.29731 500.527L1.0067 509.447L2.00616 509.48ZM2.29678 500.56L3.29625 500.592L3.58686 491.673L2.58739 491.64L1.58792 491.607L1.29731 500.527L2.29678 500.56ZM2.58739 491.64L3.58686 491.673C3.78184 485.688 3.63733 479.704 3.15338 473.719L2.15663 473.8L1.15989 473.881C1.63777 479.79 1.78043 485.699 1.58792 491.607L2.58739 491.64ZM2.15663 473.8L3.15338 473.719L2.432 464.799L1.43526 464.88L0.438513 464.961L1.15989 473.881L2.15663 473.8ZM1.43526 464.88L2.432 464.799L1.71063 455.879L0.713885 455.96L-0.282861 456.041L0.438513 464.961L1.43526 464.88ZM0.713885 455.96L1.71063 455.879C1.23379 449.983 1.20526 444.087 1.62502 438.191L0.627549 438.12L-0.369927 438.049C-0.796882 444.046 -0.767854 450.043 -0.282861 456.041L0.713885 455.96ZM0.627549 438.12L1.62502 438.191L2.26006 429.271L1.26259 429.2L0.265111 429.129L-0.369927 438.049L0.627549 438.12ZM1.26259 429.2L2.26006 429.271L2.8951 420.351L1.89762 420.28L0.900148 420.209L0.265111 429.129L1.26259 429.2ZM1.89762 420.28L2.8951 420.351C3.32002 414.382 3.54665 408.414 3.57497 402.445L2.57499 402.44L1.575 402.435C1.54689 408.36 1.32194 414.284 0.900148 420.209L1.89762 420.28ZM2.57499 402.44L3.57497 402.445L3.6173 393.525L2.61731 393.52L1.61732 393.515L1.575 402.435L2.57499 402.44ZM2.61731 393.52L3.6173 393.525L3.65962 384.605L2.65964 384.6L1.65965 384.595L1.61732 393.515L2.61731 393.52ZM2.65964 384.6L3.65962 384.605C3.68803 378.618 3.35627 372.631 2.66445 366.645L1.67106 366.76L0.677677 366.875C1.36038 372.782 1.68767 378.689 1.65965 384.595L2.65964 384.6ZM1.67106 366.76L2.66445 366.645L1.63356 357.725L0.640169 357.84L-0.353219 357.955L0.677677 366.875L1.67106 366.76ZM0.640169 357.84L1.63356 357.725L0.602661 348.805L-0.390726 348.92L-1.38411 349.035L-0.353219 357.955L0.640169 357.84ZM-0.390726 348.92L0.602661 348.805C-0.0813378 342.887 -0.509853 336.969 -0.682935 331.051L-1.68251 331.08L-2.68208 331.109C-2.50731 337.085 -2.07464 343.06 -1.38411 349.035L-0.390726 348.92ZM-1.68251 331.08L-0.682935 331.051L-0.943821 322.131L-1.94339 322.16L-2.94297 322.189L-2.68208 331.109L-1.68251 331.08ZM-1.94339 322.16L-0.943821 322.131L-1.20471 313.211L-2.20428 313.24L-3.20385 313.269L-2.94297 322.189L-1.94339 322.16ZM-2.20428 313.24L-1.20471 313.211C-1.3769 307.323 -1.02846 301.435 -0.159022 295.546L-1.1483 295.4L-2.13758 295.254C-3.02396 301.258 -3.37951 307.263 -3.20385 313.269L-2.20428 313.24ZM-1.1483 295.4L-0.159022 295.546L1.15784 286.626L0.168567 286.48L-0.82071 286.334L-2.13758 295.254L-1.1483 295.4ZM0.168567 286.48L1.15784 286.626L2.47471 277.706L1.48543 277.56L0.496156 277.414L-0.82071 286.334L0.168567 286.48ZM1.48543 277.56L2.47471 277.706C3.36316 271.688 3.592 265.668 3.16079 259.648L2.16335 259.72L1.16591 259.791C1.58663 265.665 1.36353 271.539 0.496156 277.414L1.48543 277.56ZM2.16335 259.72L3.16079 259.648L2.52184 250.729L1.5244 250.8L0.526955 250.871L1.16591 259.791L2.16335 259.72ZM1.5244 250.8L2.52184 250.729L1.88289 241.809L0.885448 241.88L-0.111996 241.951L0.526955 250.871L1.5244 250.8ZM0.885448 241.88L1.88289 241.809C1.45858 235.885 1.24071 229.961 1.22926 224.038L0.229266 224.04L-0.770732 224.042C-0.759199 230.012 -0.539616 235.982 -0.111996 241.951L0.885448 241.88ZM0.229266 224.04L1.22926 224.038L1.21203 215.118L0.212035 215.12L-0.787964 215.122L-0.770732 224.042L0.229266 224.04ZM0.212035 215.12L1.21203 215.118L1.1948 206.198L0.194803 206.2L-0.805195 206.202L-0.787964 215.122L0.212035 215.12ZM0.194803 206.2L1.1948 206.198C1.1833 200.245 1.11747 194.292 0.997309 188.34L-0.00248694 188.36L-1.00228 188.38C-0.882367 194.321 -0.816671 200.261 -0.805195 206.202L0.194803 206.2ZM-0.00248694 188.36L0.997309 188.34L0.817251 179.42L-0.182545 179.44L-1.18234 179.46L-1.00228 188.38L-0.00248694 188.36ZM-0.182545 179.44L0.817251 179.42L0.637192 170.5L-0.362604 170.52L-1.3624 170.54L-1.18234 179.46L-0.182545 179.44ZM-0.362604 170.52L0.637192 170.5C0.516967 164.544 0.314275 158.588 0.0291179 152.632L-0.969738 152.68L-1.96859 152.728C-1.68432 158.665 -1.48225 164.603 -1.3624 170.54L-0.362604 170.52ZM-0.969738 152.68L0.0291179 152.632L-0.397958 143.712L-1.39681 143.76L-2.39567 143.808L-1.96859 152.728L-0.969738 152.68ZM-1.39681 143.76L-0.397958 143.712L-0.825033 134.792L-1.82389 134.84L-2.82275 134.888L-2.39567 143.808L-1.39681 143.76ZM-1.82389 134.84L-0.825033 134.792C-1.10758 128.891 -0.988845 122.989 -0.468773 117.088L-1.46491 117L-2.46105 116.912C-2.98905 122.904 -3.10963 128.896 -2.82275 134.888L-1.82389 134.84ZM-1.46491 117L-0.468773 117.088L0.317279 108.168L-0.678861 108.08L-1.675 107.992L-2.46105 116.912L-1.46491 117ZM-0.678861 108.08L0.317279 108.168L1.10333 99.2478L0.107191 99.16L-0.888949 99.0722L-1.675 107.992L-0.678861 108.08ZM0.107191 99.16L1.10333 99.2478C1.63273 93.2402 1.61013 87.2322 1.03555 81.2248L0.0400927 81.32L-0.955365 81.4152C-0.392414 87.301 -0.370284 93.1865 -0.888949 99.0722L0.107191 99.16ZM0.0400927 81.32L1.03555 81.2248L0.1824 72.3047L-0.813057 72.3999L-1.80851 72.4952L-0.955365 81.4152L0.0400927 81.32ZM-0.813057 72.3999L0.1824 72.3047L-0.67075 63.3847L-1.66621 63.4799L-2.66166 63.5751L-1.80851 72.4952L-0.813057 72.3999ZM-1.66621 63.4799L-0.67075 63.3847C-1.23411 57.4945 -1.29408 51.6048 -0.850718 45.715L-1.8479 45.6399L-2.84508 45.5649C-3.29699 51.5683 -3.23584 57.5719 -2.66166 63.5751L-1.66621 63.4799ZM-1.8479 45.6399L-0.850718 45.715L-0.179258 36.795L-1.17644 36.72L-2.17362 36.6449L-2.84508 45.5649L-1.8479 45.6399ZM-1.17644 36.72L-0.179258 36.795L0.492203 27.8751L-0.504976 27.8L-1.50215 27.7249L-2.17362 36.6449L-1.17644 36.72ZM-0.504976 27.8L0.492203 27.8751C0.940158 21.9242 1.21434 17.3601 1.31311 14.1912L0.313594 14.16L-0.68592 14.1289C-0.783298 17.2532 -1.05483 21.7825 -1.50215 27.7249L-0.504976 27.8ZM0.313594 14.16L1.31311 14.1912L1.46022 9.47116L0.460705 9.44001L-0.53881 9.40886L-0.68592 14.1289L0.313594 14.16ZM0.460705 9.44001L1.46022 9.47116L1.60733 4.75116L0.607815 4.72L-0.3917 4.68885L-0.53881 9.40886L0.460705 9.44001ZM0.607815 4.72L1.60733 4.75116C1.65646 3.17487 1.67805 1.97858 1.67093 1.17118C1.6674 0.771843 1.65677 0.444371 1.63565 0.206559C1.62577 0.0953345 1.61006 -0.0409832 1.57856 -0.167626C1.56487 -0.222648 1.53209 -0.345151 1.45777 -0.475855C1.41551 -0.550173 1.15041 -1 0.566193 -1V0V1C-0.00229329 1 -0.252543 0.562465 -0.280822 0.51273C-0.341164 0.40661 -0.360847 0.320981 -0.362303 0.315126C-0.369344 0.286817 -0.364099 0.297999 -0.356513 0.383441C-0.342704 0.538963 -0.332412 0.801492 -0.328997 1.18882C-0.322243 1.95475 -0.342755 3.11847 -0.3917 4.68885L0.607815 4.72ZM0.566193 0V-1H0.377462V0V1H0.566193V0ZM0.377462 0V-1H0.188731V0V1H0.377462V0ZM0.188731 0V-1C0.193839 -1 0.207038 -0.999969 0.22423 -0.999317C0.232824 -0.998991 0.247954 -0.99831 0.266852 -0.996769C0.280516 -0.995654 0.32172 -0.992172 0.373737 -0.982178C0.401856 -0.976354 0.473062 -0.957759 0.5157 -0.943881C0.587996 -0.915335 0.787098 -0.79851 0.902134 -0.696982C1.07765 -0.450624 1.16928 0.175371 1.05433 0.493662C0.947193 0.646876 0.739157 0.83202 0.660224 0.879491C0.545097 0.941691 0.442674 0.965892 0.435594 0.967723C0.404627 0.975731 0.379944 0.980489 0.368615 0.982596C0.316237 0.992334 0.269888 0.995671 0.294028 0.993408C0.299625 0.992884 0.318951 0.991265 0.358757 0.988276C0.434301 0.982603 0.558022 0.973881 0.731811 0.96201C1.07834 0.938339 1.61496 0.902754 2.3424 0.855211C3.79689 0.760151 6.0106 0.617527 8.98384 0.42732L8.92 -0.57064L8.85616 -1.5686C5.88273 -1.37838 3.6679 -1.23568 2.21197 -1.14053C1.48419 -1.09297 0.945132 -1.05722 0.595511 -1.03334C0.421225 -1.02143 0.291753 -1.01232 0.208988 -1.00611C0.169639 -1.00315 0.13353 -1.00031 0.107414 -0.997866C0.100467 -0.997215 0.0905101 -0.996249 0.0794767 -0.99501C0.0775098 -0.994789 0.043364 -0.991206 0.00304623 -0.98371C-0.00878242 -0.981511 -0.0338721 -0.976666 -0.0651531 -0.968576C-0.0725473 -0.966664 -0.175192 -0.942388 -0.290449 -0.880118C-0.369446 -0.832612 -0.577523 -0.647435 -0.684678 -0.494189C-0.799641 -0.175866 -0.708012 0.450159 -0.532467 0.696546C-0.417403 0.798104 -0.21825 0.914956 -0.145879 0.943528C-0.103166 0.957433 -0.0318624 0.976052 -0.00362276 0.981899C0.0486357 0.99194 0.0901745 0.995463 0.104266 0.996612C0.12359 0.998188 0.13924 0.998898 0.148446 0.999247C0.166863 0.999945 0.181658 1 0.188731 1V0ZM8.92 -0.57064L8.98384 0.42732L17.9038 -0.143321L17.84 -1.14128L17.7762 -2.13924L8.85616 -1.5686L8.92 -0.57064Z" fill="black"/>
</g>
<defs>
<clipPath id="clip0_1844_1797">
<rect width="1210" height="1636" fill="white"/>
</clipPath>
</defs>
</svg>
