<svg width="40" height="40" viewBox="0 0 40 40" fill="none" xmlns="http://www.w3.org/2000/svg">
<path d="M27.9283 37.2084C27.9283 37.2084 19.6249 38.9896 14.2276 37.2084C8.83035 35.4271 8 32.7554 8 26.5212C8 20.2871 10.9062 19.3965 13.8124 18.0607C16.7186 16.7248 22.9462 18.0607 22.9462 18.0607L23.3614 5.14714C25.6864 -0.552636 28.7587 2.77223 30.0042 5.14714V20.1343C30.196 19.4366 30.5739 18.4385 31.2497 17.1701C32.9104 14.053 34.9863 15.8342 35.8166 18.0607C35.955 19.8418 36.1487 24.7401 35.8166 30.0836C35.4845 35.4272 30.4194 37.0599 27.9283 37.2084Z" fill="#D9D9D9"/>
<path d="M16.5965 37.6225L16.5104 38.115L16.5965 37.6225ZM18.1871 37.7899L18.2055 37.2903L18.1871 37.7899ZM19.7891 37.8487L19.8074 37.3491L19.7891 37.8487ZM21.3982 37.9018L21.3836 38.4016L21.3982 37.9018ZM23.0144 37.9491L23.029 37.4493L23.0144 37.9491ZM24.6264 37.881L24.5697 37.3842L24.6264 37.881ZM25.4303 37.7893L25.3736 37.2926L25.4303 37.7893ZM26.2342 37.6977L26.1776 37.2009L26.2342 37.6977ZM27.8125 37.3864L27.9489 37.8675L27.8125 37.3864ZM28.5869 37.1669L28.4505 36.6858L28.5869 37.1669ZM29.3613 36.9473L29.2249 36.4663L29.3613 36.9473ZM30.8188 36.3339L30.569 35.9007L30.8188 36.3339ZM32.185 35.5461L32.4347 35.9792L32.185 35.5461ZM33.453 34.6095L33.1129 34.2429L33.453 34.6095ZM34.6229 33.524L34.9629 33.8905L34.6229 33.524ZM35.3882 32.1899L34.9007 32.0788L35.3882 32.1899ZM35.5686 31.3986L36.0561 31.5097L35.5686 31.3986ZM35.749 30.6072L35.2615 30.4961L35.749 30.6072ZM35.9083 29.0094L35.4085 29.0225L35.9083 29.0094ZM35.8872 28.203L36.387 28.1899L35.8872 28.203ZM35.8499 25.7859L36.3499 25.7889L35.8499 25.7859ZM35.8597 24.1775L35.3597 24.1744L35.8597 24.1775ZM35.9486 22.5657L35.4513 22.514L35.9486 22.5657ZM36.1164 20.9505L36.6137 21.0022L36.1164 20.9505ZM35.6497 18.6661L35.1812 18.8408L35.6497 18.6661ZM35.3744 17.9277L35.8429 17.753L35.3744 17.9277ZM34.5004 16.755L34.2068 17.1597L34.5004 16.755ZM33.303 15.8863L33.5966 15.4816L33.303 15.8863ZM32.2727 16.1233L31.8522 15.8529L32.2727 16.1233ZM31.8411 16.7946L32.2617 17.065L31.8411 16.7946ZM31.4095 17.4659L30.989 17.1955L31.4095 17.4659ZM30.6667 18.3891L30.3521 18.0005L30.6667 18.3891ZM30.3555 18.641L30.67 19.0297L30.3555 18.641ZM30.0442 18.8929L29.7297 18.5043L30.0442 18.8929ZM29.7447 15.1198L30.2445 15.1327L29.7447 15.1198ZM29.7863 13.5098L29.2864 13.4969L29.7863 13.5098ZM29.9182 11.8998L29.4229 11.8315L29.9182 11.8998ZM30.1404 10.2898L30.6357 10.3582L30.1404 10.2898ZM30.1709 8.67983L29.6734 8.72964L30.1709 8.67983ZM29.6662 5.54026L30.1362 5.36971L29.6662 5.54026ZM29.4033 4.81569L28.9333 4.98625L29.4033 4.81569ZM29.1404 4.09112L28.6704 4.26168L29.1404 4.09112ZM28.1855 3.08355L28.3748 2.62076L28.1855 3.08355ZM27.4937 2.80054L27.3044 3.26332L27.4937 2.80054ZM26.8018 2.51753L26.9911 2.05475L26.8018 2.51753ZM25.5942 2.74936L25.9475 3.10319L25.5942 2.74936ZM25.0786 3.2642L25.4319 3.61803L25.0786 3.2642ZM24.563 3.77904L24.2097 3.42521L24.563 3.77904ZM23.6059 5.79021L23.1263 5.64872L23.6059 5.79021ZM23.1184 8.09049L23.6175 8.11907L23.1184 8.09049ZM23.0263 9.69836L22.5271 9.66978L23.0263 9.69836ZM22.9781 11.3076L22.4781 11.3063L22.9781 11.3076ZM22.9739 12.9183L23.4738 12.9197L22.9739 12.9183ZM23.0321 14.531L22.5335 14.5683L23.0321 14.531ZM23.0924 15.3384L22.5938 15.3757L23.0924 15.3384ZM23.1528 16.1458L23.6514 16.1085L23.1528 16.1458ZM22.6199 17.2034L22.4255 16.7427L22.6199 17.2034ZM21.4333 17.704L21.6276 18.1647L21.4333 17.704ZM20.0457 17.8146L19.9591 18.307L20.0457 17.8146ZM19.2515 17.6748L19.3382 17.1824L19.2515 17.6748ZM18.4572 17.535L18.3706 18.0274L18.4572 17.535ZM16.8552 17.4671L16.8995 17.9651L16.8552 17.4671ZM15.2395 17.6108L15.1952 17.1128L15.2395 17.6108ZM13.7158 18.0596L13.9487 18.502L13.7158 18.0596ZM12.284 18.8133L12.0511 18.3709L12.284 18.8133ZM11.0164 19.741L10.6631 19.3872L11.0164 19.741ZM9.91303 20.8427L10.2663 21.1965L9.91303 20.8427ZM9.03994 22.1184L9.49703 22.321L9.03994 22.1184ZM8.71855 22.8432L8.26147 22.6405L8.71855 22.8432ZM8.39716 23.5681L8.85425 23.7707L8.39716 23.5681ZM8.21796 29.114L7.72067 29.1659L8.21796 29.114ZM8.86134 33.0966L8.37102 33.1945L8.86134 33.0966ZM9.67437 34.3624L9.96599 33.9563L9.67437 34.3624ZM10.9825 35.3017L10.6909 35.7078L10.9825 35.3017ZM12.2786 36.1477L12.5315 35.7164L12.2786 36.1477ZM13.5628 36.9006L13.8157 36.4692L13.5628 36.9006ZM14.2106 37.2598L13.7358 37.1031L14.2106 37.2598ZM14.2219 37.2255L14.6968 37.3822L14.2219 37.2255ZM15.0172 37.3464L14.9311 37.8389L15.0172 37.3464ZM29.8815 20.8501L30.3743 20.9346L29.8815 20.8501ZM29.9053 20.9715L30.3431 21.2131L29.9053 20.9715ZM29.9699 20.8544L30.4077 21.0959L29.9699 20.8544ZM30.0346 20.7372L29.5968 20.4956L30.0346 20.7372ZM30.0287 20.4985L29.5964 20.7497L30.0287 20.4985ZM29.8877 20.2557L30.32 20.0045L29.8877 20.2557ZM29.9633 20.3729L29.4705 20.2884L29.9633 20.3729ZM15.8069 37.4844L15.7208 37.977L16.5104 38.115L16.5965 37.6225L16.6826 37.1299L15.893 36.9919L15.8069 37.4844ZM16.5965 37.6225L16.5104 38.115C17.0592 38.211 17.612 38.2691 18.1688 38.2896L18.1871 37.7899L18.2055 37.2903C17.6942 37.2715 17.1866 37.2181 16.6826 37.1299L16.5965 37.6225ZM18.1871 37.7899L18.1688 38.2896L18.9698 38.319L18.9881 37.8193L19.0064 37.3197L18.2055 37.2903L18.1871 37.7899ZM18.9881 37.8193L18.9698 38.319L19.7708 38.3484L19.7891 37.8487L19.8074 37.3491L19.0064 37.3197L18.9881 37.8193ZM19.7891 37.8487L19.7708 38.3484C20.306 38.3681 20.8436 38.3858 21.3836 38.4016L21.3982 37.9018L21.4128 37.402C20.8753 37.3863 20.3402 37.3686 19.8074 37.3491L19.7891 37.8487ZM21.3982 37.9018L21.3836 38.4016L22.1917 38.4252L22.2063 37.9254L22.2209 37.4256L21.4128 37.402L21.3982 37.9018ZM22.2063 37.9254L22.1917 38.4252L22.9998 38.4489L23.0144 37.9491L23.029 37.4493L22.2209 37.4256L22.2063 37.9254ZM23.0144 37.9491L22.9998 38.4489C23.5623 38.4653 24.1235 38.4416 24.683 38.3778L24.6264 37.881L24.5697 37.3842C24.0574 37.4427 23.5439 37.4643 23.029 37.4493L23.0144 37.9491ZM24.6264 37.881L24.683 38.3778L25.487 38.2861L25.4303 37.7893L25.3736 37.2926L24.5697 37.3842L24.6264 37.881ZM25.4303 37.7893L25.487 38.2861L26.2909 38.1944L26.2342 37.6977L26.1776 37.2009L25.3736 37.2926L25.4303 37.7893ZM26.2342 37.6977L26.2909 38.1944C26.8536 38.1303 27.4064 38.0213 27.9489 37.8675L27.8125 37.3864L27.6761 36.9054C27.1861 37.0443 26.6867 37.1428 26.1776 37.2009L26.2342 37.6977ZM27.8125 37.3864L27.9489 37.8675L28.7233 37.6479L28.5869 37.1669L28.4505 36.6858L27.6761 36.9054L27.8125 37.3864ZM28.5869 37.1669L28.7233 37.6479L29.4977 37.4284L29.3613 36.9473L29.2249 36.4663L28.4505 36.6858L28.5869 37.1669ZM29.3613 36.9473L29.4977 37.4284C30.0527 37.271 30.5767 37.0506 31.0685 36.767L30.8188 36.3339L30.569 35.9007C30.15 36.1423 29.7024 36.3309 29.2249 36.4663L29.3613 36.9473ZM30.8188 36.3339L31.0685 36.767L31.7516 36.3731L31.5019 35.94L31.2521 35.5068L30.569 35.9007L30.8188 36.3339ZM31.5019 35.94L31.7516 36.3731L32.4347 35.9792L32.185 35.5461L31.9352 35.1129L31.2521 35.5068L31.5019 35.94ZM32.185 35.5461L32.4347 35.9792C32.923 35.6977 33.3759 35.363 33.7931 34.976L33.453 34.6095L33.1129 34.2429C32.7501 34.5795 32.3577 34.8693 31.9352 35.1129L32.185 35.5461ZM33.453 34.6095L33.7931 34.976L34.378 34.4333L34.0379 34.0667L33.6978 33.7002L33.1129 34.2429L33.453 34.6095ZM34.0379 34.0667L34.378 34.4333L34.9629 33.8905L34.6229 33.524L34.2828 33.1575L33.6978 33.7002L34.0379 34.0667ZM34.6229 33.524L34.9629 33.8905C35.4279 33.4591 35.7335 32.9249 35.8757 32.3011L35.3882 32.1899L34.9007 32.0788C34.8024 32.5101 34.5977 32.8653 34.2828 33.1575L34.6229 33.524ZM35.3882 32.1899L35.8757 32.3011L36.0561 31.5097L35.5686 31.3986L35.0811 31.2874L34.9007 32.0788L35.3882 32.1899ZM35.5686 31.3986L36.0561 31.5097L36.2365 30.7184L35.749 30.6072L35.2615 30.4961L35.0811 31.2874L35.5686 31.3986ZM35.749 30.6072L36.2365 30.7184C36.366 30.1503 36.4233 29.576 36.4081 28.9963L35.9083 29.0094L35.4085 29.0225C35.4214 29.5181 35.3726 30.009 35.2615 30.4961L35.749 30.6072ZM35.9083 29.0094L36.4081 28.9963L36.387 28.1899L35.8872 28.203L35.3874 28.216L35.4085 29.0225L35.9083 29.0094ZM35.8872 28.203L36.387 28.1899L36.3659 27.3834L35.8661 27.3965L35.3662 27.4096L35.3874 28.216L35.8872 28.203ZM35.8661 27.3965L36.3659 27.3834C36.352 26.8511 36.3466 26.3196 36.3499 25.7889L35.8499 25.7859L35.3499 25.7828C35.3466 26.3243 35.352 26.8666 35.3662 27.4096L35.8661 27.3965ZM35.8499 25.7859L36.3499 25.7889L36.3548 24.9847L35.8548 24.9817L35.3548 24.9786L35.3499 25.7828L35.8499 25.7859ZM35.8548 24.9817L36.3548 24.9847L36.3597 24.1806L35.8597 24.1775L35.3597 24.1744L35.3548 24.9786L35.8548 24.9817ZM35.8597 24.1775L36.3597 24.1806C36.3629 23.6609 36.3916 23.1398 36.4459 22.6174L35.9486 22.5657L35.4513 22.514C35.3937 23.0685 35.3631 23.6219 35.3597 24.1744L35.8597 24.1775ZM35.9486 22.5657L36.4459 22.6174L36.5298 21.8098L36.0325 21.7581L35.5352 21.7064L35.4513 22.514L35.9486 22.5657ZM36.0325 21.7581L36.5298 21.8098L36.6137 21.0022L36.1164 20.9505L35.6191 20.8988L35.5352 21.7064L36.0325 21.7581ZM36.1164 20.9505L36.6137 21.0022C36.6774 20.3895 36.6048 19.7965 36.3935 19.2298L35.925 19.4045L35.4565 19.5791C35.6123 19.997 35.6673 20.4347 35.6191 20.8988L36.1164 20.9505ZM35.925 19.4045L36.3935 19.2298L36.1182 18.4914L35.6497 18.6661L35.1812 18.8408L35.4565 19.5791L35.925 19.4045ZM35.6497 18.6661L36.1182 18.4914L35.8429 17.753L35.3744 17.9277L34.9059 18.1024L35.1812 18.8408L35.6497 18.6661ZM35.3744 17.9277L35.8429 17.753C35.6274 17.1749 35.2781 16.7014 34.794 16.3502L34.5004 16.755L34.2068 17.1597C34.521 17.3876 34.7544 17.696 34.9059 18.1024L35.3744 17.9277ZM34.5004 16.755L34.794 16.3502L34.1953 15.9159L33.9017 16.3206L33.6081 16.7253L34.2068 17.1597L34.5004 16.755ZM33.9017 16.3206L34.1953 15.9159L33.5966 15.4816L33.303 15.8863L33.0094 16.291L33.6081 16.7253L33.9017 16.3206ZM33.303 15.8863L33.5966 15.4816C33.3286 15.2871 32.9959 15.1578 32.634 15.2411C32.2832 15.3218 32.0313 15.5743 31.8522 15.8529L32.2727 16.1233L32.6933 16.3937C32.7454 16.3126 32.7889 16.266 32.8193 16.2407C32.8339 16.2284 32.8444 16.2221 32.8504 16.219C32.8534 16.2174 32.8554 16.2166 32.8566 16.2162C32.8572 16.216 32.8576 16.2158 32.8578 16.2157C32.8581 16.2157 32.8582 16.2156 32.8582 16.2156C32.8582 16.2156 32.8582 16.2156 32.8581 16.2157C32.858 16.2157 32.858 16.2157 32.8579 16.2157C32.8578 16.2157 32.8582 16.2156 32.8591 16.2157C32.8608 16.2157 32.8668 16.2161 32.8777 16.2193C32.9008 16.2258 32.9446 16.244 33.0094 16.291L33.303 15.8863ZM32.2727 16.1233L31.8522 15.8529L31.4206 16.5242L31.8411 16.7946L32.2617 17.065L32.6933 16.3937L32.2727 16.1233ZM31.8411 16.7946L31.4206 16.5242L30.989 17.1955L31.4095 17.4659L31.8301 17.7363L32.2617 17.065L31.8411 16.7946ZM31.4095 17.4659L30.989 17.1955C30.7074 17.6336 30.4949 17.885 30.3521 18.0005L30.6667 18.3891L30.9813 18.7778C31.2535 18.5575 31.5363 18.1934 31.8301 17.7363L31.4095 17.4659ZM30.6667 18.3891L30.3521 18.0005L30.0409 18.2524L30.3555 18.641L30.67 19.0297L30.9813 18.7778L30.6667 18.3891ZM30.3555 18.641L30.0409 18.2524L29.7297 18.5043L30.0442 18.8929L30.3588 19.2816L30.67 19.0297L30.3555 18.641ZM30.0442 18.8929L29.7297 18.5043C29.7111 18.5193 29.7879 18.4458 29.9342 18.4535C30.0163 18.4578 30.092 18.4872 30.1515 18.5312C30.206 18.5715 30.2339 18.6141 30.2452 18.634C30.2639 18.667 30.2556 18.6701 30.2458 18.6035C30.2372 18.5452 30.231 18.4587 30.2307 18.3384L29.7307 18.3398L29.2307 18.3412C29.2311 18.4892 29.2385 18.6271 29.2565 18.749C29.2732 18.8627 29.3043 19.002 29.3752 19.1272C29.4522 19.263 29.6142 19.438 29.8816 19.4521C30.1059 19.464 30.2736 19.3506 30.3588 19.2816L30.0442 18.8929ZM29.7307 18.3398L30.2307 18.3384L30.2284 17.5334L29.7284 17.5348L29.2284 17.5362L29.2307 18.3412L29.7307 18.3398ZM29.7284 17.5348L30.2284 17.5334L30.2261 16.7284L29.7261 16.7298L29.2261 16.7312L29.2284 17.5362L29.7284 17.5348ZM29.7261 16.7298L30.2261 16.7284C30.2246 16.1965 30.2307 15.6646 30.2445 15.1327L29.7447 15.1198L29.2448 15.1069C29.2308 15.6484 29.2246 16.1898 29.2261 16.7312L29.7261 16.7298ZM29.7447 15.1198L30.2445 15.1327L30.2653 14.3277L29.7655 14.3148L29.2656 14.3019L29.2448 15.1069L29.7447 15.1198ZM29.7655 14.3148L30.2653 14.3277L30.2861 13.5227L29.7863 13.5098L29.2864 13.4969L29.2656 14.3019L29.7655 14.3148ZM29.7863 13.5098L30.2861 13.5227C30.2995 13.0048 30.3419 12.4866 30.4135 11.9682L29.9182 11.8998L29.4229 11.8315C29.3463 12.3864 29.3008 12.9415 29.2864 13.4969L29.7863 13.5098ZM29.9182 11.8998L30.4135 11.9682L30.5246 11.1632L30.0293 11.0948L29.534 11.0265L29.4229 11.8315L29.9182 11.8998ZM30.0293 11.0948L30.5246 11.1632L30.6357 10.3582L30.1404 10.2898L29.6451 10.2215L29.534 11.0265L30.0293 11.0948ZM30.1404 10.2898L30.6357 10.3582C30.7151 9.78254 30.7261 9.20621 30.6684 8.63003L30.1709 8.67983L29.6734 8.72964C29.7232 9.22679 29.7138 9.72379 29.6451 10.2215L30.1404 10.2898ZM30.1709 8.67983L30.6684 8.63003L30.5878 7.82503L30.0903 7.87483L29.5928 7.92464L29.6734 8.72964L30.1709 8.67983ZM30.0903 7.87483L30.5878 7.82503L30.5072 7.02003L30.0097 7.06983L29.5122 7.11964L29.5928 7.92464L30.0903 7.87483ZM30.0097 7.06983L30.5072 7.02003C30.4496 6.44417 30.3263 5.89359 30.1362 5.36971L29.6662 5.54026L29.1962 5.71082C29.3567 6.15303 29.4624 6.62216 29.5122 7.11964L30.0097 7.06983ZM29.6662 5.54026L30.1362 5.36971L29.8733 4.64514L29.4033 4.81569L28.9333 4.98625L29.1962 5.71082L29.6662 5.54026ZM29.4033 4.81569L29.8733 4.64514L29.6104 3.92057L29.1404 4.09112L28.6704 4.26168L28.9333 4.98625L29.4033 4.81569ZM29.1404 4.09112L29.6104 3.92057C29.3887 3.30955 28.9713 2.86472 28.3748 2.62076L28.1855 3.08355L27.9963 3.54633C28.3223 3.67971 28.5415 3.9066 28.6704 4.26168L29.1404 4.09112ZM28.1855 3.08355L28.3748 2.62076L27.6829 2.33776L27.4937 2.80054L27.3044 3.26332L27.9963 3.54633L28.1855 3.08355ZM27.4937 2.80054L27.6829 2.33776L26.9911 2.05475L26.8018 2.51753L26.6125 2.98032L27.3044 3.26332L27.4937 2.80054ZM26.8018 2.51753L26.9911 2.05475C26.6902 1.93169 26.375 1.88242 26.0597 1.94296C25.7433 2.0037 25.4702 2.16668 25.241 2.39554L25.5942 2.74936L25.9475 3.10319C26.0621 2.98882 26.1621 2.94155 26.2482 2.92502C26.3354 2.90828 26.4521 2.91471 26.6125 2.98032L26.8018 2.51753ZM25.5942 2.74936L25.241 2.39554L24.7253 2.91037L25.0786 3.2642L25.4319 3.61803L25.9475 3.10319L25.5942 2.74936ZM25.0786 3.2642L24.7253 2.91037L24.2097 3.42521L24.563 3.77904L24.9163 4.13286L25.4319 3.61803L25.0786 3.2642ZM24.563 3.77904L24.2097 3.42521C23.8026 3.83169 23.5162 4.32738 23.3471 4.90055L23.8266 5.04204L24.3062 5.18353C24.4314 4.75915 24.6359 4.41284 24.9163 4.13286L24.563 3.77904ZM23.8266 5.04204L23.3471 4.90055L23.1263 5.64872L23.6059 5.79021L24.0854 5.9317L24.3062 5.18353L23.8266 5.04204ZM23.6059 5.79021L23.1263 5.64872L22.9056 6.39689L23.3851 6.53838L23.8647 6.67987L24.0854 5.9317L23.6059 5.79021ZM23.3851 6.53838L22.9056 6.39689C22.7472 6.9336 22.652 7.48892 22.6192 8.06191L23.1184 8.09049L23.6175 8.11907C23.6461 7.62014 23.7287 7.14072 23.8647 6.67987L23.3851 6.53838ZM23.1184 8.09049L22.6192 8.06191L22.5732 8.86584L23.0723 8.89442L23.5715 8.923L23.6175 8.11907L23.1184 8.09049ZM23.0723 8.89442L22.5732 8.86584L22.5271 9.66978L23.0263 9.69836L23.5255 9.72694L23.5715 8.923L23.0723 8.89442ZM23.0263 9.69836L22.5271 9.66978C22.4959 10.2148 22.4796 10.7603 22.4781 11.3063L22.9781 11.3076L23.4781 11.309C23.4795 10.7812 23.4953 10.2538 23.5255 9.72694L23.0263 9.69836ZM22.9781 11.3076L22.4781 11.3063L22.476 12.1117L22.976 12.113L23.476 12.1143L23.4781 11.309L22.9781 11.3076ZM22.976 12.113L22.476 12.1117L22.4739 12.917L22.9739 12.9183L23.4738 12.9197L23.476 12.1143L22.976 12.113ZM22.9739 12.9183L22.4739 12.917C22.4724 13.4669 22.4923 14.0173 22.5335 14.5683L23.0321 14.531L23.5307 14.4938C23.4914 13.9683 23.4725 13.4436 23.4738 12.9197L22.9739 12.9183ZM23.0321 14.531L22.5335 14.5683L22.5938 15.3757L23.0924 15.3384L23.591 15.3011L23.5307 14.4938L23.0321 14.531ZM23.0924 15.3384L22.5938 15.3757L22.6542 16.183L23.1528 16.1458L23.6514 16.1085L23.591 15.3011L23.0924 15.3384ZM23.1528 16.1458L22.6542 16.183C22.6699 16.3936 22.6388 16.5182 22.6032 16.5889C22.5726 16.6496 22.5242 16.7011 22.4255 16.7427L22.6199 17.2034L22.8142 17.6641C23.1111 17.5389 23.3492 17.3307 23.4963 17.0388C23.6383 16.757 23.6759 16.4362 23.6514 16.1085L23.1528 16.1458ZM22.6199 17.2034L22.4255 16.7427L21.8322 16.993L22.0266 17.4537L22.2209 17.9144L22.8142 17.6641L22.6199 17.2034ZM22.0266 17.4537L21.8322 16.993L21.2389 17.2434L21.4333 17.704L21.6276 18.1647L22.2209 17.9144L22.0266 17.4537ZM21.4333 17.704L21.2389 17.2434C20.952 17.3644 20.591 17.4028 20.1324 17.3221L20.0457 17.8146L19.9591 18.307C20.5595 18.4127 21.1235 18.3774 21.6276 18.1647L21.4333 17.704ZM20.0457 17.8146L20.1324 17.3221L19.3382 17.1824L19.2515 17.6748L19.1648 18.1672L19.9591 18.307L20.0457 17.8146ZM19.2515 17.6748L19.3382 17.1824L18.5439 17.0426L18.4572 17.535L18.3706 18.0274L19.1648 18.1672L19.2515 17.6748ZM18.4572 17.535L18.5439 17.0426C17.9709 16.9417 17.3929 16.9173 16.8109 16.9691L16.8552 17.4671L16.8995 17.9651C17.3946 17.9211 17.8846 17.9419 18.3706 18.0274L18.4572 17.535ZM16.8552 17.4671L16.8109 16.9691L16.003 17.0409L16.0474 17.539L16.0917 18.037L16.8995 17.9651L16.8552 17.4671ZM16.0474 17.539L16.003 17.0409L15.1952 17.1128L15.2395 17.6108L15.2838 18.1089L16.0917 18.037L16.0474 17.539ZM15.2395 17.6108L15.1952 17.1128C14.5909 17.1666 14.0189 17.335 13.4829 17.6171L13.7158 18.0596L13.9487 18.502C14.3673 18.2817 14.8111 18.1509 15.2838 18.1089L15.2395 17.6108ZM13.7158 18.0596L13.4829 17.6171L12.767 17.994L12.9999 18.4364L13.2328 18.8789L13.9487 18.502L13.7158 18.0596ZM12.9999 18.4364L12.767 17.994L12.0511 18.3709L12.284 18.8133L12.5169 19.2557L13.2328 18.8789L12.9999 18.4364ZM12.284 18.8133L12.0511 18.3709C11.5312 18.6446 11.0677 18.9832 10.6631 19.3872L11.0164 19.741L11.3697 20.0948C11.7007 19.7643 12.0823 19.4845 12.5169 19.2557L12.284 18.8133ZM11.0164 19.741L10.6631 19.3872L10.1114 19.938L10.4647 20.2918L10.818 20.6457L11.3697 20.0948L11.0164 19.741ZM10.4647 20.2918L10.1114 19.938L9.55975 20.4889L9.91303 20.8427L10.2663 21.1965L10.818 20.6457L10.4647 20.2918ZM9.91303 20.8427L9.55975 20.4889C9.14757 20.9004 8.82167 21.3771 8.58286 21.9157L9.03994 22.1184L9.49703 22.321C9.68673 21.8932 9.94288 21.5194 10.2663 21.1965L9.91303 20.8427ZM9.03994 22.1184L8.58286 21.9157L8.26147 22.6405L8.71855 22.8432L9.17564 23.0459L9.49703 22.321L9.03994 22.1184ZM8.71855 22.8432L8.26147 22.6405L7.94008 23.3654L8.39716 23.5681L8.85425 23.7707L9.17564 23.0459L8.71855 22.8432ZM8.39716 23.5681L7.94008 23.3654C7.69754 23.9124 7.57427 24.4908 7.56973 25.0959L8.06971 25.0997L8.5697 25.1034C8.57323 24.6329 8.66827 24.1902 8.85425 23.7707L8.39716 23.5681ZM8.06971 25.0997L7.56973 25.0959L7.56366 25.9027L8.06365 25.9064L8.56363 25.9102L8.5697 25.1034L8.06971 25.0997ZM8.06365 25.9064L7.56366 25.9027L7.5576 26.7095L8.05758 26.7132L8.55757 26.717L8.56363 25.9102L8.06365 25.9064ZM8.05758 26.7132L7.5576 26.7095C7.55342 27.2658 7.58002 27.819 7.63745 28.3689L8.13474 28.317L8.63204 28.265C8.5785 27.7523 8.55367 27.2363 8.55757 26.717L8.05758 26.7132ZM8.13474 28.317L7.63745 28.3689L7.72067 29.1659L8.21796 29.114L8.71526 29.062L8.63204 28.265L8.13474 28.317ZM8.21796 29.114L7.72067 29.1659L7.80389 29.9629L8.30119 29.911L8.79848 29.859L8.71526 29.062L8.21796 29.114ZM8.30119 29.911L7.80389 29.9629C7.861 30.5099 7.94408 31.0563 8.05306 31.6021L8.54338 31.5042L9.03371 31.4063C8.93072 30.8905 8.85233 30.3747 8.79848 29.859L8.30119 29.911ZM8.54338 31.5042L8.05306 31.6021L8.21204 32.3983L8.70236 32.3004L9.19268 32.2025L9.03371 31.4063L8.54338 31.5042ZM8.70236 32.3004L8.21204 32.3983L8.37102 33.1945L8.86134 33.0966L9.35166 32.9987L9.19268 32.2025L8.70236 32.3004ZM8.86134 33.0966L8.37102 33.1945C8.50157 33.8484 8.84287 34.3809 9.38274 34.7686L9.67437 34.3624L9.96599 33.9563C9.63379 33.7178 9.43308 33.4065 9.35166 32.9987L8.86134 33.0966ZM9.67437 34.3624L9.38274 34.7686L10.0368 35.2382L10.3284 34.8321L10.62 34.4259L9.96599 33.9563L9.67437 34.3624ZM10.3284 34.8321L10.0368 35.2382L10.6909 35.7078L10.9825 35.3017L11.2741 34.8956L10.62 34.4259L10.3284 34.8321ZM10.9825 35.3017L10.6909 35.7078C11.1384 36.0292 11.5834 36.3197 12.0258 36.5791L12.2786 36.1477L12.5315 35.7164C12.1178 35.4739 11.6986 35.2004 11.2741 34.8956L10.9825 35.3017ZM12.2786 36.1477L12.0258 36.5791L12.6679 36.9555L12.9207 36.5242L13.1736 36.0928L12.5315 35.7164L12.2786 36.1477ZM12.9207 36.5242L12.6679 36.9555L13.31 37.3319L13.5628 36.9006L13.8157 36.4692L13.1736 36.0928L12.9207 36.5242ZM13.5628 36.9006L13.31 37.3319C13.5248 37.4578 13.69 37.553 13.8033 37.6158C13.8588 37.6466 13.9082 37.6732 13.9469 37.6923C13.9637 37.7005 13.9922 37.7143 14.0233 37.726C14.0339 37.73 14.0743 37.7453 14.1266 37.7538C14.1479 37.7573 14.2168 37.7681 14.303 37.7517C14.3946 37.7343 14.6051 37.66 14.6854 37.4165L14.2106 37.2598L13.7358 37.1031C13.8159 36.8604 14.0258 36.7865 14.1163 36.7693C14.2014 36.7531 14.2689 36.7638 14.2883 36.767C14.3368 36.7749 14.3717 36.7886 14.3752 36.7899C14.3921 36.7963 14.3997 36.8006 14.3891 36.7953C14.3729 36.7874 14.3408 36.7704 14.2883 36.7413C14.1858 36.6845 14.029 36.5942 13.8157 36.4692L13.5628 36.9006ZM14.2106 37.2598L14.6854 37.4165L14.6911 37.3994L14.2163 37.2427L13.7415 37.086L13.7358 37.1031L14.2106 37.2598ZM14.2163 37.2427L14.6911 37.3994L14.6968 37.3822L14.2219 37.2255L13.7471 37.0688L13.7415 37.086L14.2163 37.2427ZM14.2219 37.2255L14.6968 37.3822C14.6598 37.4941 14.5923 37.5681 14.5399 37.6112C14.4891 37.653 14.4409 37.6757 14.4119 37.6875C14.356 37.7104 14.3093 37.7172 14.2933 37.7194C14.2561 37.7245 14.2281 37.7236 14.2248 37.7235C14.2115 37.7232 14.2071 37.7223 14.2204 37.7238C14.2427 37.7262 14.2839 37.7317 14.3485 37.7415C14.4753 37.7608 14.6687 37.7931 14.9311 37.8389L15.0172 37.3464L15.1033 36.8539C14.8393 36.8077 14.637 36.7738 14.4987 36.7528C14.4308 36.7425 14.372 36.7343 14.3271 36.7295C14.3068 36.7273 14.277 36.7244 14.2464 36.7238C14.2344 36.7235 14.1999 36.7229 14.1581 36.7286C14.1399 36.7311 14.0914 36.7383 14.0342 36.7616C13.9998 36.7756 13.819 36.8511 13.7471 37.0688L14.2219 37.2255ZM15.0172 37.3464L14.9311 37.8389L15.7208 37.977L15.8069 37.4844L15.893 36.9919L15.1033 36.8539L15.0172 37.3464ZM29.9224 20.6115L29.4296 20.5271L29.3887 20.7657L29.8815 20.8501L30.3743 20.9346L30.4152 20.6959L29.9224 20.6115ZM29.8815 20.8501L29.3887 20.7657C29.3809 20.8112 29.3741 20.8569 29.37 20.899C29.3677 20.9229 29.3588 21.0064 29.3763 21.0958C29.3817 21.1232 29.3929 21.1697 29.4182 21.2225C29.4426 21.2733 29.4954 21.3614 29.5999 21.4291C29.8708 21.6045 30.1192 21.4525 30.1765 21.4102C30.2451 21.3596 30.2858 21.3027 30.2989 21.2841C30.3179 21.2574 30.3327 21.2319 30.3431 21.2131L29.9053 20.9715L29.4675 20.73C29.4677 20.7296 29.4689 20.7275 29.471 20.724C29.4731 20.7206 29.477 20.7145 29.4826 20.7065C29.4872 20.7 29.5205 20.6515 29.5827 20.6056C29.6336 20.568 29.8766 20.417 30.1434 20.5897C30.2458 20.656 30.2968 20.7419 30.3196 20.7895C30.3435 20.8391 30.3534 20.8815 30.3577 20.9037C30.3713 20.9729 30.3628 21.0214 30.3654 20.9954C30.3661 20.9876 30.3685 20.9686 30.3743 20.9346L29.8815 20.8501ZM29.9053 20.9715L30.3431 21.2131L30.4077 21.0959L29.9699 20.8544L29.5322 20.6128L29.4675 20.73L29.9053 20.9715ZM29.9699 20.8544L30.4077 21.0959L30.4724 20.9787L30.0346 20.7372L29.5968 20.4956L29.5322 20.6128L29.9699 20.8544ZM30.0346 20.7372L30.4724 20.9787C30.6053 20.7378 30.591 20.4711 30.4611 20.2474L30.0287 20.4985L29.5964 20.7497C29.5851 20.7303 29.567 20.6892 29.5656 20.6312C29.5642 20.572 29.5809 20.5245 29.5968 20.4956L30.0346 20.7372ZM30.0287 20.4985L30.4611 20.2474L30.3905 20.126L29.9582 20.3771L29.5258 20.6282L29.5964 20.7497L30.0287 20.4985ZM29.9582 20.3771L30.3905 20.126L30.32 20.0045L29.8877 20.2557L29.4553 20.5068L29.5258 20.6282L29.9582 20.3771ZM29.8877 20.2557L30.32 20.0045C30.298 19.9667 30.3236 19.9994 30.3371 20.0686C30.3423 20.0948 30.3699 20.2368 30.2814 20.3909C30.1656 20.5925 29.9667 20.6343 29.8639 20.6343V20.1343V19.6343C29.7455 19.6343 29.5359 19.6811 29.4143 19.8928C29.32 20.057 29.3467 20.2142 29.3558 20.2607C29.3772 20.3703 29.4303 20.4637 29.4553 20.5068L29.8877 20.2557ZM29.8639 20.1343V20.6343H29.9107V20.1343V19.6343H29.8639V20.1343ZM29.9107 20.1343V20.6343H29.9574V20.1343V19.6343H29.9107V20.1343ZM29.9574 20.1343V20.6343C29.8448 20.6343 29.7349 20.5948 29.6477 20.5222C29.5695 20.457 29.5314 20.3837 29.5138 20.3414C29.4956 20.2979 29.4888 20.2622 29.4861 20.2445C29.4831 20.2252 29.4826 20.2115 29.4824 20.2062C29.4822 20.1952 29.483 20.2153 29.4705 20.2884L29.9633 20.3729L30.4561 20.4573C30.4708 20.3714 30.4844 20.2722 30.4821 20.1816C30.4812 20.1432 30.4772 20.0536 30.4369 19.9569C30.3905 19.8455 30.2454 19.6343 29.9574 19.6343V20.1343ZM29.9633 20.3729L29.4705 20.2884L29.4296 20.5271L29.9224 20.6115L30.4152 20.6959L30.4561 20.4573L29.9633 20.3729Z" fill="black"/>
<path d="M19 17.5C19 17.2239 18.7761 17 18.5 17C18.2239 17 18 17.2239 18 17.5H18.5H19ZM18.5 17.6L18.9995 17.6234L19 17.6117V17.6H18.5ZM18.6301 26L18.3254 26.3964L18.4601 26.5H18.6301V26ZM18.5 25.9L18.8047 25.5036L18 24.885V25.9H18.5ZM18 26C18 26.2761 18.2239 26.5 18.5 26.5C18.7761 26.5 19 26.2761 19 26H18.5H18ZM18.5 17.5H18V17.6H18.5H19V17.5H18.5ZM18.5 17.6L18.0005 17.5766L17.9274 19.1366L18.4269 19.16L18.9263 19.1834L18.9995 17.6234L18.5 17.6ZM18.4269 19.16L17.9274 19.1366C17.8786 20.1786 17.8537 20.9763 17.8538 21.525L18.3538 21.525L18.8538 21.525C18.8537 21.0003 18.8777 20.2214 18.9263 19.1834L18.4269 19.16ZM18.3538 21.525L17.8538 21.525L17.8538 22.33L18.3538 22.33L18.8538 22.33L18.8538 21.525L18.3538 21.525ZM18.3538 22.33L17.8538 22.33L17.8538 23.135L18.3538 23.135L18.8538 23.135L18.8538 22.33L18.3538 22.33ZM18.3538 23.135L17.8538 23.135C17.8539 23.6889 17.8885 24.1645 17.9649 24.5518L18.4555 24.455L18.946 24.3582C18.887 24.0589 18.8539 23.6544 18.8538 23.135L18.3538 23.135ZM18.4555 24.455L17.9649 24.5518L18.0665 25.0668L18.557 24.97L19.0476 24.8732L18.946 24.3582L18.4555 24.455ZM18.557 24.97L18.0665 25.0668L18.1681 25.5818L18.6586 25.485L19.1491 25.3882L19.0476 24.8732L18.557 24.97ZM18.6586 25.485L18.1681 25.5818C18.2011 25.7494 18.216 25.8531 18.2198 25.9066C18.2221 25.9399 18.2176 25.9209 18.2253 25.8784C18.2286 25.8605 18.2421 25.7882 18.2966 25.7089C18.3268 25.665 18.3753 25.6105 18.4488 25.5672C18.5255 25.522 18.611 25.5 18.6951 25.5V26V26.5C18.8997 26.5 19.0454 26.3851 19.1209 26.275C19.1828 26.1849 19.202 26.0966 19.2092 26.0572C19.2247 25.9718 19.221 25.8884 19.2173 25.8359C19.2089 25.7178 19.1838 25.564 19.1491 25.3882L18.6586 25.485ZM18.6951 26V25.5H18.6301V26V26.5H18.6951V26ZM18.6301 26L18.9348 25.6036L18.8047 25.5036L18.5 25.9L18.1953 26.2964L18.3254 26.3964L18.6301 26ZM18.5 25.9H18V26H18.5H19V25.9H18.5Z" fill="black"/>
<path d="M12.5 19C12.5 18.7239 12.2761 18.5 12 18.5C11.7239 18.5 11.5 18.7239 11.5 19H12H12.5ZM12 19.1L12.4993 19.1267L12.5 19.1134V19.1H12ZM11.9278 20.45L11.4285 20.4233L11.9278 20.45ZM12.0403 26L11.5765 26.1869L11.7027 26.5H12.0403V26ZM12 25.9L12.4638 25.7131L11.5 25.9H12ZM11.5 26C11.5 26.2761 11.7239 26.5 12 26.5C12.2761 26.5 12.5 26.2761 12.5 26H12H11.5ZM12 19H11.5V19.1H12H12.5V19H12ZM12 19.1L11.5007 19.0733L11.4285 20.4233L11.9278 20.45L12.4271 20.4767L12.4993 19.1267L12 19.1ZM11.9278 20.45L11.4285 20.4233C11.3801 21.328 11.3673 22.0328 11.3938 22.5268L11.8931 22.5L12.3924 22.4732C12.3688 22.0339 12.3791 21.372 12.4271 20.4767L11.9278 20.45ZM11.8931 22.5L11.3938 22.5268L11.4314 23.2268L11.9307 23.2L12.43 23.1732L12.3924 22.4732L11.8931 22.5ZM11.9307 23.2L11.4314 23.2268L11.469 23.9268L11.9683 23.9L12.4675 23.8732L12.43 23.1732L11.9307 23.2ZM11.9683 23.9L11.469 23.9268C11.494 24.3935 11.5128 24.7434 11.5252 24.9767L12.0245 24.95L12.5238 24.9233C12.5113 24.6899 12.4926 24.3399 12.4675 23.8732L11.9683 23.9ZM12.0245 24.95L11.5252 24.9767L11.5439 25.3267L12.0432 25.3L12.5425 25.2733L12.5238 24.9233L12.0245 24.95ZM12.0432 25.3L11.5439 25.3267L11.5626 25.6767L12.0619 25.65L12.5612 25.6233L12.5425 25.2733L12.0432 25.3ZM12.0619 25.65L11.5626 25.6767C11.5687 25.7912 11.5711 25.867 11.5709 25.9104C11.5708 25.9352 11.5698 25.9338 11.5716 25.9189C11.5719 25.9162 11.5758 25.8783 11.5929 25.8296C11.6006 25.8075 11.6229 25.7473 11.6743 25.6839C11.7288 25.6166 11.8571 25.5 12.0604 25.5V26V26.5C12.2655 26.5 12.3953 26.3825 12.4513 26.3133C12.5042 26.2481 12.5279 26.1852 12.5369 26.1595C12.5565 26.1035 12.5625 26.0546 12.5646 26.0373C12.5698 25.9933 12.5707 25.9481 12.5709 25.9146C12.5712 25.8413 12.5675 25.7421 12.5612 25.6233L12.0619 25.65ZM12.0604 26V25.5H12.0403V26V26.5H12.0604V26ZM12.0403 26L12.5041 25.8131L12.4638 25.7131L12 25.9L11.5362 26.0869L11.5765 26.1869L12.0403 26ZM12 25.9H11.5V26H12H12.5V25.9H12Z" fill="black"/>
</svg>
